<svg xmlns="http://www.w3.org/2000/svg" width="9.6" height="9.6" viewBox="0 0 24 24" fill="none">
<path d="M2.40039 21.5999L21.6004 2.3999L2.40039 21.5999Z" fill="white"/>
<path d="M2.40039 21.5999L21.6004 2.3999" stroke="white" stroke-width="3.2" stroke-linecap="round" stroke-linejoin="round"/>
<path d="M4.32039 6.2399C5.38077 6.2399 6.24039 5.38028 6.24039 4.3199C6.24039 3.25952 5.38077 2.3999 4.32039 2.3999C3.26001 2.3999 2.40039 3.25952 2.40039 4.3199C2.40039 5.38028 3.26001 6.2399 4.32039 6.2399Z" fill="white" stroke="white" stroke-width="3.2" stroke-linecap="round" stroke-linejoin="round"/>
<path d="M19.6798 21.6003C20.7401 21.6003 21.5998 20.7406 21.5998 19.6803C21.5998 18.6199 20.7401 17.7603 19.6798 17.7603C18.6194 17.7603 17.7598 18.6199 17.7598 19.6803C17.7598 20.7406 18.6194 21.6003 19.6798 21.6003Z" fill="white" stroke="white" stroke-width="3.2" stroke-linecap="round" stroke-linejoin="round"/>
</svg>