<svg width="30" height="30" viewBox="0 0 30 30" fill="none" xmlns="http://www.w3.org/2000/svg">
<path d="M5.40039 24.6001L24.6004 5.40015L5.40039 24.6001Z" fill="white"/>
<path d="M5.40039 24.6001L24.6004 5.40015" stroke="white" stroke-width="3.2" stroke-linecap="round" stroke-linejoin="round"/>
<path d="M7.32039 9.24015C8.38077 9.24015 9.24039 8.38052 9.24039 7.32015C9.24039 6.25977 8.38077 5.40015 7.32039 5.40015C6.26001 5.40015 5.40039 6.25977 5.40039 7.32015C5.40039 8.38052 6.26001 9.24015 7.32039 9.24015Z" fill="white" stroke="white" stroke-width="3.2" stroke-linecap="round" stroke-linejoin="round"/>
<path d="M22.6798 24.6003C23.7401 24.6003 24.5998 23.7406 24.5998 22.6803C24.5998 21.6199 23.7401 20.7603 22.6798 20.7603C21.6194 20.7603 20.7598 21.6199 20.7598 22.6803C20.7598 23.7406 21.6194 24.6003 22.6798 24.6003Z" fill="white" stroke="white" stroke-width="3.2" stroke-linecap="round" stroke-linejoin="round"/>
</svg>
