<svg width="28" height="28" viewBox="0 0 28 28" fill="none" xmlns="http://www.w3.org/2000/svg">
<g id="Group">
<g id="Group_2">
<path id="Vector" d="M11.8382 26.4009L11.8372 26.4007C11.472 26.3363 11.1136 26.2582 10.7571 26.1637L11.8382 26.4009ZM11.8382 26.4009C12.1147 26.4492 12.3956 26.4898 12.6808 26.5197M11.8382 26.4009L12.6808 26.5197M25.6535 18.7707C26.2583 17.2985 26.5898 15.6867 26.5898 13.9987C26.5898 7.0456 20.9544 1.41015 14.0013 1.41015C7.04834 1.41015 1.41015 7.04544 1.41015 13.9987C1.41015 16.1797 1.96645 18.2327 2.94417 20.0234C3.80282 21.5975 4.98805 22.969 6.41107 24.0437C7.30401 24.7181 8.28925 25.277 9.34541 25.6959C9.34588 25.6961 9.34635 25.6962 9.34681 25.6964L9.56419 25.1481L25.6535 18.7707ZM25.6535 18.7707C25.5971 18.9117 25.5363 19.0469 25.4755 19.1765C23.9579 22.5407 21.0035 25.1202 17.3885 26.1251C17.1321 26.198 16.8692 26.2631 16.6024 26.3176L25.6535 18.7707ZM12.6808 26.5197C13.1173 26.5658 13.5576 26.5873 14.0013 26.5873C14.7955 26.5873 15.5783 26.5147 16.3387 26.3687L12.6808 26.5197Z" fill="#0F2847" stroke="#F2F2F2" stroke-width="1.1797"/>
</g>
<g id="Group_3">
<g id="Group_4">
<path id="Vector_2" d="M17.229 25.557C16.2021 25.8453 15.1186 25.9971 14.0016 25.9971C13.2989 25.9971 12.6092 25.9379 11.94 25.8195C11.59 25.7578 11.2477 25.6831 10.9079 25.593C10.4498 25.4721 9.99941 25.3228 9.56445 25.1478L10.4164 16.5695L15.0619 15.4731L16.9099 16.0213L17.229 25.557Z" fill="#A37B90"/>
</g>
</g>
<g id="Group_5">
<g id="Group_6">
<path id="Vector_3" d="M15.6542 13.9754C14.4368 13.7489 10.952 8.14337 10.952 8.14337C10.952 8.14337 9.21732 6.00461 9.68574 5.7215C10.1542 5.44096 10.5994 5.87077 10.5994 5.87077C10.5994 5.87077 12.1514 5.62626 13.5721 5.56964C13.7522 5.56192 13.9298 5.55678 14.1023 5.55678C14.6247 5.5542 15.0983 5.58766 15.4251 5.68032C16.7146 6.04579 17.5793 8.15882 17.5793 8.15882C17.5793 8.15882 18.2254 8.09962 18.4982 8.97983C18.7736 9.86262 16.8693 14.2019 15.6542 13.9754Z" fill="black"/>
</g>
</g>
<g id="Group_7">
<g id="Group_8">
<g id="Group_9">
<g id="Group_10">
<g id="Group_11">
<path id="Vector_4" d="M15.6369 13.2764L15.6967 16.2284C15.6967 16.2284 15.1814 17.0878 13.4573 17.2631C12.1727 17.3936 11.7148 17.112 11.7148 17.112L11.8641 15.6133L12.0116 14.1517L15.1163 13.4027L15.6369 13.2764Z" fill="#F8CEC1"/>
</g>
</g>
</g>
</g>
</g>
<g id="Group_12">
<g id="Group_13">
<g id="Group_14">
<g id="Group_15">
<g id="Group_16">
<path id="Vector_5" d="M15.1132 13.4023C15.1073 13.4832 15.0787 13.5789 15.0332 13.6891C14.4024 15.1769 12.6028 15.5316 11.8613 15.6132L12.0088 14.1516L15.1132 13.4023Z" fill="black"/>
</g>
</g>
</g>
</g>
</g>
<g id="Group_17">
<g id="Group_18">
<g id="Group_19">
<g id="Group_20">
<g id="Group_21">
<path id="Vector_6" d="M11.2192 7.436C11.2192 7.436 9.74476 11.1687 10.3969 13.213C11.0494 15.257 12.9189 14.8651 14.0303 14.4255C15.1416 13.9861 15.6394 13.2771 15.6394 13.2771C15.6394 13.2771 16.7036 13.596 17.3717 12.5932C18.0401 11.5905 17.5671 10.483 16.9574 10.2473C16.3479 10.0115 15.6494 10.4704 15.6494 10.4704L16.1708 9.38226C16.1708 9.38226 13.6231 4.03817 11.2192 7.436Z" fill="#F8CEC1"/>
</g>
</g>
</g>
</g>
</g>
<g id="Group_22">
<g id="Group_23">
<path id="Vector_7" d="M11.2188 7.43586C11.2188 7.43586 12.3677 6.97362 12.858 7.37872C13.3482 7.78383 13.9261 11.2059 15.6492 10.4703C17.3723 9.73471 16.4807 7.54215 16.4807 7.54215C16.4807 7.54215 12.1471 3.83109 11.2188 7.43586Z" fill="black"/>
</g>
</g>
<g id="Group_24">
<g id="Group_25">
<path id="Vector_8" d="M11.881 15.4751C11.881 15.4751 11.5006 20.5224 10.9087 25.5927C7.69925 24.7408 5.02 22.5917 3.46289 19.74C4.41517 18.7414 5.93882 17.0711 7.25399 16.5383C9.54976 15.6066 11.881 15.4751 11.881 15.4751Z" fill="#40507F"/>
</g>
</g>
<g id="Group_26">
<path id="Vector_9" d="M12.9721 17.3934C12.3447 17.3934 11.8845 17.2956 11.8392 17.2855C11.7697 17.2701 11.7259 17.2016 11.7414 17.1321C11.7568 17.0629 11.8248 17.0191 11.8948 17.0341C11.9208 17.0397 14.4971 17.5851 15.8449 16.0033C15.8915 15.949 15.9726 15.9428 16.0264 15.9886C16.0804 16.0349 16.0869 16.116 16.041 16.1701C15.1783 17.1821 13.8943 17.3934 12.9721 17.3934Z" fill="#92B4EA"/>
</g>
<g id="Group_27">
<g id="Group_28">
<path id="Vector_10" d="M24.9393 18.9299C23.4929 22.1394 20.6747 24.5999 17.2285 25.5573C16.9839 25.6268 16.7343 25.6886 16.4821 25.74C16.3971 25.758 16.3148 25.7735 16.2298 25.7889C15.8824 21.864 15.6816 15.0024 15.6816 15.0024C15.6816 15.0024 21.0273 15.0822 24.9393 18.9299Z" fill="#40507F"/>
</g>
</g>
<g id="Group_29">
<path id="Vector_11" d="M15.7811 12.1186C15.7489 12.1186 15.7168 12.1065 15.6915 12.0823C15.6406 12.0332 15.639 11.9516 15.6885 11.9004L16.6183 10.9375C16.6672 10.8866 16.7488 10.8853 16.8003 10.9345C16.8513 10.9836 16.8528 11.0652 16.8034 11.1164L15.8735 12.0792C15.8483 12.1055 15.8146 12.1186 15.7811 12.1186Z" fill="black"/>
</g>
<g id="Group_30">
<path id="Vector_12" d="M17.0391 11.8837C17.0283 11.8837 17.0174 11.8824 17.0066 11.8793L16.2036 11.6696C16.1347 11.6518 16.0935 11.5813 16.1118 11.5128C16.1295 11.4436 16.2006 11.4017 16.2685 11.421L17.0715 11.6307C17.1405 11.6485 17.1817 11.719 17.1634 11.7875C17.1485 11.8456 17.0965 11.8837 17.0391 11.8837Z" fill="black"/>
</g>
<g id="Group_31">
<path id="Vector_13" d="M10.978 9.11493C10.951 9.11493 10.9235 9.10618 10.9003 9.08843C10.8447 9.04544 10.8329 8.96694 10.8746 8.91084C10.8846 8.89745 11.1258 8.5832 11.7375 8.66917C11.8078 8.6792 11.8567 8.74457 11.8467 8.81483C11.8364 8.8851 11.7689 8.93117 11.701 8.92396C11.2519 8.85936 11.0869 9.05754 11.0802 9.06603C11.0545 9.09795 11.0161 9.11493 10.978 9.11493Z" fill="black"/>
</g>
<g id="Group_32">
<path id="Vector_14" d="M13.7569 9.1498C13.7278 9.1498 13.6985 9.14002 13.6746 9.11994C13.3528 8.8515 12.9858 8.94571 12.9706 8.94983C12.9027 8.96836 12.8317 8.92769 12.8131 8.85922C12.7946 8.79076 12.8345 8.7205 12.9027 8.70171C12.9233 8.69605 13.4115 8.56556 13.8398 8.92228C13.8944 8.96783 13.9016 9.04891 13.8563 9.10347C13.8305 9.13384 13.7937 9.1498 13.7569 9.1498Z" fill="black"/>
</g>
<g id="Group_33">
<path id="Vector_15" d="M11.0996 10.5859C11.0183 10.5798 10.9652 10.5175 10.9712 10.447L11.027 9.75952C11.0327 9.68875 11.096 9.63701 11.1655 9.64165C11.2362 9.64731 11.289 9.70959 11.2833 9.78011L11.2275 10.4676C11.2223 10.535 11.166 10.5859 11.0996 10.5859Z" fill="black"/>
</g>
<g id="Group_34">
<path id="Vector_16" d="M13.1308 10.6696C13.0495 10.6634 12.9965 10.6011 13.0024 10.5306L13.0583 9.8434C13.0637 9.77262 13.128 9.72192 13.1967 9.72552C13.2675 9.73118 13.3203 9.79348 13.3146 9.864L13.2587 10.5512C13.2533 10.6186 13.1972 10.6696 13.1308 10.6696Z" fill="black"/>
</g>
<g id="Group_35">
<path id="Vector_17" d="M11.5914 12.2264C11.5423 12.2264 11.4954 12.1981 11.4741 12.1502C11.0427 11.1846 11.6895 10.4065 11.7173 10.3738C11.7633 10.32 11.8439 10.3131 11.8982 10.3592C11.9525 10.405 11.9592 10.4861 11.9137 10.5404C11.8902 10.5679 11.3449 11.2304 11.7088 12.0452C11.7379 12.1101 11.7088 12.1863 11.6439 12.2151C11.6269 12.2228 11.6092 12.2264 11.5914 12.2264Z" fill="black"/>
</g>
<g id="Group_36">
<path id="Vector_18" d="M12.3963 12.8441C12.3252 12.8441 12.2676 12.7865 12.2676 12.7154C12.2676 12.6447 12.325 12.587 12.3958 12.5867C12.4138 12.5865 12.8413 12.579 12.9952 12.2118C13.0227 12.1461 13.0974 12.1155 13.1635 12.1428C13.2291 12.1701 13.2598 12.2455 13.2325 12.3111C13.0122 12.8382 12.4215 12.8441 12.3963 12.8441Z" fill="black"/>
</g>
</g>
</svg>
