<svg width="28" height="28" viewBox="0 0 28 28" fill="none" xmlns="http://www.w3.org/2000/svg">
<g id="Group">
<g id="Group_2">
<path id="Vector" d="M19.3027 25.421C18.1862 25.9407 16.9802 26.3003 15.7176 26.4751L15.7122 26.4778L15.6113 26.4902C15.0865 26.5548 14.545 26.5898 14 26.5898C10.4744 26.5898 7.28798 25.1399 5.00424 22.8088L5.0037 22.8083C4.97105 22.7756 4.92919 22.7338 4.88826 22.6902C4.85401 22.6556 4.8223 22.6208 4.79159 22.5847C3.52507 21.2287 2.5567 19.591 1.98569 17.7758C1.60977 16.5831 1.41015 15.3135 1.41015 14C1.41015 7.04618 7.04618 1.41015 14 1.41015C20.9538 1.41015 26.5899 7.04618 26.5899 14C26.5899 16.0646 26.0931 18.0124 25.2098 19.7334C25.0101 20.1245 24.7887 20.5053 24.5455 20.8731C24.4468 21.0265 24.3437 21.1729 24.2486 21.3082L24.2456 21.3124L24.2434 21.3155C23.0474 22.9921 21.4489 24.3641 19.5873 25.2854L19.5833 25.2873L19.5804 25.2888C19.4928 25.3313 19.3983 25.3772 19.3027 25.421ZM15.5597 26.492H15.5521C15.5469 26.492 15.5504 26.4922 15.5597 26.492Z" fill="#7798EC" stroke="#F2F2F2" stroke-width="1.1797"/>
</g>
<g id="Group_3">
<g id="Group_4">
<path id="Vector_2" d="M5.23229 22.1931C5.25803 22.2239 5.28377 22.2523 5.31209 22.2806C5.34812 22.3192 5.38673 22.3578 5.42277 22.3938C7.60038 24.6178 10.6377 26 13.9993 26C14.5193 26 15.0367 25.9666 15.5386 25.9048C15.5437 25.9022 15.5463 25.9022 15.5515 25.9022C16.787 25.74 17.9659 25.3926 19.0547 24.8855C18.9517 20.538 18.9955 16.7336 18.9955 16.6615C18.9543 16.5714 16.9414 16.0541 14.2619 15.9665C10.0454 15.8327 6.48326 18.2111 5.23229 22.1931Z" fill="#68B6D8"/>
</g>
</g>
<g id="Group_5">
<g id="Group_6">
<path id="Vector_3" d="M15.5397 25.9046C15.5449 25.9021 15.5475 25.9021 15.5526 25.9021C16.7881 25.7399 17.967 25.3924 19.0558 24.8853C19.1459 24.8441 19.236 24.8004 19.3261 24.7566C21.0996 23.8789 22.6234 22.5713 23.7637 20.9728C21.4522 17.8042 19.5629 16.8802 18.9966 16.6614C18.8808 16.6151 18.8216 16.5996 18.8216 16.5996L15.5397 25.9046Z" fill="#68B6D8"/>
</g>
</g>
<g id="Group_7">
<path id="Vector_4" d="M13.7255 8.98234C13.7255 8.98234 11.0032 9.1808 10.7834 6.57076C10.5494 3.79187 13.1177 3.46085 14.2392 4.55841C15.3607 5.65622 15.187 6.80552 15.187 6.80552C15.187 6.80552 15.9319 6.09946 16.7844 6.92237C17.4101 7.52623 17.1206 8.54657 17.1206 8.54657C17.1206 8.54657 18.5249 8.45725 18.4246 9.68814C18.3242 10.919 17.4619 11.5641 17.4619 11.5641L13.7255 8.98234Z" fill="black"/>
</g>
<g id="Group_8">
<g id="Group_9">
<path id="Vector_5" d="M16.3379 13.7327L16.1271 16.6359C16.1271 16.6359 15.5428 17.4325 13.8344 17.4472C12.5618 17.4583 12.1379 17.1399 12.1379 17.1399L12.421 15.6822L12.699 14.2609L15.8149 13.8089L16.3379 13.7327Z" fill="#F8CEC1"/>
</g>
</g>
<g id="Group_10">
<g id="Group_11">
<path id="Vector_6" d="M15.8164 13.8091C15.8033 13.8878 15.7665 13.9792 15.7116 14.083C14.9567 15.486 13.158 15.6698 12.4226 15.6822L12.7006 14.2608L15.8164 13.8091Z" fill="black"/>
</g>
</g>
<g id="Group_12">
<g id="Group_13">
<path id="Vector_7" d="M12.5294 7.59644C12.5294 7.59644 10.7412 11.1259 11.195 13.1918C11.6488 15.2579 13.5199 15.0435 14.6509 14.7136C15.7819 14.3838 16.3353 13.7331 16.3353 13.7331C16.3353 13.7331 17.3508 14.1434 18.0983 13.2199C18.8457 12.2966 18.4826 11.1663 17.9057 10.8793C17.3289 10.5921 16.6015 10.9789 16.6015 10.9789L17.2125 9.95834C17.2125 9.95834 15.1989 4.48061 12.5294 7.59644Z" fill="#F8CEC1"/>
</g>
</g>
<g id="Group_14">
<path id="Vector_8" d="M16.6068 12.5671C16.6297 12.5671 16.6531 12.5612 16.674 12.548L17.8058 11.8528C17.8663 11.8155 17.8853 11.7364 17.8483 11.6757C17.8109 11.6152 17.7317 11.5959 17.6712 11.6335L16.5394 12.3287C16.4789 12.366 16.4598 12.4451 16.4972 12.5058C16.5214 12.5452 16.5636 12.5671 16.6068 12.5671Z" fill="black"/>
</g>
<g id="Group_15">
<path id="Vector_9" d="M17.545 12.644C17.5926 12.644 17.6382 12.6175 17.6606 12.5722C17.692 12.5084 17.6657 12.4311 17.6016 12.3997L17.0096 12.1091C16.9458 12.0782 16.8688 12.1045 16.8374 12.1681C16.8063 12.2319 16.8323 12.3091 16.8963 12.3405L17.4884 12.6311C17.5066 12.6399 17.5259 12.644 17.545 12.644Z" fill="black"/>
</g>
<g id="Group_16">
<path id="Vector_10" d="M12.0567 8.97616C12.0824 8.97616 12.1084 8.96844 12.1311 8.95222C12.4479 8.72725 12.7491 8.92571 12.7617 8.93446C12.8207 8.97358 12.9005 8.95891 12.9404 8.90048C12.9803 8.84205 12.9658 8.76252 12.9077 8.72237C12.8891 8.7095 12.4482 8.41142 11.9821 8.7427C11.9241 8.78362 11.9105 8.86419 11.9517 8.92211C11.9769 8.95737 12.0163 8.97616 12.0567 8.97616Z" fill="black"/>
</g>
<g id="Group_17">
<path id="Vector_11" d="M12.5246 12.2641C12.5339 12.2641 12.5431 12.2631 12.5524 12.261C12.6219 12.2456 12.6657 12.1771 12.6505 12.1076C12.4137 11.033 13.0229 10.3148 13.0291 10.3076C13.0757 10.2541 13.0698 10.1727 13.0162 10.1261C12.9624 10.0796 12.8816 10.0855 12.8345 10.1393C12.8059 10.1722 12.1346 10.9637 12.399 12.163C12.4124 12.2232 12.4657 12.2641 12.5246 12.2641Z" fill="black"/>
</g>
<g id="Group_18">
<path id="Vector_12" d="M12.0955 10.6859C12.1655 10.6859 12.2229 10.6298 12.2242 10.5595L12.2363 9.86735C12.2376 9.7963 12.181 9.73762 12.1099 9.73633C12.0355 9.74431 11.9802 9.79167 11.9789 9.86271L11.9668 10.5546C11.9655 10.6256 12.0221 10.6843 12.0932 10.6856C12.094 10.6859 12.0947 10.6859 12.0955 10.6859Z" fill="black"/>
</g>
<g id="Group_19">
<path id="Vector_13" d="M14.0018 10.8196C14.0718 10.8196 14.1292 10.7635 14.1305 10.6932L14.1426 10.0013C14.1438 9.93029 14.0872 9.8716 14.0162 9.87031C13.95 9.86233 13.8864 9.92565 13.8852 9.99669L13.8731 10.6886C13.8718 10.7596 13.9284 10.8183 13.9994 10.8196C14.0002 10.8196 14.001 10.8196 14.0018 10.8196Z" fill="black"/>
</g>
<g id="Group_20">
<path id="Vector_14" d="M12.1676 8.39477C12.1676 8.39477 12.5251 7.83416 13.25 7.88178C13.9746 7.9294 14.3604 8.47019 14.3604 8.47019C14.3604 8.47019 13.9542 9.66659 14.8919 10.386C15.8296 11.1055 16.6049 10.9796 16.6049 10.9796L17.3378 10.7768L17.9375 9.7711L16.0327 7.394L13.4605 5.78809L12.0078 6.92656L12.1676 8.39477Z" fill="black"/>
</g>
<g id="Group_21">
<path id="Vector_15" d="M13.1163 12.9914C13.359 12.9914 13.8182 12.9227 14.0851 12.447C14.1199 12.3852 14.0977 12.3067 14.0359 12.2717C13.9737 12.2372 13.8957 12.2591 13.8607 12.3211C13.5834 12.8148 13.0226 12.7301 12.9989 12.7263C12.9289 12.7134 12.8627 12.7623 12.8511 12.8321C12.8396 12.9021 12.8864 12.9682 12.9564 12.9801C12.9646 12.9816 13.0254 12.9914 13.1163 12.9914Z" fill="black"/>
</g>
<g id="Group_22">
<path id="Vector_16" d="M11.3329 11.7484C11.3432 11.7484 11.3535 11.7484 11.3638 11.7482C12.0454 11.7312 12.5857 11.1458 12.5679 10.4439C12.5594 10.1047 12.4233 9.78831 12.1849 9.55382C11.9453 9.3183 11.6307 9.19166 11.3 9.20118C10.6184 9.21817 10.0781 9.8035 10.0959 10.5057C10.1044 10.8449 10.2405 11.161 10.4789 11.3955C10.711 11.6236 11.0132 11.7484 11.3329 11.7484ZM11.3306 9.45807C11.5823 9.45807 11.8207 9.55665 12.0045 9.73709C12.1952 9.92448 12.3038 10.1778 12.3108 10.4503C12.3249 11.0104 11.8971 11.4771 11.3574 11.4908C11.0951 11.5003 10.8488 11.3984 10.6596 11.212C10.4688 11.0246 10.3602 10.7713 10.3535 10.499C10.3394 9.93863 10.7672 9.47197 11.3069 9.45833C11.3144 9.45807 11.3224 9.45807 11.3306 9.45807Z" fill="#707070"/>
</g>
<g id="Group_23">
<path id="Vector_17" d="M14.2684 11.9582C14.2792 11.9582 14.2898 11.9582 14.3009 11.9579C14.6409 11.9494 14.9575 11.8089 15.192 11.5623C15.4265 11.3159 15.5511 10.9927 15.5426 10.6526C15.5341 10.3126 15.3935 9.99574 15.1469 9.76124C14.9003 9.52675 14.576 9.40397 14.237 9.41092C13.5348 9.42843 12.9778 10.0143 12.9953 10.7165C13.0128 11.4078 13.5809 11.9582 14.2684 11.9582ZM14.2697 9.66807C14.5315 9.66807 14.7791 9.76691 14.9696 9.94786C15.1662 10.1352 15.2785 10.3878 15.2852 10.6593C15.2919 10.9306 15.1928 11.1885 15.0056 11.3852C14.8185 11.5818 14.566 11.6938 14.2944 11.7008C13.7364 11.7136 13.2669 11.2704 13.253 10.71C13.2388 10.1497 13.6834 9.68248 14.2437 9.66832C14.2522 9.66807 14.261 9.66807 14.2697 9.66807Z" fill="#707070"/>
</g>
<g id="Group_24">
<path id="Vector_18" d="M13.2446 10.7062C13.3123 10.7062 13.3692 10.6532 13.3728 10.5847C13.3769 10.5139 13.3226 10.4529 13.2516 10.4491L12.3546 10.3984C12.2856 10.3894 12.2228 10.4486 12.2189 10.5196C12.2148 10.5904 12.2691 10.6514 12.3401 10.6553L13.2372 10.706C13.2398 10.7062 13.2421 10.7062 13.2446 10.7062Z" fill="#707070"/>
</g>
<g id="Group_25">
<path id="Vector_19" d="M15.4162 10.953C15.4371 10.953 15.4582 10.9478 15.4775 10.9373C15.4891 10.9308 16.6788 10.2961 17.2427 10.8667C17.2927 10.9172 17.374 10.9177 17.4247 10.8678C17.4752 10.8178 17.4757 10.7362 17.4258 10.6858C16.7259 9.97793 15.4101 10.6811 15.3545 10.7113C15.2919 10.7452 15.269 10.8232 15.3027 10.8858C15.3264 10.9285 15.3707 10.953 15.4162 10.953Z" fill="#707070"/>
</g>
<g id="Group_26">
<path id="Vector_20" d="M13.7234 17.6363C14.467 17.6363 15.3942 17.4309 16.4104 16.7398C16.4693 16.6999 16.4845 16.6198 16.4444 16.5611C16.4042 16.5024 16.3242 16.4872 16.2655 16.5271C13.9182 18.1238 12.1509 17.0255 12.077 16.9781C12.0171 16.9395 11.9378 16.9567 11.8992 17.0165C11.8608 17.0759 11.8778 17.1557 11.9375 17.1941C11.9489 17.2015 12.6418 17.6363 13.7234 17.6363Z" fill="#F2F2F2"/>
</g>
<g id="Group_27">
<path id="Vector_21" d="M14.8617 9.3171C14.8862 9.3171 14.9106 9.3104 14.9325 9.29573C14.9917 9.25661 15.0082 9.17656 14.9688 9.11736C14.6077 8.57193 14.0679 8.62881 13.8331 8.73408C13.7683 8.76317 13.7395 8.83962 13.7685 8.90423C13.7976 8.96884 13.8738 8.9974 13.9382 8.96909C13.9593 8.95957 14.4262 8.76343 14.7539 9.25969C14.7791 9.29676 14.82 9.3171 14.8617 9.3171Z" fill="black"/>
</g>
</g>
</svg>
