<svg width="28" height="28" viewBox="0 0 28 28" fill="none" xmlns="http://www.w3.org/2000/svg">
<g id="Group">
<g id="Group_2">
<path id="Vector" d="M18.0237 25.9312L18.0251 25.9308C19.5431 25.4176 20.9309 24.6236 22.1267 23.6114C23.2551 22.6584 24.2134 21.5084 24.9478 20.2177C25.993 18.3812 26.5898 16.258 26.5898 13.9987C26.5898 7.04552 20.9517 1.41015 14.0013 1.41015C7.04834 1.41015 1.41015 7.04544 1.41015 13.9987C1.41015 16.3635 2.06376 18.5757 3.19782 20.4685L3.19825 20.4692C3.50316 20.9765 3.84332 21.4625 4.21615 21.9218L4.21655 21.9223C4.34393 22.0788 4.47686 22.2364 4.61714 22.3905C6.91973 24.9646 10.2732 26.5873 14.0013 26.5873C15.4075 26.5873 16.7602 26.3551 18.0237 25.9312Z" fill="#F5FE7D" stroke="#F2F2F2" stroke-width="1.1797"/>
</g>
<g id="Group_3">
<path id="Vector_2" d="M10.8955 11.5942C10.8955 11.5942 8.14984 13.6651 7.94549 16.1801C7.63613 19.9864 11.9659 18.3212 12.4418 15.8947C12.9177 13.4679 10.8955 11.5942 10.8955 11.5942Z" fill="black"/>
</g>
<g id="Group_4">
<path id="Vector_3" d="M10.6497 11.3352C10.6497 11.3352 9.65879 10.2404 9.94422 8.54377C10.1378 7.39358 10.6497 7.02116 10.6497 7.02116C10.6497 7.02116 9.8701 5.45093 12.1911 5.54615C14.5121 5.64138 15.8777 6.78077 15.8777 6.78077C15.8777 6.78077 16.9386 6.25985 17.4145 7.49678C17.8903 8.73372 17.4145 10.5587 17.4145 10.5587L10.6497 11.3352Z" fill="black"/>
</g>
<g id="Group_5">
<path id="Vector_4" d="M21.7454 23.1616C20.6052 24.1268 19.2823 24.8834 17.8359 25.3725C16.6314 25.7765 15.3419 25.9979 14.001 25.9979C11.6074 25.9979 9.37602 25.2952 7.50235 24.0856C7.3994 24.0213 7.29903 23.9543 7.20123 23.8848C6.4111 23.3444 5.69045 22.7087 5.05474 21.9957C4.92348 21.8516 4.79737 21.7023 4.67383 21.5505L12.2689 16.0479C12.274 16.0453 12.5623 15.8342 12.5623 15.8342L15.5452 16.0762L16.7832 16.1765L21.7454 23.1616Z" fill="#F7B369"/>
</g>
<g id="Group_6">
<path id="Vector_5" d="M12.5599 16.0269L5.05238 21.9953C4.92112 21.8512 4.795 21.7019 4.67146 21.5501C4.31629 21.1125 3.992 20.6493 3.70117 20.1654C3.93281 19.9569 4.17474 19.7485 4.42439 19.54C7.86546 16.6703 11.2679 16.1427 12.2665 16.0474C12.4596 16.0294 12.5599 16.0269 12.5599 16.0269Z" fill="#F7B369"/>
</g>
<g id="Group_7">
<g id="Group_8">
<g id="Group_9">
<g id="Group_10">
<path id="Vector_6" d="M15.7459 13.2476L15.689 16.2753C15.689 16.2753 15.1614 17.1295 13.5005 17.2206C12.2631 17.2886 11.8848 16.5985 11.8848 16.5985L12.2338 13.9584L15.2414 13.35L15.7459 13.2476Z" fill="#F8CEC1"/>
</g>
</g>
</g>
</g>
<g id="Group_11">
<path id="Vector_7" d="M24.4323 19.9258C23.7322 21.156 22.8185 22.2525 21.7427 23.161C20.6025 24.1261 19.2797 24.8828 17.8332 25.3718L19.7738 23.0066L15.5426 16.0755L15.5117 16.0266C15.5117 16.0266 15.9982 16.0446 16.7806 16.1759C18.5616 16.4719 21.8714 17.3495 24.4323 19.9258Z" fill="#F7B369"/>
</g>
<g id="Group_12">
<g id="Group_13">
<g id="Group_14">
<g id="Group_15">
<path id="Vector_8" d="M15.7486 13.0747C15.7396 13.1519 15.7077 13.2425 15.6593 13.346C14.9899 14.7453 12.744 15.2783 12.0293 15.3244L12.2342 13.9294L15.7486 13.0747Z" fill="black"/>
</g>
</g>
</g>
</g>
<g id="Group_16">
<g id="Group_17">
<g id="Group_18">
<g id="Group_19">
<path id="Vector_9" d="M11.7584 7.45557C11.7584 7.45557 10.1822 10.9705 10.7188 12.959C11.2555 14.9474 13.0653 14.6525 14.1499 14.2796C15.2344 13.9066 15.7427 13.2485 15.7427 13.2485C15.7427 13.2485 16.7493 13.6006 17.4337 12.6681C18.118 11.7357 17.7127 10.6534 17.1385 10.4007C16.5643 10.1479 15.8745 10.5577 15.8745 10.5577L16.4217 9.53695C16.4217 9.53695 14.2109 4.30199 11.7584 7.45557Z" fill="#F8CEC1"/>
</g>
</g>
</g>
</g>
<g id="Group_20">
<g id="Group_21">
<g id="Group_22">
<g id="Group_23">
<path id="Vector_10" d="M15.878 10.5573C15.878 10.5573 14.36 10.8636 13.3056 9.17442C12.2511 7.48528 12.3479 6.79142 12.3479 6.79142L11.2973 8.53537C11.2973 8.53537 11.0623 7.32623 11.5459 6.5554C12.0295 5.78457 12.5317 5.9444 12.5317 5.9444L15.8785 6.7806L16.7598 9.4632L15.878 10.5573Z" fill="black"/>
</g>
</g>
</g>
</g>
<g id="Group_24">
<path id="Vector_11" d="M11.8809 11.9583C11.8258 11.9583 11.7748 11.9225 11.7578 11.8675C11.5241 11.1044 12.0631 10.3317 12.0857 10.2993C12.1269 10.2411 12.2067 10.228 12.2649 10.2687C12.323 10.3096 12.3367 10.3902 12.2957 10.4481C12.2911 10.4548 11.8075 11.1512 12.0039 11.7921C12.0245 11.86 11.9864 11.9321 11.9184 11.9529C11.9061 11.9565 11.8932 11.9583 11.8809 11.9583Z" fill="black"/>
</g>
<g id="Group_25">
<path id="Vector_12" d="M16.0233 12.2297C15.9914 12.2297 15.9597 12.2178 15.9348 12.1942C15.883 12.1453 15.881 12.0639 15.9299 12.0125L16.8914 10.9989C16.9403 10.9469 17.0219 10.9454 17.0731 10.9943C17.1249 11.0429 17.1269 11.1245 17.0777 11.176L16.1162 12.1895C16.0915 12.2163 16.0573 12.2297 16.0233 12.2297Z" fill="black"/>
</g>
<g id="Group_26">
<path id="Vector_13" d="M17.0377 11.9604C17.0313 11.9604 17.0244 11.9599 17.0179 11.9588L16.3552 11.8566C16.2849 11.8458 16.2368 11.7799 16.2476 11.7099C16.2584 11.6397 16.3261 11.5926 16.3943 11.6024L17.0571 11.7045C17.1273 11.7153 17.1754 11.7812 17.1646 11.8512C17.1549 11.9148 17.1 11.9604 17.0377 11.9604Z" fill="black"/>
</g>
<g id="Group_27">
<path id="Vector_14" d="M13.1502 12.9682C12.8158 12.9682 12.4365 12.7425 12.3816 12.7085C12.3423 12.6841 12.3188 12.6406 12.3204 12.5945C12.3222 12.5482 12.3484 12.5063 12.3894 12.4849L13.4577 11.9269C13.4914 11.9091 13.5313 11.9071 13.5674 11.9223C13.6026 11.9372 13.6294 11.9671 13.6404 12.0036C13.6477 12.0281 13.8157 12.6017 13.4593 12.8746C13.371 12.9425 13.2631 12.9682 13.1502 12.9682ZM12.7275 12.5984C12.9311 12.6887 13.1852 12.7603 13.3028 12.6705C13.4325 12.5709 13.4384 12.3747 13.4232 12.2352L12.7275 12.5984Z" fill="black"/>
</g>
<g id="Group_28">
<path id="Vector_15" d="M11.2006 9.06747C11.1393 9.06747 11.085 9.02346 11.0742 8.96091C11.0619 8.89091 11.109 8.82425 11.1787 8.81215L11.8057 8.70328C11.8762 8.68861 11.9424 8.73777 11.9545 8.80778C11.9668 8.87778 11.9197 8.94444 11.85 8.95654L11.223 9.06541C11.2155 9.06695 11.2081 9.06747 11.2006 9.06747Z" fill="black"/>
</g>
<g id="Group_29">
<path id="Vector_16" d="M13.8054 9.47901C13.7858 9.47901 13.766 9.47438 13.7472 9.46511L12.7192 8.9447C12.6557 8.91253 12.6302 8.83506 12.6624 8.77175C12.6945 8.70818 12.7725 8.68321 12.8353 8.71487L13.8633 9.23554C13.9268 9.26771 13.9523 9.34518 13.9201 9.40849C13.8978 9.45327 13.8522 9.47901 13.8054 9.47901Z" fill="black"/>
</g>
<g id="Group_30">
<path id="Vector_17" d="M17.7918 11.5942C17.7918 11.5942 19.9807 13.4918 19.6716 16.5844C19.3623 19.677 16.2957 19.2802 15.6515 18.1516C14.6758 16.4419 15.7426 13.2484 15.7426 13.2484C15.7426 13.2484 17.6229 13.5631 17.7918 11.5942Z" fill="black"/>
</g>
<g id="Group_31">
<path id="Vector_18" d="M11.2008 10.5161C11.1882 10.5161 11.1756 10.5143 11.1632 10.5105C11.095 10.4896 11.0572 10.4178 11.078 10.3499L11.2535 9.77852L11.1014 9.59218C11.0564 9.5371 11.0644 9.45629 11.1195 9.41125C11.1743 9.36621 11.2556 9.37419 11.3004 9.42926L11.4962 9.66888C11.5235 9.70234 11.5325 9.74712 11.5197 9.78804L11.3238 10.4253C11.3071 10.4809 11.2559 10.5161 11.2008 10.5161Z" fill="black"/>
</g>
<g id="Group_32">
<path id="Vector_19" d="M13.1194 10.6877C13.1068 10.6877 13.0942 10.6859 13.0816 10.682C13.0134 10.6614 12.9755 10.5893 12.9964 10.5214L13.1711 9.95183L12.947 9.69009C12.9006 9.63604 12.9071 9.55496 12.9611 9.50863C13.0149 9.46256 13.0965 9.46875 13.1426 9.5228L13.4128 9.83833C13.4414 9.87179 13.4509 9.91786 13.438 9.95981L13.2424 10.5971C13.2254 10.6519 13.1742 10.6877 13.1194 10.6877Z" fill="black"/>
</g>
<g id="Group_33">
<path id="Vector_20" d="M13.4794 17.2822C12.384 17.2822 11.7352 16.6848 11.7257 16.6761C11.6742 16.6274 11.6719 16.5461 11.7208 16.4943C11.7694 16.4429 11.8508 16.4406 11.9025 16.4887C11.9542 16.5373 13.1834 17.6559 15.1794 16.5355C15.2419 16.5003 15.3201 16.5227 15.3546 16.5844C15.3896 16.6464 15.3675 16.7249 15.3057 16.7597C14.6111 17.1494 13.9957 17.2822 13.4794 17.2822Z" fill="#F2F2F2"/>
</g>
<g id="Group_34">
<g id="Group_35">
<path id="Vector_21" d="M8.58959 19.9136C8.51238 19.978 6.88835 21.427 7.5009 24.0856C7.39795 24.0213 7.29758 23.9544 7.19978 23.8849C6.71849 21.2237 8.40171 19.7335 8.4223 19.718C8.47635 19.6717 8.55613 19.6769 8.60245 19.7309C8.64904 19.785 8.64364 19.8673 8.58959 19.9136Z" fill="#F2F2F2"/>
</g>
</g>
</g>
</svg>
