<svg width="40" height="40" viewBox="0 0 40 40" fill="none" xmlns="http://www.w3.org/2000/svg">
<g id="Avatar" clip-path="url(#clip0_2087_36005)">
<circle id="Ellipse" cx="20" cy="20" r="20" fill="#DAE3EA"/>
<g id="icon/social/person_24px">
<path id="icon/social/person_24px_2" fill-rule="evenodd" clip-rule="evenodd" d="M23.8094 16.1906C23.8094 18.2954 22.1047 20.0002 19.9999 20.0002C17.8951 20.0002 16.1904 18.2954 16.1904 16.1906C16.1904 14.0859 17.8951 12.3811 19.9999 12.3811C22.1047 12.3811 23.8094 14.0859 23.8094 16.1906ZM12.3809 25.7144C12.3809 23.1811 17.457 21.9049 19.9999 21.9049C22.5428 21.9049 27.619 23.1811 27.619 25.7144V26.6668C27.619 27.1906 27.1904 27.6192 26.6666 27.6192H13.3332C12.8094 27.6192 12.3809 27.1906 12.3809 26.6668V25.7144Z" fill="#94A3B1"/>
</g>
</g>
<defs>
<clipPath id="clip0_2087_36005">
<rect width="40" height="40" fill="white"/>
</clipPath>
</defs>
</svg>
