<svg width="50" height="50" viewBox="0 0 50 50" fill="none" xmlns="http://www.w3.org/2000/svg">
<path d="M31.1045 47.2772L31.1045 47.2772L31.1124 47.275C36.4059 45.7849 40.9525 42.5042 44.0273 38.107C44.1301 37.9706 44.2207 37.8375 44.2968 37.7256L44.3008 37.7197C44.3009 37.7195 44.301 37.7194 44.3011 37.7192C44.5122 37.4102 44.7109 37.0943 44.8968 36.783C44.9717 36.6613 45.055 36.5259 45.1344 36.3883C47.1526 32.9131 48.3054 28.8765 48.3054 24.5751C48.3054 11.5537 37.7517 1 24.7303 1C11.709 1 1.15527 11.5537 1.15527 24.5751C1.15527 28.6895 2.21198 32.559 4.06795 35.9275C4.40576 36.5426 4.77552 37.151 5.17778 37.7369C9.39996 44.0191 16.5851 48.1501 24.7303 48.1501C26.8176 48.1501 28.8455 47.8772 30.7732 47.3662L30.7801 47.3643C30.8301 47.3507 30.8819 47.3369 30.9369 47.3222C30.9908 47.3078 31.0481 47.2926 31.1045 47.2772Z" fill="#85E0D3" stroke="white" stroke-width="2"/>
<path d="M41.606 29.1812C41.6835 40.706 30.2119 38.769 30.2119 38.769L19.3505 34.4738C19.3505 34.4738 8.46976 28.7211 15.6026 22.0629C15.6026 22.0629 13.1087 10.8625 21.9412 8.61566C21.9799 8.60114 22.0187 8.59145 22.0574 8.58176C22.348 8.51397 22.6288 8.45586 22.9 8.41713C31.0787 7.14843 31.7809 18.1551 31.7809 18.1551C31.7809 18.1551 41.5431 19.9613 41.606 29.1812Z" fill="black"/>
<path d="M43.2184 37.5207C40.2743 41.7384 35.9161 44.8859 30.8413 46.3144C30.7348 46.3435 30.6234 46.3725 30.5169 46.4016C28.672 46.8906 26.7302 47.1521 24.7303 47.1521C23.7957 47.1521 22.8757 47.094 21.9701 46.9875C21.2099 46.8906 20.4593 46.7599 19.7233 46.5952C14.0287 45.3072 9.15726 41.8691 6.00488 37.1769C9.0362 33.0318 12.8374 29.894 15.4233 28.7802C19.2487 27.1338 25.3162 26.0298 30.9188 27.6326C30.9333 27.6374 30.9527 27.6374 30.9721 27.6423C32.6572 28.1265 34.2939 28.8529 35.8193 29.8843C39.1169 32.1118 41.5187 34.6976 43.2184 37.5207Z" fill="#FC7A82"/>
<path d="M20.6133 23.6943L20.6143 23.8255L20.7247 26.2966L20.8031 28.234C20.8031 28.234 21.1363 29.0112 23.3918 28.865C26.4149 28.6572 26.8904 27.0321 26.8904 27.0321L27.0192 22.49L26.1031 22.6648L20.6133 23.6943Z" fill="#FCC898"/>
<path d="M20.6123 23.8255L20.7227 26.2965C22.1914 26.1183 24.8649 25.482 25.9452 23.1717C26.028 22.9839 26.0832 22.8149 26.1011 22.6744L20.622 23.7882L20.6123 23.8255Z" fill="black"/>
<path d="M19.6542 11.9985C19.6542 11.9985 16.8432 18.4325 17.8557 22.0474C18.8688 25.6622 22.1621 25.0932 24.1324 24.3945C26.1028 23.6957 27.0175 22.4875 27.0175 22.4875C27.0175 22.4875 28.8581 23.1117 30.089 21.3999C31.3199 19.6882 30.5621 17.7227 29.5113 17.2723C28.4605 16.822 27.2107 17.5808 27.2107 17.5808L28.1903 15.7111C28.1903 15.7111 24.069 6.20802 19.6542 11.9985Z" fill="#FCC898"/>
<path d="M20.5267 11.046C20.5267 11.046 20.3233 14.4696 23.7667 16.0249C27.2106 17.5803 29.5112 17.2723 29.5112 17.2723L29.2875 12.8077L24.6117 8.79724L21.1228 9.35363L20.5267 11.046Z" fill="black"/>
<path d="M26.9775 16.5929L26.9906 18.5424L28.7242 16.8321L26.9775 16.5929Z" fill="black"/>
<path d="M44.0413 36.2645C43.8621 36.5648 43.6733 36.865 43.4747 37.1555C43.3924 37.2766 43.3101 37.3977 43.2181 37.5187C40.2739 41.7364 35.9158 44.8839 30.841 46.3124C30.7345 46.3415 30.6231 46.3705 30.5166 46.3996L30.8265 27.6161C30.8265 27.6161 30.8604 27.6209 30.9185 27.6306C30.933 27.6355 30.9524 27.6355 30.9718 27.6403C32.0855 27.8292 39.383 29.2722 43.3004 35.0152C43.5668 35.3978 43.8089 35.819 44.0413 36.2645Z" fill="#FC7A82"/>
<path d="M18.8553 14.3591C18.7521 14.3591 18.6567 14.2928 18.6243 14.1892C18.5846 14.0613 18.6558 13.9258 18.7831 13.886L20.0654 13.4851C20.1927 13.4449 20.3288 13.5161 20.369 13.6439C20.4087 13.7718 20.338 13.9074 20.2102 13.9471L18.9279 14.348C18.9037 14.3558 18.8795 14.3591 18.8553 14.3591Z" fill="black"/>
<path d="M27.3418 20.5941C27.2764 20.5941 27.2111 20.568 27.1636 20.5157C27.0731 20.4174 27.0794 20.2639 27.1777 20.1738L29.1611 18.3483C29.2594 18.2572 29.4129 18.264 29.5034 18.3623C29.5935 18.4606 29.5877 18.6141 29.4889 18.7042L27.5055 20.5297C27.4595 20.5733 27.4009 20.5941 27.3418 20.5941Z" fill="black"/>
<path d="M29.351 20.354C29.3185 20.354 29.2856 20.3473 29.2536 20.3337L28.0697 19.8141C27.9476 19.7604 27.8915 19.6175 27.9452 19.495C27.999 19.373 28.1413 19.3173 28.2643 19.3705L29.4483 19.8901C29.5703 19.9439 29.6265 20.0867 29.5727 20.2092C29.533 20.2998 29.4439 20.354 29.351 20.354Z" fill="black"/>
<path d="M19.2512 17.6045C19.2348 17.6045 19.2183 17.6026 19.2019 17.5997C19.0706 17.5726 18.9868 17.4442 19.014 17.3135L19.2493 16.1799L18.7878 15.6477C18.7002 15.547 18.7108 15.3935 18.812 15.3063C18.9132 15.2182 19.0663 15.2293 19.1534 15.3306L19.6938 15.9533C19.7437 16.0104 19.7636 16.0869 19.7481 16.161L19.4885 17.4118C19.4643 17.5261 19.3636 17.6045 19.2512 17.6045Z" fill="black"/>
<path d="M23.1305 17.8021C23.114 17.8021 23.0975 17.8007 23.0811 17.7973C22.9499 17.7702 22.8661 17.6418 22.8932 17.5111L23.1281 16.3775L22.6666 15.8453C22.5789 15.7446 22.5901 15.5916 22.6908 15.5035C22.792 15.4163 22.9445 15.4265 23.0327 15.5277L23.5726 16.1504C23.622 16.2075 23.6418 16.284 23.6268 16.3581L23.3673 17.6089C23.3435 17.7232 23.2428 17.8021 23.1305 17.8021Z" fill="black"/>
<path d="M20.0176 20.4295C19.9053 20.4295 19.8051 20.3511 19.7808 20.2373C19.3489 18.1744 20.3493 17.1343 20.3919 17.0907C20.4859 16.9953 20.6389 16.9943 20.7343 17.0888C20.8292 17.1827 20.8302 17.3352 20.7367 17.4306C20.696 17.4733 19.8806 18.3502 20.2544 20.1375C20.282 20.2687 20.1978 20.3966 20.067 20.4242C20.051 20.4281 20.0341 20.4295 20.0176 20.4295Z" fill="black"/>
<path d="M22.1093 22.409C21.9703 22.409 21.6381 22.3446 20.9495 21.5829C20.8672 21.4919 20.8382 21.3689 20.8701 21.2536C20.904 21.134 20.9984 21.0401 21.1234 21.0028C22.779 20.5074 22.9988 20.6721 23.1039 20.752C23.1882 20.8154 23.316 20.9684 23.2225 21.2827C23.1102 21.6604 22.593 22.378 22.1514 22.4076C22.1398 22.408 22.1257 22.409 22.1093 22.409ZM21.4517 21.411C21.8095 21.781 22.0473 21.9233 22.1194 21.9238C22.2899 21.9006 22.7068 21.3761 22.7645 21.1355C22.6279 21.1374 22.2294 21.1883 21.4517 21.411Z" fill="black"/>
<path d="M13.7949 36.158C13.7702 36.1866 11.4575 38.6664 11.8963 43.1247C11.7573 43.0351 11.6231 42.9407 11.4895 42.8419C11.4512 42.8172 11.4178 42.7872 11.3796 42.7577C11.0953 38.3313 13.4177 35.8563 13.4473 35.8229C13.5407 35.7275 13.6908 35.7256 13.7911 35.8142C13.886 35.9077 13.8884 36.0631 13.7949 36.158Z" fill="white"/>
<path d="M23.6905 29.274L21.9715 46.9874C21.2112 46.8905 20.4606 46.7598 19.7246 46.5952L22.078 29.6808L23.6905 29.274Z" fill="white"/>
<path d="M20.7608 27.2296C20.7608 27.2296 18.4651 32.3102 19.0147 32.2308C19.5638 32.1514 22.9472 29.4005 22.9472 29.4005C22.9472 29.4005 25.162 32.5131 25.9344 32.5708C26.7068 32.6284 26.959 27.0001 26.959 27.0001C26.959 27.0001 26.3746 28.5918 23.491 28.8615C20.6073 29.1312 20.7608 27.2296 20.7608 27.2296Z" fill="white"/>
</svg>
