<svg width="50" height="50" viewBox="0 0 50 50" fill="none" xmlns="http://www.w3.org/2000/svg">
<path d="M45.5301 36.3737L45.5298 36.3743C44.9735 37.3504 44.3467 38.2855 43.6597 39.1696C42.6496 40.4726 41.5077 41.6654 40.249 42.7274L40.2458 42.7302C40.2213 42.7512 40.1738 42.792 40.1182 42.8341C38.5974 44.1049 36.9164 45.1854 35.1054 46.0457L45.5301 36.3737ZM45.5301 36.3737C47.4875 32.9344 48.6052 28.9584 48.6052 24.7272C48.6052 11.7057 38.0465 1.1521 25.0301 1.1521C12.009 1.1521 1.4502 11.7055 1.4502 24.7272C1.4502 29.1559 2.6742 33.2987 4.79802 36.8434L4.79874 36.8446C5.36951 37.7942 6.00621 38.7039 6.70398 39.5636L45.5301 36.3737ZM32.5648 47.0731L32.5633 47.0736C30.197 47.8674 27.6637 48.3022 25.0301 48.3022C22.7714 48.3022 20.5865 47.9839 18.5167 47.3868M32.5648 47.0731L13.8539 44.3436L13.3572 45.2115C13.3575 45.2116 13.3577 45.2117 13.3579 45.2119C14.9668 46.1326 16.6966 46.8659 18.5167 47.3868M32.5648 47.0731C33.4349 46.7797 34.2849 46.4356 35.1051 46.0458L32.5648 47.0731ZM18.5167 47.3868C18.5165 47.3867 18.5162 47.3867 18.516 47.3866L18.7932 46.4258L18.5181 47.3872C18.5176 47.3871 18.5172 47.3869 18.5167 47.3868ZM7.4551 40.4417C7.45611 40.4428 7.45712 40.4439 7.45813 40.445L8.19807 39.7724L7.4522 40.4385C7.45317 40.4395 7.45413 40.4406 7.4551 40.4417ZM7.16435 40.111C7.16578 40.1126 7.16721 40.1142 7.16865 40.1158L7.91724 39.4528L7.16041 40.1064L7.16435 40.111Z" fill="#C0A2FC" stroke="white" stroke-width="2"/>
<path d="M21.5444 15.0836C21.5444 15.0836 17.6303 11.9545 19.4123 9.36138C21.1947 6.7683 25.0149 9.40641 25.0149 9.40641C25.0149 9.40641 26.5034 7.91738 28.6089 9.12216C30.7143 10.3269 30.955 13.2653 30.955 13.2653C30.955 13.2653 33.0997 13.2164 33.2222 15.8264C33.3447 18.4364 30.5357 20.7603 30.5357 20.7603L21.5444 15.0836Z" fill="black"/>
<path d="M39.4993 42.0482C38.037 43.2733 36.4196 44.3145 34.6764 45.1425C33.8919 45.5154 33.0784 45.8446 32.2455 46.1255C29.9793 46.8857 27.5533 47.3022 25.0304 47.3022C22.8658 47.3022 20.7739 46.9971 18.7934 46.4257C17.0502 45.927 15.3941 45.2248 13.8542 44.3435L13.5879 29.2547C19.5634 25.0612 25.3597 26.1072 25.3597 26.1072C25.3597 26.1072 32.9718 25.2404 36.9474 28.877C37.5285 29.4097 38.0224 30.0198 38.405 30.7413C39.0393 31.9277 39.3541 36.6926 39.4993 42.0482Z" fill="white"/>
<path d="M28.4154 22.1965L28.4648 27.1701C28.4648 27.1701 27.5821 28.6088 24.6752 28.8741C22.5097 29.0717 21.7432 28.5894 21.7432 28.5894L22.0206 26.0675L22.2942 23.6081L27.5366 22.4004L28.4154 22.1965Z" fill="#F2AC82"/>
<path d="M27.5355 22.4004C27.5243 22.5365 27.474 22.6972 27.3955 22.8817C26.3074 25.377 23.2703 25.9431 22.0195 26.0675L22.2931 23.6081L27.5355 22.4004Z" fill="black"/>
<path d="M21.0727 12.2828C21.0727 12.2828 18.5242 18.5439 19.5876 21.9985C20.651 25.453 23.8068 24.8245 25.6861 24.1039C27.5654 23.3834 28.4162 22.198 28.4162 22.198C28.4162 22.198 30.203 22.7539 31.3463 21.076C32.4891 19.3986 31.7119 17.5251 30.6892 17.1174C29.6665 16.7097 28.4825 17.4704 28.4825 17.4704L29.3793 15.6468C29.3793 15.6468 25.1805 6.60172 21.0727 12.2828Z" fill="#F2AC82"/>
<path d="M28.6902 20.1977C28.6161 20.1977 28.5425 20.1638 28.4951 20.0989C28.4161 19.9909 28.4394 19.8398 28.5469 19.7604L30.772 18.1271C30.879 18.0486 31.0305 18.0704 31.1104 18.1789C31.1894 18.2869 31.1661 18.438 31.0586 18.5174L28.8336 20.1507C28.7905 20.1827 28.7406 20.1977 28.6902 20.1977Z" fill="black"/>
<path d="M30.7317 20.1497C30.7128 20.1497 30.6935 20.1473 30.6736 20.1425L29.1938 19.7774C29.064 19.7454 28.9846 19.6142 29.017 19.4844C29.0485 19.3551 29.1763 19.2752 29.3105 19.3076L30.7903 19.6728C30.9201 19.7047 30.9995 19.8359 30.967 19.9657C30.9399 20.0761 30.8407 20.1497 30.7317 20.1497Z" fill="black"/>
<path d="M25.2612 14.9088C25.2336 14.9088 25.206 14.904 25.1784 14.8943C24.8114 14.7606 23.7548 14.702 23.378 14.6904C23.2449 14.6861 23.1398 14.5747 23.1437 14.4406C23.148 14.3074 23.2497 14.2047 23.393 14.2062C23.5398 14.211 24.838 14.2551 25.344 14.4391C25.4699 14.4851 25.5343 14.6241 25.4888 14.7495C25.453 14.8478 25.36 14.9088 25.2612 14.9088Z" fill="black"/>
<path d="M20.4351 14.7229C20.3184 14.7229 20.2152 14.6377 20.1963 14.5185C20.1755 14.3868 20.2661 14.2624 20.3978 14.2416C21.0549 14.1379 21.2544 14.1476 21.2873 14.1501C21.4205 14.1612 21.5193 14.2789 21.5077 14.412C21.4965 14.5437 21.3813 14.644 21.25 14.6328C21.2375 14.6309 21.0583 14.6275 20.4738 14.7205C20.4602 14.7219 20.4476 14.7229 20.4351 14.7229Z" fill="black"/>
<path d="M21.7009 20.2548C21.5973 20.2548 21.5019 20.188 21.4694 20.0838C20.8477 18.068 21.8854 16.6172 21.9299 16.5567C22.0084 16.4492 22.1595 16.425 22.2674 16.5044C22.3754 16.5828 22.3987 16.7344 22.3207 16.8419C22.3115 16.855 21.3837 18.1653 21.9314 19.941C21.9711 20.0688 21.8994 20.2044 21.7716 20.2436C21.7483 20.2514 21.7246 20.2548 21.7009 20.2548Z" fill="black"/>
<path d="M20.4823 17.1121C20.4619 17.1121 20.4416 17.1096 20.4208 17.1038C20.2915 17.0704 20.214 16.9377 20.2484 16.8085L20.5481 15.6652C20.5815 15.5354 20.7133 15.4565 20.8435 15.4923C20.9728 15.5257 21.0503 15.6584 21.0159 15.7877L20.7162 16.931C20.6881 17.0399 20.5898 17.1121 20.4823 17.1121Z" fill="black"/>
<path d="M23.6298 17.1425C23.6094 17.1425 23.5891 17.1401 23.5682 17.1343C23.439 17.1008 23.3615 16.9682 23.3959 16.8389L23.6956 15.6951C23.729 15.5653 23.8602 15.4874 23.991 15.5222C24.1203 15.5556 24.1977 15.6883 24.1639 15.8176L23.8641 16.9614C23.8355 17.0708 23.7373 17.1425 23.6298 17.1425Z" fill="black"/>
<path d="M20.5624 13.6933C20.5624 13.6933 21.0927 12.6881 22.3333 12.6672C23.5739 12.6464 24.307 13.5132 24.307 13.5132C24.307 13.5132 23.7835 15.6075 25.4813 16.7009C27.179 17.7938 28.4816 17.4709 28.4816 17.4709L29.7009 17.0224L30.5808 15.2254L27.0032 11.4455L22.3977 9.07227L20.084 11.215L20.5624 13.6933Z" fill="black"/>
<path d="M22.6569 21.4165C22.5973 21.4165 22.56 21.4136 22.5513 21.4126C22.4186 21.4015 22.3194 21.2838 22.331 21.1506C22.3426 21.0175 22.47 20.924 22.592 20.9303C22.6385 20.9332 23.5852 20.9957 23.9798 20.1313C24.035 20.0093 24.1803 19.958 24.3009 20.0117C24.4224 20.0674 24.4757 20.2112 24.4205 20.3328C23.9648 21.3303 22.9823 21.4165 22.6569 21.4165Z" fill="black"/>
<path d="M22.0196 26.067C22.0196 26.067 20.994 27.1546 20.3829 29.1608C20.0362 30.2988 20.1214 31.9781 20.3601 31.98C20.5989 31.982 22.3896 29.2112 23.5319 29.0422C24.6742 28.8737 25.6301 32.1907 26.1177 32.3069C26.6053 32.4231 28.5016 31.1176 29.1747 29.2281C29.8478 27.3381 28.6401 26.1203 28.6401 26.1203C28.6401 26.1203 22.7445 30.5951 22.0196 26.067Z" fill="#92B4EA"/>
<path d="M18.7939 46.4258C17.0506 45.927 15.3945 45.2249 13.8547 44.3435C11.7289 43.133 9.81615 41.5834 8.1988 39.7724C8.10196 39.6658 8.00997 39.5593 7.91797 39.4528C8.13103 38.799 8.36344 38.1453 8.62009 37.511C10.9493 31.7098 13.5884 29.2548 13.5884 29.2548L18.7939 46.4258Z" fill="white"/>
<path d="M42.87 38.5569C41.9016 39.8063 40.8072 40.9491 39.6015 41.966C39.5676 41.995 39.5337 42.0241 39.4998 42.0483C38.0374 43.2734 36.42 44.3145 34.6768 45.1425L36.9478 28.8771C36.9478 28.8771 40.1341 31.3321 42.87 38.5569Z" fill="white"/>
<path d="M13.5403 43.4269C13.5316 43.4269 13.5234 43.4264 13.5152 43.4255C13.382 43.4119 13.2852 43.2933 13.2992 43.1601L13.7602 38.6809C13.7737 38.5473 13.9001 38.449 14.0256 38.465C14.1587 38.4785 14.2556 38.5972 14.2415 38.7303L13.7805 43.2095C13.768 43.3344 13.6629 43.4269 13.5403 43.4269Z" fill="#92B4EA"/>
</svg>
