<svg width="48" height="48" viewBox="0 0 48 48" fill="none" xmlns="http://www.w3.org/2000/svg">
<rect x="0.599995" y="0.599995" width="46.7996" height="46.7996" rx="23.3998" stroke="#656DE1" stroke-width="1.19999"/>
<path fill-rule="evenodd" clip-rule="evenodd" d="M22.7887 19.2001C22.7887 21.1921 21.1927 22.8 19.2007 22.8C17.2087 22.8 15.6007 21.1921 15.6007 19.2001C15.6007 17.2081 17.2087 15.6001 19.2007 15.6001C21.1927 15.6001 22.7887 17.2081 22.7887 19.2001ZM32.3886 19.2001C32.3886 21.1921 30.7926 22.8 28.8006 22.8C26.8087 22.8 25.2007 21.1921 25.2007 19.2001C25.2007 17.2081 26.8087 15.6001 28.8006 15.6001C30.7926 15.6001 32.3886 17.2081 32.3886 19.2001ZM19.2007 25.2C16.4047 25.2 10.8008 26.604 10.8008 29.4V31.2C10.8008 31.86 11.3408 32.4 12.0008 32.4H26.4007C27.0607 32.4 27.6006 31.86 27.6006 31.2V29.4C27.6006 26.604 21.9967 25.2 19.2007 25.2ZM27.6358 25.26C28.0558 25.224 28.4518 25.2 28.7998 25.2C31.5958 25.2 37.1997 26.604 37.1997 29.4V31.2C37.1997 31.86 36.6597 32.4 35.9997 32.4H29.7838C29.9158 32.028 29.9998 31.62 29.9998 31.2V29.4C29.9998 27.636 29.0518 26.304 27.6838 25.308C27.6802 25.3044 27.6765 25.2997 27.6726 25.2945C27.6634 25.2826 27.6525 25.2684 27.6358 25.26Z" fill="#656DE1"/>
</svg>
