<svg width="30" height="30" viewBox="0 0 30 30" fill="none" xmlns="http://www.w3.org/2000/svg">
<g id="icon/social/group_24px">
<path id="icon/social/group_24px_2" fill-rule="evenodd" clip-rule="evenodd" d="M13.7878 10.2C13.7878 12.192 12.1918 13.8 10.1998 13.8C8.20781 13.8 6.59981 12.192 6.59981 10.2C6.59981 8.20798 8.20781 6.59998 10.1998 6.59998C12.1918 6.59998 13.7878 8.20798 13.7878 10.2ZM23.3878 10.2C23.3878 12.192 21.7918 13.8 19.7998 13.8C17.8078 13.8 16.1998 12.192 16.1998 10.2C16.1998 8.20798 17.8078 6.59998 19.7998 6.59998C21.7918 6.59998 23.3878 8.20798 23.3878 10.2ZM10.1998 16.2C7.40381 16.2 1.7998 17.604 1.7998 20.4V22.2C1.7998 22.86 2.3398 23.4 2.9998 23.4H17.3998C18.0598 23.4 18.5998 22.86 18.5998 22.2V20.4C18.5998 17.604 12.9958 16.2 10.1998 16.2ZM18.6355 16.26C19.0555 16.224 19.4515 16.2 19.7995 16.2C22.5956 16.2 28.1996 17.604 28.1996 20.4V22.2C28.1996 22.86 27.6595 23.4 26.9995 23.4H20.7836C20.9156 23.028 20.9995 22.62 20.9995 22.2V20.4C20.9995 18.636 20.0515 17.304 18.6835 16.308C18.6799 16.3043 18.6763 16.2996 18.6723 16.2944C18.6632 16.2825 18.6523 16.2683 18.6355 16.26Z" fill="white"/>
</g>
</svg>
