<svg width="287" height="120" viewBox="0 0 287 120" fill="none" xmlns="http://www.w3.org/2000/svg">
<g clip-path="url(#clip0_3887_41332)">
<rect width="287" height="120" rx="10.0043" fill="#8E94E9"/>
<g clip-path="url(#clip1_3887_41332)">
<circle cx="123.903" cy="123.903" r="123.61" transform="matrix(-0.355519 -0.934669 -0.934669 0.355519 473.839 239.621)" stroke="url(#paint0_linear_3887_41332)" stroke-width="0.585572"/>
<circle cx="88.5023" cy="88.5023" r="88.2095" transform="matrix(-0.355519 -0.934669 -0.934669 0.355519 428.09 219.191)" stroke="url(#paint1_linear_3887_41332)" stroke-width="0.585572"/>
</g>
<path d="M11.2 41V27H16.17C16.89 27 17.54 27.1467 18.12 27.44C18.7067 27.7333 19.17 28.1567 19.51 28.71C19.8567 29.2567 20.03 29.9133 20.03 30.68C20.03 31.0533 19.97 31.42 19.85 31.78C19.73 32.14 19.56 32.4567 19.34 32.73C19.12 33.0033 18.8533 33.1967 18.54 33.31C18.9667 33.4167 19.32 33.61 19.6 33.89C19.8867 34.1633 20.1133 34.4833 20.28 34.85C20.4467 35.2167 20.5633 35.5967 20.63 35.99C20.7033 36.3833 20.74 36.7567 20.74 37.11C20.74 37.8567 20.56 38.5233 20.2 39.11C19.84 39.6967 19.3567 40.16 18.75 40.5C18.15 40.8333 17.4867 41 16.76 41H11.2ZM13.28 39.2H16.56C16.9867 39.2 17.3733 39.0933 17.72 38.88C18.0733 38.6667 18.3533 38.3733 18.56 38C18.7667 37.62 18.87 37.1933 18.87 36.72C18.87 36.3067 18.7667 35.9167 18.56 35.55C18.3533 35.1767 18.0733 34.8767 17.72 34.65C17.3733 34.4233 16.9867 34.31 16.56 34.31H13.28V39.2ZM13.28 32.54H15.95C16.4967 32.54 16.9667 32.3733 17.36 32.04C17.7533 31.7067 17.95 31.25 17.95 30.67C17.95 30.05 17.7533 29.5867 17.36 29.28C16.9667 28.9667 16.4967 28.81 15.95 28.81H13.28V32.54ZM26.6742 41.26C25.7542 41.26 24.9142 41.0233 24.1542 40.55C23.4009 40.0767 22.7976 39.4433 22.3442 38.65C21.8976 37.85 21.6742 36.9667 21.6742 36C21.6742 35.2667 21.8042 34.5833 22.0642 33.95C22.3242 33.31 22.6809 32.75 23.1342 32.27C23.5942 31.7833 24.1276 31.4033 24.7342 31.13C25.3409 30.8567 25.9876 30.72 26.6742 30.72C27.5942 30.72 28.4309 30.9567 29.1842 31.43C29.9442 31.9033 30.5476 32.54 30.9942 33.34C31.4476 34.14 31.6742 35.0267 31.6742 36C31.6742 36.7267 31.5442 37.4067 31.2842 38.04C31.0242 38.6733 30.6642 39.2333 30.2042 39.72C29.7509 40.2 29.2209 40.5767 28.6142 40.85C28.0142 41.1233 27.3676 41.26 26.6742 41.26ZM26.6742 39.18C27.2276 39.18 27.7242 39.0333 28.1642 38.74C28.6042 38.4467 28.9509 38.06 29.2042 37.58C29.4642 37.0933 29.5942 36.5667 29.5942 36C29.5942 35.42 29.4609 34.8867 29.1942 34.4C28.9342 33.9133 28.5842 33.5267 28.1442 33.24C27.7042 32.9467 27.2142 32.8 26.6742 32.8C26.1276 32.8 25.6309 32.9467 25.1842 33.24C24.7442 33.5333 24.3942 33.9233 24.1342 34.41C23.8809 34.8967 23.7542 35.4267 23.7542 36C23.7542 36.5933 23.8876 37.13 24.1542 37.61C24.4209 38.09 24.7742 38.4733 25.2142 38.76C25.6609 39.04 26.1476 39.18 26.6742 39.18ZM37.6703 41.26C36.7503 41.26 35.9103 41.0233 35.1503 40.55C34.397 40.0767 33.7936 39.4433 33.3403 38.65C32.8936 37.85 32.6703 36.9667 32.6703 36C32.6703 35.2667 32.8003 34.5833 33.0603 33.95C33.3203 33.31 33.677 32.75 34.1303 32.27C34.5903 31.7833 35.1236 31.4033 35.7303 31.13C36.337 30.8567 36.9836 30.72 37.6703 30.72C38.5903 30.72 39.427 30.9567 40.1803 31.43C40.9403 31.9033 41.5436 32.54 41.9903 33.34C42.4436 34.14 42.6703 35.0267 42.6703 36C42.6703 36.7267 42.5403 37.4067 42.2803 38.04C42.0203 38.6733 41.6603 39.2333 41.2003 39.72C40.747 40.2 40.217 40.5767 39.6103 40.85C39.0103 41.1233 38.3636 41.26 37.6703 41.26ZM37.6703 39.18C38.2236 39.18 38.7203 39.0333 39.1603 38.74C39.6003 38.4467 39.947 38.06 40.2003 37.58C40.4603 37.0933 40.5903 36.5667 40.5903 36C40.5903 35.42 40.457 34.8867 40.1903 34.4C39.9303 33.9133 39.5803 33.5267 39.1403 33.24C38.7003 32.9467 38.2103 32.8 37.6703 32.8C37.1236 32.8 36.627 32.9467 36.1803 33.24C35.7403 33.5333 35.3903 33.9233 35.1303 34.41C34.877 34.8967 34.7503 35.4267 34.7503 36C34.7503 36.5933 34.8836 37.13 35.1503 37.61C35.417 38.09 35.7703 38.4733 36.2103 38.76C36.657 39.04 37.1436 39.18 37.6703 39.18ZM49.5073 33.08H47.4073L47.3973 41H45.3173L45.3273 33.08H43.7373V31H45.3273L45.3173 27.86H47.3973L47.4073 31H49.5073V33.08ZM57.8352 31H60.0552L54.5752 46H52.3652L54.1752 41L50.5852 31H52.8552L55.2152 38.15L57.8352 31ZM73.3441 41.26C72.3974 41.26 71.5074 41.0733 70.6741 40.7C69.8407 40.32 69.1074 39.8 68.4741 39.14C67.8474 38.4733 67.3541 37.7 66.9941 36.82C66.6407 35.94 66.4641 35 66.4641 34C66.4641 33 66.6407 32.06 66.9941 31.18C67.3541 30.3 67.8474 29.53 68.4741 28.87C69.1074 28.2033 69.8407 27.6833 70.6741 27.31C71.5074 26.93 72.3974 26.74 73.3441 26.74C74.4774 26.74 75.5207 27.0033 76.4741 27.53C77.4274 28.0567 78.2174 28.7567 78.8441 29.63L76.9941 30.62C76.5607 30.0733 76.0241 29.6367 75.3841 29.31C74.7441 28.9833 74.0641 28.82 73.3441 28.82C72.6774 28.82 72.0541 28.9567 71.4741 29.23C70.8941 29.5033 70.3841 29.8767 69.9441 30.35C69.5041 30.8233 69.1607 31.3733 68.9141 32C68.6674 32.6267 68.5441 33.2933 68.5441 34C68.5441 34.7133 68.6674 35.3833 68.9141 36.01C69.1607 36.63 69.5041 37.18 69.9441 37.66C70.3907 38.1333 70.9041 38.5067 71.4841 38.78C72.0641 39.0467 72.6841 39.18 73.3441 39.18C74.0774 39.18 74.7607 39.0167 75.3941 38.69C76.0341 38.3567 76.5674 37.9167 76.9941 37.37L78.8441 38.38C78.2174 39.2533 77.4274 39.9533 76.4741 40.48C75.5207 41 74.4774 41.26 73.3441 41.26ZM88.0425 31H90.1225V41H88.0325L87.9525 39.55C87.6592 40.0633 87.2625 40.4767 86.7625 40.79C86.2625 41.1033 85.6725 41.26 84.9925 41.26C84.2592 41.26 83.5692 41.1233 82.9225 40.85C82.2758 40.57 81.7058 40.1833 81.2125 39.69C80.7258 39.1967 80.3458 38.63 80.0725 37.99C79.7992 37.3433 79.6625 36.65 79.6625 35.91C79.6625 35.1967 79.7958 34.5267 80.0625 33.9C80.3292 33.2667 80.6992 32.7133 81.1725 32.24C81.6458 31.7667 82.1925 31.3967 82.8125 31.13C83.4392 30.8567 84.1092 30.72 84.8225 30.72C85.5492 30.72 86.1892 30.8867 86.7425 31.22C87.3025 31.5467 87.7658 31.9667 88.1325 32.48L88.0425 31ZM84.9425 39.25C85.5292 39.25 86.0425 39.1067 86.4825 38.82C86.9225 38.5267 87.2625 38.1333 87.5025 37.64C87.7492 37.1467 87.8725 36.6 87.8725 36C87.8725 35.3933 87.7492 34.8433 87.5025 34.35C87.2558 33.8567 86.9125 33.4667 86.4725 33.18C86.0392 32.8867 85.5292 32.74 84.9425 32.74C84.3625 32.74 83.8325 32.8867 83.3525 33.18C82.8725 33.4733 82.4925 33.8667 82.2125 34.36C81.9325 34.8533 81.7925 35.4 81.7925 36C81.7925 36.6067 81.9358 37.1567 82.2225 37.65C82.5158 38.1367 82.8992 38.5267 83.3725 38.82C83.8525 39.1067 84.3758 39.25 84.9425 39.25ZM92.1961 41V26H94.2761V41H92.1961ZM96.6688 41V26H98.7488V41H96.6688ZM11.2 63V49H19.45V51.08H13.28V54.46H18.49V56.54H13.28V63H11.2ZM24.4281 63.26C23.5081 63.26 22.6681 63.0233 21.9081 62.55C21.1548 62.0767 20.5515 61.4433 20.0981 60.65C19.6515 59.85 19.4281 58.9667 19.4281 58C19.4281 57.2667 19.5581 56.5833 19.8181 55.95C20.0781 55.31 20.4348 54.75 20.8881 54.27C21.3481 53.7833 21.8815 53.4033 22.4881 53.13C23.0948 52.8567 23.7415 52.72 24.4281 52.72C25.3481 52.72 26.1848 52.9567 26.9381 53.43C27.6981 53.9033 28.3015 54.54 28.7481 55.34C29.2015 56.14 29.4281 57.0267 29.4281 58C29.4281 58.7267 29.2981 59.4067 29.0381 60.04C28.7781 60.6733 28.4181 61.2333 27.9581 61.72C27.5048 62.2 26.9748 62.5767 26.3681 62.85C25.7681 63.1233 25.1215 63.26 24.4281 63.26ZM24.4281 61.18C24.9815 61.18 25.4781 61.0333 25.9181 60.74C26.3581 60.4467 26.7048 60.06 26.9581 59.58C27.2181 59.0933 27.3481 58.5667 27.3481 58C27.3481 57.42 27.2148 56.8867 26.9481 56.4C26.6881 55.9133 26.3381 55.5267 25.8981 55.24C25.4581 54.9467 24.9681 54.8 24.4281 54.8C23.8815 54.8 23.3848 54.9467 22.9381 55.24C22.4981 55.5333 22.1481 55.9233 21.8881 56.41C21.6348 56.8967 21.5081 57.4267 21.5081 58C21.5081 58.5933 21.6415 59.13 21.9081 59.61C22.1748 60.09 22.5281 60.4733 22.9681 60.76C23.4148 61.04 23.9015 61.18 24.4281 61.18ZM31.0438 63V53H33.1238V54.06C33.4704 53.6467 33.8971 53.32 34.4038 53.08C34.9104 52.84 35.4571 52.72 36.0438 52.72C36.4171 52.72 36.7871 52.77 37.1538 52.87L36.3238 54.97C36.0638 54.87 35.8038 54.82 35.5438 54.82C35.1038 54.82 34.7004 54.93 34.3338 55.15C33.9671 55.3633 33.6738 55.6533 33.4538 56.02C33.2338 56.3867 33.1238 56.7933 33.1238 57.24V63H31.0438ZM43.368 63V49H48.338C49.058 49 49.708 49.1467 50.288 49.44C50.8746 49.7333 51.338 50.1567 51.678 50.71C52.0246 51.2567 52.198 51.9133 52.198 52.68C52.198 53.0533 52.138 53.42 52.018 53.78C51.898 54.14 51.728 54.4567 51.508 54.73C51.288 55.0033 51.0213 55.1967 50.708 55.31C51.1346 55.4167 51.488 55.61 51.768 55.89C52.0546 56.1633 52.2813 56.4833 52.448 56.85C52.6146 57.2167 52.7313 57.5967 52.798 57.99C52.8713 58.3833 52.908 58.7567 52.908 59.11C52.908 59.8567 52.728 60.5233 52.368 61.11C52.008 61.6967 51.5246 62.16 50.918 62.5C50.318 62.8333 49.6546 63 48.928 63H43.368ZM45.448 61.2H48.728C49.1546 61.2 49.5413 61.0933 49.888 60.88C50.2413 60.6667 50.5213 60.3733 50.728 60C50.9346 59.62 51.038 59.1933 51.038 58.72C51.038 58.3067 50.9346 57.9167 50.728 57.55C50.5213 57.1767 50.2413 56.8767 49.888 56.65C49.5413 56.4233 49.1546 56.31 48.728 56.31H45.448V61.2ZM45.448 54.54H48.118C48.6646 54.54 49.1346 54.3733 49.528 54.04C49.9213 53.7067 50.118 53.25 50.118 52.67C50.118 52.05 49.9213 51.5867 49.528 51.28C49.1346 50.9667 48.6646 50.81 48.118 50.81H45.448V54.54ZM62.2222 53H64.3022V63H62.2122L62.1322 61.55C61.8389 62.0633 61.4422 62.4767 60.9422 62.79C60.4422 63.1033 59.8522 63.26 59.1722 63.26C58.4389 63.26 57.7489 63.1233 57.1022 62.85C56.4555 62.57 55.8855 62.1833 55.3922 61.69C54.9055 61.1967 54.5255 60.63 54.2522 59.99C53.9789 59.3433 53.8422 58.65 53.8422 57.91C53.8422 57.1967 53.9755 56.5267 54.2422 55.9C54.5089 55.2667 54.8789 54.7133 55.3522 54.24C55.8255 53.7667 56.3722 53.3967 56.9922 53.13C57.6189 52.8567 58.2889 52.72 59.0022 52.72C59.7289 52.72 60.3689 52.8867 60.9222 53.22C61.4822 53.5467 61.9455 53.9667 62.3122 54.48L62.2222 53ZM59.1222 61.25C59.7089 61.25 60.2222 61.1067 60.6622 60.82C61.1022 60.5267 61.4422 60.1333 61.6822 59.64C61.9289 59.1467 62.0522 58.6 62.0522 58C62.0522 57.3933 61.9289 56.8433 61.6822 56.35C61.4355 55.8567 61.0922 55.4667 60.6522 55.18C60.2189 54.8867 59.7089 54.74 59.1222 54.74C58.5422 54.74 58.0122 54.8867 57.5322 55.18C57.0522 55.4733 56.6722 55.8667 56.3922 56.36C56.1122 56.8533 55.9722 57.4 55.9722 58C55.9722 58.6067 56.1155 59.1567 56.4022 59.65C56.6955 60.1367 57.0789 60.5267 57.5522 60.82C58.0322 61.1067 58.5555 61.25 59.1222 61.25ZM66.2977 63V53H68.3777V54.06C68.7243 53.6467 69.151 53.32 69.6577 53.08C70.1643 52.84 70.711 52.72 71.2977 52.72C71.671 52.72 72.041 52.77 72.4077 52.87L71.5777 54.97C71.3177 54.87 71.0577 54.82 70.7977 54.82C70.3577 54.82 69.9543 54.93 69.5877 55.15C69.221 55.3633 68.9277 55.6533 68.7077 56.02C68.4877 56.3867 68.3777 56.7933 68.3777 57.24V63H66.2977ZM80.7045 53H82.7845V63.26C82.7845 63.9467 82.6379 64.58 82.3445 65.16C82.0579 65.74 81.6679 66.24 81.1745 66.66C80.6812 67.0867 80.1145 67.4167 79.4745 67.65C78.8412 67.8833 78.1779 68 77.4845 68C76.7845 68 76.1112 67.85 75.4645 67.55C74.8179 67.2567 74.2479 66.8567 73.7545 66.35C73.2679 65.8433 72.9045 65.27 72.6645 64.63L74.5745 63.77C74.7079 64.1833 74.9212 64.55 75.2145 64.87C75.5145 65.19 75.8612 65.4433 76.2545 65.63C76.6545 65.8167 77.0645 65.91 77.4845 65.91C77.8979 65.91 78.2945 65.8433 78.6745 65.71C79.0612 65.5833 79.4045 65.4033 79.7045 65.17C80.0112 64.9367 80.2545 64.6567 80.4345 64.33C80.6145 64.0033 80.7045 63.6467 80.7045 63.26V61.57C80.3779 62.0767 79.9579 62.4867 79.4445 62.8C78.9312 63.1067 78.3345 63.26 77.6545 63.26C76.9479 63.26 76.2812 63.1233 75.6545 62.85C75.0279 62.5767 74.4779 62.2 74.0045 61.72C73.5312 61.2333 73.1612 60.6733 72.8945 60.04C72.6279 59.4067 72.4945 58.7267 72.4945 58C72.4945 57.2733 72.6279 56.5933 72.8945 55.96C73.1612 55.32 73.5312 54.76 74.0045 54.28C74.4779 53.7933 75.0279 53.4133 75.6545 53.14C76.2812 52.8667 76.9479 52.73 77.6545 52.73C78.3345 52.73 78.9312 52.8867 79.4445 53.2C79.9579 53.5067 80.3779 53.9167 80.7045 54.43V53ZM77.6745 61.25C78.2545 61.25 78.7612 61.1033 79.1945 60.81C79.6279 60.51 79.9645 60.1133 80.2045 59.62C80.4445 59.1267 80.5645 58.5867 80.5645 58C80.5645 57.4 80.4412 56.8567 80.1945 56.37C79.9545 55.8767 79.6179 55.4833 79.1845 55.19C78.7512 54.89 78.2479 54.74 77.6745 54.74C77.1145 54.74 76.6012 54.8867 76.1345 55.18C75.6745 55.4733 75.3079 55.8667 75.0345 56.36C74.7612 56.8533 74.6245 57.4 74.6245 58C74.6245 58.6 74.7612 59.1467 75.0345 59.64C75.3145 60.1333 75.6845 60.5267 76.1445 60.82C76.6112 61.1067 77.1212 61.25 77.6745 61.25ZM92.7886 53H94.8686V63H92.7786L92.6986 61.55C92.4053 62.0633 92.0086 62.4767 91.5086 62.79C91.0086 63.1033 90.4186 63.26 89.7386 63.26C89.0053 63.26 88.3153 63.1233 87.6686 62.85C87.0219 62.57 86.4519 62.1833 85.9586 61.69C85.4719 61.1967 85.0919 60.63 84.8186 59.99C84.5453 59.3433 84.4086 58.65 84.4086 57.91C84.4086 57.1967 84.5419 56.5267 84.8086 55.9C85.0753 55.2667 85.4453 54.7133 85.9186 54.24C86.3919 53.7667 86.9386 53.3967 87.5586 53.13C88.1853 52.8567 88.8553 52.72 89.5686 52.72C90.2953 52.72 90.9353 52.8867 91.4886 53.22C92.0486 53.5467 92.5119 53.9667 92.8786 54.48L92.7886 53ZM89.6886 61.25C90.2753 61.25 90.7886 61.1067 91.2286 60.82C91.6686 60.5267 92.0086 60.1333 92.2486 59.64C92.4953 59.1467 92.6186 58.6 92.6186 58C92.6186 57.3933 92.4953 56.8433 92.2486 56.35C92.0019 55.8567 91.6586 55.4667 91.2186 55.18C90.7853 54.8867 90.2753 54.74 89.6886 54.74C89.1086 54.74 88.5786 54.8867 88.0986 55.18C87.6186 55.4733 87.2386 55.8667 86.9586 56.36C86.6786 56.8533 86.5386 57.4 86.5386 58C86.5386 58.6067 86.6819 59.1567 86.9686 59.65C87.2619 60.1367 87.6453 60.5267 88.1186 60.82C88.5986 61.1067 89.1219 61.25 89.6886 61.25ZM96.8641 53H98.9441V63H96.8641V53ZM97.9241 51.55C97.6041 51.55 97.3374 51.4467 97.1241 51.24C96.9107 51.0333 96.8041 50.7733 96.8041 50.46C96.8041 50.1533 96.9107 49.8967 97.1241 49.69C97.3374 49.4767 97.6007 49.37 97.9141 49.37C98.2207 49.37 98.4807 49.4767 98.6941 49.69C98.9074 49.8967 99.0141 50.1533 99.0141 50.46C99.0141 50.7733 98.9074 51.0333 98.6941 51.24C98.4874 51.4467 98.2307 51.55 97.9241 51.55ZM110.259 56.73V63H108.179V57.24C108.179 56.7933 108.069 56.3867 107.849 56.02C107.635 55.6533 107.345 55.3633 106.979 55.15C106.619 54.93 106.212 54.82 105.759 54.82C105.319 54.82 104.915 54.93 104.549 55.15C104.182 55.3633 103.889 55.6533 103.669 56.02C103.449 56.3867 103.339 56.7933 103.339 57.24V63H101.259V53H103.339V54.06C103.685 53.6467 104.112 53.32 104.619 53.08C105.125 52.84 105.672 52.72 106.259 52.72C106.999 52.72 107.672 52.9 108.279 53.26C108.885 53.62 109.365 54.1033 109.719 54.71C110.079 55.3167 110.259 55.99 110.259 56.73ZM115.255 63.19C114.728 63.1567 114.215 63.05 113.715 62.87C113.215 62.69 112.775 62.4467 112.395 62.14C112.021 61.8267 111.741 61.46 111.555 61.04L113.325 60.28C113.411 60.46 113.561 60.6367 113.775 60.81C113.995 60.9833 114.251 61.1267 114.545 61.24C114.838 61.3467 115.145 61.4 115.465 61.4C115.778 61.4 116.068 61.3567 116.335 61.27C116.608 61.1767 116.831 61.0367 117.005 60.85C117.178 60.6633 117.265 60.44 117.265 60.18C117.265 59.8867 117.165 59.66 116.965 59.5C116.771 59.3333 116.528 59.2067 116.235 59.12C115.941 59.0333 115.648 58.95 115.355 58.87C114.701 58.7233 114.101 58.5233 113.555 58.27C113.015 58.01 112.585 57.68 112.265 57.28C111.945 56.8733 111.785 56.3767 111.785 55.79C111.785 55.15 111.958 54.5967 112.305 54.13C112.651 53.6567 113.105 53.2933 113.665 53.04C114.231 52.7867 114.835 52.66 115.475 52.66C116.275 52.66 117.008 52.83 117.675 53.17C118.341 53.51 118.851 53.9767 119.205 54.57L117.555 55.55C117.455 55.35 117.305 55.17 117.105 55.01C116.905 54.85 116.678 54.7233 116.425 54.63C116.171 54.53 115.908 54.4733 115.635 54.46C115.295 54.4467 114.978 54.4867 114.685 54.58C114.398 54.6667 114.168 54.8067 113.995 55C113.821 55.1933 113.735 55.44 113.735 55.74C113.735 56.0333 113.838 56.2533 114.045 56.4C114.251 56.54 114.511 56.6533 114.825 56.74C115.145 56.8267 115.471 56.9233 115.805 57.03C116.398 57.2167 116.955 57.4467 117.475 57.72C117.995 57.9867 118.415 58.3167 118.735 58.71C119.055 59.1033 119.208 59.5833 119.195 60.15C119.195 60.7767 119.005 61.3267 118.625 61.8C118.251 62.2733 117.765 62.6333 117.165 62.88C116.565 63.1267 115.928 63.23 115.255 63.19ZM120.717 58.8V49H122.487V58.8H120.717ZM121.607 63.26C121.3 63.26 121.04 63.1533 120.827 62.94C120.614 62.7267 120.507 62.4633 120.507 62.15C120.507 61.85 120.614 61.5967 120.827 61.39C121.04 61.1767 121.3 61.07 121.607 61.07C121.907 61.07 122.16 61.1767 122.367 61.39C122.58 61.5967 122.687 61.85 122.687 62.15C122.687 62.4633 122.58 62.7267 122.367 62.94C122.16 63.1533 121.907 63.26 121.607 63.26Z" fill="#F6FF82"/>
<rect x="9" y="75" width="153" height="24" rx="12" fill="#F6FF82"/>
<path d="M25.2225 91.656C24.7585 91.656 24.3125 91.584 23.8845 91.44C23.4605 91.292 23.0885 91.082 22.7685 90.81C22.4485 90.534 22.2185 90.204 22.0785 89.82L23.4525 89.316C23.5085 89.476 23.6225 89.622 23.7945 89.754C23.9665 89.886 24.1765 89.992 24.4245 90.072C24.6725 90.152 24.9385 90.192 25.2225 90.192C25.5145 90.192 25.7865 90.148 26.0385 90.06C26.2945 89.968 26.5005 89.842 26.6565 89.682C26.8125 89.518 26.8905 89.328 26.8905 89.112C26.8905 88.892 26.8085 88.712 26.6445 88.572C26.4805 88.428 26.2705 88.314 26.0145 88.23C25.7585 88.146 25.4945 88.082 25.2225 88.038C24.6265 87.946 24.0925 87.804 23.6205 87.612C23.1485 87.42 22.7745 87.154 22.4985 86.814C22.2265 86.474 22.0905 86.034 22.0905 85.494C22.0905 84.986 22.2365 84.542 22.5285 84.162C22.8205 83.782 23.2045 83.486 23.6805 83.274C24.1565 83.062 24.6705 82.956 25.2225 82.956C25.6825 82.956 26.1265 83.028 26.5545 83.172C26.9825 83.316 27.3565 83.526 27.6765 83.802C28.0005 84.078 28.2325 84.41 28.3725 84.798L26.9925 85.296C26.9365 85.136 26.8225 84.99 26.6505 84.858C26.4785 84.726 26.2685 84.622 26.0205 84.546C25.7725 84.466 25.5065 84.426 25.2225 84.426C24.9385 84.422 24.6685 84.468 24.4125 84.564C24.1605 84.656 23.9545 84.782 23.7945 84.942C23.6345 85.102 23.5545 85.286 23.5545 85.494C23.5545 85.762 23.6285 85.964 23.7765 86.1C23.9285 86.236 24.1305 86.336 24.3825 86.4C24.6345 86.46 24.9145 86.516 25.2225 86.568C25.7825 86.656 26.3005 86.804 26.7765 87.012C27.2525 87.22 27.6345 87.498 27.9225 87.846C28.2105 88.19 28.3545 88.612 28.3545 89.112C28.3545 89.62 28.2105 90.066 27.9225 90.45C27.6345 90.83 27.2525 91.126 26.7765 91.338C26.3005 91.55 25.7825 91.656 25.2225 91.656ZM35.218 87.708V91.5H33.754V88.092C33.754 87.856 33.696 87.642 33.58 87.45C33.464 87.254 33.308 87.1 33.112 86.988C32.92 86.872 32.706 86.814 32.47 86.814C32.234 86.814 32.018 86.872 31.822 86.988C31.63 87.1 31.476 87.254 31.36 87.45C31.248 87.642 31.192 87.856 31.192 88.092V91.5H29.728L29.722 82.5H31.186L31.192 86.034C31.396 85.818 31.64 85.648 31.924 85.524C32.208 85.396 32.514 85.332 32.842 85.332C33.278 85.332 33.676 85.44 34.036 85.656C34.396 85.868 34.682 86.154 34.894 86.514C35.11 86.87 35.218 87.268 35.218 87.708ZM40.8202 85.5H42.2842V91.5H40.8202L40.7542 90.756C40.5902 91.024 40.3722 91.242 40.1002 91.41C39.8322 91.574 39.5142 91.656 39.1462 91.656C38.7022 91.656 38.2862 91.572 37.8982 91.404C37.5102 91.236 37.1682 91.004 36.8722 90.708C36.5802 90.412 36.3502 90.07 36.1822 89.682C36.0182 89.294 35.9362 88.878 35.9362 88.434C35.9362 88.006 36.0142 87.604 36.1702 87.228C36.3302 86.852 36.5522 86.522 36.8362 86.238C37.1202 85.954 37.4482 85.732 37.8202 85.572C38.1922 85.412 38.5922 85.332 39.0202 85.332C39.4162 85.332 39.7702 85.42 40.0822 85.596C40.3982 85.772 40.6662 85.996 40.8862 86.268L40.8202 85.5ZM39.1102 90.246C39.4222 90.246 39.6982 90.168 39.9382 90.012C40.1782 89.856 40.3662 89.646 40.5022 89.382C40.6382 89.114 40.7062 88.82 40.7062 88.5C40.7062 88.176 40.6382 87.882 40.5022 87.618C40.3662 87.35 40.1762 87.138 39.9322 86.982C39.6922 86.826 39.4182 86.748 39.1102 86.748C38.8022 86.748 38.5202 86.828 38.2642 86.988C38.0122 87.144 37.8102 87.354 37.6582 87.618C37.5102 87.882 37.4362 88.176 37.4362 88.5C37.4362 88.824 37.5122 89.118 37.6642 89.382C37.8162 89.646 38.0182 89.856 38.2702 90.012C38.5262 90.168 38.8062 90.246 39.1102 90.246ZM43.4858 91.5L43.4798 85.5H44.9438L44.9498 86.034C45.1538 85.818 45.3978 85.648 45.6818 85.524C45.9658 85.396 46.2718 85.332 46.5998 85.332C46.8198 85.332 47.0398 85.364 47.2598 85.428L46.6838 86.904C46.5318 86.844 46.3798 86.814 46.2278 86.814C45.9918 86.814 45.7758 86.872 45.5798 86.988C45.3878 87.1 45.2338 87.254 45.1178 87.45C45.0058 87.642 44.9498 87.856 44.9498 88.092V91.5H43.4858ZM50.2916 91.656C49.7396 91.656 49.2356 91.514 48.7796 91.23C48.3276 90.946 47.9656 90.564 47.6936 90.084C47.4256 89.604 47.2916 89.074 47.2916 88.494C47.2916 88.058 47.3696 87.65 47.5256 87.27C47.6816 86.886 47.8956 86.55 48.1676 86.262C48.4436 85.97 48.7636 85.742 49.1276 85.578C49.4916 85.414 49.8796 85.332 50.2916 85.332C50.7596 85.332 51.1876 85.432 51.5756 85.632C51.9676 85.828 52.2996 86.098 52.5716 86.442C52.8436 86.786 53.0416 87.178 53.1656 87.618C53.2896 88.058 53.3176 88.518 53.2496 88.998H48.8636C48.9196 89.222 49.0116 89.424 49.1396 89.604C49.2676 89.78 49.4296 89.922 49.6256 90.03C49.8216 90.134 50.0436 90.188 50.2916 90.192C50.5476 90.196 50.7796 90.136 50.9876 90.012C51.1996 89.884 51.3756 89.712 51.5156 89.496L53.0096 89.844C52.7656 90.376 52.4016 90.812 51.9176 91.152C51.4336 91.488 50.8916 91.656 50.2916 91.656ZM48.8156 87.9H51.7676C51.7236 87.66 51.6296 87.444 51.4856 87.252C51.3456 87.056 51.1716 86.9 50.9636 86.784C50.7556 86.668 50.5316 86.61 50.2916 86.61C50.0516 86.61 49.8296 86.668 49.6256 86.784C49.4216 86.896 49.2476 87.05 49.1036 87.246C48.9636 87.438 48.8676 87.656 48.8156 87.9ZM61.3653 85.5H62.9193L59.6373 94.5H58.0833L59.1693 91.5L57.0093 85.5H58.6113L59.9013 89.496L61.3653 85.5ZM66.1588 91.656C65.6068 91.656 65.1028 91.514 64.6468 91.23C64.1948 90.946 63.8328 90.566 63.5608 90.09C63.2928 89.61 63.1588 89.08 63.1588 88.5C63.1588 88.06 63.2368 87.65 63.3928 87.27C63.5488 86.886 63.7628 86.55 64.0348 86.262C64.3108 85.97 64.6308 85.742 64.9948 85.578C65.3588 85.414 65.7468 85.332 66.1588 85.332C66.7108 85.332 67.2128 85.474 67.6648 85.758C68.1208 86.042 68.4828 86.424 68.7508 86.904C69.0228 87.384 69.1588 87.916 69.1588 88.5C69.1588 88.936 69.0808 89.344 68.9248 89.724C68.7688 90.104 68.5528 90.44 68.2768 90.732C68.0048 91.02 67.6868 91.246 67.3228 91.41C66.9628 91.574 66.5748 91.656 66.1588 91.656ZM66.1588 90.192C66.4508 90.192 66.7128 90.114 66.9448 89.958C67.1768 89.802 67.3588 89.596 67.4908 89.34C67.6268 89.084 67.6948 88.804 67.6948 88.5C67.6948 88.188 67.6248 87.904 67.4848 87.648C67.3488 87.388 67.1628 87.182 66.9268 87.03C66.6948 86.874 66.4388 86.796 66.1588 86.796C65.8708 86.796 65.6108 86.874 65.3788 87.03C65.1468 87.186 64.9628 87.394 64.8268 87.654C64.6908 87.914 64.6228 88.196 64.6228 88.5C64.6228 88.816 64.6928 89.102 64.8328 89.358C64.9728 89.614 65.1588 89.818 65.3908 89.97C65.6268 90.118 65.8828 90.192 66.1588 90.192ZM69.7241 89.28V85.5H71.1881V88.896C71.1881 89.132 71.2461 89.348 71.3621 89.544C71.4781 89.736 71.6321 89.89 71.8241 90.006C72.0201 90.118 72.2341 90.174 72.4661 90.174C72.7061 90.174 72.9221 90.118 73.1141 90.006C73.3061 89.89 73.4601 89.736 73.5761 89.544C73.6921 89.348 73.7501 89.132 73.7501 88.896V85.5H75.2141L75.2201 91.5H73.7561L73.7501 90.954C73.5421 91.17 73.2961 91.342 73.0121 91.47C72.7281 91.594 72.4241 91.656 72.1001 91.656C71.6641 91.656 71.2661 91.55 70.9061 91.338C70.5461 91.122 70.2581 90.836 70.0421 90.48C69.8301 90.12 69.7241 89.72 69.7241 89.28ZM76.4272 91.5L76.4212 85.5H77.8852L77.8912 86.034C78.0952 85.818 78.3392 85.648 78.6232 85.524C78.9072 85.396 79.2132 85.332 79.5412 85.332C79.7612 85.332 79.9812 85.364 80.2012 85.428L79.6252 86.904C79.4732 86.844 79.3212 86.814 79.1692 86.814C78.9332 86.814 78.7172 86.872 78.5212 86.988C78.3292 87.1 78.1752 87.254 78.0592 87.45C77.9472 87.642 77.8912 87.856 77.8912 88.092V91.5H76.4272ZM88.4572 82.5H89.9212V91.5H88.4572V90.75C88.2652 91.018 88.0232 91.236 87.7312 91.404C87.4392 91.572 87.1012 91.656 86.7172 91.656C86.2812 91.656 85.8732 91.574 85.4932 91.41C85.1132 91.246 84.7772 91.02 84.4852 90.732C84.1972 90.44 83.9712 90.104 83.8072 89.724C83.6432 89.344 83.5612 88.936 83.5612 88.5C83.5612 88.064 83.6432 87.656 83.8072 87.276C83.9712 86.896 84.1972 86.562 84.4852 86.274C84.7772 85.982 85.1132 85.754 85.4932 85.59C85.8732 85.426 86.2812 85.344 86.7172 85.344C87.1012 85.344 87.4392 85.428 87.7312 85.596C88.0232 85.76 88.2652 85.978 88.4572 86.25V82.5ZM86.7352 90.246C87.0472 90.246 87.3232 90.168 87.5632 90.012C87.8032 89.856 87.9912 89.646 88.1272 89.382C88.2632 89.114 88.3312 88.82 88.3312 88.5C88.3312 88.176 88.2632 87.882 88.1272 87.618C87.9912 87.35 87.8012 87.138 87.5572 86.982C87.3172 86.826 87.0432 86.748 86.7352 86.748C86.4272 86.748 86.1452 86.828 85.8892 86.988C85.6372 87.144 85.4352 87.354 85.2832 87.618C85.1352 87.882 85.0612 88.176 85.0612 88.5C85.0612 88.824 85.1372 89.118 85.2892 89.382C85.4412 89.646 85.6432 89.856 85.8952 90.012C86.1512 90.168 86.4312 90.246 86.7352 90.246ZM91.3626 85.5H92.8266V91.5H91.3626V85.5ZM92.1066 84.726C91.8906 84.726 91.7086 84.656 91.5606 84.516C91.4126 84.372 91.3386 84.192 91.3386 83.976C91.3386 83.764 91.4126 83.586 91.5606 83.442C91.7086 83.298 91.8886 83.226 92.1006 83.226C92.3126 83.226 92.4906 83.298 92.6346 83.442C92.7826 83.586 92.8566 83.764 92.8566 83.976C92.8566 84.192 92.7846 84.372 92.6406 84.516C92.4966 84.656 92.3186 84.726 92.1066 84.726ZM95.9451 91.608C95.6331 91.588 95.3311 91.526 95.0391 91.422C94.7511 91.314 94.4951 91.168 94.2711 90.984C94.0471 90.8 93.8751 90.58 93.7551 90.324L94.9911 89.796C95.0391 89.876 95.1171 89.962 95.2251 90.054C95.3331 90.142 95.4611 90.216 95.6091 90.276C95.7611 90.336 95.9271 90.366 96.1071 90.366C96.2591 90.366 96.4031 90.346 96.5391 90.306C96.6791 90.262 96.7911 90.196 96.8751 90.108C96.9631 90.02 97.0071 89.906 97.0071 89.766C97.0071 89.618 96.9551 89.504 96.8511 89.424C96.7511 89.34 96.6231 89.278 96.4671 89.238C96.3151 89.194 96.1671 89.154 96.0231 89.118C95.6431 89.042 95.2891 88.924 94.9611 88.764C94.6371 88.604 94.3751 88.398 94.1751 88.146C93.9791 87.89 93.8811 87.582 93.8811 87.222C93.8811 86.826 93.9851 86.484 94.1931 86.196C94.4051 85.908 94.6791 85.686 95.0151 85.53C95.3551 85.374 95.7211 85.296 96.1131 85.296C96.5891 85.296 97.0251 85.396 97.4211 85.596C97.8211 85.792 98.1371 86.07 98.3691 86.43L97.2111 87.114C97.1551 87.018 97.0771 86.93 96.9771 86.85C96.8771 86.766 96.7631 86.698 96.6351 86.646C96.5071 86.59 96.3731 86.558 96.2331 86.55C96.0531 86.542 95.8891 86.558 95.7411 86.598C95.5931 86.638 95.4731 86.706 95.3811 86.802C95.2931 86.898 95.2491 87.026 95.2491 87.186C95.2491 87.338 95.3091 87.452 95.4291 87.528C95.5491 87.6 95.6931 87.656 95.8611 87.696C96.0331 87.736 96.1971 87.78 96.3531 87.828C96.7051 87.944 97.0351 88.086 97.3431 88.254C97.6551 88.422 97.9051 88.628 98.0931 88.872C98.2811 89.116 98.3711 89.408 98.3631 89.748C98.3631 90.136 98.2471 90.476 98.0151 90.768C97.7831 91.056 97.4831 91.276 97.1151 91.428C96.7511 91.58 96.3611 91.64 95.9451 91.608ZM103.016 89.694L104.336 90.408C104.06 90.784 103.714 91.086 103.298 91.314C102.882 91.542 102.428 91.656 101.936 91.656C101.384 91.656 100.88 91.514 100.424 91.23C99.9722 90.946 99.6102 90.566 99.3382 90.09C99.0702 89.61 98.9362 89.08 98.9362 88.5C98.9362 88.06 99.0142 87.65 99.1702 87.27C99.3262 86.886 99.5402 86.55 99.8122 86.262C100.088 85.97 100.408 85.742 100.772 85.578C101.136 85.414 101.524 85.332 101.936 85.332C102.428 85.332 102.882 85.446 103.298 85.674C103.714 85.902 104.06 86.208 104.336 86.592L103.016 87.3C102.876 87.14 102.71 87.016 102.518 86.928C102.33 86.84 102.136 86.796 101.936 86.796C101.648 86.796 101.388 86.876 101.156 87.036C100.924 87.192 100.74 87.4 100.604 87.66C100.468 87.916 100.4 88.196 100.4 88.5C100.4 88.8 100.468 89.08 100.604 89.34C100.74 89.596 100.924 89.802 101.156 89.958C101.388 90.114 101.648 90.192 101.936 90.192C102.144 90.192 102.342 90.148 102.53 90.06C102.718 89.968 102.88 89.846 103.016 89.694ZM107.866 91.656C107.314 91.656 106.81 91.514 106.354 91.23C105.902 90.946 105.54 90.566 105.268 90.09C105 89.61 104.866 89.08 104.866 88.5C104.866 88.06 104.944 87.65 105.1 87.27C105.256 86.886 105.47 86.55 105.742 86.262C106.018 85.97 106.338 85.742 106.702 85.578C107.066 85.414 107.454 85.332 107.866 85.332C108.418 85.332 108.92 85.474 109.372 85.758C109.828 86.042 110.19 86.424 110.458 86.904C110.73 87.384 110.866 87.916 110.866 88.5C110.866 88.936 110.788 89.344 110.632 89.724C110.476 90.104 110.26 90.44 109.984 90.732C109.712 91.02 109.394 91.246 109.03 91.41C108.67 91.574 108.282 91.656 107.866 91.656ZM107.866 90.192C108.158 90.192 108.42 90.114 108.652 89.958C108.884 89.802 109.066 89.596 109.198 89.34C109.334 89.084 109.402 88.804 109.402 88.5C109.402 88.188 109.332 87.904 109.192 87.648C109.056 87.388 108.87 87.182 108.634 87.03C108.402 86.874 108.146 86.796 107.866 86.796C107.578 86.796 107.318 86.874 107.086 87.03C106.854 87.186 106.67 87.394 106.534 87.654C106.398 87.914 106.33 88.196 106.33 88.5C106.33 88.816 106.4 89.102 106.54 89.358C106.68 89.614 106.866 89.818 107.098 89.97C107.334 90.118 107.59 90.192 107.866 90.192ZM111.431 89.28V85.5H112.895V88.896C112.895 89.132 112.953 89.348 113.069 89.544C113.185 89.736 113.339 89.89 113.531 90.006C113.727 90.118 113.941 90.174 114.173 90.174C114.413 90.174 114.629 90.118 114.821 90.006C115.013 89.89 115.167 89.736 115.283 89.544C115.399 89.348 115.457 89.132 115.457 88.896V85.5H116.921L116.927 91.5H115.463L115.457 90.954C115.249 91.17 115.003 91.342 114.719 91.47C114.435 91.594 114.131 91.656 113.807 91.656C113.371 91.656 112.973 91.55 112.613 91.338C112.253 91.122 111.965 90.836 111.749 90.48C111.537 90.12 111.431 89.72 111.431 89.28ZM123.624 87.708V91.5H122.16V88.092C122.16 87.856 122.102 87.642 121.986 87.45C121.87 87.254 121.714 87.1 121.518 86.988C121.326 86.872 121.112 86.814 120.876 86.814C120.64 86.814 120.424 86.872 120.228 86.988C120.036 87.1 119.882 87.254 119.766 87.45C119.654 87.642 119.598 87.856 119.598 88.092V91.5H118.134L118.128 85.5H119.592L119.598 86.034C119.802 85.818 120.046 85.648 120.33 85.524C120.614 85.396 120.92 85.332 121.248 85.332C121.684 85.332 122.082 85.44 122.442 85.656C122.802 85.868 123.088 86.154 123.3 86.514C123.516 86.87 123.624 87.268 123.624 87.708ZM128.036 86.964H126.872V91.5H125.408V86.964H124.52V85.5H125.408V83.616H126.872V85.5H128.036V86.964ZM130.797 91.608C130.485 91.588 130.183 91.526 129.891 91.422C129.603 91.314 129.347 91.168 129.123 90.984C128.899 90.8 128.727 90.58 128.607 90.324L129.843 89.796C129.891 89.876 129.969 89.962 130.077 90.054C130.185 90.142 130.313 90.216 130.461 90.276C130.613 90.336 130.779 90.366 130.959 90.366C131.111 90.366 131.255 90.346 131.391 90.306C131.531 90.262 131.643 90.196 131.727 90.108C131.815 90.02 131.859 89.906 131.859 89.766C131.859 89.618 131.807 89.504 131.703 89.424C131.603 89.34 131.475 89.278 131.319 89.238C131.167 89.194 131.019 89.154 130.875 89.118C130.495 89.042 130.141 88.924 129.813 88.764C129.489 88.604 129.227 88.398 129.027 88.146C128.831 87.89 128.733 87.582 128.733 87.222C128.733 86.826 128.837 86.484 129.045 86.196C129.257 85.908 129.531 85.686 129.867 85.53C130.207 85.374 130.573 85.296 130.965 85.296C131.441 85.296 131.877 85.396 132.273 85.596C132.673 85.792 132.989 86.07 133.221 86.43L132.063 87.114C132.007 87.018 131.929 86.93 131.829 86.85C131.729 86.766 131.615 86.698 131.487 86.646C131.359 86.59 131.225 86.558 131.085 86.55C130.905 86.542 130.741 86.558 130.593 86.598C130.445 86.638 130.325 86.706 130.233 86.802C130.145 86.898 130.101 87.026 130.101 87.186C130.101 87.338 130.161 87.452 130.281 87.528C130.401 87.6 130.545 87.656 130.713 87.696C130.885 87.736 131.049 87.78 131.205 87.828C131.557 87.944 131.887 88.086 132.195 88.254C132.507 88.422 132.757 88.628 132.945 88.872C133.133 89.116 133.223 89.408 133.215 89.748C133.215 90.136 133.099 90.476 132.867 90.768C132.635 91.056 132.335 91.276 131.967 91.428C131.603 91.58 131.213 91.64 130.797 91.608Z" fill="#8E94E9"/>
<path d="M140.604 87.4994H146.189L143.749 89.9394C143.554 90.1344 143.554 90.4544 143.749 90.6494C143.944 90.8444 144.259 90.8444 144.454 90.6494L147.749 87.3544C147.944 87.1594 147.944 86.8444 147.749 86.6494L144.459 83.3494C144.366 83.2557 144.239 83.2031 144.107 83.2031C143.975 83.2031 143.848 83.2557 143.754 83.3494C143.559 83.5444 143.559 83.8594 143.754 84.0544L146.189 86.4994H140.604C140.329 86.4994 140.104 86.7244 140.104 86.9994C140.104 87.2744 140.329 87.4994 140.604 87.4994Z" fill="#8E94E9"/>
<path d="M209.682 26.2723L211.474 36.8738C211.648 37.9044 210.954 38.881 209.923 39.0553L204.86 39.9111L205.465 43.4917L202.509 40.3086L190.516 42.3358C189.485 42.51 188.509 41.8157 188.335 40.7851L186.543 30.1837C186.368 29.1531 187.063 28.1764 188.093 28.0022L207.5 24.7217C208.531 24.5475 209.507 25.2417 209.682 26.2723Z" fill="#F2F2F2"/>
<path d="M193.905 37.0067C193.603 37.063 193.328 37.0527 193.08 36.9759C192.835 36.8982 192.6 36.7614 192.375 36.5652L192.747 36.0213C192.894 36.1665 193.054 36.2763 193.228 36.3506C193.402 36.4249 193.598 36.4417 193.816 36.401C194.047 36.3581 194.22 36.2744 194.336 36.15C194.457 36.0248 194.5 35.871 194.466 35.6884C194.44 35.5495 194.383 35.4431 194.295 35.3691C194.208 35.2951 194.099 35.2414 193.97 35.2081C193.843 35.17 193.705 35.1425 193.554 35.1255C193.406 35.1038 193.255 35.0784 193.102 35.0495C192.952 35.0159 192.809 34.9666 192.674 34.9015C192.543 34.8356 192.428 34.7399 192.331 34.6143C192.234 34.4887 192.165 34.3188 192.125 34.1045C192.079 33.8584 192.1 33.6389 192.187 33.446C192.277 33.2484 192.417 33.0848 192.607 32.955C192.796 32.8252 193.018 32.7366 193.272 32.6892C193.518 32.6433 193.756 32.6543 193.986 32.7222C194.217 32.7901 194.415 32.8949 194.581 33.0364L194.208 33.5803C194.064 33.4676 193.921 33.3854 193.78 33.3336C193.643 33.2812 193.505 33.2679 193.366 33.2938C193.144 33.3353 192.981 33.4108 192.878 33.5203C192.775 33.6259 192.739 33.764 192.771 33.9347C192.795 34.0617 192.85 34.1582 192.936 34.2242C193.025 34.2856 193.135 34.3329 193.264 34.3663C193.393 34.3957 193.531 34.4212 193.679 34.4429C193.831 34.4639 193.984 34.4908 194.138 34.5237C194.292 34.5566 194.437 34.6095 194.574 34.6826C194.71 34.7516 194.827 34.8529 194.926 34.9865C195.029 35.1192 195.101 35.2968 195.143 35.519C195.212 35.8921 195.134 36.2126 194.909 36.4805C194.688 36.7477 194.353 36.9231 193.905 37.0067ZM193.909 37.5603L192.91 32.2023L193.386 32.1134L194.386 37.4715L193.909 37.5603ZM197.381 36.3581C197.08 36.4144 196.805 36.4041 196.556 36.3272C196.312 36.2496 196.077 36.1128 195.851 35.9166L196.224 35.3727C196.37 35.5179 196.53 35.6277 196.705 35.702C196.879 35.7763 197.075 35.7931 197.293 35.7524C197.523 35.7094 197.697 35.6258 197.813 35.5014C197.933 35.3762 197.977 35.2224 197.942 35.0398C197.917 34.9009 197.86 34.7945 197.772 34.7205C197.684 34.6465 197.576 34.5928 197.446 34.5595C197.32 34.5214 197.181 34.4939 197.03 34.4769C196.883 34.4551 196.732 34.4298 196.579 34.4009C196.429 34.3673 196.286 34.3179 196.151 34.2528C196.019 34.187 195.905 34.0913 195.808 33.9657C195.71 33.8401 195.642 33.6702 195.602 33.4558C195.556 33.2098 195.576 32.9903 195.664 32.7974C195.754 32.5998 195.894 32.4361 196.083 32.3064C196.273 32.1766 196.494 32.088 196.748 32.0406C196.994 31.9947 197.233 32.0057 197.463 32.0736C197.693 32.1415 197.892 32.2462 198.058 32.3878L197.685 32.9317C197.54 32.819 197.398 32.7367 197.257 32.685C197.12 32.6326 196.982 32.6193 196.843 32.6452C196.62 32.6867 196.458 32.7622 196.355 32.8717C196.252 32.9773 196.216 33.1154 196.248 33.286C196.271 33.4131 196.326 33.5096 196.413 33.5756C196.502 33.637 196.611 33.6843 196.741 33.7177C196.87 33.7471 197.008 33.7726 197.156 33.7943C197.307 33.8153 197.46 33.8422 197.614 33.8751C197.768 33.908 197.914 33.9609 198.051 34.034C198.187 34.103 198.304 34.2043 198.403 34.3379C198.506 34.4706 198.578 34.6482 198.619 34.8704C198.689 35.2435 198.611 35.564 198.386 35.8319C198.165 36.099 197.83 36.2745 197.381 36.3581ZM197.386 36.9117L196.386 31.5537L196.863 31.4648L197.862 36.8229L197.386 36.9117ZM200.858 35.7095C200.556 35.7658 200.281 35.7555 200.033 35.6786C199.788 35.601 199.553 35.4642 199.328 35.268L199.701 34.7241C199.847 34.8693 200.007 34.9791 200.181 35.0534C200.355 35.1277 200.551 35.1445 200.77 35.1038C201 35.0608 201.173 34.9772 201.29 34.8528C201.41 34.7276 201.453 34.5738 201.419 34.3912C201.393 34.2523 201.336 34.1458 201.249 34.0719C201.161 33.9979 201.052 33.9442 200.923 33.9108C200.797 33.8728 200.658 33.8453 200.507 33.8283C200.359 33.8065 200.209 33.7812 200.056 33.7523C199.905 33.7187 199.763 33.6693 199.627 33.6042C199.496 33.5384 199.382 33.4427 199.284 33.3171C199.187 33.1915 199.118 33.0216 199.078 32.8072C199.032 32.5612 199.053 32.3417 199.14 32.1488C199.231 31.9512 199.371 31.7875 199.56 31.6578C199.749 31.528 199.971 31.4394 200.225 31.392C200.471 31.3461 200.709 31.3571 200.94 31.425C201.17 31.4929 201.368 31.5976 201.534 31.7392L201.161 32.2831C201.017 32.1704 200.874 32.0881 200.733 32.0364C200.596 31.984 200.458 31.9707 200.319 31.9966C200.097 32.0381 199.935 32.1136 199.832 32.2231C199.728 32.3287 199.692 32.4668 199.724 32.6374C199.748 32.7644 199.803 32.861 199.889 32.927C199.979 32.9884 200.088 33.0357 200.218 33.0691C200.346 33.0984 200.485 33.124 200.632 33.1457C200.784 33.1667 200.937 33.1936 201.091 33.2265C201.245 33.2594 201.39 33.3123 201.527 33.3854C201.663 33.4544 201.781 33.5557 201.88 33.6892C201.982 33.822 202.055 33.9995 202.096 34.2218C202.166 34.5949 202.088 34.9154 201.863 35.1833C201.641 35.4504 201.307 35.6259 200.858 35.7095ZM200.863 36.2631L199.863 30.9051L200.339 30.8162L201.339 36.1742L200.863 36.2631ZM204.44 32.3491C204.285 32.378 204.135 32.3669 203.99 32.316C203.849 32.2643 203.729 32.1819 203.63 32.069C203.531 31.9561 203.466 31.8202 203.437 31.6614C203.407 31.5027 203.419 31.3548 203.471 31.2177C203.523 31.0766 203.605 30.9565 203.718 30.8574C203.831 30.7583 203.967 30.6939 204.126 30.6643C204.284 30.6347 204.434 30.6457 204.575 30.6975C204.72 30.7484 204.842 30.8304 204.942 30.9433C205.04 31.0523 205.104 31.1862 205.134 31.3449C205.163 31.5037 205.152 31.6536 205.1 31.7947C205.049 31.9357 204.966 32.0558 204.853 32.1549C204.74 32.254 204.603 32.3188 204.44 32.3491ZM204.346 31.8431C204.445 31.8246 204.518 31.778 204.566 31.7034C204.614 31.6288 204.628 31.5419 204.61 31.4426C204.591 31.3434 204.545 31.27 204.47 31.2223C204.399 31.1699 204.315 31.1526 204.22 31.1703C204.125 31.1881 204.053 31.2343 204.006 31.3089C203.957 31.3796 203.942 31.4645 203.961 31.5637C203.979 31.6629 204.024 31.7387 204.096 31.7911C204.167 31.8435 204.25 31.8608 204.346 31.8431ZM206.67 34.6253C206.515 34.6542 206.365 34.6431 206.22 34.5922C206.079 34.5405 205.959 34.4581 205.86 34.3452C205.761 34.2323 205.696 34.0964 205.667 33.9377C205.637 33.7789 205.648 33.631 205.701 33.4939C205.752 33.3528 205.835 33.2327 205.948 33.1336C206.061 33.0345 206.197 32.9701 206.355 32.9405C206.514 32.9109 206.664 32.9219 206.805 32.9737C206.95 33.0246 207.072 33.1066 207.171 33.2195C207.27 33.3285 207.334 33.4624 207.363 33.6211C207.393 33.7799 207.382 33.9298 207.33 34.0709C207.278 34.2119 207.196 34.332 207.083 34.4311C206.97 34.5302 206.832 34.595 206.67 34.6253ZM206.575 34.1193C206.674 34.1008 206.748 34.0542 206.796 33.9796C206.847 33.9043 206.864 33.817 206.845 33.7177C206.828 33.6225 206.781 33.549 206.706 33.4974C206.63 33.4457 206.545 33.4288 206.45 33.4465C206.354 33.4643 206.283 33.5105 206.235 33.5851C206.188 33.6597 206.173 33.7447 206.19 33.8399C206.209 33.9391 206.254 34.0149 206.325 34.0673C206.397 34.1197 206.48 34.1371 206.575 34.1193ZM204.128 35.0378L206.024 30.3718L206.673 30.2507L204.777 34.9168L204.128 35.0378Z" fill="#826FFC"/>
<path d="M179.025 131.344C180.496 132.545 182.022 133.693 183.601 134.759C184.762 135.542 185.951 136.298 187.166 137C194.024 141.01 201.705 143.751 209.914 144.925C212.438 145.29 215.003 145.492 217.622 145.533C218.041 145.56 218.459 145.56 218.878 145.56C223.954 145.56 228.908 144.952 233.634 143.818C240.532 142.158 246.999 139.363 252.804 135.637C254.91 134.3 256.922 132.829 258.839 131.222C261.552 129.008 264.077 126.551 266.385 123.892C267.438 122.663 268.464 121.408 269.423 120.112C265.13 109.946 257.286 95.379 246.594 91.8149C229.759 86.1988 193.889 94.11 193.889 94.11C193.889 94.11 181.603 100.077 179.025 131.344Z" fill="white"/>
<path d="M187.165 136.997C194.023 141.006 201.705 143.747 209.913 144.922C212.437 145.286 215.002 145.489 217.621 145.529C218.04 145.556 218.458 145.556 218.877 145.556C223.953 145.556 228.908 144.949 233.633 143.814C240.531 142.154 246.998 139.359 252.803 135.633C254.909 134.297 256.921 132.825 258.838 131.219C258.73 114.762 257.488 99.7225 253.505 96.1314C251.507 94.3224 249.118 92.9049 246.593 91.8113C240.747 89.2868 234.213 88.4363 229.92 88.1527C227.072 87.9637 225.222 88.0313 225.222 88.0313C225.222 88.0313 221.402 88.1798 216.271 88.7468C214.854 88.9223 213.423 89.0978 211.924 89.3138C203.19 90.5693 192.956 93.0129 190.31 97.63C188.029 101.599 187.3 119.379 187.165 136.997Z" fill="white"/>
<path d="M206.795 55.0665L232.81 74.7634C232.81 74.7634 246.985 60.5341 241.221 52.4069C237.643 47.3443 230.407 44.9143 225.452 43.7937C224.885 43.6722 224.359 43.5642 223.859 43.4697C221.726 43.0512 220.295 42.9297 220.295 42.9297L220.282 43.0107C219.377 42.6732 210.359 36.1526 205.418 38.3126C198.629 41.2692 206.795 55.0665 206.795 55.0665Z" fill="black"/>
<path d="M230.11 77.8438L230.968 91.822C230.968 91.822 228.693 95.9949 220.558 97.1613C214.496 98.0307 212.273 96.7847 212.273 96.7847L212.687 89.6538L213.1 82.6985L227.666 78.5444L230.11 77.8438Z" fill="#F8CEC1"/>
<path d="M227.666 78.543C227.654 78.9264 227.536 79.3867 227.342 79.9173C224.643 87.0914 216.184 89.1218 212.686 89.6524L213.099 82.697L227.666 78.543Z" fill="black"/>
<path d="M208.03 51.0284C208.03 51.0284 201.77 69.004 205.258 78.5636C208.748 88.1232 217.53 85.901 222.711 83.6019C227.891 81.3042 230.112 77.8467 230.112 77.8467C230.112 77.8467 235.217 79.1509 238.188 74.2678C241.159 69.3861 238.702 64.2303 235.767 63.2313C232.832 62.2323 229.613 64.5436 229.613 64.5436L231.871 59.2852C231.874 59.2865 218.758 34.4581 208.03 51.0284Z" fill="#F8CEC1"/>
<path d="M230.559 72.1797C230.709 72.1797 230.861 72.1297 230.985 72.0271L237.005 67.1117C237.294 66.8768 237.336 66.4501 237.101 66.1612C236.862 65.8723 236.438 65.8318 236.151 66.0654L230.131 70.9808C229.842 71.2158 229.8 71.6424 230.035 71.9313C230.17 72.0946 230.363 72.1797 230.559 72.1797Z" fill="black"/>
<path d="M236.295 71.7427C236.611 71.7427 236.893 71.5186 236.957 71.196C237.027 70.8301 236.788 70.4764 236.421 70.4048L232.208 69.5908C231.847 69.5192 231.49 69.7582 231.417 70.1254C231.347 70.4913 231.586 70.845 231.952 70.9152L236.164 71.7292C236.209 71.74 236.252 71.7427 236.295 71.7427Z" fill="black"/>
<path d="M220.136 58.5525C220.294 58.5525 220.452 58.4972 220.58 58.3851C220.861 58.1394 220.889 57.7142 220.643 57.4334C218.548 55.0357 215.978 55.6594 214.911 56.3223C214.595 56.5194 214.498 56.9366 214.695 57.2525C214.895 57.5684 215.308 57.6642 215.624 57.4698C215.845 57.3362 217.806 56.2399 219.629 58.3217C219.762 58.4742 219.948 58.5525 220.136 58.5525Z" fill="black"/>
<path d="M206.557 57.9715C206.721 57.9715 206.887 57.9108 207.018 57.7893C208.348 56.5432 209.886 57.2763 209.949 57.3073C210.283 57.4734 210.686 57.337 210.854 57.0062C211.02 56.6741 210.889 56.2718 210.56 56.1031C210.462 56.0531 208.136 54.8988 206.095 56.8024C205.824 57.0575 205.809 57.4842 206.064 57.7569C206.196 57.9 206.376 57.9715 206.557 57.9715Z" fill="black"/>
<path d="M209.725 71.1283C209.802 71.1283 209.88 71.1148 209.957 71.0878C210.308 70.9595 210.488 70.5721 210.36 70.2211C208.583 65.3704 210.894 62.5597 210.994 62.4422C211.234 62.1587 211.201 61.7334 210.918 61.4918C210.636 61.2488 210.214 61.2798 209.971 61.562C209.849 61.7024 207.032 65.0559 209.092 70.6841C209.192 70.9595 209.45 71.1283 209.725 71.1283Z" fill="black"/>
<path d="M207.03 64.6853C207.343 64.6853 207.623 64.4666 207.689 64.148L208.368 60.8877C208.379 60.8418 208.383 60.7945 208.383 60.7486C208.383 60.4354 208.164 60.1546 207.846 60.0885C207.489 60.0129 207.123 60.2451 207.048 60.6109L206.369 63.8713C206.358 63.9172 206.354 63.9644 206.354 64.009C206.354 64.3222 206.572 64.603 206.891 64.6691C206.938 64.6799 206.984 64.6853 207.03 64.6853Z" fill="black"/>
<path d="M217.243 64.9213C217.555 64.9213 217.836 64.7025 217.902 64.3839L218.581 61.125C218.658 60.7591 218.423 60.4027 218.057 60.3271C217.7 60.2502 217.335 60.4851 217.259 60.8496L216.58 64.1085C216.503 64.4744 216.738 64.8308 217.104 64.9064C217.15 64.9172 217.196 64.9213 217.243 64.9213Z" fill="black"/>
<path d="M206.798 55.0659C206.798 55.0659 208.144 52.1633 211.628 51.9257C215.114 51.6881 217.3 54.0183 217.3 54.0183C217.3 54.0183 216.131 59.984 221.064 62.8124C225.997 65.6407 229.612 64.5431 229.612 64.5431L232.976 63.1067L235.19 57.9266L224.583 47.8149L211.289 41.8086L205.093 48.1686L206.798 55.0659Z" fill="black"/>
<path d="M213.585 76.4827C214.129 76.4827 217.349 76.345 218.605 73.1779C218.742 72.8309 218.572 72.4394 218.227 72.3017C217.881 72.164 217.488 72.3341 217.35 72.6811C216.354 75.1962 213.611 75.1314 213.557 75.1327C213.172 75.1327 212.872 75.4189 212.859 75.7834C212.847 76.156 213.138 76.4679 213.511 76.4814C213.52 76.4814 213.545 76.4827 213.585 76.4827Z" fill="black"/>
<path d="M216.085 98.246C225.236 98.246 232.201 91.9076 232.539 91.5958C232.811 91.3419 232.829 90.9167 232.575 90.6426C232.32 90.3686 231.896 90.3524 231.621 90.6048C231.532 90.6885 222.415 98.9764 211.8 96.3816C211.44 96.2925 211.073 96.5153 210.984 96.8771C210.896 97.2389 211.118 97.6047 211.48 97.6925C213.059 98.0786 214.601 98.246 216.085 98.246Z" fill="#F2F2F2"/>
<path d="M167.886 119.53C168.062 119.773 168.224 120.003 168.399 120.232C171.477 124.35 175.055 128.076 179.024 131.343C180.482 132.531 181.994 133.679 183.56 134.732L195.278 129.736L191.081 96.5703L167.886 119.53Z" fill="white"/>
</g>
<defs>
<linearGradient id="paint0_linear_3887_41332" x1="136.997" y1="269.493" x2="217.779" y2="-7.49747" gradientUnits="userSpaceOnUse">
<stop stop-color="white"/>
<stop offset="1" stop-color="white" stop-opacity="0"/>
</linearGradient>
<linearGradient id="paint1_linear_3887_41332" x1="71.6152" y1="187.938" x2="170.248" y2="36.9091" gradientUnits="userSpaceOnUse">
<stop stop-color="white"/>
<stop offset="1" stop-color="white" stop-opacity="0"/>
</linearGradient>
<clipPath id="clip0_3887_41332">
<rect width="287" height="120" rx="10.0043" fill="white"/>
</clipPath>
<clipPath id="clip1_3887_41332">
<rect width="180" height="167.474" fill="white" transform="matrix(-1 0 0 1 334.141 8)"/>
</clipPath>
</defs>
</svg>
