<svg width="227" height="62" viewBox="0 0 227 62" fill="none" xmlns="http://www.w3.org/2000/svg">
<path d="M25.7713 60.0517L25.7689 60.0512C24.9192 59.9002 24.0852 59.7172 23.2554 59.4957L25.7713 60.0517ZM25.7713 60.0517C26.4148 60.1649 27.0691 60.2601 27.7335 60.3302L25.7713 60.0517ZM57.9203 42.1739C59.3265 38.7257 60.0974 34.9514 60.0974 30.999C60.0974 14.7209 46.9948 1.50945 30.8063 1.50945C14.6182 1.50945 1.50921 14.7205 1.50921 30.999C1.50921 36.1059 2.8025 40.9137 5.07619 45.1078C7.07315 48.7951 9.83015 52.0085 13.1413 54.527C15.2188 56.1073 17.5114 57.4173 19.9696 58.3991C21.0343 58.8304 22.1356 59.1979 23.2552 59.4956C23.2547 59.4955 23.2543 59.4954 23.2539 59.4953L57.9203 42.1739ZM57.9203 42.1739C57.7886 42.505 57.647 42.8222 57.5059 43.1253C53.9766 51.0041 47.1046 57.0495 38.6902 59.4053C38.0938 59.5759 37.4819 59.7285 36.8609 59.8563C36.647 59.9019 36.4433 59.9404 36.2461 59.9765C34.476 60.3185 32.6543 60.4886 30.8063 60.4886C29.7742 60.4886 28.7499 60.4383 27.7339 60.3303L57.9203 42.1739Z" fill="#0F2847" stroke="white" stroke-width="2.98159"/>
<path d="M38.2818 57.9697C35.9025 58.6424 33.392 58.9967 30.8039 58.9967C29.176 58.9967 27.5779 58.8586 26.0274 58.5823C25.2164 58.4382 24.4234 58.264 23.6362 58.0538C22.5748 57.7715 21.5312 57.4232 20.5234 57.0148L22.4972 36.9976L33.2608 34.4392L37.5423 35.7184L38.2818 57.9697Z" fill="#A37B90"/>
<path d="M34.6357 30.9449C31.8151 30.4164 23.7409 17.3359 23.7409 17.3359C23.7409 17.3359 19.7218 12.3451 20.8071 11.6845C21.8924 11.0299 22.924 12.0328 22.924 12.0328C22.924 12.0328 26.5198 11.4623 29.8115 11.3301C30.2289 11.3121 30.6403 11.3001 31.0399 11.3001C32.2504 11.2941 33.3476 11.3722 34.1049 11.5884C37.0925 12.4412 39.0961 17.3719 39.0961 17.3719C39.0961 17.3719 40.5929 17.2338 41.225 19.2878C41.863 21.3477 37.4509 31.4734 34.6357 30.9449Z" fill="black"/>
<path d="M34.6029 29.3137L34.7413 36.2023C34.7413 36.2023 33.5474 38.2076 29.5527 38.6166C26.5765 38.9211 25.5156 38.2641 25.5156 38.2641L25.8615 34.767L26.2032 31.3563L33.3966 29.6086L34.6029 29.3137Z" fill="#F8CEC1"/>
<path d="M33.3938 29.6079C33.3801 29.7965 33.3139 30.0199 33.2084 30.2769C31.7468 33.7489 27.5774 34.5765 25.8594 34.7668L26.2011 31.3562L33.3938 29.6079Z" fill="black"/>
<path d="M24.3613 15.6848C24.3613 15.6848 20.945 24.395 22.456 29.1653C23.9677 33.9351 28.2993 33.0204 30.8742 31.9946C33.4491 30.9695 34.6024 29.3149 34.6024 29.3149C34.6024 29.3149 37.0682 30.059 38.6162 27.7191C40.1649 25.3793 39.0688 22.795 37.6562 22.2449C36.2441 21.6948 34.6257 22.7656 34.6257 22.7656L35.8338 20.2264C35.8338 20.2264 29.9309 7.75604 24.3613 15.6848Z" fill="#F8CEC1"/>
<path d="M24.3594 15.6848C24.3594 15.6848 27.0213 14.6062 28.1573 15.5515C29.2933 16.4968 30.632 24.482 34.6244 22.7656C38.6167 21.0491 36.5511 15.9328 36.5511 15.9328C36.5511 15.9328 26.5103 7.27314 24.3594 15.6848Z" fill="black"/>
<path d="M25.8911 34.4443C25.8911 34.4443 25.0097 46.2222 23.6382 58.0535C16.2021 56.0656 9.99444 51.0508 6.38672 44.3965C8.59309 42.0662 12.1233 38.1685 15.1705 36.9253C20.4896 34.7512 25.8911 34.4443 25.8911 34.4443Z" fill="#40507F"/>
<path d="M28.4213 38.9199C26.9675 38.9199 25.9012 38.6917 25.7963 38.6683C25.6353 38.6323 25.5339 38.4725 25.5697 38.3103C25.6055 38.1488 25.7629 38.0467 25.9251 38.0815C25.9853 38.0947 31.9545 39.3674 35.0774 35.6762C35.1853 35.5495 35.3731 35.5351 35.4978 35.642C35.623 35.7501 35.6379 35.9393 35.5318 36.0654C33.5329 38.4269 30.5579 38.9199 28.4213 38.9199Z" fill="#92B4EA"/>
<path d="M56.1527 42.5058C52.8014 49.995 46.2717 55.7365 38.287 57.9706C37.7205 58.1328 37.1421 58.2769 36.5577 58.397C36.3609 58.4391 36.1701 58.4751 35.9733 58.5112C35.1683 49.3524 34.7031 33.3411 34.7031 33.3411C34.7031 33.3411 47.0886 33.5272 56.1527 42.5058Z" fill="#40507F"/>
<path d="M34.9312 26.6114C34.8566 26.6114 34.7821 26.5832 34.7236 26.5268C34.6056 26.4121 34.602 26.2217 34.7165 26.1022L36.871 23.8554C36.9843 23.7365 37.1733 23.7335 37.2926 23.8482C37.4106 23.9629 37.4142 24.1533 37.2997 24.2728L35.1452 26.5196C35.0868 26.5808 35.0087 26.6114 34.9312 26.6114Z" fill="black"/>
<path d="M37.8461 26.0632C37.821 26.0632 37.796 26.0602 37.7709 26.053L35.9104 25.5635C35.7506 25.5221 35.6552 25.3575 35.6975 25.1978C35.7387 25.0362 35.9033 24.9383 36.0607 24.9834L37.9212 25.4729C38.081 25.5143 38.1764 25.6789 38.1341 25.8386C38.0995 25.9743 37.9791 26.0632 37.8461 26.0632Z" fill="black"/>
<path d="M23.7976 19.6022C23.7349 19.6022 23.6711 19.5818 23.6175 19.5404C23.4887 19.4401 23.4612 19.2569 23.5578 19.126C23.5811 19.0947 24.1399 18.3614 25.5573 18.562C25.7201 18.5855 25.8334 18.738 25.8101 18.902C25.7863 19.0659 25.6301 19.1734 25.4726 19.1566C24.432 19.0059 24.0498 19.4683 24.0343 19.4881C23.9747 19.5626 23.8858 19.6022 23.7976 19.6022Z" fill="black"/>
<path d="M30.2363 19.6842C30.1689 19.6842 30.1009 19.6613 30.0455 19.6145C29.3001 18.9881 28.4497 19.2079 28.4145 19.2175C28.2571 19.2608 28.0925 19.1659 28.0496 19.0061C28.0066 18.8464 28.0991 18.6824 28.2571 18.6386C28.3048 18.6253 29.436 18.3208 30.4283 19.1532C30.5547 19.2595 30.5714 19.4487 30.4665 19.5761C30.4068 19.6469 30.3216 19.6842 30.2363 19.6842Z" fill="black"/>
<path d="M24.0799 23.0355C23.8914 23.0211 23.7686 22.8757 23.7823 22.7112L23.9117 21.107C23.9248 20.9419 24.0715 20.8212 24.2325 20.832C24.3965 20.8452 24.5187 20.9905 24.5056 21.1551L24.3762 22.7592C24.3643 22.9166 24.2337 23.0355 24.0799 23.0355Z" fill="black"/>
<path d="M28.7908 23.2307C28.6024 23.2163 28.4795 23.0709 28.4932 22.9064L28.6226 21.3028C28.6352 21.1377 28.7842 21.0194 28.9435 21.0278C29.1074 21.041 29.2297 21.1863 29.2166 21.3509L29.0872 22.9544C29.0746 23.1118 28.9446 23.2307 28.7908 23.2307Z" fill="black"/>
<path d="M25.2239 26.8633C25.11 26.8633 25.0015 26.7972 24.952 26.6855C23.9526 24.4322 25.4511 22.6166 25.5155 22.5403C25.6223 22.4148 25.8089 22.3986 25.9348 22.5061C26.0606 22.613 26.0761 22.8022 25.9705 22.9289C25.9163 22.9932 24.6527 24.539 25.4959 26.4405C25.5633 26.5918 25.4959 26.7696 25.3456 26.8368C25.3062 26.8549 25.2651 26.8633 25.2239 26.8633Z" fill="black"/>
<path d="M27.0872 28.3048C26.9226 28.3048 26.7891 28.1703 26.7891 28.0045C26.7891 27.8394 26.9221 27.7049 27.086 27.7043C27.1278 27.7037 28.1183 27.6862 28.4748 26.8292C28.5387 26.6761 28.7116 26.6046 28.8649 26.6683C29.0169 26.7319 29.0879 26.9079 29.0247 27.0611C28.5142 28.291 27.1457 28.3048 27.0872 28.3048Z" fill="black"/>
<path d="M81.317 58.9506L81.3203 58.9494C84.8535 57.7464 88.083 55.8856 90.8651 53.5137C93.4902 51.2807 95.7192 48.5866 97.4273 45.5635C99.8582 41.2616 101.246 36.2892 101.246 30.9988C101.246 14.7205 88.137 1.50921 71.9547 1.50921C55.7666 1.50921 42.6576 14.7203 42.6576 30.9988C42.6576 36.5362 44.1773 41.7172 46.8148 46.1508L46.8159 46.1526C47.525 47.3407 48.3162 48.4792 49.1835 49.5552L49.1845 49.5564C49.4803 49.9227 49.7896 50.2919 50.1164 50.6535C55.4727 56.684 63.2765 60.4884 71.9547 60.4884C75.2278 60.4884 78.3764 59.9441 81.317 58.9506Z" fill="#F5FE7D" stroke="white" stroke-width="2.98159"/>
<path d="M64.7583 25.3882C64.7583 25.3882 58.3968 30.2204 57.9233 36.0892C57.2066 44.9711 67.2384 41.0854 68.341 35.4232C69.4436 29.7604 64.7583 25.3882 64.7583 25.3882Z" fill="black"/>
<path d="M64.1877 24.7836C64.1877 24.7836 61.8919 22.2287 62.5532 18.2697C63.0017 15.5858 64.1877 14.7168 64.1877 14.7168C64.1877 14.7168 62.3815 11.0526 67.7591 11.2749C73.1367 11.4971 76.3007 14.1558 76.3007 14.1558C76.3007 14.1558 78.7588 12.9403 79.8613 15.8266C80.9639 18.713 79.8613 22.9717 79.8613 22.9717L64.1877 24.7836Z" fill="black"/>
<path d="M89.8975 52.3803C87.2558 54.6325 84.1907 56.3982 80.8394 57.5393C78.0487 58.4822 75.0611 58.9987 71.9543 58.9987C66.4085 58.9987 61.2385 57.3591 56.8973 54.5364C56.6587 54.3863 56.4262 54.2301 56.1996 54.068C54.3689 52.8068 52.6992 51.3233 51.2263 49.6597C50.9222 49.3234 50.63 48.9751 50.3438 48.6208L67.9411 35.7805C67.953 35.7745 68.6209 35.282 68.6209 35.282L75.5322 35.8465L78.4005 36.0808L89.8975 52.3803Z" fill="#F7B369"/>
<path d="M68.619 35.7314L51.2244 49.6588C50.9203 49.3225 50.6281 48.9741 50.3419 48.6198C49.5189 47.5988 48.7676 46.5178 48.0938 45.3887C48.6304 44.9022 49.191 44.4158 49.7694 43.9293C57.7422 37.2329 65.6255 36.0017 67.9392 35.7795C68.3864 35.7374 68.619 35.7314 68.619 35.7314Z" fill="#F7B369"/>
<path d="M75.9928 29.2461L75.861 36.3113C75.861 36.3113 74.6386 38.3046 70.7905 38.5172C67.9235 38.6757 67.0469 37.0656 67.0469 37.0656L67.8555 30.9049L74.824 29.4851L75.9928 29.2461Z" fill="#F8CEC1"/>
<path d="M96.1293 44.8301C94.5073 47.7009 92.3904 50.2593 89.8978 52.3794C87.2561 54.6315 84.191 56.3972 80.8397 57.5383L85.3359 52.019L75.5325 35.8456L75.4609 35.7314C75.4609 35.7314 76.588 35.7735 78.4008 36.0798C82.5273 36.7704 90.1959 38.8184 96.1293 44.8301Z" fill="#F7B369"/>
<path d="M75.9924 28.8428C75.9715 29.0229 75.8976 29.2343 75.7855 29.4758C74.2344 32.7411 69.031 33.9849 67.375 34.0924L67.8497 30.8373L75.9924 28.8428Z" fill="black"/>
<path d="M66.7604 15.7301C66.7604 15.7301 63.1086 23.9321 64.3519 28.5722C65.5952 33.2122 69.7885 32.5239 72.3014 31.6537C74.8143 30.7835 75.992 29.2478 75.992 29.2478C75.992 29.2478 78.3242 30.0694 79.9098 27.8935C81.4954 25.7176 80.5562 23.1922 79.2258 22.6024C77.8954 22.0127 76.2973 22.9688 76.2973 22.9688L77.5651 20.5869C77.5651 20.5869 72.4427 8.37122 66.7604 15.7301Z" fill="#F8CEC1"/>
<path d="M76.3002 22.9685C76.3002 22.9685 72.7831 23.6832 70.34 19.7416C67.8969 15.8 68.1211 14.1809 68.1211 14.1809L65.6869 18.2504C65.6869 18.2504 65.1425 15.4289 66.263 13.6302C67.3835 11.8314 68.5469 12.2044 68.5469 12.2044L76.3014 14.1557L78.3432 20.4155L76.3002 22.9685Z" fill="black"/>
<path d="M67.038 26.2375C66.9104 26.2375 66.7924 26.154 66.753 26.0255C66.2116 24.2448 67.4603 22.4419 67.5127 22.3662C67.6081 22.2305 67.793 22.1998 67.9278 22.2947C68.0625 22.3902 68.0941 22.5782 67.9993 22.7133C67.9886 22.7289 66.8681 24.3541 67.3231 25.8495C67.3708 26.0081 67.2825 26.1762 67.1251 26.2249C67.0965 26.2333 67.0667 26.2375 67.038 26.2375Z" fill="black"/>
<path d="M76.6343 26.871C76.5603 26.871 76.487 26.8434 76.4291 26.7881C76.3093 26.674 76.3045 26.4842 76.4178 26.3641L78.6456 23.999C78.7589 23.8777 78.948 23.8741 79.0667 23.9882C79.1865 24.1017 79.1913 24.2921 79.0774 24.4122L76.8495 26.7773C76.7923 26.8398 76.713 26.871 76.6343 26.871Z" fill="black"/>
<path d="M78.9905 26.2422C78.9756 26.2422 78.9595 26.241 78.9445 26.2386L77.409 26.0002C77.2462 25.975 77.1347 25.8212 77.1598 25.6578C77.1848 25.4939 77.3416 25.384 77.4997 25.4068L79.0352 25.6452C79.198 25.6705 79.3095 25.8242 79.2845 25.9876C79.2618 26.1359 79.1348 26.2422 78.9905 26.2422Z" fill="black"/>
<path d="M69.9852 28.5941C69.2106 28.5941 68.3316 28.0674 68.2046 27.9881C68.1134 27.9311 68.0591 27.8296 68.0627 27.7221C68.0668 27.614 68.1277 27.5161 68.2225 27.4662L70.6978 26.1642C70.7759 26.1227 70.8683 26.1179 70.9518 26.1534C71.0335 26.1882 71.0955 26.2579 71.1212 26.3431C71.1379 26.4002 71.5273 27.7389 70.7014 28.3755C70.4968 28.534 70.247 28.5941 69.9852 28.5941ZM69.006 27.7311C69.4777 27.9419 70.0663 28.1088 70.3388 27.8992C70.6394 27.6668 70.6531 27.2092 70.6179 26.8837L69.006 27.7311Z" fill="black"/>
<path d="M65.4653 19.4916C65.3234 19.4916 65.1976 19.3889 65.1725 19.243C65.1439 19.0796 65.253 18.9241 65.4146 18.8959L66.8673 18.6418C67.0307 18.6076 67.1839 18.7223 67.2119 18.8856C67.2406 19.049 67.1314 19.2045 66.9698 19.2328L65.5172 19.4868C65.4999 19.4904 65.4826 19.4916 65.4653 19.4916Z" fill="black"/>
<path d="M71.5008 20.452C71.4555 20.452 71.4096 20.4412 71.3661 20.4196L68.9844 19.2052C68.8371 19.1302 68.778 18.9494 68.8526 18.8017C68.9271 18.6533 69.1078 18.5951 69.2533 18.6689L71.635 19.8839C71.7823 19.959 71.8413 20.1397 71.7668 20.2875C71.7149 20.392 71.6094 20.452 71.5008 20.452Z" fill="black"/>
<path d="M80.7399 25.3882C80.7399 25.3882 85.8115 29.8162 85.0954 37.0327C84.3786 44.2492 77.2735 43.3231 75.7809 40.6896C73.5203 36.7 75.992 29.2481 75.992 29.2481C75.992 29.2481 80.3487 29.9826 80.7399 25.3882Z" fill="black"/>
<path d="M65.4657 22.8724C65.4365 22.8724 65.4073 22.8682 65.3787 22.8592C65.2207 22.8105 65.133 22.643 65.1813 22.4844L65.588 21.1512L65.2355 20.7163C65.1312 20.5878 65.1497 20.3992 65.2773 20.2941C65.4043 20.189 65.5927 20.2077 65.6965 20.3362L66.1503 20.8953C66.2135 20.9734 66.2344 21.0779 66.2046 21.1734L65.7508 22.6604C65.712 22.7901 65.5933 22.8724 65.4657 22.8724Z" fill="black"/>
<path d="M69.9088 23.2725C69.8795 23.2725 69.8503 23.2682 69.8211 23.2592C69.6631 23.2112 69.5754 23.043 69.6237 22.8845L70.0286 21.5554L69.5092 20.9446C69.4019 20.8185 69.4168 20.6293 69.542 20.5212C69.6667 20.4137 69.8557 20.4281 69.9624 20.5543L70.5886 21.2905C70.6548 21.3686 70.6768 21.4761 70.647 21.574L70.1938 23.061C70.1544 23.189 70.0358 23.2725 69.9088 23.2725Z" fill="black"/>
<path d="M70.7461 38.6603C68.2082 38.6603 66.7049 37.2664 66.6828 37.2459C66.5636 37.1324 66.5582 36.9426 66.6715 36.8219C66.7842 36.7018 66.9726 36.6964 67.0925 36.8087C67.2124 36.9222 70.0604 39.5323 74.6848 36.918C74.8297 36.8357 75.011 36.888 75.0909 37.0321C75.172 37.1769 75.1207 37.36 74.9776 37.4411C73.3681 38.3504 71.9423 38.6603 70.7461 38.6603Z" fill="white"/>
<path d="M59.4205 44.801C59.2416 44.9511 55.4789 48.3323 56.8981 54.5363C56.6596 54.3861 56.427 54.23 56.2004 54.0678C55.0853 47.8579 58.9852 44.3806 59.0329 44.3445C59.1581 44.2364 59.343 44.2484 59.4503 44.3746C59.5583 44.5007 59.5457 44.6929 59.4205 44.801Z" fill="white"/>
<path d="M125.29 57.749C122.698 58.9641 119.899 59.8057 116.969 60.2163L116.955 60.2231L116.699 60.2549C115.478 60.4062 114.218 60.4884 112.95 60.4884C104.744 60.4884 97.3294 57.0895 92.0172 51.6286C91.9419 51.5527 91.8437 51.4539 91.7474 51.3507C91.6669 51.2687 91.5924 51.1865 91.5203 51.1011C88.5751 47.9247 86.3239 44.0893 84.9965 39.8393C84.1226 37.0463 83.6586 34.0738 83.6586 30.9988C83.6586 14.7207 96.7612 1.50921 112.95 1.50921C129.138 1.50921 142.241 14.7207 142.241 30.9988C142.241 35.8328 141.086 40.394 139.032 44.4247C138.568 45.3405 138.053 46.2323 137.487 47.0939C137.257 47.4536 137.018 47.7966 136.798 48.1114L136.79 48.1222L136.79 48.1222L136.785 48.1301C134.003 52.057 130.285 55.2717 125.953 57.4311L125.953 57.4311L125.943 57.436L125.935 57.4397C125.733 57.5387 125.513 57.6464 125.29 57.749ZM116.565 60.2602H116.545C116.533 60.2602 116.542 60.2607 116.565 60.2602Z" fill="#7798EC" stroke="white" stroke-width="2.98159"/>
<path d="M92.6379 50.1151C92.6976 50.1872 92.7572 50.2533 92.8228 50.3193C92.9063 50.4094 92.9957 50.4995 93.0792 50.5836C98.124 55.7725 105.161 58.9976 112.948 58.9976C114.153 58.9976 115.352 58.9196 116.514 58.7754C116.526 58.7694 116.532 58.7694 116.544 58.7694C119.407 58.3911 122.138 57.5803 124.66 56.3972C124.422 46.2535 124.523 37.3769 124.523 37.2088C124.428 36.9986 119.764 35.7914 113.557 35.5872C103.788 35.2749 95.536 40.8242 92.6379 50.1151Z" fill="#68B6D8"/>
<path d="M116.514 58.7755C116.526 58.7695 116.532 58.7695 116.544 58.7695C119.406 58.3911 122.137 57.5803 124.66 56.3972C124.868 56.3011 125.077 56.199 125.286 56.0969C129.395 54.049 132.925 50.998 135.566 47.2685C130.211 39.8754 125.835 37.7193 124.523 37.2088C124.254 37.1007 124.117 37.0647 124.117 37.0647L116.514 58.7755Z" fill="#68B6D8"/>
<path d="M112.313 19.2912C112.313 19.2912 106.006 19.7543 105.497 13.6644C104.955 7.18064 110.905 6.40831 113.503 8.96916C116.101 11.5306 115.699 14.2122 115.699 14.2122C115.699 14.2122 117.424 12.5648 119.399 14.4848C120.849 15.8938 120.178 18.2745 120.178 18.2745C120.178 18.2745 123.432 18.0661 123.199 20.938C122.966 23.81 120.969 25.315 120.969 25.315L112.313 19.2912Z" fill="black"/>
<path d="M118.367 30.375L117.879 37.1489C117.879 37.1489 116.525 39.0077 112.567 39.0419C109.619 39.0677 108.637 38.3248 108.637 38.3248L109.293 34.9238L109.937 31.6074L117.155 30.5528L118.367 30.375Z" fill="#F8CEC1"/>
<path d="M117.152 30.5532C117.122 30.737 117.037 30.9502 116.91 31.1922C115.161 34.466 110.994 34.8948 109.29 34.9236L109.934 31.6072L117.152 30.5532Z" fill="black"/>
<path d="M109.548 16.0577C109.548 16.0577 105.406 24.2928 106.457 29.113C107.508 33.9338 111.843 33.4335 114.463 32.6636C117.084 31.8942 118.366 30.376 118.366 30.376C118.366 30.376 120.718 31.3333 122.45 29.1784C124.182 27.0242 123.34 24.3871 122.004 23.7174C120.667 23.0472 118.982 23.9498 118.982 23.9498L120.398 21.5686C120.398 21.5686 115.733 8.78773 109.548 16.0577Z" fill="#F8CEC1"/>
<path d="M118.986 27.656C119.039 27.656 119.094 27.6422 119.142 27.6116L121.764 25.9894C121.904 25.9023 121.948 25.718 121.862 25.5762C121.776 25.4351 121.592 25.39 121.452 25.4777L118.83 27.0999C118.69 27.187 118.646 27.3713 118.732 27.5131C118.788 27.6049 118.886 27.656 118.986 27.656Z" fill="black"/>
<path d="M121.162 27.8348C121.273 27.8348 121.378 27.773 121.43 27.6673C121.503 27.5183 121.442 27.3382 121.294 27.2649L119.922 26.5868C119.774 26.5148 119.596 26.576 119.523 26.7244C119.451 26.8733 119.511 27.0535 119.66 27.1268L121.031 27.8048C121.074 27.8252 121.118 27.8348 121.162 27.8348Z" fill="black"/>
<path d="M108.444 19.2773C108.503 19.2773 108.563 19.2593 108.616 19.2215C109.35 18.6966 110.048 19.1596 110.077 19.18C110.213 19.2713 110.398 19.2371 110.491 19.1008C110.583 18.9644 110.55 18.7789 110.415 18.6852C110.372 18.6552 109.351 17.9597 108.271 18.7326C108.137 18.8281 108.105 19.0161 108.2 19.1512C108.259 19.2335 108.35 19.2773 108.444 19.2773Z" fill="black"/>
<path d="M109.536 26.9484C109.557 26.9484 109.579 26.946 109.6 26.9412C109.761 26.9052 109.863 26.7454 109.827 26.5833C109.279 24.0759 110.69 22.4003 110.704 22.3834C110.812 22.2585 110.799 22.0687 110.675 21.96C110.55 21.8513 110.363 21.8651 110.254 21.9907C110.187 22.0675 108.632 23.9143 109.245 26.7124C109.276 26.8529 109.399 26.9484 109.536 26.9484Z" fill="black"/>
<path d="M108.537 23.2663C108.699 23.2663 108.832 23.1354 108.835 22.9714L108.863 21.3565C108.866 21.1907 108.735 21.0538 108.57 21.0508C108.398 21.0694 108.27 21.1799 108.267 21.3457L108.239 22.96C108.236 23.1258 108.367 23.2627 108.532 23.2657C108.533 23.2663 108.535 23.2663 108.537 23.2663Z" fill="black"/>
<path d="M112.955 23.5788C113.117 23.5788 113.25 23.4479 113.253 23.2839L113.281 21.6696C113.284 21.5038 113.153 21.3669 112.988 21.3639C112.835 21.3453 112.688 21.493 112.685 21.6588L112.657 23.2731C112.654 23.4389 112.785 23.5758 112.95 23.5788C112.951 23.5788 112.953 23.5788 112.955 23.5788Z" fill="black"/>
<path d="M108.703 17.9201C108.703 17.9201 109.532 16.6121 111.211 16.7232C112.889 16.8343 113.783 18.0961 113.783 18.0961C113.783 18.0961 112.842 20.8876 115.015 22.5662C117.187 24.2448 118.983 23.9511 118.983 23.9511L120.681 23.4779L122.07 21.1314L117.658 15.5851L111.699 11.8381L108.333 14.4945L108.703 17.9201Z" fill="black"/>
<path d="M110.905 28.645C111.467 28.645 112.531 28.4847 113.149 27.3748C113.23 27.2307 113.179 27.0475 113.035 26.9658C112.891 26.8854 112.711 26.9364 112.629 27.0811C111.987 28.233 110.688 28.0354 110.633 28.0264C110.471 27.9964 110.317 28.1105 110.291 28.2733C110.264 28.4366 110.372 28.591 110.535 28.6186C110.554 28.6222 110.694 28.645 110.905 28.645Z" fill="black"/>
<path d="M106.771 25.7457C106.795 25.7457 106.818 25.7457 106.842 25.7451C108.421 25.7055 109.673 24.3398 109.632 22.702C109.612 21.9105 109.297 21.1723 108.745 20.6252C108.189 20.0757 107.461 19.7802 106.694 19.8024C105.115 19.8421 103.864 21.2078 103.905 22.8461C103.924 23.6377 104.24 24.3752 104.792 24.9223C105.33 25.4544 106.03 25.7457 106.771 25.7457ZM106.765 20.4018C107.349 20.4018 107.901 20.6318 108.326 21.0528C108.768 21.4901 109.02 22.081 109.036 22.717C109.069 24.0239 108.078 25.1127 106.827 25.1445C106.22 25.1668 105.649 24.929 105.211 24.4941C104.769 24.0569 104.517 23.4659 104.502 22.8305C104.469 21.5231 105.46 20.4342 106.71 20.4024C106.728 20.4018 106.746 20.4018 106.765 20.4018Z" fill="#707070"/>
<path d="M113.575 26.235C113.6 26.235 113.624 26.235 113.65 26.2343C114.438 26.2145 115.171 25.8866 115.714 25.3113C116.257 24.7365 116.546 23.9822 116.526 23.1888C116.507 22.3955 116.181 21.6562 115.61 21.109C115.039 20.5619 114.287 20.2755 113.502 20.2917C111.875 20.3325 110.585 21.6994 110.625 23.3378C110.666 24.9509 111.982 26.235 113.575 26.235ZM113.578 20.8916C114.184 20.8916 114.758 21.1223 115.199 21.5445C115.655 21.9817 115.915 22.5709 115.93 23.2045C115.946 23.8375 115.716 24.4392 115.282 24.8981C114.849 25.3569 114.264 25.6182 113.635 25.6344C112.342 25.6644 111.254 24.6302 111.222 23.3228C111.189 22.0153 112.219 20.9253 113.517 20.8922C113.537 20.8916 113.557 20.8916 113.578 20.8916Z" fill="#707070"/>
<path d="M111.199 23.3142C111.355 23.3142 111.487 23.1904 111.496 23.0307C111.505 22.8655 111.379 22.7232 111.215 22.7142L109.137 22.5959C108.977 22.5749 108.831 22.713 108.822 22.8787C108.813 23.0439 108.939 23.1862 109.103 23.1952L111.181 23.3136C111.187 23.3142 111.193 23.3142 111.199 23.3142Z" fill="#707070"/>
<path d="M116.235 23.8899C116.283 23.8899 116.332 23.8778 116.377 23.8532C116.404 23.8382 119.16 22.3572 120.467 23.6887C120.582 23.8064 120.771 23.8076 120.888 23.6911C121.005 23.5746 121.006 23.3842 120.891 23.2665C119.269 21.6149 116.221 23.2557 116.092 23.3259C115.947 23.4052 115.894 23.5872 115.972 23.7331C116.027 23.8328 116.13 23.8899 116.235 23.8899Z" fill="#707070"/>
<path d="M112.308 39.4831C114.031 39.4831 116.179 39.0038 118.533 37.3913C118.67 37.2982 118.705 37.1114 118.612 36.9745C118.519 36.8375 118.334 36.8021 118.198 36.8952C112.76 40.6206 108.666 38.0579 108.494 37.9474C108.355 37.8573 108.172 37.8976 108.082 38.0369C107.993 38.1756 108.033 38.3618 108.171 38.4513C108.197 38.4687 109.803 39.4831 112.308 39.4831Z" fill="white"/>
<path d="M114.944 20.0727C115.001 20.0727 115.058 20.0571 115.108 20.0228C115.246 19.9315 115.284 19.7448 115.193 19.6066C114.356 18.334 113.105 18.4667 112.562 18.7124C112.411 18.7802 112.345 18.9586 112.412 19.1094C112.479 19.2601 112.656 19.3268 112.805 19.2607C112.854 19.2385 113.935 18.7808 114.695 19.9387C114.753 20.0252 114.848 20.0727 114.944 20.0727Z" fill="black"/>
<path d="M162.158 59.3962L162.158 59.3961C162.126 59.405 162.093 59.4139 162.061 59.4226C162.023 59.4328 161.986 59.4428 161.95 59.4524C161.921 59.4601 161.894 59.4676 161.866 59.475C161.829 59.4849 161.794 59.4946 161.759 59.5043L161.748 59.5071L161.748 59.507C159.352 60.1468 156.832 60.4884 154.238 60.4884C144.113 60.4884 135.186 55.3166 129.942 47.4594C129.442 46.726 128.983 45.9653 128.564 45.1969C126.259 40.9833 124.947 36.1437 124.947 30.9988C124.947 14.7207 138.049 1.50921 154.238 1.50921C170.426 1.50921 183.529 14.7207 183.529 30.9988C183.529 36.3765 182.098 41.4244 179.592 45.7711M162.158 59.3962L178.299 45.0282M162.158 59.3962L162.17 59.3929M162.158 59.3962L162.17 59.3929M179.592 45.7711C179.591 45.7717 179.591 45.7723 179.591 45.773L178.299 45.0282M179.592 45.7711C179.592 45.7705 179.592 45.7698 179.593 45.7692L178.299 45.0282M179.592 45.7711C179.492 45.9447 179.388 46.1151 179.296 46.2653M178.299 45.0282C178.21 45.1842 178.115 45.3402 178.019 45.4962L178.019 45.4967M179.296 46.2653C179.298 46.2624 179.3 46.2595 179.301 46.2566L178.019 45.4967M179.296 46.2653C179.066 46.6541 178.819 47.0497 178.556 47.4375L178.019 45.4967M179.296 46.2653C179.296 46.2655 179.296 46.2658 179.296 46.266L179.291 46.2739L178.019 45.4967M178.214 47.9249C178.343 47.7521 178.457 47.584 178.549 47.4469L178.555 47.4387L178.23 47.9014C178.225 47.9092 178.22 47.9171 178.214 47.9249ZM178.214 47.9249C174.395 53.4235 168.748 57.5281 162.17 59.3929M178.214 47.9249L162.17 59.3929" fill="#E9907D" stroke="white" stroke-width="2.98159"/>
<path d="M175.019 36.7115C175.114 51.0051 160.987 48.6028 160.987 48.6028L147.612 43.2757C147.612 43.2757 134.213 36.1409 142.997 27.883C142.997 27.883 139.926 13.9917 150.802 11.205C150.85 11.187 150.898 11.175 150.945 11.163C151.303 11.0789 151.649 11.0068 151.983 10.9588C162.055 9.38529 162.92 23.0364 162.92 23.0364C162.92 23.0364 174.941 25.2765 175.019 36.7115Z" fill="black"/>
<path d="M177.007 47.0545C173.381 52.2855 168.014 56.1892 161.765 57.9609C161.634 57.997 161.496 58.033 161.365 58.069C159.093 58.6756 156.702 58.9999 154.239 58.9999C153.088 58.9999 151.955 58.9278 150.84 58.7957C149.904 58.6756 148.98 58.5134 148.073 58.3092C141.061 56.7117 135.062 52.4476 131.18 46.6281C134.913 41.4871 139.594 37.5954 142.778 36.2141C147.489 34.1721 154.961 32.8028 161.86 34.7907C161.878 34.7967 161.902 34.7967 161.926 34.8027C164.001 35.4033 166.017 36.3042 167.895 37.5834C171.956 40.3461 174.914 43.5531 177.007 47.0545Z" fill="#6876AA"/>
<path d="M149.164 29.9062L149.165 30.069L149.301 33.1337L149.398 35.5366C149.398 35.5366 149.808 36.5005 152.586 36.3192C156.309 36.0615 156.894 34.046 156.894 34.046L157.053 28.4126L155.925 28.6294L149.164 29.9062Z" fill="#F8CEC1"/>
<path d="M149.164 30.0692L149.3 33.1339C151.109 32.9129 154.401 32.1237 155.731 29.2584C155.833 29.0254 155.901 28.8158 155.923 28.6416L149.176 30.0229L149.164 30.0692Z" fill="black"/>
<path d="M147.986 15.4009C147.986 15.4009 144.524 23.3807 145.771 27.864C147.018 32.3473 151.074 31.6416 153.5 30.775C155.927 29.9084 157.053 28.41 157.053 28.41C157.053 28.41 159.32 29.1841 160.836 27.0611C162.352 24.938 161.418 22.5003 160.124 21.9418C158.83 21.3832 157.291 22.3243 157.291 22.3243L158.498 20.0055C158.498 20.0055 153.422 8.21922 147.986 15.4009Z" fill="#F8CEC1"/>
<path d="M149.061 14.2192C149.061 14.2192 148.811 18.4653 153.051 20.3944C157.292 22.3234 160.125 21.9414 160.125 21.9414L159.85 16.4041L154.092 11.4302L149.795 12.1202L149.061 14.2192Z" fill="black"/>
<path d="M157.004 21.0991L157.02 23.517L159.155 21.3958L157.004 21.0991Z" fill="black"/>
<path d="M178.018 45.4965C177.798 45.8689 177.565 46.2412 177.321 46.6016C177.219 46.7517 177.118 46.9019 177.005 47.052C173.379 52.283 168.012 56.1868 161.763 57.9585C161.632 57.9945 161.494 58.0305 161.363 58.0666L161.745 34.7703C161.745 34.7703 161.787 34.7763 161.858 34.7883C161.876 34.7943 161.9 34.7943 161.924 34.8003C163.295 35.0345 172.282 36.8242 177.106 43.947C177.434 44.4215 177.732 44.944 178.018 45.4965Z" fill="#6876AA"/>
<path d="M147.001 18.3284C146.874 18.3284 146.757 18.2461 146.717 18.1176C146.668 17.9591 146.755 17.7909 146.912 17.7417L148.491 17.2444C148.648 17.1945 148.816 17.2828 148.865 17.4414C148.914 17.5999 148.827 17.7681 148.67 17.8173L147.091 18.3146C147.061 18.3242 147.031 18.3284 147.001 18.3284Z" fill="black"/>
<path d="M157.455 26.0614C157.374 26.0614 157.294 26.0289 157.235 25.9641C157.124 25.8422 157.131 25.6518 157.252 25.5401L159.695 23.2759C159.816 23.163 160.005 23.1714 160.116 23.2933C160.227 23.4152 160.22 23.6056 160.099 23.7173L157.656 25.9815C157.599 26.0356 157.527 26.0614 157.455 26.0614Z" fill="black"/>
<path d="M159.928 25.7636C159.888 25.7636 159.848 25.7552 159.808 25.7384L158.35 25.094C158.2 25.0273 158.131 24.8502 158.197 24.6982C158.263 24.5469 158.439 24.4778 158.59 24.5439L160.048 25.1883C160.198 25.2549 160.267 25.4321 160.201 25.5841C160.152 25.6964 160.043 25.7636 159.928 25.7636Z" fill="black"/>
<path d="M147.487 22.3538C147.467 22.3538 147.447 22.3514 147.427 22.3478C147.265 22.3142 147.162 22.155 147.195 21.9929L147.485 20.5869L146.917 19.9269C146.809 19.802 146.822 19.6116 146.947 19.5035C147.071 19.3942 147.26 19.408 147.367 19.5335L148.033 20.3059C148.094 20.3767 148.118 20.4716 148.099 20.5635L147.78 22.1148C147.75 22.2565 147.626 22.3538 147.487 22.3538Z" fill="black"/>
<path d="M152.265 22.5986C152.245 22.5986 152.225 22.5968 152.204 22.5926C152.043 22.5589 151.94 22.3998 151.973 22.2376L152.262 20.8317L151.694 20.1716C151.586 20.0467 151.6 19.8569 151.724 19.7476C151.848 19.6395 152.036 19.6521 152.145 19.7777L152.81 20.55C152.87 20.6209 152.895 20.7158 152.876 20.8077L152.557 22.3589C152.528 22.5007 152.404 22.5986 152.265 22.5986Z" fill="black"/>
<path d="M148.432 25.8574C148.294 25.8574 148.171 25.7601 148.141 25.619C147.609 23.0605 148.841 21.7705 148.893 21.7164C149.009 21.5981 149.197 21.5969 149.315 21.714C149.432 21.8306 149.433 22.0197 149.318 22.138C149.268 22.1909 148.264 23.2785 148.724 25.4953C148.758 25.658 148.654 25.8166 148.493 25.8508C148.474 25.8556 148.453 25.8574 148.432 25.8574Z" fill="black"/>
<path d="M151.01 28.3125C150.839 28.3125 150.43 28.2326 149.582 27.2879C149.481 27.175 149.445 27.0225 149.484 26.8796C149.526 26.7312 149.642 26.6147 149.796 26.5685C151.835 25.9541 152.106 26.1583 152.235 26.2574C152.339 26.336 152.496 26.5258 152.381 26.9156C152.243 27.384 151.606 28.2741 151.062 28.3107C151.048 28.3113 151.031 28.3125 151.01 28.3125ZM150.201 27.0747C150.641 27.5336 150.934 27.7102 151.023 27.7108C151.233 27.6819 151.746 27.0315 151.817 26.733C151.649 26.7354 151.158 26.7985 150.201 27.0747Z" fill="black"/>
<path d="M140.77 45.3646C140.739 45.4 137.891 48.4755 138.432 54.005C138.26 53.8939 138.095 53.7768 137.931 53.6543C137.884 53.6237 137.842 53.5864 137.795 53.5498C137.445 48.0599 140.305 44.9904 140.342 44.949C140.457 44.8307 140.642 44.8283 140.765 44.9382C140.882 45.0541 140.885 45.2468 140.77 45.3646Z" fill="#92B4EA"/>
<path d="M152.954 36.8267L150.837 58.7957C149.901 58.6756 148.977 58.5134 148.07 58.3092L150.968 37.3311L152.954 36.8267Z" fill="#92B4EA"/>
<path d="M149.349 34.291C149.349 34.291 146.522 40.5922 147.198 40.4937C147.875 40.3953 152.041 36.9834 152.041 36.9834C152.041 36.9834 154.769 40.8439 155.72 40.9154C156.671 40.9868 156.982 34.0063 156.982 34.0063C156.982 34.0063 156.262 35.9804 152.711 36.315C149.16 36.6495 149.349 34.291 149.349 34.291Z" fill="#E6F4FF"/>
<path d="M168.434 42.9116L168.438 42.9195C168.785 43.7 169.16 44.4689 169.576 45.2241C169.786 45.6157 170.007 45.9966 170.23 46.3652M168.434 42.9116L171.505 45.5928M168.434 42.9116C166.839 39.2682 165.948 35.2333 165.948 30.9988C165.948 14.7207 179.05 1.50921 195.239 1.50921C211.427 1.50921 224.53 14.7207 224.53 30.9988C224.53 35.3895 223.576 39.5707 221.848 43.3305M168.434 42.9116L221.848 43.3305M170.23 46.3652L171.505 45.5928M170.23 46.3652C170.23 46.365 170.23 46.3648 170.23 46.3646L171.505 45.5928M170.23 46.3652C170.635 47.0335 171.062 47.6728 171.506 48.2891L171.513 48.299L171.52 48.3089C171.562 48.3652 171.581 48.392 171.605 48.4262C171.625 48.4546 171.648 48.488 171.691 48.5478M171.505 45.5928C171.887 46.2234 172.292 46.8299 172.716 47.4185C172.758 47.4746 172.797 47.5307 172.836 47.5856C172.864 47.6247 172.891 47.6633 172.919 47.7008M171.691 48.5478C171.655 48.4942 171.617 48.4324 171.583 48.3637L172.919 47.7008M171.691 48.5478C171.698 48.5573 171.706 48.5674 171.713 48.5783L172.919 47.7008M171.691 48.5478C171.724 48.5964 171.757 48.6384 171.785 48.6727M172.919 47.7008C172.925 47.7128 172.931 47.7188 172.942 47.7308M172.942 47.7308L171.745 48.6193C171.759 48.6371 171.772 48.655 171.785 48.6727M172.942 47.7308L171.884 48.7811C171.883 48.7793 171.841 48.7409 171.785 48.6727M172.942 47.7308L180.48 56.4777M171.785 48.6727C173.209 50.5815 174.858 52.3076 176.684 53.8212L176.689 53.825C177.369 54.3846 178.079 54.9228 178.819 55.4258L178.819 55.4262C179.353 55.7889 179.907 56.1444 180.48 56.4777M180.48 56.4777C180.48 56.4774 180.479 56.4771 180.479 56.4768L181.231 55.1899M180.48 56.4777L179.657 54.193C180.17 54.5413 180.695 54.8776 181.231 55.1899M180.48 56.4777C180.481 56.4779 180.481 56.4782 180.481 56.4785L181.231 55.1899M180.48 56.4777L181.231 55.1899M221.848 43.3305C221.068 45.0405 220.126 46.659 219.055 48.1678M221.848 43.3305L191.279 58.7153L191.065 60.1906C191.065 60.1907 191.066 60.1908 191.067 60.1909C192.235 60.3607 193.42 60.4554 194.627 60.4756M219.055 48.1678C219.055 48.1675 219.055 48.1671 219.055 48.1668L217.839 47.3044L219.055 48.1678ZM219.055 48.1678C218.955 48.3085 218.857 48.4395 218.76 48.5678M218.76 48.5678C218.311 49.1791 217.836 49.7638 217.358 50.3246L217.352 50.3316C216.281 51.5753 215.107 52.7262 213.844 53.7649M218.76 48.5678C218.762 48.5649 218.764 48.562 218.766 48.5591L217.565 47.6768L218.754 48.5762C218.756 48.5734 218.758 48.5706 218.76 48.5678ZM213.844 53.7649C212.95 54.5187 212.012 55.2096 211.03 55.8374M213.844 53.7649C213.846 53.7629 213.849 53.7608 213.851 53.7587L212.89 52.6195L213.836 53.7713C213.839 53.7692 213.841 53.7671 213.844 53.7649ZM211.03 55.8374C208.329 57.5835 205.319 58.8933 202.108 59.6717L202.107 59.6719C199.907 60.2037 197.601 60.4884 195.239 60.4884H195.222C195.057 60.4884 194.846 60.4884 194.627 60.4756M211.03 55.8374C211.031 55.8367 211.032 55.836 211.034 55.8353L210.224 54.5834L211.027 55.8395C211.028 55.8388 211.029 55.8381 211.03 55.8374ZM194.627 60.4756C194.638 60.4758 194.649 60.476 194.661 60.4762L194.684 58.9856L194.588 60.4732C194.601 60.4741 194.614 60.4749 194.627 60.4756Z" fill="#A6FBDE" stroke="white" stroke-width="2.98159"/>
<path d="M177.633 52.6722C178.283 53.2068 178.957 53.7172 179.655 54.1917C180.167 54.54 180.692 54.8764 181.229 55.1887C184.258 56.9724 187.651 58.1915 191.277 58.714C192.392 58.8762 193.525 58.9663 194.682 58.9843C194.867 58.9963 195.052 58.9963 195.236 58.9963C197.479 58.9963 199.667 58.726 201.754 58.2216C204.801 57.4829 207.658 56.2397 210.222 54.5821C211.152 53.9875 212.041 53.3329 212.887 52.6182C214.086 51.6333 215.201 50.5402 216.221 49.3571C216.686 48.8106 217.139 48.252 217.562 47.6755C215.666 43.1531 212.202 36.6729 207.479 35.0874C200.043 32.589 184.199 36.1084 184.199 36.1084C184.199 36.1084 178.772 38.7629 177.633 52.6722Z" fill="#40507F"/>
<path d="M181.232 55.1889C184.261 56.9726 187.654 58.1918 191.28 58.7143C192.395 58.8765 193.528 58.9666 194.685 58.9846C194.87 58.9966 195.055 58.9966 195.24 58.9966C197.482 58.9966 199.67 58.7263 201.757 58.2218C204.805 57.4831 207.661 56.2399 210.225 54.5824C211.155 53.9878 212.044 53.3332 212.891 52.6185C212.843 45.2975 212.294 38.6071 210.535 37.0095C209.653 36.2048 208.597 35.5742 207.482 35.0877C204.9 33.9646 202.014 33.5863 200.118 33.4601C198.859 33.3761 198.042 33.4061 198.042 33.4061C198.042 33.4061 196.355 33.4722 194.089 33.7244C193.463 33.8025 192.831 33.8805 192.169 33.9766C188.31 34.5352 183.79 35.6222 182.622 37.6762C181.614 39.4419 181.292 47.3514 181.232 55.1889Z" fill="#40507F"/>
<path d="M189.9 18.7411L201.391 27.5035C201.391 27.5035 207.652 21.1734 205.106 17.5579C203.526 15.3058 200.329 14.2248 198.141 13.7263C197.89 13.6722 197.658 13.6242 197.437 13.5821C196.495 13.396 195.863 13.3419 195.863 13.3419L195.857 13.3779C195.457 13.2278 191.474 10.327 189.291 11.2879C186.293 12.6032 189.9 18.7411 189.9 18.7411Z" fill="black"/>
<path d="M200.199 28.8721L200.578 35.0904C200.578 35.0904 199.573 36.9468 195.98 37.4657C193.302 37.8525 192.32 37.2981 192.32 37.2981L192.503 34.1259L192.686 31.0317L199.12 29.1838L200.199 28.8721Z" fill="#F8CEC1"/>
<path d="M199.121 29.1838C199.116 29.3544 199.064 29.5592 198.978 29.7952C197.786 32.9867 194.049 33.8899 192.504 34.126L192.687 31.0318L199.121 29.1838Z" fill="black"/>
<path d="M190.447 16.9435C190.447 16.9435 187.682 24.9402 189.223 29.1929C190.764 33.4455 194.643 32.457 196.932 31.4342C199.22 30.412 200.201 28.874 200.201 28.874C200.201 28.874 202.456 29.4541 203.768 27.2818C205.081 25.1102 203.995 22.8166 202.699 22.3721C201.403 21.9277 199.98 22.9559 199.98 22.9559L200.978 20.6167C200.979 20.6173 195.186 9.57209 190.447 16.9435Z" fill="#F8CEC1"/>
<path d="M200.399 26.3518C200.465 26.3518 200.532 26.3296 200.587 26.2839L203.246 24.0972C203.374 23.9927 203.392 23.8029 203.288 23.6744C203.183 23.5459 202.996 23.5279 202.869 23.6318L200.21 25.8185C200.082 25.923 200.064 26.1127 200.167 26.2413C200.227 26.3139 200.312 26.3518 200.399 26.3518Z" fill="black"/>
<path d="M202.933 26.1602C203.072 26.1602 203.197 26.0605 203.225 25.917C203.256 25.7542 203.151 25.5969 202.988 25.565L201.128 25.2029C200.968 25.1711 200.811 25.2774 200.778 25.4407C200.747 25.6035 200.853 25.7608 201.015 25.7921L202.875 26.1542C202.895 26.159 202.914 26.1602 202.933 26.1602Z" fill="black"/>
<path d="M195.796 20.2892C195.865 20.2892 195.935 20.2646 195.992 20.2147C196.116 20.1054 196.128 19.9162 196.02 19.7913C195.094 18.7247 193.959 19.0021 193.488 19.297C193.348 19.3847 193.305 19.5703 193.393 19.7108C193.481 19.8514 193.663 19.894 193.803 19.8075C193.901 19.7481 194.766 19.2604 195.572 20.1865C195.631 20.2543 195.713 20.2892 195.796 20.2892Z" fill="black"/>
<path d="M189.797 20.034C189.869 20.034 189.943 20.0069 190.001 19.9529C190.588 19.3986 191.267 19.7247 191.295 19.7385C191.443 19.8123 191.621 19.7517 191.695 19.6046C191.768 19.4568 191.71 19.2778 191.565 19.2028C191.522 19.1805 190.494 18.6671 189.593 19.5139C189.473 19.6274 189.466 19.8172 189.579 19.9385C189.637 20.0021 189.717 20.034 189.797 20.034Z" fill="black"/>
<path d="M191.197 25.8849C191.231 25.8849 191.265 25.8789 191.299 25.8668C191.454 25.8098 191.534 25.6374 191.477 25.4813C190.692 23.3234 191.713 22.073 191.757 22.0208C191.863 21.8946 191.849 21.7055 191.724 21.598C191.599 21.4899 191.413 21.5037 191.305 21.6292C191.252 21.6916 190.007 23.1835 190.917 25.6873C190.961 25.8098 191.075 25.8849 191.197 25.8849Z" fill="black"/>
<path d="M190.004 23.0201C190.142 23.0201 190.266 22.9228 190.295 22.781L190.595 21.3306C190.6 21.3102 190.602 21.2892 190.602 21.2688C190.602 21.1294 190.505 21.0045 190.364 20.9751C190.207 20.9415 190.045 21.0448 190.012 21.2075L189.712 22.6579C189.707 22.6783 189.705 22.6993 189.705 22.7192C189.705 22.8585 189.802 22.9834 189.943 23.0128C189.964 23.0177 189.984 23.0201 190.004 23.0201Z" fill="black"/>
<path d="M194.52 23.1254C194.658 23.1254 194.782 23.0282 194.811 22.8864L195.111 21.4366C195.145 21.2739 195.041 21.1153 194.879 21.0817C194.721 21.0475 194.56 21.152 194.527 21.3141L194.227 22.7639C194.193 22.9267 194.297 23.0852 194.458 23.1188C194.479 23.1236 194.499 23.1254 194.52 23.1254Z" fill="black"/>
<path d="M189.904 18.7404C189.904 18.7404 190.499 17.4492 192.038 17.3435C193.577 17.2378 194.543 18.2744 194.543 18.2744C194.543 18.2744 194.026 20.9283 196.205 22.1865C198.384 23.4447 199.981 22.9565 199.981 22.9565L201.467 22.3174L202.445 20.013L197.76 15.5147L191.888 12.8428L189.151 15.6721L189.904 18.7404Z" fill="black"/>
<path d="M192.902 28.267C193.143 28.267 194.565 28.2057 195.12 26.7968C195.18 26.6424 195.105 26.4683 194.953 26.407C194.8 26.3457 194.626 26.4214 194.566 26.5758C194.125 27.6946 192.914 27.6658 192.89 27.6664C192.72 27.6664 192.588 27.7937 192.582 27.9559C192.576 28.1216 192.705 28.2604 192.87 28.2664C192.874 28.2664 192.885 28.267 192.902 28.267Z" fill="black"/>
<path d="M194.004 37.9486C198.046 37.9486 201.123 35.1289 201.272 34.9902C201.392 34.8773 201.4 34.6881 201.288 34.5662C201.175 34.4443 200.988 34.4371 200.866 34.5494C200.827 34.5866 196.8 38.2735 192.111 37.1192C191.952 37.0796 191.79 37.1787 191.751 37.3397C191.712 37.5006 191.81 37.6634 191.97 37.7024C192.667 37.8742 193.348 37.9486 194.004 37.9486Z" fill="white"/>
<path d="M172.713 47.4186C172.791 47.5267 172.862 47.6288 172.94 47.7309C174.299 49.5626 175.88 51.2202 177.633 52.6736C178.277 53.2021 178.945 53.7126 179.636 54.181L184.812 51.9589L182.959 37.2046L172.713 47.4186Z" fill="#40507F"/>
</svg>
