<svg width="143" height="36" viewBox="0 0 143 36" fill="none" xmlns="http://www.w3.org/2000/svg">
<g clip-path="url(#clip0_2830_55507)">
<circle cx="18" cy="18" r="16" fill="#DAE3EA"/>
<path fill-rule="evenodd" clip-rule="evenodd" d="M21.056 14.9529C21.056 16.6367 19.6922 18.0005 18.0084 18.0005C16.3246 18.0005 14.9608 16.6367 14.9608 14.9529C14.9608 13.2691 16.3246 11.9053 18.0084 11.9053C19.6922 11.9053 21.056 13.2691 21.056 14.9529ZM11.9102 22.5719C11.9102 20.5453 15.9711 19.5243 18.0054 19.5243C20.0397 19.5243 24.1006 20.5453 24.1006 22.5719V23.3338C24.1006 23.7529 23.7578 24.0958 23.3387 24.0958H12.6721C12.253 24.0958 11.9102 23.7529 11.9102 23.3338V22.5719Z" fill="#94A3B1"/>
</g>
<rect x="1" y="1" width="34" height="34" rx="17" stroke="white" stroke-width="2"/>
<g clip-path="url(#clip1_2830_55507)">
<circle cx="39.332" cy="18" r="16" fill="#DAE3EA"/>
<path fill-rule="evenodd" clip-rule="evenodd" d="M42.388 14.9529C42.388 16.6367 41.0242 18.0005 39.3404 18.0005C37.6566 18.0005 36.2928 16.6367 36.2928 14.9529C36.2928 13.2691 37.6566 11.9053 39.3404 11.9053C41.0242 11.9053 42.388 13.2691 42.388 14.9529ZM33.2422 22.5719C33.2422 20.5453 37.3031 19.5243 39.3374 19.5243C41.3717 19.5243 45.4327 20.5453 45.4327 22.5719V23.3338C45.4327 23.7529 45.0898 24.0958 44.6708 24.0958H34.0041C33.585 24.0958 33.2422 23.7529 33.2422 23.3338V22.5719Z" fill="#94A3B1"/>
</g>
<rect x="22.332" y="1" width="34" height="34" rx="17" stroke="white" stroke-width="2"/>
<g clip-path="url(#clip2_2830_55507)">
<circle cx="60.668" cy="18" r="16" fill="#DAE3EA"/>
<path fill-rule="evenodd" clip-rule="evenodd" d="M63.724 14.9529C63.724 16.6367 62.3601 18.0005 60.6763 18.0005C58.9925 18.0005 57.6287 16.6367 57.6287 14.9529C57.6287 13.2691 58.9925 11.9053 60.6763 11.9053C62.3601 11.9053 63.724 13.2691 63.724 14.9529ZM54.5781 22.5719C54.5781 20.5453 58.6391 19.5243 60.6734 19.5243C62.7076 19.5243 66.7686 20.5453 66.7686 22.5719V23.3338C66.7686 23.7529 66.4257 24.0958 66.0067 24.0958H55.34C54.921 24.0958 54.5781 23.7529 54.5781 23.3338V22.5719Z" fill="#94A3B1"/>
</g>
<rect x="43.668" y="1" width="34" height="34" rx="17" stroke="white" stroke-width="2"/>
<g clip-path="url(#clip3_2830_55507)">
<circle cx="82" cy="18" r="16" fill="#DAE3EA"/>
<path fill-rule="evenodd" clip-rule="evenodd" d="M85.056 14.9529C85.056 16.6367 83.6922 18.0005 82.0084 18.0005C80.3246 18.0005 78.9608 16.6367 78.9608 14.9529C78.9608 13.2691 80.3246 11.9053 82.0084 11.9053C83.6922 11.9053 85.056 13.2691 85.056 14.9529ZM75.9102 22.5719C75.9102 20.5453 79.9711 19.5243 82.0054 19.5243C84.0397 19.5243 88.1006 20.5453 88.1006 22.5719V23.3338C88.1006 23.7529 87.7578 24.0958 87.3387 24.0958H76.6721C76.253 24.0958 75.9102 23.7529 75.9102 23.3338V22.5719Z" fill="#94A3B1"/>
</g>
<rect x="65" y="1" width="34" height="34" rx="17" stroke="white" stroke-width="2"/>
<g clip-path="url(#clip4_2830_55507)">
<circle cx="103.332" cy="18" r="16" fill="#DAE3EA"/>
<path fill-rule="evenodd" clip-rule="evenodd" d="M106.388 14.9529C106.388 16.6367 105.024 18.0005 103.34 18.0005C101.657 18.0005 100.293 16.6367 100.293 14.9529C100.293 13.2691 101.657 11.9053 103.34 11.9053C105.024 11.9053 106.388 13.2691 106.388 14.9529ZM97.2422 22.5719C97.2422 20.5453 101.303 19.5243 103.337 19.5243C105.372 19.5243 109.433 20.5453 109.433 22.5719V23.3338C109.433 23.7529 109.09 24.0958 108.671 24.0958H98.0041C97.585 24.0958 97.2422 23.7529 97.2422 23.3338V22.5719Z" fill="#94A3B1"/>
</g>
<rect x="86.332" y="1" width="34" height="34" rx="17" stroke="white" stroke-width="2"/>
<g clip-path="url(#clip5_2830_55507)">
<circle cx="124.664" cy="18" r="16" fill="white"/>
<path d="M124.683 11.2152C124.481 11.215 124.288 11.2949 124.146 11.4374C124.003 11.58 123.923 11.7733 123.923 11.9748L123.918 17.2384L118.649 17.2384C118.447 17.2382 118.254 17.3181 118.112 17.4606C117.969 17.6032 117.889 17.7965 117.889 17.998C117.889 18.4183 118.229 18.7577 118.649 18.7577L123.918 18.7577L123.918 24.0266C123.918 24.4469 124.257 24.7863 124.678 24.7863C125.098 24.7863 125.437 24.4469 125.437 24.0266L125.437 18.7577L130.706 18.7577C131.126 18.7577 131.466 18.4183 131.466 17.998C131.466 17.5778 131.126 17.2384 130.706 17.2384L125.437 17.2384L125.437 11.9694C125.437 11.56 125.092 11.2152 124.683 11.2152Z" fill="#656DE1"/>
</g>
<rect x="107.668" y="1" width="34" height="34" rx="17" stroke="white" stroke-width="2"/>
<defs>
<clipPath id="clip0_2830_55507">
<rect x="2" y="2" width="32" height="32" rx="16" fill="white"/>
</clipPath>
<clipPath id="clip1_2830_55507">
<rect x="23.332" y="2" width="32" height="32" rx="16" fill="white"/>
</clipPath>
<clipPath id="clip2_2830_55507">
<rect x="44.668" y="2" width="32" height="32" rx="16" fill="white"/>
</clipPath>
<clipPath id="clip3_2830_55507">
<rect x="66" y="2" width="32" height="32" rx="16" fill="white"/>
</clipPath>
<clipPath id="clip4_2830_55507">
<rect x="87.332" y="2" width="32" height="32" rx="16" fill="white"/>
</clipPath>
<clipPath id="clip5_2830_55507">
<rect x="108.668" y="2" width="32" height="32" rx="16" fill="white"/>
</clipPath>
</defs>
</svg>
