<svg width="40" height="41" viewBox="0 0 40 41" fill="none" xmlns="http://www.w3.org/2000/svg">
<g clip-path="url(#clip0_6001_50488)">
<circle cx="20" cy="20.2871" r="20" fill="#DAE3EA"/>
<path fill-rule="evenodd" clip-rule="evenodd" d="M19.0377 16.4777C19.0377 18.0587 17.7711 19.3349 16.1901 19.3349C14.6092 19.3349 13.333 18.0587 13.333 16.4777C13.333 14.8968 14.6092 13.6206 16.1901 13.6206C17.7711 13.6206 19.0377 14.8968 19.0377 16.4777ZM26.6568 16.4777C26.6568 18.0587 25.3901 19.3349 23.8092 19.3349C22.2282 19.3349 20.952 18.0587 20.952 16.4777C20.952 14.8968 22.2282 13.6206 23.8092 13.6206C25.3901 13.6206 26.6568 14.8968 26.6568 16.4777ZM16.1901 21.2397C13.9711 21.2397 9.52344 22.354 9.52344 24.573V26.0016C9.52344 26.5254 9.95201 26.954 10.4758 26.954H21.9044C22.4282 26.954 22.8568 26.5254 22.8568 26.0016V24.573C22.8568 22.354 18.4092 21.2397 16.1901 21.2397ZM22.8853 21.2873C23.2187 21.2587 23.533 21.2397 23.8092 21.2397C26.0282 21.2397 30.4758 22.3539 30.4758 24.573V26.0016C30.4758 26.5254 30.0472 26.9539 29.5234 26.9539H24.5901C24.6949 26.6587 24.7615 26.3349 24.7615 26.0016V24.573C24.7615 23.173 24.0092 22.1158 22.9234 21.3254C22.9206 21.3225 22.9177 21.3187 22.9145 21.3146C22.9073 21.3052 22.8986 21.2939 22.8853 21.2873Z" fill="#94A3B1"/>
</g>
<defs>
<clipPath id="clip0_6001_50488">
<rect width="40" height="40" fill="white" transform="translate(0 0.287109)"/>
</clipPath>
</defs>
</svg>
