<svg width="64" height="64" viewBox="0 0 64 64" fill="none" xmlns="http://www.w3.org/2000/svg">
<g clip-path="url(#clip0_4301_11054)">
<circle cx="32" cy="32" r="32" fill="#DAE3EA"/>
<path fill-rule="evenodd" clip-rule="evenodd" d="M38.0909 25.9047C38.0909 29.2723 35.3632 31.9999 31.9956 31.9999C28.628 31.9999 25.9004 29.2723 25.9004 25.9047C25.9004 22.5371 28.628 19.8094 31.9956 19.8094C35.3632 19.8094 38.0909 22.5371 38.0909 25.9047ZM19.8066 41.1427C19.8066 37.0894 27.9285 35.0475 31.9971 35.0475C36.0657 35.0475 44.1876 37.0894 44.1876 41.1427V42.6665C44.1876 43.5046 43.5019 44.1903 42.6638 44.1903H21.3304C20.4924 44.1903 19.8066 43.5046 19.8066 42.6665V41.1427Z" fill="#94A3B1"/>
</g>
<defs>
<clipPath id="clip0_4301_11054">
<rect width="64" height="64" fill="white"/>
</clipPath>
</defs>
</svg>
