<svg width="88" height="88" viewBox="0 0 88 88" fill="none" xmlns="http://www.w3.org/2000/svg">
<g clip-path="url(#clip0_3947_61191)">
<rect x="0.0351562" y="0.727783" width="87.2727" height="87.2727" rx="43.6364" fill="white"/>
<g clip-path="url(#clip1_3947_61191)">
<circle cx="43.943" cy="44.3642" r="43.6364" fill="#DAE3EA"/>
<path fill-rule="evenodd" clip-rule="evenodd" d="M52.2564 36.0525C52.2564 40.6447 48.5369 44.3642 43.9447 44.3642C39.3525 44.3642 35.633 40.6447 35.633 36.0525C35.633 31.4603 39.3525 27.7408 43.9447 27.7408C48.5369 27.7408 52.2564 31.4603 52.2564 36.0525ZM27.3203 56.8318C27.3203 51.3045 38.3956 48.5201 43.9437 48.5201C49.4917 48.5201 60.5671 51.3045 60.5671 56.8318V58.9097C60.5671 60.0526 59.632 60.9877 58.4891 60.9877H29.3982C28.2554 60.9877 27.3203 60.0526 27.3203 58.9097V56.8318Z" fill="#94A3B1"/>
</g>
</g>
<rect x="62.4352" y="1.30937" width="21.5273" height="21.5273" rx="10.7636" fill="white"/>
<rect x="62.4352" y="1.30937" width="21.5273" height="21.5273" rx="10.7636" stroke="#8E94E9" stroke-width="1.74545"/>
<path d="M76.4732 6.85486C76.1023 6.85486 75.7466 7.00219 75.4843 7.26445L69.2217 13.5271L68.5625 16.1639L71.1994 15.5047L77.462 9.24211C77.7243 8.97986 77.8716 8.62416 77.8716 8.25328C77.8716 7.8824 77.7243 7.5267 77.462 7.26445C77.1997 7.00219 76.8441 6.85486 76.4732 6.85486Z" fill="#8E94E9" stroke="#8E94E9" stroke-width="1.16364" stroke-linecap="round" stroke-linejoin="round"/>
<defs>
<clipPath id="clip0_3947_61191">
<rect x="0.0351562" y="0.727783" width="87.2727" height="87.2727" rx="43.6364" fill="white"/>
</clipPath>
<clipPath id="clip1_3947_61191">
<rect width="87.2727" height="87.2727" fill="white" transform="translate(0.306641 0.727783)"/>
</clipPath>
</defs>
</svg>
