<svg width="16" height="16" viewBox="0 0 16 16" fill="none" xmlns="http://www.w3.org/2000/svg">
<path d="M1.20898 8.99996H12.379L7.49898 13.88C7.10898 14.27 7.10898 14.91 7.49898 15.3C7.88898 15.69 8.51898 15.69 8.90898 15.3L15.499 8.70996C15.889 8.31996 15.889 7.68996 15.499 7.29996L8.91898 0.699956C8.73215 0.512704 8.4785 0.407471 8.21398 0.407471C7.94947 0.407471 7.69582 0.512704 7.50898 0.699956C7.11898 1.08996 7.11898 1.71996 7.50898 2.10996L12.379 6.99996H1.20898C0.658984 6.99996 0.208984 7.44996 0.208984 7.99996C0.208984 8.54996 0.658984 8.99996 1.20898 8.99996Z" fill="#8E94E9"/>
</svg>
