<svg width="30" height="30" viewBox="0 0 30 30" fill="none" xmlns="http://www.w3.org/2000/svg">
<g id="icon/social/notifications_24px">
<path id="icon/social/notifications_24px_2" fill-rule="evenodd" clip-rule="evenodd" d="M22.2012 13.4999V19.4999L23.7492 21.0479C24.5052 21.8039 23.9652 23.0999 22.8972 23.0999H7.09323C6.02523 23.0999 5.49723 21.8039 6.25323 21.0479L7.80123 19.4999V13.4999C7.80123 9.80393 9.75723 6.73193 13.2012 5.91593V5.09993C13.2012 4.10393 14.0052 3.29993 15.0012 3.29993C15.9972 3.29993 16.8012 4.10393 16.8012 5.09993V5.91593C20.2332 6.73193 22.2012 9.81593 22.2012 13.4999ZM17.4013 24.3C17.4013 25.62 16.3213 26.7 15.0013 26.7C13.6693 26.7 12.6013 25.62 12.6013 24.3H17.4013Z" fill="white"/>
</g>
</svg>
