<svg width="20" height="21" viewBox="0 0 20 21" fill="none" xmlns="http://www.w3.org/2000/svg">
<g id="icon/action/search_24px">
<path id="icon/action/search_24px_2" fill-rule="evenodd" clip-rule="evenodd" d="M12.6553 12.5028H13.3137L16.847 16.0528C17.1887 16.3944 17.1887 16.9528 16.847 17.2944C16.5053 17.6361 15.947 17.6361 15.6053 17.2944L12.0637 13.7528V13.0944L11.8387 12.8611C10.672 13.8611 9.08034 14.3778 7.38867 14.0944C5.07201 13.7028 3.22201 11.7694 2.93867 9.43609C2.50534 5.91109 5.47201 2.94443 8.99701 3.37776C11.3303 3.66109 13.2637 5.51109 13.6553 7.82776C13.9387 9.51943 13.422 11.1111 12.422 12.2778L12.6553 12.5028ZM4.5638 8.75256C4.5638 10.8276 6.2388 12.5026 8.3138 12.5026C10.3888 12.5026 12.0638 10.8276 12.0638 8.75256C12.0638 6.67756 10.3888 5.00256 8.3138 5.00256C6.2388 5.00256 4.5638 6.67756 4.5638 8.75256Z" fill="#F6FF82"/>
</g>
</svg>
