<svg width="1200" height="320" fill="none" xmlns="http://www.w3.org/2000/svg"><g clip-path="url(#a)"><rect width="1200" height="320" rx="20" fill="#8E94E9"/><g clip-path="url(#b)" stroke-width="1.303"><circle cx="275.61" cy="275.61" r="274.959" transform="scale(-1 1) rotate(-69.175 -408.272 1379.105)" stroke="url(#c)"/><circle cx="196.864" cy="196.864" r="196.213" transform="scale(-1 1) rotate(-69.175 -390.34 1282.596)" stroke="url(#d)"/></g><path d="M76.84 147v-44.8h15.904c2.304 0 4.384.469 6.24 1.408 1.877.939 3.36 2.293 4.448 4.064 1.109 1.749 1.664 3.851 1.664 6.304 0 1.195-.192 2.368-.576 3.52-.384 1.152-.928 2.165-1.632 3.04-.704.875-1.557 1.493-2.56 1.856 1.365.341 2.496.96 3.392 1.856a9.82 9.82 0 0 1 2.176 3.072 14.72 14.72 0 0 1 1.12 3.648c.235 1.259.352 2.453.352 3.584 0 2.389-.576 4.523-1.728 6.4A12.554 12.554 0 0 1 101 145.4c-1.92 1.067-4.043 1.6-6.368 1.6H76.84zm6.656-5.76h10.496c1.365 0 2.603-.341 3.712-1.024 1.13-.683 2.027-1.621 2.688-2.816.661-1.216.992-2.581.992-4.096a7.51 7.51 0 0 0-.992-3.744 7.917 7.917 0 0 0-2.688-2.88c-1.11-.725-2.347-1.088-3.712-1.088H83.496v15.648zm0-21.312h8.544c1.75 0 3.253-.533 4.512-1.6 1.259-1.067 1.888-2.528 1.888-4.384 0-1.984-.63-3.467-1.888-4.448-1.259-1.003-2.763-1.504-4.512-1.504h-8.544v11.936zm42.862 27.904c-2.944 0-5.632-.757-8.064-2.272-2.411-1.515-4.342-3.541-5.792-6.08-1.43-2.56-2.144-5.387-2.144-8.48 0-2.347.416-4.533 1.248-6.56.832-2.048 1.973-3.84 3.424-5.376a16.063 16.063 0 0 1 5.12-3.648c1.941-.875 4.01-1.312 6.208-1.312 2.944 0 5.621.757 8.032 2.272 2.432 1.515 4.362 3.552 5.792 6.112 1.45 2.56 2.176 5.397 2.176 8.512 0 2.325-.416 4.501-1.248 6.528a17.328 17.328 0 0 1-3.456 5.376 15.942 15.942 0 0 1-5.088 3.616c-1.92.875-3.99 1.312-6.208 1.312zm0-6.656c1.77 0 3.36-.469 4.768-1.408s2.517-2.176 3.328-3.712c.832-1.557 1.248-3.243 1.248-5.056 0-1.856-.427-3.563-1.28-5.12-.832-1.557-1.952-2.795-3.36-3.712-1.408-.939-2.976-1.408-4.704-1.408-1.75 0-3.339.469-4.768 1.408-1.408.939-2.528 2.187-3.36 3.744-.811 1.557-1.216 3.253-1.216 5.088 0 1.899.426 3.616 1.28 5.152.853 1.536 1.984 2.763 3.392 3.68a8.626 8.626 0 0 0 4.672 1.344zm35.187 6.656c-2.944 0-5.632-.757-8.064-2.272-2.411-1.515-4.341-3.541-5.792-6.08-1.429-2.56-2.144-5.387-2.144-8.48 0-2.347.416-4.533 1.248-6.56.832-2.048 1.973-3.84 3.424-5.376a16.074 16.074 0 0 1 5.12-3.648c1.941-.875 4.011-1.312 6.208-1.312 2.944 0 5.621.757 8.032 2.272 2.432 1.515 4.363 3.552 5.792 6.112 1.451 2.56 2.176 5.397 2.176 8.512 0 2.325-.416 4.501-1.248 6.528a17.328 17.328 0 0 1-3.456 5.376 15.942 15.942 0 0 1-5.088 3.616c-1.92.875-3.989 1.312-6.208 1.312zm0-6.656c1.771 0 3.36-.469 4.768-1.408s2.517-2.176 3.328-3.712c.832-1.557 1.248-3.243 1.248-5.056 0-1.856-.427-3.563-1.28-5.12-.832-1.557-1.952-2.795-3.36-3.712-1.408-.939-2.976-1.408-4.704-1.408-1.749 0-3.339.469-4.768 1.408-1.408.939-2.528 2.187-3.36 3.744-.811 1.557-1.216 3.253-1.216 5.088 0 1.899.427 3.616 1.28 5.152s1.984 2.763 3.392 3.68a8.629 8.629 0 0 0 4.672 1.344zm37.879-19.52h-6.72L192.672 147h-6.656l.032-25.344h-5.088V115h5.088l-.032-10.048h6.656l.032 10.048h6.72v6.656zM226.073 115h7.104l-17.536 48h-7.072l5.792-16-11.488-32h7.264l7.552 22.88 8.384-22.88zm49.628 32.832c-3.029 0-5.877-.597-8.544-1.792a22.754 22.754 0 0 1-7.04-4.992c-2.005-2.133-3.584-4.608-4.736-7.424-1.131-2.816-1.696-5.824-1.696-9.024 0-3.2.565-6.208 1.696-9.024 1.152-2.816 2.731-5.28 4.736-7.392a22.08 22.08 0 0 1 7.04-4.992c2.667-1.216 5.515-1.824 8.544-1.824 3.627 0 6.965.843 10.016 2.528s5.579 3.925 7.584 6.72l-5.92 3.168c-1.387-1.749-3.104-3.147-5.152-4.192a14.166 14.166 0 0 0-6.528-1.568c-2.133 0-4.128.437-5.984 1.312a15.859 15.859 0 0 0-4.896 3.584c-1.408 1.515-2.507 3.275-3.296 5.28-.789 2.005-1.184 4.139-1.184 6.4 0 2.283.395 4.427 1.184 6.432a17.083 17.083 0 0 0 3.296 5.28 16.244 16.244 0 0 0 4.928 3.584c1.856.853 3.84 1.28 5.952 1.28 2.347 0 4.533-.523 6.56-1.568 2.048-1.067 3.755-2.475 5.12-4.224l5.92 3.232c-2.005 2.795-4.533 5.035-7.584 6.72-3.051 1.664-6.389 2.496-10.016 2.496zM322.736 115h6.656v32h-6.688l-.256-4.64a11.13 11.13 0 0 1-3.808 3.968c-1.6 1.003-3.488 1.504-5.664 1.504-2.347 0-4.555-.437-6.624-1.312a17.501 17.501 0 0 1-5.472-3.712 17.434 17.434 0 0 1-3.648-5.44c-.875-2.069-1.312-4.288-1.312-6.656 0-2.283.427-4.427 1.28-6.432a16.459 16.459 0 0 1 3.552-5.312 16.655 16.655 0 0 1 5.248-3.552c2.005-.875 4.149-1.312 6.432-1.312 2.325 0 4.373.533 6.144 1.6a14.15 14.15 0 0 1 4.448 4.032l-.288-4.736zm-9.92 26.4c1.877 0 3.52-.459 4.928-1.376 1.408-.939 2.496-2.197 3.264-3.776.789-1.579 1.184-3.328 1.184-5.248 0-1.941-.395-3.701-1.184-5.28-.789-1.579-1.888-2.827-3.296-3.744-1.387-.939-3.019-1.408-4.896-1.408-1.856 0-3.552.469-5.088 1.408a10.323 10.323 0 0 0-3.648 3.776c-.896 1.579-1.344 3.328-1.344 5.248 0 1.941.459 3.701 1.376 5.28a11.043 11.043 0 0 0 3.68 3.744 9.625 9.625 0 0 0 5.024 1.376zm23.212 5.6V99h6.656v48h-6.656zm14.312 0V99h6.656v48h-6.656zm-273.5 70v-44.8h26.4v6.656H83.496v10.816h16.672v6.656H83.496V217H76.84zm42.33.832c-2.944 0-5.632-.757-8.064-2.272-2.411-1.515-4.341-3.541-5.792-6.08-1.429-2.56-2.144-5.387-2.144-8.48 0-2.347.416-4.533 1.248-6.56.832-2.048 1.973-3.84 3.424-5.376a16.074 16.074 0 0 1 5.12-3.648c1.941-.875 4.011-1.312 6.208-1.312 2.944 0 5.621.757 8.032 2.272 2.432 1.515 4.363 3.552 5.792 6.112 1.451 2.56 2.176 5.397 2.176 8.512 0 2.325-.416 4.501-1.248 6.528a17.328 17.328 0 0 1-3.456 5.376 15.942 15.942 0 0 1-5.088 3.616c-1.92.875-3.989 1.312-6.208 1.312zm0-6.656c1.771 0 3.36-.469 4.768-1.408s2.517-2.176 3.328-3.712c.832-1.557 1.248-3.243 1.248-5.056 0-1.856-.427-3.563-1.28-5.12-.832-1.557-1.952-2.795-3.36-3.712-1.408-.939-2.976-1.408-4.704-1.408-1.749 0-3.339.469-4.768 1.408-1.408.939-2.528 2.187-3.36 3.744-.811 1.557-1.216 3.253-1.216 5.088 0 1.899.427 3.616 1.28 5.152s1.984 2.763 3.392 3.68a8.629 8.629 0 0 0 4.672 1.344zM140.34 217v-32h6.656v3.392c1.109-1.323 2.475-2.368 4.096-3.136 1.621-.768 3.371-1.152 5.248-1.152 1.195 0 2.379.16 3.552.48l-2.656 6.72a6.91 6.91 0 0 0-2.496-.48c-1.408 0-2.699.352-3.872 1.056a7.834 7.834 0 0 0-2.816 2.784c-.704 1.173-1.056 2.475-1.056 3.904V217h-6.656zm39.438 0v-44.8h15.904c2.304 0 4.384.469 6.24 1.408 1.877.939 3.36 2.293 4.448 4.064 1.109 1.749 1.664 3.851 1.664 6.304 0 1.195-.192 2.368-.576 3.52-.384 1.152-.928 2.165-1.632 3.04-.704.875-1.558 1.493-2.56 1.856 1.365.341 2.496.96 3.392 1.856a9.816 9.816 0 0 1 2.175 3.072 14.723 14.723 0 0 1 1.121 3.648 19.64 19.64 0 0 1 .352 3.584c0 2.389-.576 4.523-1.728 6.4a12.554 12.554 0 0 1-4.64 4.448c-1.92 1.067-4.043 1.6-6.368 1.6h-17.792zm6.656-5.76h10.496c1.365 0 2.602-.341 3.712-1.024 1.13-.683 2.026-1.621 2.688-2.816.661-1.216.992-2.581.992-4.096a7.51 7.51 0 0 0-.992-3.744 7.929 7.929 0 0 0-2.688-2.88c-1.11-.725-2.347-1.088-3.712-1.088h-10.496v15.648zm0-21.312h8.544c1.749 0 3.253-.533 4.512-1.6 1.258-1.067 1.888-2.528 1.888-4.384 0-1.984-.63-3.467-1.888-4.448-1.259-1.003-2.763-1.504-4.512-1.504h-8.544v11.936zM240.111 185h6.656v32h-6.688l-.256-4.64a11.13 11.13 0 0 1-3.808 3.968c-1.6 1.003-3.488 1.504-5.664 1.504-2.347 0-4.555-.437-6.624-1.312a17.501 17.501 0 0 1-5.472-3.712 17.434 17.434 0 0 1-3.648-5.44c-.875-2.069-1.312-4.288-1.312-6.656 0-2.283.427-4.427 1.28-6.432a16.459 16.459 0 0 1 3.552-5.312 16.655 16.655 0 0 1 5.248-3.552c2.005-.875 4.149-1.312 6.432-1.312 2.325 0 4.373.533 6.144 1.6a14.15 14.15 0 0 1 4.448 4.032l-.288-4.736zm-9.92 26.4c1.877 0 3.52-.459 4.928-1.376 1.408-.939 2.496-2.197 3.264-3.776.789-1.579 1.184-3.328 1.184-5.248 0-1.941-.395-3.701-1.184-5.28-.789-1.579-1.888-2.827-3.296-3.744-1.387-.939-3.019-1.408-4.896-1.408-1.856 0-3.552.469-5.088 1.408a10.323 10.323 0 0 0-3.648 3.776c-.896 1.579-1.344 3.328-1.344 5.248 0 1.941.459 3.701 1.376 5.28a11.043 11.043 0 0 0 3.68 3.744 9.625 9.625 0 0 0 5.024 1.376zm22.962 5.6v-32h6.656v3.392c1.109-1.323 2.474-2.368 4.096-3.136 1.621-.768 3.37-1.152 5.248-1.152 1.194 0 2.378.16 3.552.48l-2.656 6.72a6.91 6.91 0 0 0-2.496-.48c-1.408 0-2.699.352-3.872 1.056a7.826 7.826 0 0 0-2.816 2.784c-.704 1.173-1.056 2.475-1.056 3.904V217h-6.656zm46.102-32h6.656v32.832c0 2.197-.47 4.224-1.408 6.08a14.945 14.945 0 0 1-3.744 4.8c-1.579 1.365-3.392 2.421-5.44 3.168a18.27 18.27 0 0 1-6.368 1.12c-2.24 0-4.395-.48-6.464-1.44a17.873 17.873 0 0 1-5.472-3.84 15.966 15.966 0 0 1-3.488-5.504l6.112-2.752a9.422 9.422 0 0 0 2.048 3.52 10.964 10.964 0 0 0 3.328 2.432c1.28.597 2.592.896 3.936.896 1.322 0 2.592-.213 3.808-.64a10.776 10.776 0 0 0 3.296-1.728 8.528 8.528 0 0 0 2.336-2.688 6.978 6.978 0 0 0 .864-3.424v-5.408a12.488 12.488 0 0 1-4.032 3.936c-1.643.981-3.552 1.472-5.728 1.472-2.262 0-4.395-.437-6.4-1.312a16.734 16.734 0 0 1-5.28-3.616 17.208 17.208 0 0 1-3.552-5.376c-.854-2.027-1.28-4.203-1.28-6.528 0-2.325.426-4.501 1.28-6.528a16.738 16.738 0 0 1 3.552-5.376 16.486 16.486 0 0 1 5.28-3.648c2.005-.875 4.138-1.312 6.4-1.312 2.176 0 4.085.501 5.728 1.504a12.057 12.057 0 0 1 4.032 3.936V185zm-9.696 26.4c1.856 0 3.477-.469 4.864-1.408 1.386-.96 2.464-2.229 3.232-3.808.768-1.579 1.152-3.307 1.152-5.184 0-1.92-.395-3.659-1.184-5.216-.768-1.579-1.846-2.837-3.232-3.776-1.387-.96-2.998-1.44-4.832-1.44-1.792 0-3.435.469-4.928 1.408-1.472.939-2.646 2.197-3.52 3.776-.875 1.579-1.312 3.328-1.312 5.248 0 1.92.437 3.669 1.312 5.248.896 1.579 2.08 2.837 3.552 3.776a9.179 9.179 0 0 0 4.896 1.376zm48.365-26.4h6.656v32h-6.688l-.256-4.64a11.13 11.13 0 0 1-3.808 3.968c-1.6 1.003-3.488 1.504-5.664 1.504-2.347 0-4.555-.437-6.624-1.312a17.478 17.478 0 0 1-5.472-3.712 17.4 17.4 0 0 1-3.648-5.44c-.875-2.069-1.312-4.288-1.312-6.656 0-2.283.426-4.427 1.28-6.432a16.459 16.459 0 0 1 3.552-5.312 16.644 16.644 0 0 1 5.248-3.552c2.005-.875 4.149-1.312 6.432-1.312 2.325 0 4.373.533 6.144 1.6a14.16 14.16 0 0 1 4.448 4.032l-.288-4.736zm-9.921 26.4c1.878 0 3.521-.459 4.929-1.376 1.408-.939 2.496-2.197 3.264-3.776.789-1.579 1.184-3.328 1.184-5.248 0-1.941-.395-3.701-1.184-5.28-.79-1.579-1.888-2.827-3.296-3.744-1.387-.939-3.019-1.408-4.897-1.408-1.855 0-3.551.469-5.087 1.408a10.323 10.323 0 0 0-3.648 3.776c-.896 1.579-1.344 3.328-1.344 5.248 0 1.941.458 3.701 1.376 5.28a11.034 11.034 0 0 0 3.68 3.744 9.621 9.621 0 0 0 5.023 1.376zm22.962-26.4h6.656v32h-6.656v-32zm3.392-4.64c-1.024 0-1.877-.331-2.56-.992s-1.024-1.493-1.024-2.496c0-.981.341-1.803 1.024-2.464.683-.683 1.525-1.024 2.528-1.024.981 0 1.813.341 2.496 1.024.683.661 1.024 1.483 1.024 2.464 0 1.003-.341 1.835-1.024 2.496-.661.661-1.483.992-2.464.992zm39.471 16.576V217h-6.656v-18.432c0-1.429-.352-2.731-1.056-3.904a7.586 7.586 0 0 0-2.784-2.784c-1.152-.704-2.454-1.056-3.904-1.056-1.408 0-2.699.352-3.872 1.056a7.826 7.826 0 0 0-2.816 2.784c-.704 1.173-1.056 2.475-1.056 3.904V217h-6.656v-32h6.656v3.392c1.109-1.323 2.474-2.368 4.096-3.136 1.621-.768 3.37-1.152 5.248-1.152 2.368 0 4.522.576 6.464 1.728a12.819 12.819 0 0 1 4.608 4.64c1.152 1.941 1.728 4.096 1.728 6.464zm15.987 20.672a17.812 17.812 0 0 1-4.928-1.024c-1.6-.576-3.008-1.355-4.224-2.336-1.195-1.003-2.091-2.176-2.688-3.52l5.664-2.432c.277.576.757 1.141 1.44 1.696.704.555 1.525 1.013 2.464 1.376.939.341 1.92.512 2.944.512a8.968 8.968 0 0 0 2.784-.416c.875-.299 1.589-.747 2.144-1.344.555-.597.832-1.312.832-2.144 0-.939-.32-1.664-.96-2.176-.619-.533-1.397-.939-2.336-1.216-.939-.277-1.877-.544-2.816-.8-2.091-.469-4.011-1.109-5.76-1.92-1.728-.832-3.104-1.888-4.128-3.168-1.024-1.301-1.536-2.891-1.536-4.768 0-2.048.555-3.819 1.664-5.312 1.109-1.515 2.56-2.677 4.352-3.488 1.813-.811 3.744-1.216 5.792-1.216 2.56 0 4.907.544 7.04 1.632 2.133 1.088 3.765 2.581 4.896 4.48l-5.28 3.136c-.32-.64-.8-1.216-1.44-1.728a7.739 7.739 0 0 0-2.176-1.216 7.894 7.894 0 0 0-2.528-.544c-1.088-.043-2.101.085-3.04.384-.917.277-1.653.725-2.208 1.344-.555.619-.832 1.408-.832 2.368 0 .939.331 1.643.992 2.112.661.448 1.493.811 2.496 1.088 1.024.277 2.069.587 3.136.928a32.206 32.206 0 0 1 5.344 2.208c1.664.853 3.008 1.909 4.032 3.168 1.024 1.259 1.515 2.795 1.472 4.608 0 2.005-.608 3.765-1.824 5.28-1.195 1.515-2.752 2.667-4.672 3.456-1.92.789-3.957 1.12-6.112.992zm17.48-14.048V172.2h5.664v31.36h-5.664zm2.848 14.272c-.982 0-1.814-.341-2.496-1.024-.683-.683-1.024-1.525-1.024-2.528 0-.96.341-1.771 1.024-2.432.682-.683 1.514-1.024 2.496-1.024.96 0 1.77.341 2.432 1.024.682.661 1.024 1.472 1.024 2.432 0 1.003-.342 1.845-1.024 2.528-.662.683-1.472 1.024-2.432 1.024z" fill="#F6FF82"/><path d="m492.626 80.744 4.556 26.951a4.81 4.81 0 0 1-3.942 5.545l-12.872 2.176 1.539 9.103-7.516-8.093-30.487 5.154a4.811 4.811 0 0 1-5.546-3.942l-4.555-26.95a4.811 4.811 0 0 1 3.942-5.547l49.335-8.34a4.811 4.811 0 0 1 5.546 3.943z" fill="#F2F2F2"/><path d="M452.47 107.785c-.766.143-1.466.117-2.097-.079-.622-.197-1.219-.545-1.792-1.044l.948-1.382c.371.369.778.648 1.221.837.442.189.941.231 1.496.128.585-.109 1.026-.322 1.322-.638.306-.318.415-.709.329-1.174-.066-.353-.211-.623-.434-.811a2.052 2.052 0 0 0-.828-.41 6.01 6.01 0 0 0-1.057-.21 27.517 27.517 0 0 1-1.148-.193 5.053 5.053 0 0 1-1.088-.376 2.543 2.543 0 0 1-.872-.73c-.248-.319-.422-.751-.524-1.296-.117-.626-.064-1.184.158-1.674.23-.502.585-.919 1.067-1.249a4.369 4.369 0 0 1 1.69-.675 3.846 3.846 0 0 1 1.817.084 4.078 4.078 0 0 1 1.512.799l-.948 1.382a4.061 4.061 0 0 0-1.088-.627 1.916 1.916 0 0 0-1.053-.101c-.565.105-.978.297-1.239.576-.264.268-.355.62-.274 1.053.061.323.2.568.42.736.227.156.505.277.834.361.327.075.679.14 1.055.195.385.053.774.122 1.166.205.391.084.761.219 1.109.404.346.176.644.433.895.773.262.337.445.789.551 1.354.176.948-.021 1.763-.594 2.444-.562.679-1.413 1.125-2.554 1.338zm.012 1.407-2.541-13.621 1.211-.226 2.541 13.621-1.211.226zm8.827-3.056c-.767.143-1.466.117-2.098-.079-.621-.197-1.219-.545-1.792-1.043l.948-1.383c.372.369.779.648 1.221.837.442.189.941.232 1.496.128.585-.109 1.026-.322 1.322-.638.306-.318.416-.709.329-1.173-.066-.354-.21-.624-.433-.812a2.065 2.065 0 0 0-.828-.41 6.14 6.14 0 0 0-1.057-.21 27.242 27.242 0 0 1-1.148-.193 5.043 5.043 0 0 1-1.089-.376 2.541 2.541 0 0 1-.872-.73c-.247-.32-.422-.751-.524-1.296-.116-.626-.064-1.184.158-1.674.23-.502.586-.918 1.067-1.248a4.367 4.367 0 0 1 1.691-.676 3.842 3.842 0 0 1 1.816.084 4.07 4.07 0 0 1 1.512.799l-.948 1.382a4.046 4.046 0 0 0-1.088-.627 1.913 1.913 0 0 0-1.053-.1c-.565.105-.978.296-1.239.575-.263.268-.354.62-.273 1.053.06.323.2.568.419.736.227.156.506.277.835.361.327.075.678.14 1.054.195.386.054.774.122 1.166.206.391.083.761.218 1.109.403.346.176.644.434.896.773.261.338.444.789.55 1.354.177.948-.021 1.763-.593 2.444-.563.679-1.414 1.125-2.554 1.338zm.012 1.407-2.541-13.62 1.21-.227 2.541 13.621-1.21.226zm8.826-3.056c-.767.143-1.466.117-2.098-.078-.621-.198-1.218-.546-1.792-1.044l.948-1.383c.372.369.779.648 1.221.837.443.189.941.232 1.496.128.586-.109 1.026-.322 1.322-.638.306-.318.416-.709.329-1.173-.065-.353-.21-.624-.433-.812a2.062 2.062 0 0 0-.828-.41 5.992 5.992 0 0 0-1.057-.21c-.376-.055-.759-.119-1.148-.192a5.035 5.035 0 0 1-1.088-.377 2.545 2.545 0 0 1-.873-.73c-.247-.32-.422-.751-.523-1.296-.117-.626-.064-1.184.157-1.674.23-.502.586-.918 1.067-1.248a4.372 4.372 0 0 1 1.691-.676 3.845 3.845 0 0 1 1.817.084 4.072 4.072 0 0 1 1.511.799l-.948 1.382a4.046 4.046 0 0 0-1.088-.627 1.91 1.91 0 0 0-1.052-.1c-.565.105-.978.296-1.24.575-.263.268-.354.62-.273 1.053.06.323.2.569.419.736.228.156.506.277.835.362.327.074.679.14 1.054.194.386.054.775.122 1.166.206.392.083.761.218 1.109.404.346.175.645.433.896.772.261.338.445.789.55 1.354.177.948-.021 1.763-.593 2.444-.563.679-1.414 1.125-2.554 1.338zm.012 1.407-2.541-13.62 1.211-.227 2.541 13.621-1.211.226zm9.094-9.95a2.186 2.186 0 0 1-1.144-.084 2.216 2.216 0 0 1-.915-.628 2.127 2.127 0 0 1-.491-1.036 2.037 2.037 0 0 1 .087-1.128 2.21 2.21 0 0 1 .628-.916 2.128 2.128 0 0 1 1.036-.49 2.13 2.13 0 0 1 1.143.084c.369.13.679.338.931.625.25.277.413.617.488 1.02.075.404.047.785-.084 1.144a2.161 2.161 0 0 1-1.679 1.41zm-.24-1.286c.252-.047.439-.165.56-.355a.887.887 0 0 0 .111-.663c-.047-.252-.165-.439-.355-.56a.784.784 0 0 0-.635-.132.785.785 0 0 0-.545.352c-.123.18-.161.395-.114.648a.887.887 0 0 0 .342.578.787.787 0 0 0 .636.132zm5.908 7.073a2.192 2.192 0 0 1-1.143-.084 2.218 2.218 0 0 1-.916-.628 2.128 2.128 0 0 1-.491-1.036 2.055 2.055 0 0 1 .087-1.129 2.22 2.22 0 0 1 .628-.915 2.128 2.128 0 0 1 1.036-.491 2.128 2.128 0 0 1 1.143.084c.369.13.679.338.931.625.25.277.413.617.488 1.021.076.404.048.785-.084 1.143a2.209 2.209 0 0 1-.628.916 2.155 2.155 0 0 1-1.051.494zm-.24-1.287c.252-.047.439-.165.56-.355a.851.851 0 0 0 .127-.665.84.84 0 0 0-1.006-.69.785.785 0 0 0-.545.353.867.867 0 0 0-.114.647.883.883 0 0 0 .343.578.778.778 0 0 0 .635.132zm-6.22 2.335 4.819-11.861 1.649-.308-4.819 11.862-1.649.307z" fill="#826FFC"/><path d="M433.687 347.854c3.741 3.054 7.619 5.972 11.635 8.683 2.951 1.991 5.971 3.912 9.06 5.697 17.435 10.193 36.963 17.16 57.829 20.146a153.439 153.439 0 0 0 19.597 1.544c1.064.069 2.128.069 3.192.069 12.904 0 25.5-1.544 37.512-4.427a159.19 159.19 0 0 0 48.734-20.798 143.931 143.931 0 0 0 15.341-11.223 156.102 156.102 0 0 0 19.185-18.636c2.677-3.123 5.285-6.315 7.722-9.609-10.914-25.843-30.854-62.875-58.035-71.935-42.797-14.277-133.986 5.834-133.986 5.834s-31.231 15.17-37.786 94.655z" fill="#fff"/><path d="M454.383 362.235c17.434 10.193 36.962 17.16 57.829 20.146a153.62 153.62 0 0 0 19.597 1.544c1.064.069 2.128.069 3.192.069 12.904 0 25.499-1.545 37.511-4.428a159.146 159.146 0 0 0 48.735-20.798 143.885 143.885 0 0 0 15.341-11.222c-.275-41.836-3.432-80.069-13.557-89.198-5.079-4.599-11.154-8.203-17.571-10.983-14.861-6.417-31.472-8.58-42.386-9.3-7.241-.481-11.943-.309-11.943-.309s-9.713.377-22.754 1.819c-3.604.446-7.242.892-11.051 1.441-22.205 3.192-48.22 9.404-54.947 21.141-5.8 10.09-7.653 55.29-7.996 100.078z" fill="#fff"/><path d="m504.283 153.953 66.135 50.073s36.036-36.174 21.381-56.834c-9.094-12.87-27.49-19.048-40.085-21.896-1.442-.309-2.78-.584-4.05-.824-5.423-1.064-9.061-1.373-9.061-1.373l-.034.206c-2.299-.858-25.225-17.435-37.786-11.943-17.26 7.516 3.5 42.591 3.5 42.591z" fill="#000"/><path d="m563.559 211.848 2.179 35.535s-5.783 10.608-26.464 13.573c-15.41 2.21-21.062-.957-21.062-.957l1.053-18.128 1.051-17.682 37.028-10.56 6.215-1.781z" fill="#F8CEC1"/><path d="M557.346 213.628c-.031.975-.33 2.145-.824 3.494-6.861 18.238-28.366 23.399-37.258 24.748l1.05-17.682 37.032-10.56z" fill="#000"/><path d="M507.423 143.681s-15.914 45.697-7.046 69.999c8.872 24.302 31.197 18.653 44.369 12.808 13.169-5.841 18.815-14.631 18.815-14.631s12.976 3.316 20.53-9.098c7.554-12.41 1.308-25.517-6.154-28.056-7.461-2.54-15.646 3.335-15.646 3.335l5.742-13.367c.006.003-33.336-63.115-60.61-20.99z" fill="#F8CEC1"/><path d="M564.699 197.444c.381 0 .769-.127 1.085-.388l15.303-12.496a1.72 1.72 0 0 0 .244-2.416 1.723 1.723 0 0 0-2.416-.244l-15.304 12.496a1.719 1.719 0 0 0 1.088 3.048z" fill="#000"/><path d="M579.279 196.349c.804 0 1.521-.57 1.682-1.39a1.719 1.719 0 0 0-1.362-2.011l-10.708-2.07a1.714 1.714 0 1 0-.652 3.367l10.707 2.069c.114.028.224.035.333.035zM538.201 162.801a1.71 1.71 0 0 0 1.129-.426 1.712 1.712 0 0 0 .161-2.419c-5.327-6.096-11.861-4.51-14.572-2.825a1.719 1.719 0 0 0-.549 2.365 1.722 1.722 0 0 0 2.361.552c.563-.339 5.546-3.126 10.183 2.166.336.388.81.587 1.287.587zM503.68 161.342c.419 0 .841-.155 1.174-.464 3.38-3.167 7.289-1.304 7.451-1.225a1.715 1.715 0 0 0 1.551-3.061c-.247-.127-6.16-3.062-11.35 1.778a1.719 1.719 0 0 0 1.174 2.972zM511.736 194.776a1.716 1.716 0 0 0 1.613-2.306c-4.517-12.331 1.359-19.477 1.613-19.775a1.72 1.72 0 0 0-.192-2.416 1.705 1.705 0 0 0-2.41.178c-.309.357-7.471 8.882-2.234 23.19.254.7.91 1.129 1.61 1.129zM504.885 178.406c.797 0 1.507-.556 1.675-1.366l1.727-8.288a1.715 1.715 0 0 0-1.329-2.032 1.722 1.722 0 0 0-2.028 1.328l-1.726 8.288a1.716 1.716 0 0 0 1.328 2.029c.12.027.237.041.353.041zM530.847 179.006c.793 0 1.507-.556 1.675-1.366l1.726-8.284a1.711 1.711 0 0 0-1.332-2.029 1.722 1.722 0 0 0-2.028 1.328l-1.726 8.285a1.71 1.71 0 0 0 1.685 2.066z" fill="#000"/><path d="M504.294 153.949s3.422-7.379 12.28-7.983c8.861-.604 14.418 5.32 14.418 5.32s-2.972 15.166 9.568 22.356c12.541 7.19 21.732 4.4 21.732 4.4l8.552-3.652 5.629-13.168-26.966-25.706-33.795-15.269-15.752 16.168 4.334 17.534zM521.546 208.388c1.383 0 9.568-.35 12.76-8.401a1.715 1.715 0 1 0-3.188-1.263c-2.533 6.394-9.507 6.229-9.644 6.232-.978 0-1.74.728-1.774 1.655-.031.947.71 1.74 1.657 1.774.024 0 .086.003.189.003z" fill="#000"/><path d="M527.9 263.715c23.266 0 40.972-16.113 41.83-16.906a1.714 1.714 0 0 0 .092-2.423 1.718 1.718 0 0 0-2.426-.096c-.227.213-23.403 21.282-50.389 14.686a1.718 1.718 0 0 0-2.073 1.259c-.223.92.34 1.85 1.26 2.073a49.14 49.14 0 0 0 11.706 1.407z" fill="#F2F2F2"/><path d="M405.374 317.831c.447.617.858 1.201 1.305 1.784 7.825 10.468 16.919 19.94 27.01 28.246 3.706 3.02 7.55 5.937 11.531 8.614l29.79-12.698-10.67-84.314-58.966 58.368z" fill="#fff"/><g clip-path="url(#e)" stroke="#fff"><circle cx="211.593" cy="211.593" r="211.093" transform="scale(1 -1) rotate(-69.175 -16.818 301.42)"/><circle cx="151.138" cy="151.138" r="150.638" transform="scale(1 -1) rotate(-69.175 -3.05 227.324)"/></g></g><defs><clipPath id="a"><rect width="1200" height="320" rx="20" fill="#fff"/></clipPath><clipPath id="b"><path fill="#fff" transform="matrix(-1 0 0 1 1241.39 -8)" d="M0 0h400.392v372.528H0z"/></clipPath><clipPath id="e"><path fill="#fff" transform="matrix(1 0 0 -1 -54 217)" d="M0 0h307.392v286H0z"/></clipPath><linearGradient id="c" x1="304.736" y1="599.459" x2="484.427" y2="-16.677" gradientUnits="userSpaceOnUse"><stop stop-color="#fff"/><stop offset="1" stop-color="#fff" stop-opacity="0"/></linearGradient><linearGradient id="d" x1="159.301" y1="418.048" x2="378.698" y2="82.1" gradientUnits="userSpaceOnUse"><stop stop-color="#fff"/><stop offset="1" stop-color="#fff" stop-opacity="0"/></linearGradient></defs></svg>