<svg width="1200" height="320" viewBox="0 0 1200 320" fill="none" xmlns="http://www.w3.org/2000/svg">
<g clip-path="url(#clip0_1162_9547)">
<rect width="1200" height="320" rx="20" fill="#8E94E9"/>
<g clip-path="url(#clip1_1162_9547)">
<circle cx="275.61" cy="275.61" r="274.959" transform="matrix(-0.355519 -0.934669 -0.934669 0.355519 1552.13 507.208)" stroke="url(#paint0_linear_1162_9547)" stroke-width="1.30254"/>
<circle cx="196.864" cy="196.864" r="196.213" transform="matrix(-0.355519 -0.934669 -0.934669 0.355519 1450.37 461.77)" stroke="url(#paint1_linear_1162_9547)" stroke-width="1.30254"/>
</g>
<path d="M76.84 147V102.2H92.744C95.048 102.2 97.128 102.669 98.984 103.608C100.861 104.547 102.344 105.901 103.432 107.672C104.541 109.421 105.096 111.523 105.096 113.976C105.096 115.171 104.904 116.344 104.52 117.496C104.136 118.648 103.592 119.661 102.888 120.536C102.184 121.411 101.331 122.029 100.328 122.392C101.693 122.733 102.824 123.352 103.72 124.248C104.637 125.123 105.363 126.147 105.896 127.32C106.429 128.493 106.803 129.709 107.016 130.968C107.251 132.227 107.368 133.421 107.368 134.552C107.368 136.941 106.792 139.075 105.64 140.952C104.488 142.829 102.941 144.312 101 145.4C99.08 146.467 96.9573 147 94.632 147H76.84ZM83.496 141.24H93.992C95.3573 141.24 96.5947 140.899 97.704 140.216C98.8347 139.533 99.7307 138.595 100.392 137.4C101.053 136.184 101.384 134.819 101.384 133.304C101.384 131.981 101.053 130.733 100.392 129.56C99.7307 128.365 98.8347 127.405 97.704 126.68C96.5947 125.955 95.3573 125.592 93.992 125.592H83.496V141.24ZM83.496 119.928H92.04C93.7893 119.928 95.2933 119.395 96.552 118.328C97.8107 117.261 98.44 115.8 98.44 113.944C98.44 111.96 97.8107 110.477 96.552 109.496C95.2933 108.493 93.7893 107.992 92.04 107.992H83.496V119.928ZM126.358 147.832C123.414 147.832 120.726 147.075 118.294 145.56C115.883 144.045 113.952 142.019 112.502 139.48C111.072 136.92 110.358 134.093 110.358 131C110.358 128.653 110.774 126.467 111.606 124.44C112.438 122.392 113.579 120.6 115.03 119.064C116.502 117.507 118.208 116.291 120.15 115.416C122.091 114.541 124.16 114.104 126.358 114.104C129.302 114.104 131.979 114.861 134.39 116.376C136.822 117.891 138.752 119.928 140.182 122.488C141.632 125.048 142.358 127.885 142.358 131C142.358 133.325 141.942 135.501 141.11 137.528C140.278 139.555 139.126 141.347 137.654 142.904C136.203 144.44 134.507 145.645 132.566 146.52C130.646 147.395 128.576 147.832 126.358 147.832ZM126.358 141.176C128.128 141.176 129.718 140.707 131.126 139.768C132.534 138.829 133.643 137.592 134.454 136.056C135.286 134.499 135.702 132.813 135.702 131C135.702 129.144 135.275 127.437 134.422 125.88C133.59 124.323 132.47 123.085 131.062 122.168C129.654 121.229 128.086 120.76 126.358 120.76C124.608 120.76 123.019 121.229 121.59 122.168C120.182 123.107 119.062 124.355 118.23 125.912C117.419 127.469 117.014 129.165 117.014 131C117.014 132.899 117.44 134.616 118.294 136.152C119.147 137.688 120.278 138.915 121.686 139.832C123.115 140.728 124.672 141.176 126.358 141.176ZM161.545 147.832C158.601 147.832 155.913 147.075 153.481 145.56C151.07 144.045 149.14 142.019 147.689 139.48C146.26 136.92 145.545 134.093 145.545 131C145.545 128.653 145.961 126.467 146.793 124.44C147.625 122.392 148.766 120.6 150.217 119.064C151.689 117.507 153.396 116.291 155.337 115.416C157.278 114.541 159.348 114.104 161.545 114.104C164.489 114.104 167.166 114.861 169.577 116.376C172.009 117.891 173.94 119.928 175.369 122.488C176.82 125.048 177.545 127.885 177.545 131C177.545 133.325 177.129 135.501 176.297 137.528C175.465 139.555 174.313 141.347 172.841 142.904C171.39 144.44 169.694 145.645 167.753 146.52C165.833 147.395 163.764 147.832 161.545 147.832ZM161.545 141.176C163.316 141.176 164.905 140.707 166.313 139.768C167.721 138.829 168.83 137.592 169.641 136.056C170.473 134.499 170.889 132.813 170.889 131C170.889 129.144 170.462 127.437 169.609 125.88C168.777 124.323 167.657 123.085 166.249 122.168C164.841 121.229 163.273 120.76 161.545 120.76C159.796 120.76 158.206 121.229 156.777 122.168C155.369 123.107 154.249 124.355 153.417 125.912C152.606 127.469 152.201 129.165 152.201 131C152.201 132.899 152.628 134.616 153.481 136.152C154.334 137.688 155.465 138.915 156.873 139.832C158.302 140.728 159.86 141.176 161.545 141.176ZM199.424 121.656H192.704L192.672 147H186.016L186.048 121.656H180.96V115H186.048L186.016 104.952H192.672L192.704 115H199.424V121.656ZM226.073 115H233.177L215.641 163H208.569L214.361 147L202.873 115H210.137L217.689 137.88L226.073 115ZM275.701 147.832C272.672 147.832 269.824 147.235 267.157 146.04C264.49 144.824 262.144 143.16 260.117 141.048C258.112 138.915 256.533 136.44 255.381 133.624C254.25 130.808 253.685 127.8 253.685 124.6C253.685 121.4 254.25 118.392 255.381 115.576C256.533 112.76 258.112 110.296 260.117 108.184C262.144 106.051 264.49 104.387 267.157 103.192C269.824 101.976 272.672 101.368 275.701 101.368C279.328 101.368 282.666 102.211 285.717 103.896C288.768 105.581 291.296 107.821 293.301 110.616L287.381 113.784C285.994 112.035 284.277 110.637 282.229 109.592C280.181 108.547 278.005 108.024 275.701 108.024C273.568 108.024 271.573 108.461 269.717 109.336C267.861 110.211 266.229 111.405 264.821 112.92C263.413 114.435 262.314 116.195 261.525 118.2C260.736 120.205 260.341 122.339 260.341 124.6C260.341 126.883 260.736 129.027 261.525 131.032C262.314 133.016 263.413 134.776 264.821 136.312C266.25 137.827 267.893 139.021 269.749 139.896C271.605 140.749 273.589 141.176 275.701 141.176C278.048 141.176 280.234 140.653 282.261 139.608C284.309 138.541 286.016 137.133 287.381 135.384L293.301 138.616C291.296 141.411 288.768 143.651 285.717 145.336C282.666 147 279.328 147.832 275.701 147.832ZM322.736 115H329.392V147H322.704L322.448 142.36C321.509 144.003 320.24 145.325 318.64 146.328C317.04 147.331 315.152 147.832 312.976 147.832C310.629 147.832 308.421 147.395 306.352 146.52C304.283 145.624 302.459 144.387 300.88 142.808C299.323 141.229 298.107 139.416 297.232 137.368C296.357 135.299 295.92 133.08 295.92 130.712C295.92 128.429 296.347 126.285 297.2 124.28C298.053 122.253 299.237 120.483 300.752 118.968C302.267 117.453 304.016 116.269 306 115.416C308.005 114.541 310.149 114.104 312.432 114.104C314.757 114.104 316.805 114.637 318.576 115.704C320.368 116.749 321.851 118.093 323.024 119.736L322.736 115ZM312.816 141.4C314.693 141.4 316.336 140.941 317.744 140.024C319.152 139.085 320.24 137.827 321.008 136.248C321.797 134.669 322.192 132.92 322.192 131C322.192 129.059 321.797 127.299 321.008 125.72C320.219 124.141 319.12 122.893 317.712 121.976C316.325 121.037 314.693 120.568 312.816 120.568C310.96 120.568 309.264 121.037 307.728 121.976C306.192 122.915 304.976 124.173 304.08 125.752C303.184 127.331 302.736 129.08 302.736 131C302.736 132.941 303.195 134.701 304.112 136.28C305.051 137.837 306.277 139.085 307.792 140.024C309.328 140.941 311.003 141.4 312.816 141.4ZM336.028 147V99H342.684V147H336.028ZM350.34 147V99H356.996V147H350.34ZM76.84 217V172.2H103.24V178.856H83.496V189.672H100.168V196.328H83.496V217H76.84ZM119.17 217.832C116.226 217.832 113.538 217.075 111.106 215.56C108.695 214.045 106.765 212.019 105.314 209.48C103.885 206.92 103.17 204.093 103.17 201C103.17 198.653 103.586 196.467 104.418 194.44C105.25 192.392 106.391 190.6 107.842 189.064C109.314 187.507 111.021 186.291 112.962 185.416C114.903 184.541 116.973 184.104 119.17 184.104C122.114 184.104 124.791 184.861 127.202 186.376C129.634 187.891 131.565 189.928 132.994 192.488C134.445 195.048 135.17 197.885 135.17 201C135.17 203.325 134.754 205.501 133.922 207.528C133.09 209.555 131.938 211.347 130.466 212.904C129.015 214.44 127.319 215.645 125.378 216.52C123.458 217.395 121.389 217.832 119.17 217.832ZM119.17 211.176C120.941 211.176 122.53 210.707 123.938 209.768C125.346 208.829 126.455 207.592 127.266 206.056C128.098 204.499 128.514 202.813 128.514 201C128.514 199.144 128.087 197.437 127.234 195.88C126.402 194.323 125.282 193.085 123.874 192.168C122.466 191.229 120.898 190.76 119.17 190.76C117.421 190.76 115.831 191.229 114.402 192.168C112.994 193.107 111.874 194.355 111.042 195.912C110.231 197.469 109.826 199.165 109.826 201C109.826 202.899 110.253 204.616 111.106 206.152C111.959 207.688 113.09 208.915 114.498 209.832C115.927 210.728 117.485 211.176 119.17 211.176ZM140.34 217V185H146.996V188.392C148.105 187.069 149.471 186.024 151.092 185.256C152.713 184.488 154.463 184.104 156.34 184.104C157.535 184.104 158.719 184.264 159.892 184.584L157.236 191.304C156.404 190.984 155.572 190.824 154.74 190.824C153.332 190.824 152.041 191.176 150.868 191.88C149.695 192.563 148.756 193.491 148.052 194.664C147.348 195.837 146.996 197.139 146.996 198.568V217H140.34ZM179.778 217V172.2H195.682C197.986 172.2 200.066 172.669 201.922 173.608C203.799 174.547 205.282 175.901 206.37 177.672C207.479 179.421 208.034 181.523 208.034 183.976C208.034 185.171 207.842 186.344 207.458 187.496C207.074 188.648 206.53 189.661 205.826 190.536C205.122 191.411 204.268 192.029 203.266 192.392C204.631 192.733 205.762 193.352 206.658 194.248C207.575 195.123 208.3 196.147 208.833 197.32C209.367 198.493 209.74 199.709 209.954 200.968C210.188 202.227 210.306 203.421 210.306 204.552C210.306 206.941 209.73 209.075 208.578 210.952C207.426 212.829 205.879 214.312 203.938 215.4C202.018 216.467 199.895 217 197.57 217H179.778ZM186.434 211.24H196.93C198.295 211.24 199.532 210.899 200.642 210.216C201.772 209.533 202.668 208.595 203.33 207.4C203.991 206.184 204.322 204.819 204.322 203.304C204.322 201.981 203.991 200.733 203.33 199.56C202.668 198.365 201.772 197.405 200.642 196.68C199.532 195.955 198.295 195.592 196.93 195.592H186.434V211.24ZM186.434 189.928H194.978C196.727 189.928 198.231 189.395 199.49 188.328C200.748 187.261 201.378 185.8 201.378 183.944C201.378 181.96 200.748 180.477 199.49 179.496C198.231 178.493 196.727 177.992 194.978 177.992H186.434V189.928ZM240.111 185H246.767V217H240.079L239.823 212.36C238.884 214.003 237.615 215.325 236.015 216.328C234.415 217.331 232.527 217.832 230.351 217.832C228.004 217.832 225.796 217.395 223.727 216.52C221.658 215.624 219.834 214.387 218.255 212.808C216.698 211.229 215.482 209.416 214.607 207.368C213.732 205.299 213.295 203.08 213.295 200.712C213.295 198.429 213.722 196.285 214.575 194.28C215.428 192.253 216.612 190.483 218.127 188.968C219.642 187.453 221.391 186.269 223.375 185.416C225.38 184.541 227.524 184.104 229.807 184.104C232.132 184.104 234.18 184.637 235.951 185.704C237.743 186.749 239.226 188.093 240.399 189.736L240.111 185ZM230.191 211.4C232.068 211.4 233.711 210.941 235.119 210.024C236.527 209.085 237.615 207.827 238.383 206.248C239.172 204.669 239.567 202.92 239.567 201C239.567 199.059 239.172 197.299 238.383 195.72C237.594 194.141 236.495 192.893 235.087 191.976C233.7 191.037 232.068 190.568 230.191 190.568C228.335 190.568 226.639 191.037 225.103 191.976C223.567 192.915 222.351 194.173 221.455 195.752C220.559 197.331 220.111 199.08 220.111 201C220.111 202.941 220.57 204.701 221.487 206.28C222.426 207.837 223.652 209.085 225.167 210.024C226.703 210.941 228.378 211.4 230.191 211.4ZM253.153 217V185H259.809V188.392C260.918 187.069 262.283 186.024 263.905 185.256C265.526 184.488 267.275 184.104 269.153 184.104C270.347 184.104 271.531 184.264 272.705 184.584L270.049 191.304C269.217 190.984 268.385 190.824 267.553 190.824C266.145 190.824 264.854 191.176 263.681 191.88C262.507 192.563 261.569 193.491 260.865 194.664C260.161 195.837 259.809 197.139 259.809 198.568V217H253.153ZM299.255 185H305.911V217.832C305.911 220.029 305.441 222.056 304.503 223.912C303.585 225.768 302.337 227.368 300.759 228.712C299.18 230.077 297.367 231.133 295.319 231.88C293.292 232.627 291.169 233 288.951 233C286.711 233 284.556 232.52 282.487 231.56C280.417 230.621 278.593 229.341 277.015 227.72C275.457 226.099 274.295 224.264 273.527 222.216L279.639 219.464C280.065 220.787 280.748 221.96 281.687 222.984C282.647 224.008 283.756 224.819 285.015 225.416C286.295 226.013 287.607 226.312 288.951 226.312C290.273 226.312 291.543 226.099 292.759 225.672C293.996 225.267 295.095 224.691 296.055 223.944C297.036 223.197 297.815 222.301 298.391 221.256C298.967 220.211 299.255 219.069 299.255 217.832V212.424C298.209 214.045 296.865 215.357 295.223 216.36C293.58 217.341 291.671 217.832 289.495 217.832C287.233 217.832 285.1 217.395 283.095 216.52C281.089 215.645 279.329 214.44 277.815 212.904C276.3 211.347 275.116 209.555 274.263 207.528C273.409 205.501 272.983 203.325 272.983 201C272.983 198.675 273.409 196.499 274.263 194.472C275.116 192.424 276.3 190.632 277.815 189.096C279.329 187.539 281.089 186.323 283.095 185.448C285.1 184.573 287.233 184.136 289.495 184.136C291.671 184.136 293.58 184.637 295.223 185.64C296.865 186.621 298.209 187.933 299.255 189.576V185ZM289.559 211.4C291.415 211.4 293.036 210.931 294.423 209.992C295.809 209.032 296.887 207.763 297.655 206.184C298.423 204.605 298.807 202.877 298.807 201C298.807 199.08 298.412 197.341 297.623 195.784C296.855 194.205 295.777 192.947 294.391 192.008C293.004 191.048 291.393 190.568 289.559 190.568C287.767 190.568 286.124 191.037 284.631 191.976C283.159 192.915 281.985 194.173 281.111 195.752C280.236 197.331 279.799 199.08 279.799 201C279.799 202.92 280.236 204.669 281.111 206.248C282.007 207.827 283.191 209.085 284.663 210.024C286.156 210.941 287.788 211.4 289.559 211.4ZM337.924 185H344.58V217H337.892L337.636 212.36C336.697 214.003 335.428 215.325 333.828 216.328C332.228 217.331 330.34 217.832 328.164 217.832C325.817 217.832 323.609 217.395 321.54 216.52C319.47 215.624 317.646 214.387 316.068 212.808C314.51 211.229 313.294 209.416 312.42 207.368C311.545 205.299 311.108 203.08 311.108 200.712C311.108 198.429 311.534 196.285 312.388 194.28C313.241 192.253 314.425 190.483 315.94 188.968C317.454 187.453 319.204 186.269 321.188 185.416C323.193 184.541 325.337 184.104 327.62 184.104C329.945 184.104 331.993 184.637 333.764 185.704C335.556 186.749 337.038 188.093 338.212 189.736L337.924 185ZM328.003 211.4C329.881 211.4 331.524 210.941 332.932 210.024C334.34 209.085 335.428 207.827 336.196 206.248C336.985 204.669 337.38 202.92 337.38 201C337.38 199.059 336.985 197.299 336.196 195.72C335.406 194.141 334.308 192.893 332.9 191.976C331.513 191.037 329.881 190.568 328.003 190.568C326.148 190.568 324.452 191.037 322.916 191.976C321.38 192.915 320.164 194.173 319.268 195.752C318.372 197.331 317.924 199.08 317.924 201C317.924 202.941 318.382 204.701 319.3 206.28C320.238 207.837 321.465 209.085 322.98 210.024C324.516 210.941 326.19 211.4 328.003 211.4ZM350.965 185H357.621V217H350.965V185ZM354.357 180.36C353.333 180.36 352.48 180.029 351.797 179.368C351.114 178.707 350.773 177.875 350.773 176.872C350.773 175.891 351.114 175.069 351.797 174.408C352.48 173.725 353.322 173.384 354.325 173.384C355.306 173.384 356.138 173.725 356.821 174.408C357.504 175.069 357.845 175.891 357.845 176.872C357.845 177.875 357.504 178.707 356.821 179.368C356.16 180.029 355.338 180.36 354.357 180.36ZM393.828 196.936V217H387.172V198.568C387.172 197.139 386.82 195.837 386.116 194.664C385.433 193.491 384.505 192.563 383.332 191.88C382.18 191.176 380.878 190.824 379.428 190.824C378.02 190.824 376.729 191.176 375.556 191.88C374.382 192.563 373.444 193.491 372.74 194.664C372.036 195.837 371.684 197.139 371.684 198.568V217H365.028V185H371.684V188.392C372.793 187.069 374.158 186.024 375.78 185.256C377.401 184.488 379.15 184.104 381.028 184.104C383.396 184.104 385.55 184.68 387.492 185.832C389.433 186.984 390.969 188.531 392.1 190.472C393.252 192.413 393.828 194.568 393.828 196.936ZM409.815 217.608C408.13 217.501 406.487 217.16 404.887 216.584C403.287 216.008 401.879 215.229 400.663 214.248C399.468 213.245 398.572 212.072 397.975 210.728L403.639 208.296C403.916 208.872 404.396 209.437 405.079 209.992C405.783 210.547 406.604 211.005 407.543 211.368C408.482 211.709 409.463 211.88 410.487 211.88C411.49 211.88 412.418 211.741 413.271 211.464C414.146 211.165 414.86 210.717 415.415 210.12C415.97 209.523 416.247 208.808 416.247 207.976C416.247 207.037 415.927 206.312 415.287 205.8C414.668 205.267 413.89 204.861 412.951 204.584C412.012 204.307 411.074 204.04 410.135 203.784C408.044 203.315 406.124 202.675 404.375 201.864C402.647 201.032 401.271 199.976 400.247 198.696C399.223 197.395 398.711 195.805 398.711 193.928C398.711 191.88 399.266 190.109 400.375 188.616C401.484 187.101 402.935 185.939 404.727 185.128C406.54 184.317 408.471 183.912 410.519 183.912C413.079 183.912 415.426 184.456 417.559 185.544C419.692 186.632 421.324 188.125 422.455 190.024L417.175 193.16C416.855 192.52 416.375 191.944 415.735 191.432C415.095 190.92 414.37 190.515 413.559 190.216C412.748 189.896 411.906 189.715 411.031 189.672C409.943 189.629 408.93 189.757 407.991 190.056C407.074 190.333 406.338 190.781 405.783 191.4C405.228 192.019 404.951 192.808 404.951 193.768C404.951 194.707 405.282 195.411 405.943 195.88C406.604 196.328 407.436 196.691 408.439 196.968C409.463 197.245 410.508 197.555 411.575 197.896C413.474 198.493 415.255 199.229 416.919 200.104C418.583 200.957 419.927 202.013 420.951 203.272C421.975 204.531 422.466 206.067 422.423 207.88C422.423 209.885 421.815 211.645 420.599 213.16C419.404 214.675 417.847 215.827 415.927 216.616C414.007 217.405 411.97 217.736 409.815 217.608ZM427.295 203.56V172.2H432.959V203.56H427.295ZM430.143 217.832C429.161 217.832 428.329 217.491 427.647 216.808C426.964 216.125 426.623 215.283 426.623 214.28C426.623 213.32 426.964 212.509 427.647 211.848C428.329 211.165 429.161 210.824 430.143 210.824C431.103 210.824 431.913 211.165 432.575 211.848C433.257 212.509 433.599 213.32 433.599 214.28C433.599 215.283 433.257 216.125 432.575 216.808C431.913 217.491 431.103 217.832 430.143 217.832Z" fill="#F6FF82"/>
<path d="M492.626 80.7438L497.182 107.695C497.625 110.314 495.86 112.797 493.24 113.24L480.368 115.416L481.907 124.519L474.391 116.426L443.904 121.58C441.284 122.023 438.801 120.258 438.358 117.638L433.803 90.6872C433.36 88.0673 435.125 85.5844 437.745 85.1415L487.08 76.8019C489.7 76.359 492.183 78.1239 492.626 80.7438Z" fill="#F2F2F2"/>
<path d="M452.47 107.785C451.704 107.928 451.004 107.902 450.373 107.706C449.751 107.509 449.154 107.161 448.581 106.662L449.529 105.28C449.9 105.649 450.307 105.928 450.75 106.117C451.192 106.306 451.691 106.348 452.246 106.245C452.831 106.136 453.272 105.923 453.568 105.607C453.874 105.289 453.983 104.898 453.897 104.433C453.831 104.08 453.686 103.81 453.463 103.622C453.24 103.433 452.964 103.297 452.635 103.212C452.315 103.115 451.962 103.046 451.578 103.002C451.202 102.947 450.82 102.883 450.43 102.809C450.049 102.724 449.686 102.598 449.342 102.433C449.008 102.265 448.717 102.022 448.47 101.703C448.222 101.384 448.048 100.952 447.946 100.407C447.829 99.7811 447.882 99.2232 448.104 98.7329C448.334 98.2306 448.689 97.8144 449.171 97.4845C449.652 97.1546 450.216 96.9294 450.861 96.8089C451.487 96.6922 452.092 96.7202 452.678 96.8928C453.264 97.0655 453.767 97.3317 454.19 97.6915L453.242 99.0742C452.875 98.7876 452.512 98.5786 452.154 98.4471C451.805 98.3138 451.454 98.2801 451.101 98.3459C450.536 98.4513 450.123 98.6433 449.862 98.9217C449.598 99.1901 449.507 99.5412 449.588 99.975C449.649 100.298 449.788 100.543 450.008 100.711C450.235 100.867 450.513 100.988 450.842 101.072C451.169 101.147 451.521 101.212 451.897 101.267C452.282 101.32 452.671 101.389 453.063 101.472C453.454 101.556 453.824 101.691 454.172 101.876C454.518 102.052 454.816 102.309 455.067 102.649C455.329 102.986 455.512 103.438 455.618 104.003C455.794 104.951 455.597 105.766 455.024 106.447C454.462 107.126 453.611 107.572 452.47 107.785ZM452.482 109.192L449.941 95.571L451.152 95.3451L453.693 108.966L452.482 109.192ZM461.309 106.136C460.542 106.279 459.843 106.253 459.211 106.057C458.59 105.86 457.992 105.512 457.419 105.014L458.367 103.631C458.739 104 459.146 104.279 459.588 104.468C460.03 104.657 460.529 104.7 461.084 104.596C461.669 104.487 462.11 104.274 462.406 103.958C462.712 103.64 462.822 103.249 462.735 102.785C462.669 102.431 462.525 102.161 462.302 101.973C462.079 101.785 461.803 101.648 461.474 101.563C461.153 101.467 460.8 101.397 460.417 101.353C460.041 101.298 459.658 101.234 459.269 101.16C458.887 101.075 458.524 100.949 458.18 100.784C457.846 100.617 457.556 100.373 457.308 100.054C457.061 99.7347 456.886 99.3027 456.784 98.7578C456.668 98.1323 456.72 97.5743 456.942 97.084C457.172 96.5817 457.528 96.1656 458.009 95.8356C458.49 95.5057 459.054 95.2805 459.7 95.16C460.325 95.0433 460.931 95.0713 461.516 95.2439C462.102 95.4166 462.606 95.6828 463.028 96.0426L462.08 97.4253C461.713 97.1388 461.351 96.9297 460.992 96.7983C460.643 96.6649 460.293 96.6312 459.939 96.6971C459.374 96.8025 458.961 96.9944 458.7 97.2728C458.437 97.5412 458.346 97.8923 458.427 98.3262C458.487 98.649 458.627 98.8944 458.846 99.0623C459.073 99.2183 459.352 99.3386 459.681 99.4234C460.008 99.4981 460.359 99.5631 460.735 99.6183C461.121 99.6716 461.509 99.74 461.901 99.8236C462.292 99.9072 462.662 100.042 463.01 100.227C463.356 100.403 463.654 100.661 463.906 101C464.167 101.338 464.35 101.789 464.456 102.354C464.633 103.302 464.435 104.117 463.863 104.798C463.3 105.477 462.449 105.923 461.309 106.136ZM461.321 107.543L458.78 93.9221L459.99 93.6963L462.531 107.317L461.321 107.543ZM470.147 104.487C469.38 104.63 468.681 104.604 468.049 104.409C467.428 104.211 466.831 103.863 466.257 103.365L467.205 101.982C467.577 102.351 467.984 102.63 468.426 102.819C468.869 103.008 469.367 103.051 469.922 102.947C470.508 102.838 470.948 102.625 471.244 102.309C471.55 101.991 471.66 101.6 471.573 101.136C471.508 100.783 471.363 100.512 471.14 100.324C470.917 100.136 470.641 99.9993 470.312 99.9145C469.991 99.8178 469.639 99.7478 469.255 99.7045C468.879 99.6493 468.496 99.585 468.107 99.5115C467.725 99.426 467.363 99.3006 467.019 99.1351C466.685 98.9677 466.394 98.7244 466.146 98.4051C465.899 98.0858 465.724 97.6538 465.623 97.109C465.506 96.4834 465.559 95.9254 465.78 95.4351C466.01 94.9328 466.366 94.5167 466.847 94.1868C467.329 93.8568 467.892 93.6316 468.538 93.5111C469.163 93.3944 469.769 93.4224 470.355 93.5951C470.94 93.7677 471.444 94.0339 471.866 94.3937L470.918 95.7765C470.551 95.4899 470.189 95.2809 469.83 95.1494C469.482 95.0161 469.131 94.9823 468.778 95.0482C468.213 95.1536 467.8 95.3455 467.538 95.624C467.275 95.8923 467.184 96.2434 467.265 96.6773C467.325 97.0002 467.465 97.2456 467.684 97.4135C467.912 97.5694 468.19 97.6898 468.519 97.7746C468.846 97.8492 469.198 97.9142 469.573 97.9694C469.959 98.0227 470.348 98.0911 470.739 98.1747C471.131 98.2583 471.5 98.3929 471.848 98.5786C472.194 98.7542 472.493 99.0117 472.744 99.3512C473.005 99.6887 473.189 100.14 473.294 100.705C473.471 101.653 473.273 102.468 472.701 103.149C472.138 103.828 471.287 104.274 470.147 104.487ZM470.159 105.894L467.618 92.2733L468.829 92.0474L471.37 105.668L470.159 105.894ZM479.253 95.9443C478.859 96.0177 478.478 95.9896 478.109 95.8601C477.751 95.7286 477.446 95.5193 477.194 95.2322C476.942 94.9451 476.778 94.5997 476.703 94.1962C476.627 93.7926 476.656 93.4165 476.79 93.068C476.921 92.7093 477.131 92.404 477.418 92.1521C477.705 91.9002 478.05 91.7366 478.454 91.6613C478.857 91.586 479.238 91.6141 479.597 91.7455C479.966 91.8751 480.276 92.0835 480.528 92.3706C480.778 92.6476 480.941 92.9879 481.016 93.3915C481.091 93.7951 481.063 94.1762 480.932 94.5348C480.8 94.8934 480.591 95.1987 480.304 95.4507C480.017 95.7026 479.666 95.8671 479.253 95.9443ZM479.013 94.6579C479.265 94.6108 479.452 94.4925 479.573 94.3028C479.694 94.1131 479.731 93.8922 479.684 93.6399C479.637 93.3877 479.519 93.201 479.329 93.0797C479.148 92.9465 478.936 92.9025 478.694 92.9477C478.452 92.9929 478.27 93.1103 478.149 93.3C478.026 93.4795 477.988 93.6955 478.035 93.9477C478.082 94.1999 478.196 94.3927 478.377 94.5259C478.559 94.6591 478.771 94.7031 479.013 94.6579ZM484.921 101.731C484.528 101.804 484.146 101.776 483.778 101.647C483.419 101.515 483.114 101.306 482.862 101.019C482.61 100.732 482.446 100.386 482.371 99.9827C482.296 99.5791 482.325 99.203 482.458 98.8545C482.59 98.4958 482.799 98.1905 483.086 97.9386C483.373 97.6867 483.718 97.5231 484.122 97.4478C484.526 97.3725 484.907 97.4006 485.265 97.532C485.634 97.6616 485.944 97.87 486.196 98.1571C486.446 98.4341 486.609 98.7744 486.684 99.178C486.76 99.5816 486.732 99.9627 486.6 100.321C486.469 100.68 486.259 100.985 485.972 101.237C485.685 101.489 485.335 101.654 484.921 101.731ZM484.681 100.444C484.933 100.397 485.12 100.279 485.241 100.089C485.373 99.8977 485.415 99.6758 485.368 99.4236C485.322 99.1815 485.204 98.9947 485.013 98.8634C484.821 98.7321 484.604 98.689 484.362 98.7342C484.12 98.7794 483.938 98.8968 483.817 99.0865C483.696 99.2761 483.658 99.492 483.703 99.7342C483.75 99.9864 483.864 100.179 484.046 100.312C484.227 100.446 484.439 100.49 484.681 100.444ZM478.461 102.779L483.28 90.9176L484.929 90.6098L480.11 102.472L478.461 102.779Z" fill="#826FFC"/>
<path d="M433.687 347.854C437.428 350.908 441.306 353.826 445.322 356.537C448.273 358.528 451.293 360.449 454.382 362.234C471.817 372.427 491.345 379.394 512.211 382.38C518.629 383.307 525.15 383.821 531.808 383.924C532.872 383.993 533.936 383.993 535 383.993C547.904 383.993 560.5 382.449 572.512 379.566C590.049 375.344 606.489 368.24 621.246 358.768C626.6 355.37 631.714 351.629 636.587 347.545C643.486 341.917 649.903 335.67 655.772 328.909C658.449 325.786 661.057 322.594 663.494 319.3C652.58 293.457 632.64 256.425 605.459 247.365C562.662 233.088 471.473 253.199 471.473 253.199C471.473 253.199 440.242 268.369 433.687 347.854Z" fill="white"/>
<path d="M454.383 362.235C471.817 372.428 491.345 379.395 512.212 382.381C518.63 383.307 525.151 383.822 531.809 383.925C532.873 383.994 533.937 383.994 535.001 383.994C547.905 383.994 560.5 382.449 572.512 379.566C590.05 375.345 606.489 368.241 621.247 358.768C626.601 355.371 631.714 351.63 636.588 347.546C636.313 305.71 633.156 267.477 623.031 258.348C617.952 253.749 611.877 250.145 605.46 247.365C590.599 240.948 573.988 238.785 563.074 238.065C555.833 237.584 551.131 237.756 551.131 237.756C551.131 237.756 541.418 238.133 528.377 239.575C524.773 240.021 521.135 240.467 517.326 241.016C495.121 244.208 469.106 250.42 462.379 262.157C456.579 272.247 454.726 317.447 454.383 362.235Z" fill="white"/>
<path d="M504.283 153.953L570.418 204.026C570.418 204.026 606.454 167.852 591.799 147.192C582.705 134.322 564.309 128.144 551.714 125.296C550.272 124.987 548.934 124.712 547.664 124.472C542.241 123.408 538.603 123.099 538.603 123.099L538.569 123.305C536.27 122.447 513.344 105.87 500.783 111.362C483.523 118.878 504.283 153.953 504.283 153.953Z" fill="black"/>
<path d="M563.559 211.848L565.738 247.383C565.738 247.383 559.955 257.991 539.274 260.956C523.864 263.166 518.212 259.999 518.212 259.999L519.265 241.871L520.316 224.189L557.344 213.629L563.559 211.848Z" fill="#F8CEC1"/>
<path d="M557.346 213.628C557.315 214.603 557.016 215.773 556.522 217.122C549.661 235.36 528.156 240.521 519.264 241.87L520.314 224.188L557.346 213.628Z" fill="black"/>
<path d="M507.423 143.681C507.423 143.681 491.509 189.378 500.377 213.68C509.249 237.982 531.574 232.333 544.746 226.488C557.915 220.647 563.561 211.857 563.561 211.857C563.561 211.857 576.537 215.173 584.091 202.759C591.645 190.349 585.399 177.242 577.937 174.703C570.476 172.163 562.291 178.038 562.291 178.038L568.033 164.671C568.039 164.674 534.697 101.556 507.423 143.681Z" fill="#F8CEC1"/>
<path d="M564.699 197.444C565.08 197.444 565.468 197.317 565.784 197.056L581.087 184.56C581.821 183.963 581.928 182.878 581.331 182.144C580.723 181.409 579.646 181.306 578.915 181.9L563.611 194.396C562.877 194.993 562.77 196.078 563.368 196.812C563.711 197.227 564.202 197.444 564.699 197.444Z" fill="black"/>
<path d="M579.279 196.349C580.083 196.349 580.8 195.779 580.961 194.959C581.14 194.029 580.532 193.13 579.599 192.948L568.891 190.878C567.971 190.696 567.065 191.304 566.88 192.237C566.701 193.167 567.309 194.066 568.239 194.245L578.946 196.314C579.06 196.342 579.17 196.349 579.279 196.349Z" fill="black"/>
<path d="M538.201 162.801C538.602 162.801 539.004 162.66 539.33 162.375C540.043 161.751 540.116 160.67 539.491 159.956C534.164 153.86 527.63 155.446 524.919 157.131C524.116 157.632 523.869 158.693 524.37 159.496C524.878 160.299 525.928 160.543 526.731 160.048C527.294 159.709 532.277 156.922 536.914 162.214C537.25 162.602 537.724 162.801 538.201 162.801Z" fill="black"/>
<path d="M503.68 161.342C504.099 161.342 504.521 161.187 504.854 160.878C508.234 157.711 512.143 159.574 512.305 159.653C513.152 160.075 514.179 159.729 514.604 158.888C515.026 158.044 514.693 157.021 513.856 156.592C513.609 156.465 507.696 153.53 502.506 158.37C501.817 159.018 501.779 160.103 502.427 160.796C502.764 161.16 503.22 161.342 503.68 161.342Z" fill="black"/>
<path d="M511.736 194.776C511.931 194.776 512.13 194.742 512.326 194.673C513.218 194.347 513.675 193.362 513.349 192.47C508.832 180.139 514.708 172.993 514.962 172.695C515.573 171.974 515.487 170.893 514.77 170.279C514.052 169.661 512.978 169.74 512.36 170.457C512.051 170.814 504.889 179.339 510.126 193.647C510.38 194.347 511.036 194.776 511.736 194.776Z" fill="black"/>
<path d="M504.885 178.406C505.682 178.406 506.392 177.85 506.56 177.04L508.287 168.752C508.314 168.635 508.324 168.515 508.324 168.398C508.324 167.602 507.768 166.888 506.958 166.72C506.052 166.528 505.122 167.118 504.93 168.048L503.204 176.336C503.176 176.453 503.166 176.573 503.166 176.686C503.166 177.483 503.722 178.196 504.532 178.365C504.652 178.392 504.769 178.406 504.885 178.406Z" fill="black"/>
<path d="M530.847 179.006C531.64 179.006 532.354 178.45 532.522 177.64L534.248 169.356C534.444 168.426 533.846 167.519 532.916 167.327C532.007 167.132 531.08 167.729 530.888 168.655L529.162 176.94C528.966 177.87 529.563 178.776 530.493 178.969C530.61 178.996 530.727 179.006 530.847 179.006Z" fill="black"/>
<path d="M504.294 153.949C504.294 153.949 507.716 146.57 516.574 145.966C525.435 145.362 530.992 151.286 530.992 151.286C530.992 151.286 528.02 166.452 540.56 173.642C553.101 180.832 562.292 178.042 562.292 178.042L570.844 174.39L576.473 161.222L549.507 135.516L515.712 120.247L499.96 136.415L504.294 153.949Z" fill="black"/>
<path d="M521.546 208.388C522.929 208.388 531.114 208.038 534.306 199.987C534.656 199.105 534.224 198.11 533.345 197.76C532.467 197.409 531.468 197.842 531.118 198.724C528.585 205.118 521.611 204.953 521.474 204.956C520.496 204.956 519.734 205.684 519.7 206.611C519.669 207.558 520.41 208.351 521.357 208.385C521.381 208.385 521.443 208.388 521.546 208.388Z" fill="black"/>
<path d="M527.9 263.715C551.166 263.715 568.872 247.602 569.73 246.809C570.423 246.164 570.468 245.083 569.822 244.386C569.174 243.69 568.096 243.648 567.396 244.29C567.169 244.503 543.993 265.572 517.007 258.976C516.094 258.749 515.161 259.315 514.934 260.235C514.711 261.155 515.274 262.085 516.194 262.308C520.209 263.29 524.129 263.715 527.9 263.715Z" fill="#F2F2F2"/>
<path d="M405.374 317.831C405.821 318.448 406.232 319.032 406.679 319.615C414.504 330.083 423.598 339.555 433.689 347.861C437.395 350.881 441.239 353.798 445.22 356.475L475.01 343.777L464.34 259.463L405.374 317.831Z" fill="white"/>
<g clip-path="url(#clip2_1162_9547)">
<circle cx="211.593" cy="211.593" r="211.093" transform="matrix(0.355519 0.934669 0.934669 -0.355519 -292.566 -178.54)" stroke="white"/>
<circle cx="151.138" cy="151.138" r="150.638" transform="matrix(0.355519 0.934669 0.934669 -0.355519 -214.439 -143.655)" stroke="white"/>
</g>
</g>
<defs>
<linearGradient id="paint0_linear_1162_9547" x1="304.736" y1="599.459" x2="484.427" y2="-16.6774" gradientUnits="userSpaceOnUse">
<stop stop-color="white"/>
<stop offset="1" stop-color="white" stop-opacity="0"/>
</linearGradient>
<linearGradient id="paint1_linear_1162_9547" x1="159.301" y1="418.048" x2="378.698" y2="82.1005" gradientUnits="userSpaceOnUse">
<stop stop-color="white"/>
<stop offset="1" stop-color="white" stop-opacity="0"/>
</linearGradient>
<clipPath id="clip0_1162_9547">
<rect width="1200" height="320" rx="20" fill="white"/>
</clipPath>
<clipPath id="clip1_1162_9547">
<rect width="400.392" height="372.528" fill="white" transform="matrix(-1 0 0 1 1241.39 -8)"/>
</clipPath>
<clipPath id="clip2_1162_9547">
<rect width="307.392" height="286" fill="white" transform="matrix(1 0 0 -1 -54 217)"/>
</clipPath>
</defs>
</svg>
