<svg width="10" height="11" viewBox="0 0 10 11" fill="none" xmlns="http://www.w3.org/2000/svg">
<g id="icon/action/search_24px">
<path id="icon/action/search_24px_2" fill-rule="evenodd" clip-rule="evenodd" d="M6.32865 6.75156H6.65781L8.42448 8.52656C8.59531 8.6974 8.59531 8.97656 8.42448 9.1474C8.25365 9.31823 7.97448 9.31823 7.80365 9.1474L6.03281 7.37656V7.0474L5.92031 6.93073C5.33698 7.43073 4.54115 7.68906 3.69531 7.5474C2.53698 7.35156 1.61198 6.3849 1.47031 5.21823C1.25365 3.45573 2.73698 1.9724 4.49948 2.18906C5.66615 2.33073 6.63281 3.25573 6.82865 4.41406C6.97031 5.2599 6.71198 6.05573 6.21198 6.63906L6.32865 6.75156ZM2.28255 4.87651C2.28255 5.91401 3.12005 6.75151 4.15755 6.75151C5.19505 6.75151 6.03255 5.91401 6.03255 4.87651C6.03255 3.83901 5.19505 3.00151 4.15755 3.00151C3.12005 3.00151 2.28255 3.83901 2.28255 4.87651Z" fill="white"/>
</g>
</svg>
