<svg width="50" height="50" viewBox="0 0 50 50" fill="none" xmlns="http://www.w3.org/2000/svg">
<path d="M46.1476 34.9494L46.1452 34.9548C45.865 35.5801 45.5628 36.1953 45.2283 36.7988C45.0592 37.111 44.8816 37.4152 44.7015 37.7104C44.7015 37.7105 44.7014 37.7106 44.7013 37.7108L43.8476 37.1899C43.5377 37.6983 43.2085 38.1874 42.8646 38.662L46.1476 34.9494ZM46.1476 34.9494C47.4322 32.0363 48.1501 28.8097 48.1501 25.423M46.1476 34.9494L48.1501 25.423M48.1501 25.423C48.1501 12.4016 37.5964 1.8479 24.5751 1.8479C11.5537 1.8479 1 12.4016 1 25.423C1 28.9349 1.76818 32.2783 3.15953 35.2842M48.1501 25.423L3.15953 35.2842M3.15953 35.2842C3.78731 36.6509 4.54571 37.9448 5.4088 39.1512L3.15953 35.2842ZM43.4529 39.5508C43.4739 39.5258 43.4983 39.4946 43.5232 39.458L5.40903 39.1515C5.48874 39.2631 5.56691 39.3673 5.64552 39.4705C6.00685 39.9587 6.38969 40.4267 6.77554 40.8769L6.77963 40.8816C7.64287 41.8761 8.58767 42.796 9.60436 43.6261C10.3235 44.2283 11.0782 44.7803 11.8682 45.2819C14.0427 46.6772 16.4647 47.7237 19.0484 48.3456L19.049 48.3458C20.8192 48.7706 22.6746 48.998 24.5751 48.998H24.5866C24.7228 48.998 24.8905 48.9981 25.064 48.9879C26.0364 48.9719 26.9907 48.8962 27.9313 48.7605C30.6322 48.3761 33.1768 47.5363 35.4979 46.3226L35.5037 46.3195C35.8243 46.1492 36.1401 45.9738 36.451 45.7933C36.9109 45.5275 37.3567 45.2436 37.7873 44.9532L37.7877 44.9529C38.3824 44.5514 38.9539 44.1213 39.5022 43.6736L39.5052 43.6711C40.9769 42.4597 42.3061 41.0783 43.4529 39.5508Z" fill="white" stroke="white" strokeWidth="2"/>
<path d="M21.0944 29.0271L17.6244 25.5571C17.4375 25.3699 17.1839 25.2646 16.9194 25.2646C16.6549 25.2646 16.4012 25.3699 16.2144 25.5571C15.8244 25.9471 15.8244 26.5771 16.2144 26.9671L20.3944 31.1471C20.7844 31.5371 21.4144 31.5371 21.8044 31.1471L32.3844 20.5671C32.7744 20.1771 32.7744 19.5471 32.3844 19.1571C32.1975 18.9699 31.9439 18.8646 31.6794 18.8646C31.4149 18.8646 31.1612 18.9699 30.9744 19.1571L21.0944 29.0271Z" fill="#8E94E9"/>
</svg>
