<svg xmlns="http://www.w3.org/2000/svg" width="46" height="46" viewBox="0 0 46 46" fill="none">
<rect x="1.31392" y="0.706499" width="43.8029" height="43.8029" rx="21.9015" stroke="white" stroke-width="1.413"/>
<path d="M32.4356 14.7579C30.7892 13.9876 29.0288 13.4278 27.1884 13.109C26.9623 13.5177 26.6983 14.0673 26.5162 14.5045C24.5598 14.2103 22.6213 14.2103 20.7009 14.5045C20.5188 14.0673 20.2488 13.5177 20.0207 13.109C18.1783 13.4278 16.4159 13.9897 14.7695 14.762C11.4487 19.7801 10.5485 24.6736 10.9986 29.4976C13.2011 31.1424 15.3356 32.1415 17.4341 32.7953C17.9522 32.0823 18.4143 31.3242 18.8124 30.5253C18.0543 30.2372 17.3281 29.8817 16.642 29.469C16.824 29.3341 17.002 29.1931 17.1741 29.0481C21.359 31.0055 25.9061 31.0055 30.041 29.0481C30.2151 29.1931 30.3931 29.3341 30.5732 29.469C29.885 29.8837 29.1568 30.2393 28.3987 30.5274C28.7968 31.3242 29.2569 32.0843 29.777 32.7974C31.8775 32.1435 34.014 31.1444 36.2165 29.4976C36.7446 23.9053 35.3143 19.0568 32.4356 14.7579ZM19.3826 26.5309C18.1263 26.5309 17.096 25.3581 17.096 23.9299C17.096 22.5017 18.1043 21.3268 19.3826 21.3268C20.6609 21.3268 21.6911 22.4996 21.6691 23.9299C21.6711 25.3581 20.6609 26.5309 19.3826 26.5309ZM27.8325 26.5309C26.5763 26.5309 25.546 25.3581 25.546 23.9299C25.546 22.5017 26.5542 21.3268 27.8325 21.3268C29.1108 21.3268 30.1411 22.4996 30.1191 23.9299C30.1191 25.3581 29.1108 26.5309 27.8325 26.5309Z" fill="white"/>
</svg>