<svg xmlns="http://www.w3.org/2000/svg" width="46" height="46" viewBox="0 0 46 46" fill="none">
<rect x="1.09908" y="0.706499" width="43.8029" height="43.8029" rx="21.9015" stroke="white" stroke-width="1.413"/>
<g clip-path="url(#clip0_1223_8574)">
<path d="M23.1098 18.1248C21.8919 18.1248 20.7238 18.6086 19.8626 19.4698C19.0014 20.331 18.5176 21.4991 18.5176 22.717C18.5176 23.9349 19.0014 25.103 19.8626 25.9642C20.7238 26.8254 21.8919 27.3092 23.1098 27.3092C24.3278 27.3092 25.4958 26.8254 26.357 25.9642C27.2182 25.103 27.7021 23.9349 27.7021 22.717C27.7021 21.4991 27.2182 20.331 26.357 19.4698C25.4958 18.6086 24.3278 18.1248 23.1098 18.1248Z" fill="white"/>
<path fill-rule="evenodd" clip-rule="evenodd" d="M15.7197 10.1158C20.6313 9.57141 25.588 9.57141 30.4996 10.1158C33.1829 10.4154 35.3462 12.5278 35.6613 15.221C36.2438 20.2013 36.2438 25.2326 35.6613 30.2129C35.3462 32.9061 33.1829 35.0185 30.501 35.3195C25.589 35.864 20.6317 35.864 15.7197 35.3195C13.0364 35.0185 10.8731 32.9061 10.558 30.2143C9.97546 25.2335 9.97546 20.2018 10.558 15.221C10.8731 12.5278 13.0364 10.4154 15.7197 10.1158ZM30.1746 14.239C29.7999 14.239 29.4405 14.3878 29.1755 14.6528C28.9105 14.9178 28.7616 15.2772 28.7616 15.652C28.7616 16.0267 28.9105 16.3861 29.1755 16.6511C29.4405 16.9161 29.7999 17.065 30.1746 17.065C30.5494 17.065 30.9088 16.9161 31.1738 16.6511C31.4388 16.3861 31.5876 16.0267 31.5876 15.652C31.5876 15.2772 31.4388 14.9178 31.1738 14.6528C30.9088 14.3878 30.5494 14.239 30.1746 14.239ZM16.3979 22.7169C16.3979 20.9369 17.105 19.2297 18.3637 17.971C19.6224 16.7123 21.3296 16.0052 23.1096 16.0052C24.8897 16.0052 26.5969 16.7123 27.8556 17.971C29.1143 19.2297 29.8214 20.9369 29.8214 22.7169C29.8214 24.497 29.1143 26.2042 27.8556 27.4629C26.5969 28.7216 24.8897 29.4287 23.1096 29.4287C21.3296 29.4287 19.6224 28.7216 18.3637 27.4629C17.105 26.2042 16.3979 24.497 16.3979 22.7169Z" fill="white"/>
</g>
<defs>
<clipPath id="clip0_1223_8574">
<rect width="25.4339" height="25.4339" fill="white" transform="translate(10.3926 10)"/>
</clipPath>
</defs>
</svg>