<svg width="122" height="36" viewBox="0 0 122 36" fill="none" xmlns="http://www.w3.org/2000/svg">
<g clip-path="url(#clip0_2830_55578)">
<circle cx="18.668" cy="18" r="16" fill="#DAE3EA"/>
<path fill-rule="evenodd" clip-rule="evenodd" d="M21.724 14.9529C21.724 16.6367 20.3601 18.0005 18.6763 18.0005C16.9925 18.0005 15.6287 16.6367 15.6287 14.9529C15.6287 13.2691 16.9925 11.9053 18.6763 11.9053C20.3601 11.9053 21.724 13.2691 21.724 14.9529ZM12.5781 22.5719C12.5781 20.5453 16.6391 19.5243 18.6734 19.5243C20.7076 19.5243 24.7686 20.5453 24.7686 22.5719V23.3338C24.7686 23.7529 24.4257 24.0958 24.0067 24.0958H13.34C12.921 24.0958 12.5781 23.7529 12.5781 23.3338V22.5719Z" fill="#94A3B1"/>
</g>
<rect x="1.66797" y="1" width="34" height="34" rx="17" stroke="white" stroke-width="2"/>
<g clip-path="url(#clip1_2830_55578)">
<circle cx="40" cy="18" r="16" fill="#DAE3EA"/>
<path fill-rule="evenodd" clip-rule="evenodd" d="M43.056 14.9529C43.056 16.6367 41.6922 18.0005 40.0084 18.0005C38.3246 18.0005 36.9608 16.6367 36.9608 14.9529C36.9608 13.2691 38.3246 11.9053 40.0084 11.9053C41.6922 11.9053 43.056 13.2691 43.056 14.9529ZM33.9102 22.5719C33.9102 20.5453 37.9711 19.5243 40.0054 19.5243C42.0397 19.5243 46.1006 20.5453 46.1006 22.5719V23.3338C46.1006 23.7529 45.7578 24.0958 45.3387 24.0958H34.6721C34.253 24.0958 33.9102 23.7529 33.9102 23.3338V22.5719Z" fill="#94A3B1"/>
</g>
<rect x="23" y="1" width="34" height="34" rx="17" stroke="white" stroke-width="2"/>
<g clip-path="url(#clip2_2830_55578)">
<circle cx="61.3359" cy="18" r="16" fill="#DAE3EA"/>
<path fill-rule="evenodd" clip-rule="evenodd" d="M64.3919 14.9529C64.3919 16.6367 63.0281 18.0005 61.3443 18.0005C59.6605 18.0005 58.2967 16.6367 58.2967 14.9529C58.2967 13.2691 59.6605 11.9053 61.3443 11.9053C63.0281 11.9053 64.3919 13.2691 64.3919 14.9529ZM55.2461 22.5719C55.2461 20.5453 59.307 19.5243 61.3413 19.5243C63.3756 19.5243 67.4366 20.5453 67.4366 22.5719V23.3338C67.4366 23.7529 67.0937 24.0958 66.6747 24.0958H56.008C55.589 24.0958 55.2461 23.7529 55.2461 23.3338V22.5719Z" fill="#94A3B1"/>
</g>
<rect x="44.3359" y="1" width="34" height="34" rx="17" stroke="white" stroke-width="2"/>
<g clip-path="url(#clip3_2830_55578)">
<circle cx="82.668" cy="18" r="16" fill="#DAE3EA"/>
<path fill-rule="evenodd" clip-rule="evenodd" d="M85.724 14.9529C85.724 16.6367 84.3601 18.0005 82.6763 18.0005C80.9925 18.0005 79.6287 16.6367 79.6287 14.9529C79.6287 13.2691 80.9925 11.9053 82.6763 11.9053C84.3601 11.9053 85.724 13.2691 85.724 14.9529ZM76.5781 22.5719C76.5781 20.5453 80.6391 19.5243 82.6734 19.5243C84.7076 19.5243 88.7686 20.5453 88.7686 22.5719V23.3338C88.7686 23.7529 88.4257 24.0958 88.0067 24.0958H77.34C76.921 24.0958 76.5781 23.7529 76.5781 23.3338V22.5719Z" fill="#94A3B1"/>
</g>
<rect x="65.668" y="1" width="34" height="34" rx="17" stroke="white" stroke-width="2"/>
<g clip-path="url(#clip4_2830_55578)">
<circle cx="104" cy="18" r="16" fill="#DAE3EA"/>
<path fill-rule="evenodd" clip-rule="evenodd" d="M107.056 14.9529C107.056 16.6367 105.692 18.0005 104.008 18.0005C102.325 18.0005 100.961 16.6367 100.961 14.9529C100.961 13.2691 102.325 11.9053 104.008 11.9053C105.692 11.9053 107.056 13.2691 107.056 14.9529ZM97.9102 22.5719C97.9102 20.5453 101.971 19.5243 104.005 19.5243C106.04 19.5243 110.101 20.5453 110.101 22.5719V23.3338C110.101 23.7529 109.758 24.0958 109.339 24.0958H98.6721C98.253 24.0958 97.9102 23.7529 97.9102 23.3338V22.5719Z" fill="#94A3B1"/>
</g>
<rect x="87" y="1" width="34" height="34" rx="17" stroke="white" stroke-width="2"/>
<defs>
<clipPath id="clip0_2830_55578">
<rect x="2.66797" y="2" width="32" height="32" rx="16" fill="white"/>
</clipPath>
<clipPath id="clip1_2830_55578">
<rect x="24" y="2" width="32" height="32" rx="16" fill="white"/>
</clipPath>
<clipPath id="clip2_2830_55578">
<rect x="45.3359" y="2" width="32" height="32" rx="16" fill="white"/>
</clipPath>
<clipPath id="clip3_2830_55578">
<rect x="66.668" y="2" width="32" height="32" rx="16" fill="white"/>
</clipPath>
<clipPath id="clip4_2830_55578">
<rect x="88" y="2" width="32" height="32" rx="16" fill="white"/>
</clipPath>
</defs>
</svg>
