<svg width="40" height="40" viewBox="0 0 40 40" fill="none" xmlns="http://www.w3.org/2000/svg">
<g id="icon/navigation/close_24px">
<path id="icon/navigation/close_24px_2" d="M30.5012 9.51659C30.1898 9.20451 29.767 9.02912 29.3262 9.02912C28.8853 9.02912 28.4626 9.20451 28.1512 9.51659L20.0012 17.6499L11.8512 9.49993C11.5398 9.18784 11.117 9.01245 10.6762 9.01245C10.2353 9.01245 9.81256 9.18784 9.50117 9.49993C8.85117 10.1499 8.85117 11.1999 9.50117 11.8499L17.6512 19.9999L9.50117 28.1499C8.85117 28.7999 8.85117 29.8499 9.50117 30.4999C10.1512 31.1499 11.2012 31.1499 11.8512 30.4999L20.0012 22.3499L28.1512 30.4999C28.8012 31.1499 29.8512 31.1499 30.5012 30.4999C31.1512 29.8499 31.1512 28.7999 30.5012 28.1499L22.3512 19.9999L30.5012 11.8499C31.1345 11.2166 31.1345 10.1499 30.5012 9.51659Z" fill="white"/>
</g>
</svg>
