<svg width="160" height="161" viewBox="0 0 160 161" fill="none" xmlns="http://www.w3.org/2000/svg">
<rect x="2.5" y="3" width="155" height="155" rx="77.5" stroke="white" stroke-width="5"/>
<path d="M38.7109 52.0336L31.662 93.7338C30.9768 97.7876 33.7075 101.629 37.7613 102.315L57.6775 105.681L55.2968 119.765L66.9252 107.244L114.098 115.218C118.151 115.903 121.993 113.173 122.678 109.119L129.727 67.4188C130.412 63.365 127.682 59.5233 123.628 58.838L47.2917 45.9343C43.2379 45.2491 39.3962 47.9798 38.7109 52.0336Z" fill="white"/>
<path d="M60.0439 88.0827L63.7774 65.9961L67.4059 66.6094L63.6725 88.6961L60.0439 88.0827ZM74.0848 90.4562L77.8182 68.3695L81.4468 68.9828L77.7133 91.0695L74.0848 90.4562ZM64.19 78.7228L64.75 75.4098L77.087 77.4953L76.527 80.8083L64.19 78.7228ZM82.0648 91.8051L84.6249 76.6599L88.0957 77.2466L85.5356 92.3918L82.0648 91.8051ZM86.8296 74.1767C86.2406 74.0771 85.7801 73.7937 85.448 73.3265C85.1369 72.8628 85.0312 72.3365 85.1307 71.7475C85.2303 71.1586 85.5032 70.6962 85.9494 70.3606C86.4166 70.0285 86.9447 69.9122 87.5337 70.0118C88.1437 70.1149 88.6042 70.3983 88.9153 70.8619C89.2263 71.3256 89.3321 71.8519 89.2325 72.4409C89.133 73.0299 88.8601 73.4922 88.4139 73.8279C87.9677 74.1635 87.4396 74.2798 86.8296 74.1767ZM91.423 85.8576L93.5525 70.3801L97.181 70.9934L94.1049 86.311L91.423 85.8576ZM91.4575 93.7173C90.7843 93.6036 90.2643 93.2885 89.8972 92.7721C89.5547 92.2382 89.4386 91.6452 89.5488 90.9931C89.6626 90.32 89.9672 89.7981 90.4625 89.4275C90.9789 89.0604 91.5737 88.9338 92.2468 89.0476C92.9199 89.1614 93.4295 89.4747 93.7755 89.9875C94.1426 90.5039 94.2692 91.0987 94.1555 91.7718C94.0452 92.4239 93.7301 92.944 93.2102 93.3321C92.7148 93.7027 92.1306 93.8311 91.4575 93.7173Z" fill="#8E94E9"/>
</svg>
