<svg width="150" height="475" viewBox="0 0 150 475" fill="none" xmlns="http://www.w3.org/2000/svg">
<g clip-path="url(#clip0_885_19130)">
<rect y="0.5" width="150" height="474" rx="75" fill="#F6FF82"/>
<path d="M3.05176e-05 324.035C0.208397 324.287 0.416771 324.518 0.645973 324.749C0.937683 325.063 1.25024 325.378 1.54195 325.672C19.1697 343.803 43.7569 355.072 70.9695 355.072C75.1785 355.072 79.3666 354.8 83.4298 354.296C83.4715 354.275 83.4923 354.275 83.534 354.275C93.5355 352.953 103.079 350.12 111.893 345.986C111.059 310.542 111.413 279.525 111.413 278.937C111.08 278.203 94.7857 273.985 73.0948 273.271C38.9624 272.18 10.1266 291.571 3.05176e-05 324.035Z" fill="#68B6D8"/>
<path d="M83.4271 354.295C83.4687 354.274 83.4896 354.274 83.5312 354.274C93.5328 352.952 103.076 350.119 111.89 345.985C112.619 345.65 113.348 345.293 114.078 344.936C128.434 337.78 141.269 336.532 150.5 323.5C138.5 296 115.995 280.721 111.411 278.937C110.473 278.559 109.994 278.433 109.994 278.433L83.4271 354.295Z" fill="#68B6D8"/>
<path d="M68.7453 216.329C68.7453 216.329 46.7085 217.947 44.9291 196.668C43.035 174.012 63.8258 171.313 72.9043 180.262C81.9828 189.212 80.5763 198.582 80.5763 198.582C80.5763 198.582 86.6064 192.826 93.5075 199.535C98.5729 204.458 96.2288 212.776 96.2288 212.776C96.2288 212.776 107.597 212.048 106.785 222.083C105.972 232.119 98.9917 237.378 98.9917 237.378L68.7453 216.329Z" fill="black"/>
<path d="M89.8921 255.058L88.1856 278.727C88.1856 278.727 83.4557 285.222 69.6264 285.342C59.3248 285.432 55.893 282.836 55.893 282.836L58.185 270.952L60.4354 259.364L85.6581 255.679L89.8921 255.058Z" fill="#F8CEC1"/>
<path d="M85.6587 255.681C85.5524 256.323 85.2545 257.068 84.8106 257.914C78.6993 269.353 64.1387 270.851 58.1856 270.952L60.436 259.364L85.6587 255.681Z" fill="black"/>
<path d="M59.0884 205.031C59.0884 205.031 44.6132 233.806 48.2867 250.649C51.9602 267.494 67.1063 265.746 76.2619 263.056C85.4175 260.367 89.8974 255.062 89.8974 255.062C89.8974 255.062 98.1174 258.407 104.168 250.878C110.219 243.35 107.279 234.136 102.61 231.796C97.9403 229.454 92.0519 232.608 92.0519 232.608L96.9985 224.287C96.9985 224.287 80.698 179.628 59.0884 205.031Z" fill="#F8CEC1"/>
<path d="M92.0649 245.558C92.2503 245.558 92.4399 245.509 92.6087 245.402L101.771 239.734C102.26 239.43 102.414 238.786 102.114 238.29C101.812 237.797 101.17 237.64 100.681 237.946L91.5189 243.614C91.0293 243.919 90.8751 244.563 91.1772 245.058C91.3731 245.379 91.7148 245.558 92.0649 245.558Z" fill="black"/>
<path d="M99.6744 246.183C100.06 246.183 100.429 245.967 100.61 245.597C100.864 245.077 100.652 244.447 100.133 244.191L95.3404 241.822C94.8236 241.57 94.2006 241.784 93.9464 242.303C93.6943 242.823 93.9047 243.453 94.4236 243.709L99.216 246.078C99.3639 246.149 99.5202 246.183 99.6744 246.183Z" fill="black"/>
<path d="M55.2244 216.281C55.4328 216.281 55.6432 216.218 55.8266 216.086C58.3916 214.252 60.8295 215.87 60.9316 215.941C61.4087 216.26 62.0547 216.141 62.3776 215.664C62.7006 215.188 62.5839 214.539 62.113 214.212C61.963 214.107 58.3937 211.677 54.6202 214.378C54.1514 214.711 54.0409 215.368 54.3743 215.84C54.5785 216.128 54.8973 216.281 55.2244 216.281Z" fill="black"/>
<path d="M61.515 243.086C61.59 243.086 61.665 243.077 61.74 243.061C62.3026 242.935 62.6569 242.377 62.5339 241.81C60.617 233.049 65.549 227.194 65.599 227.135C65.9761 226.698 65.9282 226.035 65.4948 225.655C65.0593 225.275 64.405 225.324 64.0237 225.762C63.7925 226.031 58.3583 232.484 60.4982 242.261C60.6065 242.752 61.0378 243.086 61.515 243.086Z" fill="black"/>
<path d="M55.1395 230.83C55.6967 230.727 56.0697 230.192 55.9751 229.627L55.0382 224.061C54.9424 223.49 54.4041 223.103 53.8368 223.198C53.2567 223.373 52.887 223.834 52.9828 224.406L53.9193 229.969C54.0151 230.54 54.5534 230.927 55.1207 230.832C55.1272 230.833 55.1334 230.832 55.1395 230.83Z" fill="black"/>
<path d="M70.5068 229.078C71.064 228.975 71.4371 228.44 71.3424 227.875L70.4059 222.311C70.3101 221.74 69.7718 221.354 69.2045 221.449C68.6662 221.483 68.2547 222.084 68.3505 222.656L69.2871 228.219C69.3829 228.79 69.9211 229.177 70.4884 229.082C70.4945 229.081 70.5007 229.08 70.5068 229.078Z" fill="black"/>
<path d="M56.1301 211.538C56.1301 211.538 59.0243 206.968 64.8919 207.356C70.7574 207.744 73.8808 212.153 73.8808 212.153C73.8808 212.153 70.5928 221.907 78.1835 227.773C85.7743 233.638 92.0503 232.612 92.0503 232.612L97.9825 230.958L102.837 222.759L87.4183 203.379L66.5963 190.286L54.8361 199.568L56.1301 211.538Z" fill="black"/>
<path d="M66.3013 249.014C68.2662 249.014 71.9834 248.454 74.1442 244.576C74.4255 244.072 74.2463 243.432 73.7462 243.146C73.242 242.865 72.6106 243.044 72.3272 243.549C70.0831 247.574 65.5428 246.884 65.3511 246.852C64.7844 246.747 64.2489 247.146 64.1551 247.715C64.0614 248.286 64.4406 248.825 65.0073 248.922C65.074 248.934 65.5658 249.014 66.3013 249.014Z" fill="black"/>
<path d="M53.6509 239.478C53.7328 239.463 53.8148 239.448 53.8963 239.431C59.2952 238.284 62.7212 232.792 61.5321 227.192C60.9581 224.486 59.4022 222.152 57.1554 220.626C54.8967 219.093 52.2045 218.545 49.5864 219.111C44.1875 220.258 40.7616 225.75 41.9511 231.351C42.5251 234.058 44.0805 236.39 46.3274 237.916C48.5155 239.4 51.1068 239.952 53.6509 239.478ZM50.2137 221.125C52.217 220.752 54.261 221.189 55.993 222.362C57.7906 223.582 59.0331 225.451 59.4953 227.625C60.444 232.093 57.7361 236.468 53.4609 237.377C51.3878 237.842 49.2753 237.39 47.4915 236.177C45.6939 234.958 44.4513 233.089 43.9916 230.916C43.0425 226.446 45.7504 222.071 50.0256 221.162C50.0846 221.149 50.1481 221.137 50.2137 221.125Z" fill="#707070"/>
<path d="M77.334 236.807C77.42 236.791 77.504 236.776 77.5917 236.757C80.285 236.185 82.5948 234.59 84.0929 232.266C85.5913 229.944 86.1001 227.168 85.525 224.455C84.9498 221.742 83.3584 219.411 81.046 217.897C78.7335 216.383 75.9692 215.88 73.2818 216.438C67.7198 217.619 64.1615 223.14 65.3489 228.742C66.5203 234.257 71.8626 237.826 77.334 236.807ZM73.9258 218.45C76.0091 218.062 78.1272 218.488 79.9132 219.656C81.7579 220.866 83.0279 222.724 83.4865 224.89C83.9448 227.055 83.5411 229.269 82.3455 231.122C81.1498 232.976 79.3074 234.248 77.1567 234.706C72.7349 235.636 68.3369 232.779 67.3898 228.309C66.4407 223.838 69.281 219.435 73.7193 218.491C73.7865 218.476 73.8562 218.463 73.9258 218.45Z" fill="#707070"/>
<path d="M67.3106 228.291C67.8493 228.191 68.2229 227.682 68.1494 227.127C68.0765 226.554 67.5532 226.146 66.9821 226.22L59.7676 227.143C59.2051 227.173 58.7937 227.741 58.869 228.316C58.9419 228.889 59.4652 229.298 60.0363 229.223L67.2508 228.3C67.2717 228.299 67.2901 228.295 67.3106 228.291Z" fill="#707070"/>
<path d="M84.9803 227.048C85.1462 227.017 85.3065 226.944 85.4444 226.831C85.527 226.762 94.0474 219.911 99.3873 223.649C99.86 223.98 100.508 223.863 100.837 223.388C101.164 222.913 101.046 222.258 100.574 221.928C93.9473 217.292 84.5254 224.878 84.1279 225.202C83.6809 225.567 83.615 226.226 83.9767 226.677C84.2289 226.985 84.6177 227.115 84.9803 227.048Z" fill="#707070"/>
<path d="M68.73 286.884C74.7497 286.884 82.255 285.21 90.4813 279.575C90.9585 279.25 91.0814 278.597 90.7563 278.119C90.4313 277.64 89.7833 277.516 89.3082 277.842C70.3073 290.859 56.0009 281.905 55.4029 281.518C54.9174 281.204 54.2756 281.344 53.9631 281.831C53.6526 282.316 53.7901 282.966 54.2735 283.279C54.3652 283.34 59.9744 286.884 68.73 286.884Z" fill="white"/>
<path d="M77.9411 219.059C78.139 219.059 78.337 219.005 78.5141 218.885C78.9933 218.566 79.1267 217.914 78.8079 217.431C75.8845 212.984 71.5151 213.448 69.6148 214.306C69.0897 214.543 68.8563 215.167 69.0918 215.693C69.3272 216.22 69.944 216.453 70.4649 216.222C70.6358 216.145 74.4155 214.545 77.068 218.591C77.2722 218.894 77.6035 219.059 77.9411 219.059Z" fill="black"/>
<rect x="-2" y="325.5" width="152" height="149" fill="#68B6D8"/>
<path d="M33.712 111.3V106.548H28.96V104.052H33.712V99.3H36.208V104.052H40.96V106.548H36.208V111.3H33.712ZM43.3619 112.5V100.5H45.8579V101.772C46.2739 101.276 46.7819 100.884 47.3819 100.596C47.9899 100.308 48.6459 100.164 49.3499 100.164C50.2059 100.164 50.9939 100.372 51.7139 100.788C52.4339 101.196 53.0059 101.74 53.4299 102.42C53.8539 101.74 54.4179 101.196 55.1219 100.788C55.8339 100.372 56.6179 100.164 57.4739 100.164C58.3619 100.164 59.1699 100.38 59.8979 100.812C60.6259 101.244 61.2059 101.824 61.6379 102.552C62.0699 103.28 62.2859 104.088 62.2859 104.976V112.5H59.7899V105.612C59.7899 105.084 59.6619 104.6 59.4059 104.16C59.1499 103.72 58.8059 103.364 58.3739 103.092C57.9419 102.82 57.4619 102.684 56.9339 102.684C56.4059 102.684 55.9259 102.812 55.4939 103.068C55.0619 103.324 54.7179 103.672 54.4619 104.112C54.2059 104.552 54.0779 105.052 54.0779 105.612V112.5H51.5819V105.612C51.5819 105.052 51.4539 104.552 51.1979 104.112C50.9419 103.672 50.5939 103.324 50.1539 103.068C49.7219 102.812 49.2419 102.684 48.7139 102.684C48.1939 102.684 47.7139 102.82 47.2739 103.092C46.8419 103.364 46.4979 103.72 46.2419 104.16C45.9859 104.6 45.8579 105.084 45.8579 105.612V112.5H43.3619ZM69.7356 112.812C68.6316 112.812 67.6236 112.528 66.7116 111.96C65.8076 111.392 65.0836 110.632 64.5396 109.68C64.0036 108.72 63.7356 107.66 63.7356 106.5C63.7356 105.62 63.8916 104.8 64.2036 104.04C64.5156 103.272 64.9436 102.6 65.4876 102.024C66.0396 101.44 66.6796 100.984 67.4076 100.656C68.1356 100.328 68.9116 100.164 69.7356 100.164C70.8396 100.164 71.8436 100.448 72.7476 101.016C73.6596 101.584 74.3836 102.348 74.9196 103.308C75.4636 104.268 75.7356 105.332 75.7356 106.5C75.7356 107.372 75.5796 108.188 75.2676 108.948C74.9556 109.708 74.5236 110.38 73.9716 110.964C73.4276 111.54 72.7916 111.992 72.0636 112.32C71.3436 112.648 70.5676 112.812 69.7356 112.812ZM69.7356 110.316C70.3996 110.316 70.9956 110.14 71.5236 109.788C72.0516 109.436 72.4676 108.972 72.7716 108.396C73.0836 107.812 73.2396 107.18 73.2396 106.5C73.2396 105.804 73.0796 105.164 72.7596 104.58C72.4476 103.996 72.0276 103.532 71.4996 103.188C70.9716 102.836 70.3836 102.66 69.7356 102.66C69.0796 102.66 68.4836 102.836 67.9476 103.188C67.4196 103.54 66.9996 104.008 66.6876 104.592C66.3836 105.176 66.2316 105.812 66.2316 106.5C66.2316 107.212 66.3916 107.856 66.7116 108.432C67.0316 109.008 67.4556 109.468 67.9836 109.812C68.5196 110.148 69.1036 110.316 69.7356 110.316ZM77.6744 112.5V100.5H80.1704V101.772C80.5864 101.276 81.0984 100.884 81.7064 100.596C82.3144 100.308 82.9704 100.164 83.6744 100.164C84.1224 100.164 84.5664 100.224 85.0064 100.344L84.0104 102.864C83.6984 102.744 83.3864 102.684 83.0744 102.684C82.5464 102.684 82.0624 102.816 81.6224 103.08C81.1824 103.336 80.8304 103.684 80.5664 104.124C80.3024 104.564 80.1704 105.052 80.1704 105.588V112.5H77.6744ZM91.1106 112.812C90.0066 112.812 88.9986 112.528 88.0866 111.96C87.1826 111.392 86.4586 110.632 85.9146 109.68C85.3786 108.72 85.1106 107.66 85.1106 106.5C85.1106 105.62 85.2666 104.8 85.5786 104.04C85.8906 103.272 86.3186 102.6 86.8626 102.024C87.4146 101.44 88.0546 100.984 88.7826 100.656C89.5106 100.328 90.2866 100.164 91.1106 100.164C92.0306 100.164 92.8746 100.356 93.6426 100.74C94.4106 101.116 95.0666 101.64 95.6106 102.312C96.1546 102.976 96.5546 103.744 96.8106 104.616C97.0666 105.48 97.1426 106.4 97.0386 107.376H87.7866C87.8906 107.928 88.0906 108.428 88.3866 108.876C88.6906 109.316 89.0746 109.664 89.5386 109.92C90.0106 110.176 90.5346 110.308 91.1106 110.316C91.7186 110.316 92.2706 110.164 92.7666 109.86C93.2706 109.556 93.6826 109.136 94.0026 108.6L96.5346 109.188C96.0546 110.252 95.3306 111.124 94.3626 111.804C93.3946 112.476 92.3106 112.812 91.1106 112.812ZM87.7026 105.468H94.5186C94.4386 104.892 94.2346 104.372 93.9066 103.908C93.5866 103.436 93.1826 103.064 92.6946 102.792C92.2146 102.512 91.6866 102.372 91.1106 102.372C90.5426 102.372 90.0146 102.508 89.5266 102.78C89.0466 103.052 88.6466 103.424 88.3266 103.896C88.0146 104.36 87.8066 104.884 87.7026 105.468ZM38.788 120.5H41.284V138.5H38.788V136.736C38.396 137.36 37.884 137.864 37.252 138.248C36.62 138.624 35.88 138.812 35.032 138.812C34.16 138.812 33.344 138.648 32.584 138.32C31.824 137.992 31.152 137.54 30.568 136.964C29.992 136.38 29.54 135.708 29.212 134.948C28.884 134.188 28.72 133.372 28.72 132.5C28.72 131.628 28.884 130.812 29.212 130.052C29.54 129.284 29.992 128.612 30.568 128.036C31.152 127.452 31.824 126.996 32.584 126.668C33.344 126.34 34.16 126.176 35.032 126.176C35.88 126.176 36.62 126.368 37.252 126.752C37.884 127.128 38.396 127.624 38.788 128.24V120.5ZM35.056 136.4C35.76 136.4 36.376 136.228 36.904 135.884C37.432 135.532 37.84 135.06 38.128 134.468C38.424 133.876 38.572 133.22 38.572 132.5C38.572 131.772 38.424 131.112 38.128 130.52C37.832 129.928 37.42 129.46 36.892 129.116C36.372 128.764 35.76 128.588 35.056 128.588C34.36 128.588 33.724 128.764 33.148 129.116C32.58 129.468 32.124 129.94 31.78 130.532C31.444 131.124 31.276 131.78 31.276 132.5C31.276 133.228 31.448 133.888 31.792 134.48C32.144 135.064 32.604 135.532 33.172 135.884C33.748 136.228 34.376 136.4 35.056 136.4ZM44.1588 126.5H46.6548V138.5H44.1588V126.5ZM45.4308 124.76C45.0468 124.76 44.7268 124.636 44.4708 124.388C44.2148 124.14 44.0868 123.828 44.0868 123.452C44.0868 123.084 44.2148 122.776 44.4708 122.528C44.7268 122.272 45.0428 122.144 45.4188 122.144C45.7868 122.144 46.0988 122.272 46.3548 122.528C46.6108 122.776 46.7388 123.084 46.7388 123.452C46.7388 123.828 46.6108 124.14 46.3548 124.388C46.1068 124.636 45.7988 124.76 45.4308 124.76ZM52.9619 138.728C52.3299 138.688 51.7139 138.56 51.1139 138.344C50.5139 138.128 49.9859 137.836 49.5299 137.468C49.0819 137.092 48.7459 136.652 48.5219 136.148L50.6459 135.236C50.7499 135.452 50.9299 135.664 51.1859 135.872C51.4499 136.08 51.7579 136.252 52.1099 136.388C52.4619 136.516 52.8299 136.58 53.2139 136.58C53.5899 136.58 53.9379 136.528 54.2579 136.424C54.5859 136.312 54.8539 136.144 55.0619 135.92C55.2699 135.696 55.3739 135.428 55.3739 135.116C55.3739 134.764 55.2539 134.492 55.0139 134.3C54.7819 134.1 54.4899 133.948 54.1379 133.844C53.7859 133.74 53.4339 133.64 53.0819 133.544C52.2979 133.368 51.5779 133.128 50.9219 132.824C50.2739 132.512 49.7579 132.116 49.3739 131.636C48.9899 131.148 48.7979 130.552 48.7979 129.848C48.7979 129.08 49.0059 128.416 49.4219 127.856C49.8379 127.288 50.3819 126.852 51.0539 126.548C51.7339 126.244 52.4579 126.092 53.2259 126.092C54.1859 126.092 55.0659 126.296 55.8659 126.704C56.6659 127.112 57.2779 127.672 57.7019 128.384L55.7219 129.56C55.6019 129.32 55.4219 129.104 55.1819 128.912C54.9419 128.72 54.6699 128.568 54.3659 128.456C54.0619 128.336 53.7459 128.268 53.4179 128.252C53.0099 128.236 52.6299 128.284 52.2779 128.396C51.9339 128.5 51.6579 128.668 51.4499 128.9C51.2419 129.132 51.1379 129.428 51.1379 129.788C51.1379 130.14 51.2619 130.404 51.5099 130.58C51.7579 130.748 52.0699 130.884 52.4459 130.988C52.8299 131.092 53.2219 131.208 53.6219 131.336C54.3339 131.56 55.0019 131.836 55.6259 132.164C56.2499 132.484 56.7539 132.88 57.1379 133.352C57.5219 133.824 57.7059 134.4 57.6899 135.08C57.6899 135.832 57.4619 136.492 57.0059 137.06C56.5579 137.628 55.9739 138.06 55.2539 138.356C54.5339 138.652 53.7699 138.776 52.9619 138.728ZM67.4166 135.092L69.6486 136.304C69.1046 137.064 68.4126 137.672 67.5726 138.128C66.7406 138.584 65.8366 138.812 64.8606 138.812C63.7566 138.812 62.7486 138.528 61.8366 137.96C60.9326 137.392 60.2086 136.632 59.6646 135.68C59.1286 134.72 58.8606 133.66 58.8606 132.5C58.8606 131.62 59.0166 130.8 59.3286 130.04C59.6406 129.272 60.0686 128.6 60.6126 128.024C61.1646 127.44 61.8046 126.984 62.5326 126.656C63.2606 126.328 64.0366 126.164 64.8606 126.164C65.8366 126.164 66.7406 126.392 67.5726 126.848C68.4126 127.304 69.1046 127.916 69.6486 128.684L67.4166 129.896C67.0806 129.496 66.6886 129.192 66.2406 128.984C65.7926 128.768 65.3326 128.66 64.8606 128.66C64.2046 128.66 63.6086 128.84 63.0726 129.2C62.5446 129.552 62.1246 130.02 61.8126 130.604C61.5086 131.18 61.3566 131.812 61.3566 132.5C61.3566 133.18 61.5126 133.812 61.8246 134.396C62.1366 134.972 62.5566 135.436 63.0846 135.788C63.6206 136.14 64.2126 136.316 64.8606 136.316C65.3566 136.316 65.8286 136.204 66.2766 135.98C66.7246 135.756 67.1046 135.46 67.4166 135.092ZM76.7903 138.812C75.6863 138.812 74.6783 138.528 73.7663 137.96C72.8623 137.392 72.1383 136.632 71.5943 135.68C71.0583 134.72 70.7903 133.66 70.7903 132.5C70.7903 131.62 70.9463 130.8 71.2583 130.04C71.5703 129.272 71.9983 128.6 72.5423 128.024C73.0943 127.44 73.7343 126.984 74.4623 126.656C75.1903 126.328 75.9663 126.164 76.7903 126.164C77.8943 126.164 78.8983 126.448 79.8023 127.016C80.7143 127.584 81.4383 128.348 81.9743 129.308C82.5183 130.268 82.7903 131.332 82.7903 132.5C82.7903 133.372 82.6343 134.188 82.3223 134.948C82.0103 135.708 81.5783 136.38 81.0263 136.964C80.4823 137.54 79.8463 137.992 79.1183 138.32C78.3983 138.648 77.6223 138.812 76.7903 138.812ZM76.7903 136.316C77.4543 136.316 78.0503 136.14 78.5783 135.788C79.1063 135.436 79.5223 134.972 79.8263 134.396C80.1383 133.812 80.2943 133.18 80.2943 132.5C80.2943 131.804 80.1343 131.164 79.8143 130.58C79.5023 129.996 79.0823 129.532 78.5543 129.188C78.0263 128.836 77.4383 128.66 76.7903 128.66C76.1343 128.66 75.5383 128.836 75.0023 129.188C74.4743 129.54 74.0543 130.008 73.7423 130.592C73.4383 131.176 73.2863 131.812 73.2863 132.5C73.2863 133.212 73.4463 133.856 73.7663 134.432C74.0863 135.008 74.5103 135.468 75.0383 135.812C75.5743 136.148 76.1583 136.316 76.7903 136.316ZM84.0147 134V126.5H86.5107V133.388C86.5107 133.924 86.6427 134.412 86.9067 134.852C87.1707 135.292 87.5227 135.644 87.9627 135.908C88.4027 136.164 88.8867 136.292 89.4147 136.292C89.9507 136.292 90.4347 136.164 90.8667 135.908C91.3067 135.644 91.6547 135.292 91.9107 134.852C92.1747 134.412 92.3067 133.924 92.3067 133.388V126.5H94.8027L94.8147 138.5H92.3187L92.3067 137.204C91.8987 137.7 91.3907 138.092 90.7827 138.38C90.1747 138.668 89.5227 138.812 88.8267 138.812C87.9387 138.812 87.1307 138.596 86.4027 138.164C85.6747 137.732 85.0947 137.152 84.6627 136.424C84.2307 135.696 84.0147 134.888 84.0147 134ZM108.021 130.976V138.5H105.525V131.588C105.525 131.052 105.393 130.564 105.129 130.124C104.873 129.684 104.525 129.336 104.085 129.08C103.653 128.816 103.165 128.684 102.621 128.684C102.093 128.684 101.609 128.816 101.169 129.08C100.729 129.336 100.377 129.684 100.113 130.124C99.8493 130.564 99.7173 131.052 99.7173 131.588V138.5H97.2213V126.5H99.7173V127.772C100.133 127.276 100.645 126.884 101.253 126.596C101.861 126.308 102.517 126.164 103.221 126.164C104.109 126.164 104.917 126.38 105.645 126.812C106.373 127.244 106.949 127.824 107.373 128.552C107.805 129.28 108.021 130.088 108.021 130.976ZM116.753 128.996H114.233L114.221 138.5H111.725L111.737 128.996H109.829V126.5H111.737L111.725 122.732H114.221L114.233 126.5H116.753V128.996Z" fill="#656DE1"/>
</g>
<rect x="2.5" y="3" width="145" height="469" rx="72.5" stroke="white" stroke-width="5"/>
<defs>
<clipPath id="clip0_885_19130">
<rect y="0.5" width="150" height="474" rx="75" fill="white"/>
</clipPath>
</defs>
</svg>
