<svg width="140" height="226" viewBox="0 0 140 226" fill="none" xmlns="http://www.w3.org/2000/svg">
<path d="M137 224.339H138.34V222.999V70C138.34 32.2566 107.743 1.65951 70.0001 1.65951C32.2567 1.65951 1.65963 32.2566 1.65963 70V222.999V224.339H3.00012H137Z" stroke="white" stroke-width="2.68099"/>
<g opacity="0.5">
<path d="M137 224.341H138.34V223V107.562C138.34 69.8191 107.743 39.222 69.9999 39.222C32.2565 39.222 1.65951 69.819 1.65951 107.562V223V224.341H3H137Z" stroke="white" stroke-width="2.68099"/>
</g>
<g opacity="0.25">
<path d="M137 224.34H138.34V223V150.488C138.34 112.745 107.743 82.1478 70.0001 82.1478C32.2567 82.1478 1.65963 112.745 1.65963 150.488V223V224.34H3.00012H137Z" stroke="white" stroke-width="2.68099"/>
</g>
</svg>
