<svg width="303" height="161" viewBox="0 0 303 161" fill="none" xmlns="http://www.w3.org/2000/svg">
<g clip-path="url(#clip0_885_19122)">
<rect x="5" y="5.5" width="293" height="150" rx="75" fill="white"/>
<rect x="148" y="5.5" width="150" height="150" rx="75" fill="#8E94E9"/>
<path d="M251.157 107.343L247.065 61.6023C246.992 60.6971 246.226 60.011 245.299 60.011H236.673C236.659 52.4046 230.418 46.2144 222.749 46.2144C215.08 46.2144 208.839 52.4046 208.825 60.011H200.199C199.286 60.011 198.521 60.6971 198.433 61.6023L194.341 107.343C194.341 107.401 194.341 107.445 194.341 107.503C194.341 112.599 199.066 116.745 204.865 116.745H240.633C246.432 116.745 251.157 112.599 251.157 107.503C251.157 107.445 251.157 107.401 251.157 107.343ZM222.749 49.7183C228.475 49.7183 233.126 54.3317 233.141 60.011H212.357C212.372 54.3317 217.023 49.7183 222.749 49.7183ZM240.633 113.226H204.865C201.038 113.226 197.918 110.701 197.873 107.562L201.818 63.5149H208.825V69.6613C208.825 70.6249 209.619 71.4132 210.591 71.4132C211.562 71.4132 212.357 70.6249 212.357 69.6613V63.5149H233.141V69.6613C233.141 70.6249 233.936 71.4132 234.907 71.4132C235.879 71.4132 236.673 70.6249 236.673 69.6613V63.5149H243.68L247.625 107.576C247.58 110.701 244.46 113.226 240.633 113.226Z" fill="white"/>
<path d="M244.385 63H200.885L196.885 111L198.885 114H244.385C245.185 114 248.051 109.167 248.385 107.5L244.385 63Z" fill="white"/>
<path d="M42.712 92.3V87.548H37.96V85.052H42.712V80.3H45.208V85.052H49.96V87.548H45.208V92.3H42.712ZM52.3619 93.5V81.5H54.8579V82.772C55.2739 82.276 55.7819 81.884 56.3819 81.596C56.9899 81.308 57.6459 81.164 58.3499 81.164C59.2059 81.164 59.9939 81.372 60.7139 81.788C61.4339 82.196 62.0059 82.74 62.4299 83.42C62.8539 82.74 63.4179 82.196 64.1219 81.788C64.8339 81.372 65.6179 81.164 66.4739 81.164C67.3619 81.164 68.1699 81.38 68.8979 81.812C69.6259 82.244 70.2059 82.824 70.6379 83.552C71.0699 84.28 71.2859 85.088 71.2859 85.976V93.5H68.7899V86.612C68.7899 86.084 68.6619 85.6 68.4059 85.16C68.1499 84.72 67.8059 84.364 67.3739 84.092C66.9419 83.82 66.4619 83.684 65.9339 83.684C65.4059 83.684 64.9259 83.812 64.4939 84.068C64.0619 84.324 63.7179 84.672 63.4619 85.112C63.2059 85.552 63.0779 86.052 63.0779 86.612V93.5H60.5819V86.612C60.5819 86.052 60.4539 85.552 60.1979 85.112C59.9419 84.672 59.5939 84.324 59.1539 84.068C58.7219 83.812 58.2419 83.684 57.7139 83.684C57.1939 83.684 56.7139 83.82 56.2739 84.092C55.8419 84.364 55.4979 84.72 55.2419 85.16C54.9859 85.6 54.8579 86.084 54.8579 86.612V93.5H52.3619ZM78.7356 93.812C77.6316 93.812 76.6236 93.528 75.7116 92.96C74.8076 92.392 74.0836 91.632 73.5396 90.68C73.0036 89.72 72.7356 88.66 72.7356 87.5C72.7356 86.62 72.8916 85.8 73.2036 85.04C73.5156 84.272 73.9436 83.6 74.4876 83.024C75.0396 82.44 75.6796 81.984 76.4076 81.656C77.1356 81.328 77.9116 81.164 78.7356 81.164C79.8396 81.164 80.8436 81.448 81.7476 82.016C82.6596 82.584 83.3836 83.348 83.9196 84.308C84.4636 85.268 84.7356 86.332 84.7356 87.5C84.7356 88.372 84.5796 89.188 84.2676 89.948C83.9556 90.708 83.5236 91.38 82.9716 91.964C82.4276 92.54 81.7916 92.992 81.0636 93.32C80.3436 93.648 79.5676 93.812 78.7356 93.812ZM78.7356 91.316C79.3996 91.316 79.9956 91.14 80.5236 90.788C81.0516 90.436 81.4676 89.972 81.7716 89.396C82.0836 88.812 82.2396 88.18 82.2396 87.5C82.2396 86.804 82.0796 86.164 81.7596 85.58C81.4476 84.996 81.0276 84.532 80.4996 84.188C79.9716 83.836 79.3836 83.66 78.7356 83.66C78.0796 83.66 77.4836 83.836 76.9476 84.188C76.4196 84.54 75.9996 85.008 75.6876 85.592C75.3836 86.176 75.2316 86.812 75.2316 87.5C75.2316 88.212 75.3916 88.856 75.7116 89.432C76.0316 90.008 76.4556 90.468 76.9836 90.812C77.5196 91.148 78.1036 91.316 78.7356 91.316ZM86.6744 93.5V81.5H89.1704V82.772C89.5864 82.276 90.0984 81.884 90.7064 81.596C91.3144 81.308 91.9704 81.164 92.6744 81.164C93.1224 81.164 93.5664 81.224 94.0064 81.344L93.0104 83.864C92.6984 83.744 92.3864 83.684 92.0744 83.684C91.5464 83.684 91.0624 83.816 90.6224 84.08C90.1824 84.336 89.8304 84.684 89.5664 85.124C89.3024 85.564 89.1704 86.052 89.1704 86.588V93.5H86.6744ZM100.111 93.812C99.0066 93.812 97.9986 93.528 97.0866 92.96C96.1826 92.392 95.4586 91.632 94.9146 90.68C94.3786 89.72 94.1106 88.66 94.1106 87.5C94.1106 86.62 94.2666 85.8 94.5786 85.04C94.8906 84.272 95.3186 83.6 95.8626 83.024C96.4146 82.44 97.0546 81.984 97.7826 81.656C98.5106 81.328 99.2866 81.164 100.111 81.164C101.031 81.164 101.875 81.356 102.643 81.74C103.411 82.116 104.067 82.64 104.611 83.312C105.155 83.976 105.555 84.744 105.811 85.616C106.067 86.48 106.143 87.4 106.039 88.376H96.7866C96.8906 88.928 97.0906 89.428 97.3866 89.876C97.6906 90.316 98.0746 90.664 98.5386 90.92C99.0106 91.176 99.5346 91.308 100.111 91.316C100.719 91.316 101.271 91.164 101.767 90.86C102.271 90.556 102.683 90.136 103.003 89.6L105.535 90.188C105.055 91.252 104.331 92.124 103.363 92.804C102.395 93.476 101.311 93.812 100.111 93.812ZM96.7026 86.468H103.519C103.439 85.892 103.235 85.372 102.907 84.908C102.587 84.436 102.183 84.064 101.695 83.792C101.215 83.512 100.687 83.372 100.111 83.372C99.5426 83.372 99.0146 83.508 98.5266 83.78C98.0466 84.052 97.6466 84.424 97.3266 84.896C97.0146 85.36 96.8066 85.884 96.7026 86.468ZM41.524 104.776V107.5H44.908V109.996H41.524V119.5H39.028V109.996H37.6V107.5H39.028V104.776C39.028 104.12 39.188 103.524 39.508 102.988C39.828 102.444 40.256 102.012 40.792 101.692C41.336 101.372 41.94 101.212 42.604 101.212C43.084 101.212 43.552 101.308 44.008 101.5C44.464 101.692 44.872 101.988 45.232 102.388L43.444 104.152C43.356 104.008 43.232 103.9 43.072 103.828C42.92 103.748 42.764 103.708 42.604 103.708C42.308 103.708 42.052 103.812 41.836 104.02C41.628 104.228 41.524 104.48 41.524 104.776ZM47.1119 119.5V107.5H49.6079V108.772C50.0239 108.276 50.5359 107.884 51.1439 107.596C51.7519 107.308 52.4079 107.164 53.1119 107.164C53.5599 107.164 54.0039 107.224 54.4439 107.344L53.4479 109.864C53.1359 109.744 52.8239 109.684 52.5119 109.684C51.9839 109.684 51.4999 109.816 51.0599 110.08C50.6199 110.336 50.2679 110.684 50.0039 111.124C49.7399 111.564 49.6079 112.052 49.6079 112.588V119.5H47.1119ZM55.8306 107.5H58.3266V119.5H55.8306V107.5ZM57.1026 105.76C56.7186 105.76 56.3986 105.636 56.1426 105.388C55.8866 105.14 55.7586 104.828 55.7586 104.452C55.7586 104.084 55.8866 103.776 56.1426 103.528C56.3986 103.272 56.7146 103.144 57.0906 103.144C57.4586 103.144 57.7706 103.272 58.0266 103.528C58.2826 103.776 58.4106 104.084 58.4106 104.452C58.4106 104.828 58.2826 105.14 58.0266 105.388C57.7786 105.636 57.4706 105.76 57.1026 105.76ZM66.2669 119.812C65.1629 119.812 64.1549 119.528 63.2429 118.96C62.3389 118.392 61.6149 117.632 61.0709 116.68C60.5349 115.72 60.2669 114.66 60.2669 113.5C60.2669 112.62 60.4229 111.8 60.7349 111.04C61.0469 110.272 61.4749 109.6 62.0189 109.024C62.5709 108.44 63.2109 107.984 63.9389 107.656C64.6669 107.328 65.4429 107.164 66.2669 107.164C67.1869 107.164 68.0309 107.356 68.7989 107.74C69.5669 108.116 70.2229 108.64 70.7669 109.312C71.3109 109.976 71.7109 110.744 71.9669 111.616C72.2229 112.48 72.2989 113.4 72.1949 114.376H62.9429C63.0469 114.928 63.2469 115.428 63.5429 115.876C63.8469 116.316 64.2309 116.664 64.6949 116.92C65.1669 117.176 65.6909 117.308 66.2669 117.316C66.8749 117.316 67.4269 117.164 67.9229 116.86C68.4269 116.556 68.8389 116.136 69.1589 115.6L71.6909 116.188C71.2109 117.252 70.4869 118.124 69.5189 118.804C68.5509 119.476 67.4669 119.812 66.2669 119.812ZM62.8589 112.468H69.6749C69.5949 111.892 69.3909 111.372 69.0629 110.908C68.7429 110.436 68.3389 110.064 67.8509 109.792C67.3709 109.512 66.8429 109.372 66.2669 109.372C65.6989 109.372 65.1709 109.508 64.6829 109.78C64.2029 110.052 63.8029 110.424 63.4829 110.896C63.1709 111.36 62.9629 111.884 62.8589 112.468ZM84.9822 111.976V119.5H82.4862V112.588C82.4862 112.052 82.3542 111.564 82.0902 111.124C81.8342 110.684 81.4862 110.336 81.0462 110.08C80.6142 109.816 80.1262 109.684 79.5822 109.684C79.0542 109.684 78.5702 109.816 78.1302 110.08C77.6902 110.336 77.3382 110.684 77.0742 111.124C76.8102 111.564 76.6782 112.052 76.6782 112.588V119.5H74.1822V107.5H76.6782V108.772C77.0942 108.276 77.6062 107.884 78.2142 107.596C78.8222 107.308 79.4782 107.164 80.1822 107.164C81.0702 107.164 81.8782 107.38 82.6062 107.812C83.3342 108.244 83.9102 108.824 84.3342 109.552C84.7662 110.28 84.9822 111.088 84.9822 111.976ZM96.4911 101.5H98.9871V119.5H96.4911V117.736C96.0991 118.36 95.5871 118.864 94.9551 119.248C94.3231 119.624 93.5831 119.812 92.7351 119.812C91.8631 119.812 91.0471 119.648 90.2871 119.32C89.5271 118.992 88.8551 118.54 88.2711 117.964C87.6951 117.38 87.2431 116.708 86.9151 115.948C86.5871 115.188 86.4231 114.372 86.4231 113.5C86.4231 112.628 86.5871 111.812 86.9151 111.052C87.2431 110.284 87.6951 109.612 88.2711 109.036C88.8551 108.452 89.5271 107.996 90.2871 107.668C91.0471 107.34 91.8631 107.176 92.7351 107.176C93.5831 107.176 94.3231 107.368 94.9551 107.752C95.5871 108.128 96.0991 108.624 96.4911 109.24V101.5ZM92.7591 117.4C93.4631 117.4 94.0791 117.228 94.6071 116.884C95.1351 116.532 95.5431 116.06 95.8311 115.468C96.1271 114.876 96.2751 114.22 96.2751 113.5C96.2751 112.772 96.1271 112.112 95.8311 111.52C95.5351 110.928 95.1231 110.46 94.5951 110.116C94.0751 109.764 93.4631 109.588 92.7591 109.588C92.0631 109.588 91.4271 109.764 90.8511 110.116C90.2831 110.468 89.8271 110.94 89.4831 111.532C89.1471 112.124 88.9791 112.78 88.9791 113.5C88.9791 114.228 89.1511 114.888 89.4951 115.48C89.8471 116.064 90.3071 116.532 90.8751 116.884C91.4511 117.228 92.0791 117.4 92.7591 117.4Z" fill="#656DE1"/>
<path d="M51.1176 70.0345L51.1163 70.0343C50.6291 69.9483 50.151 69.8441 49.6753 69.718M51.1176 70.0345L56.9735 69.2186C56.0092 69.4039 55.0141 69.4966 54.0017 69.4966C53.4355 69.4966 52.8761 69.4691 52.3237 69.4108C51.9633 69.373 51.6064 69.3216 51.253 69.2598C50.7863 69.1774 50.3299 69.0779 49.8769 68.9578C49.2661 68.7965 48.6655 68.5975 48.0856 68.3641M51.1176 70.0345C51.4862 70.0989 51.8609 70.1531 52.2411 70.1929M51.1176 70.0345L57.1181 69.9917M49.6753 69.718L49.8768 68.958L49.6761 69.7182C49.6759 69.7181 49.6756 69.7181 49.6753 69.718ZM49.6753 69.718C49.0342 69.5487 48.4036 69.3397 47.7939 69.0945M47.7939 69.0945C47.7945 69.0948 47.7952 69.095 47.7958 69.0952L48.0856 68.3641M47.7939 69.0945C46.3857 68.5361 45.072 67.7908 43.8814 66.8916C41.984 65.4586 40.4036 63.6298 39.2587 61.5309C37.9552 59.1434 37.2135 56.4062 37.2135 53.4983C37.2135 44.2272 44.7311 36.7135 54.0017 36.7135C63.2725 36.7135 70.7865 44.2275 70.7865 53.4983C70.7865 55.7491 70.3443 57.8981 69.538 59.8612C69.4627 60.0491 69.3817 60.2293 69.3007 60.402C67.2771 64.8877 63.3379 68.327 58.5179 69.6669C58.1761 69.7639 57.8258 69.8507 57.4702 69.9234C57.348 69.9492 57.2315 69.9711 57.1181 69.9917M47.7939 69.0945C47.7933 69.0943 47.7927 69.094 47.792 69.0937L48.0856 68.3641M48.0856 68.3641C46.7438 67.8322 45.4913 67.1219 44.3554 66.264L57.1181 69.9917M57.1181 69.9917C56.1043 70.1863 55.0606 70.283 54.0017 70.283C53.4101 70.283 52.8231 70.2544 52.2411 70.1929M52.2411 70.1929L52.3236 69.4109L52.2417 70.193C52.2415 70.1929 52.2413 70.1929 52.2411 70.1929Z" fill="#0F2847" stroke="#F2F2F2" strokeWidth="1.57293"/>
<path d="M58.3053 68.9091C56.9361 69.2935 55.4914 69.4959 54.0021 69.4959C53.0652 69.4959 52.1456 69.417 51.2533 69.2592C50.7866 69.1768 50.3302 69.0773 49.8773 68.9572C49.2664 68.7959 48.6659 68.5969 48.0859 68.3635L49.2218 56.9259L55.4159 55.464L57.8798 56.1949L58.3053 68.9091Z" fill="#A37B90"/>
<path d="M56.2056 53.4674C54.5824 53.1654 49.936 45.6913 49.936 45.6913C49.936 45.6913 47.6231 42.8396 48.2476 42.4621C48.8722 42.0881 49.4659 42.6612 49.4659 42.6612C49.4659 42.6612 51.5352 42.3351 53.4294 42.2596C53.6696 42.2494 53.9064 42.2425 54.1363 42.2425C54.833 42.2391 55.4644 42.2837 55.9002 42.4072C57.6194 42.8945 58.7725 45.7119 58.7725 45.7119C58.7725 45.7119 59.6338 45.6329 59.9976 46.8066C60.3647 47.9836 57.8257 53.7694 56.2056 53.4674Z" fill="black"/>
<path d="M56.1826 52.5352L56.2622 56.4712C56.2622 56.4712 55.5752 57.6171 53.2763 57.8508C51.5636 58.0248 50.9531 57.6493 50.9531 57.6493L51.1522 55.6511L51.3488 53.7023L55.4884 52.7037L56.1826 52.5352Z" fill="#F8CEC1"/>
<path d="M55.4843 52.7032C55.4764 52.811 55.4383 52.9387 55.3776 53.0855C54.5365 55.0694 52.1371 55.5422 51.1484 55.651L51.3451 53.7022L55.4843 52.7032Z" fill="black"/>
<path d="M50.292 44.748C50.292 44.748 48.326 49.725 49.1956 52.4507C50.0655 55.1761 52.5583 54.6535 54.04 54.0673C55.5218 53.4816 56.1855 52.5361 56.1855 52.5361C56.1855 52.5361 57.6045 52.9613 58.4953 51.6244C59.3865 50.2874 58.7558 48.8108 57.9428 48.4964C57.1302 48.1821 56.1989 48.7939 56.1989 48.7939L56.8941 47.3431C56.8941 47.3431 53.4972 40.2176 50.292 44.748Z" fill="#F8CEC1"/>
<path d="M50.292 44.748C50.292 44.748 51.8239 44.1317 52.4776 44.6718C53.1313 45.2119 53.9017 49.7746 56.1992 48.7939C58.4967 47.8131 57.308 44.8897 57.308 44.8897C57.308 44.8897 51.5298 39.9416 50.292 44.748Z" fill="black"/>
<path d="M51.1744 55.4669C51.1744 55.4669 50.6672 62.1967 49.8779 68.957C45.5987 67.8212 42.0263 64.9557 39.9502 61.1535C41.2199 59.822 43.2514 57.5949 45.005 56.8845C48.066 55.6423 51.1744 55.4669 51.1744 55.4669Z" fill="#40507F"/>
<path d="M52.6295 58.0243C51.7929 58.0243 51.1793 57.8939 51.1189 57.8805C51.0263 57.8599 50.9679 57.7686 50.9885 57.676C51.0091 57.5837 51.0997 57.5253 51.193 57.5452C51.2277 57.5528 54.6628 58.2799 56.4599 56.1709C56.522 56.0984 56.6301 56.0902 56.7018 56.1513C56.7739 56.2131 56.7825 56.3212 56.7214 56.3932C55.5711 57.7425 53.8591 58.0243 52.6295 58.0243Z" fill="#92B4EA"/>
<path d="M68.5858 60.0732C66.6572 64.3525 62.8996 67.6331 58.3046 68.9097C57.9786 69.0023 57.6457 69.0847 57.3094 69.1533C57.1962 69.1774 57.0864 69.1979 56.9731 69.2185C56.5099 63.9853 56.2422 54.8365 56.2422 54.8365C56.2422 54.8365 63.3697 54.9429 68.5858 60.0732Z" fill="#40507F"/>
<path d="M56.3748 50.9913C56.3319 50.9913 56.289 50.9752 56.2554 50.9429C56.1875 50.8774 56.1854 50.7686 56.2513 50.7003L57.4911 49.4165C57.5563 49.3486 57.6651 49.3469 57.7337 49.4124C57.8017 49.4779 57.8038 49.5867 57.7379 49.655L56.498 50.9388C56.4644 50.9738 56.4194 50.9913 56.3748 50.9913Z" fill="black"/>
<path d="M58.0523 50.6781C58.0378 50.6781 58.0234 50.6764 58.009 50.6723L56.9383 50.3926C56.8464 50.3689 56.7915 50.2749 56.8158 50.1836C56.8395 50.0913 56.9342 50.0353 57.0248 50.0611L58.0955 50.3408C58.1875 50.3644 58.2424 50.4585 58.218 50.5498C58.1981 50.6273 58.1288 50.6781 58.0523 50.6781Z" fill="black"/>
<path d="M49.9706 46.9866C49.9345 46.9866 49.8978 46.975 49.8669 46.9513C49.7928 46.894 49.777 46.7893 49.8326 46.7145C49.846 46.6966 50.1675 46.2776 50.9832 46.3923C51.0769 46.4056 51.1421 46.4928 51.1287 46.5865C51.115 46.6802 51.0251 46.7416 50.9345 46.732C50.3357 46.6459 50.1157 46.9101 50.1068 46.9214C50.0725 46.964 50.0213 46.9866 49.9706 46.9866Z" fill="black"/>
<path d="M53.6761 47.0331C53.6373 47.0331 53.5982 47.02 53.5662 46.9933C53.1373 46.6353 52.6479 46.7609 52.6277 46.7664C52.5371 46.7911 52.4424 46.7369 52.4177 46.6456C52.393 46.5544 52.4462 46.4607 52.5371 46.4356C52.5646 46.4281 53.2155 46.2541 53.7866 46.7297C53.8593 46.7904 53.8689 46.8985 53.8085 46.9713C53.7742 47.0118 53.7251 47.0331 53.6761 47.0331Z" fill="black"/>
<path d="M50.1328 48.9479C50.0243 48.9397 49.9536 48.8566 49.9615 48.7626L50.036 47.846C50.0435 47.7517 50.128 47.6827 50.2206 47.6889C50.315 47.6964 50.3853 47.7795 50.3778 47.8735L50.3033 48.7901C50.2965 48.88 50.2213 48.9479 50.1328 48.9479Z" fill="black"/>
<path d="M52.8413 49.0594C52.7328 49.0511 52.6621 48.9681 52.67 48.8741L52.7445 47.9578C52.7517 47.8635 52.8375 47.7959 52.9291 47.8007C53.0235 47.8082 53.0938 47.8913 53.0863 47.9853L53.0118 48.9015C53.0046 48.9914 52.9298 49.0594 52.8413 49.0594Z" fill="black"/>
<path d="M50.7887 51.1352C50.7232 51.1352 50.6607 51.0975 50.6322 51.0337C50.0571 49.7461 50.9195 48.7087 50.9565 48.6652C51.018 48.5934 51.1254 48.5842 51.1978 48.6456C51.2702 48.7067 51.2791 48.8148 51.2184 48.8872C51.1871 48.9239 50.46 49.8072 50.9452 50.8937C50.984 50.9801 50.9452 51.0817 50.8587 51.1201C50.8361 51.1304 50.8124 51.1352 50.7887 51.1352Z" fill="black"/>
<path d="M51.8615 51.959C51.7668 51.959 51.6899 51.8822 51.6899 51.7874C51.6899 51.6931 51.7665 51.6162 51.8608 51.6159C51.8849 51.6155 52.4549 51.6056 52.6601 51.1159C52.6968 51.0284 52.7963 50.9875 52.8845 51.0239C52.972 51.0603 53.0128 51.1608 52.9765 51.2483C52.6827 51.9511 51.8952 51.959 51.8615 51.959Z" fill="black"/>
<path d="M91.5019 66.3154C93.0065 65.0447 94.2843 63.5113 95.2636 61.7903C96.6572 59.3416 97.453 56.5107 97.453 53.4983C97.453 44.2274 89.9355 36.7135 80.6682 36.7135C71.3976 36.7135 63.88 44.2272 63.88 53.4983C63.88 56.6513 64.7515 59.6009 66.2636 62.1247L66.2642 62.1256C66.6707 62.802 67.1243 63.45 67.6214 64.0624L67.6219 64.063C67.7917 64.2718 67.9689 64.4818 68.156 64.6873C71.2261 68.1194 75.6974 70.283 80.6682 70.283C82.5432 70.283 84.3468 69.9735 86.0315 69.4083L86.0332 69.4077C88.0572 68.7235 89.9076 67.6649 91.5019 66.3154ZM91.5019 66.3154C91.5018 66.3155 91.5016 66.3156 91.5014 66.3158L90.994 65.7149M91.5019 66.3154C91.502 66.3153 91.5021 66.3152 91.5021 66.3152L90.994 65.7149M90.994 65.7149C92.4284 64.5035 93.6467 63.0417 94.5801 61.4013L85.7814 68.6627C87.7099 68.0107 89.4738 67.0018 90.994 65.7149Z" fill="#F5FE7D" stroke="#F2F2F2" strokeWidth="1.57293"/>
<path d="M76.5272 50.2925C76.5272 50.2925 72.8663 53.0536 72.5938 56.407C72.1813 61.482 77.9544 59.2618 78.5889 56.0264C79.2234 52.7907 76.5272 50.2925 76.5272 50.2925Z" fill="black"/>
<path d="M76.1994 49.9469C76.1994 49.9469 74.8782 48.487 75.2588 46.2249C75.5169 44.6913 76.1994 44.1948 76.1994 44.1948C76.1994 44.1948 75.16 42.1011 78.2546 42.2281C81.3493 42.3551 83.1701 43.8742 83.1701 43.8742C83.1701 43.8742 84.5846 43.1797 85.2191 44.8289C85.8536 46.4782 85.2191 48.9115 85.2191 48.9115L76.1994 49.9469Z" fill="black"/>
<path d="M90.9935 65.7157C89.4733 67.0025 87.7094 68.0114 85.7808 68.6634C84.1748 69.2022 82.4556 69.4973 80.6677 69.4973C77.4763 69.4973 74.501 68.5605 72.0028 66.9476C71.8655 66.8618 71.7317 66.7726 71.6013 66.68C70.5478 65.9593 69.5869 65.1117 68.7393 64.1611C68.5643 63.969 68.3962 63.7699 68.2314 63.5675L78.3582 56.2306C78.3651 56.2272 78.7494 55.9458 78.7494 55.9458L82.7267 56.2684L84.3773 56.4022L90.9935 65.7157Z" fill="#F7B369"/>
<path d="M78.7463 56.2025L68.7362 64.1605C68.5612 63.9683 68.393 63.7693 68.2283 63.5668C67.7547 62.9834 67.3223 62.3657 66.9346 61.7206C67.2434 61.4426 67.566 61.1647 67.8989 60.8867C72.487 57.0604 77.0236 56.3569 78.3551 56.23C78.6124 56.2059 78.7463 56.2025 78.7463 56.2025Z" fill="#F7B369"/>
<path d="M82.9943 52.4969L82.9185 56.5339C82.9185 56.5339 82.215 57.6729 80.0006 57.7944C78.3506 57.885 77.8462 56.9649 77.8462 56.9649L78.3115 53.4448L82.3217 52.6335L82.9943 52.4969Z" fill="#F8CEC1"/>
<path d="M94.5767 61.4012C93.6433 63.0415 92.425 64.5034 90.9906 65.7148C89.4704 67.0016 87.7065 68.0105 85.778 68.6625L88.3654 65.5089L82.7238 56.2675L82.6826 56.2023C82.6826 56.2023 83.3312 56.2263 84.3744 56.4013C86.7491 56.7959 91.1622 57.9661 94.5767 61.4012Z" fill="#F7B369"/>
<path d="M82.9981 52.2662C82.9861 52.3692 82.9436 52.49 82.879 52.6279C81.9865 54.4937 78.992 55.2044 78.0391 55.2658L78.3122 53.4059L82.9981 52.2662Z" fill="black"/>
<path d="M77.6777 44.774C77.6777 44.774 75.5761 49.4606 76.2916 52.1118C77.0071 54.7631 79.4202 54.3699 80.8663 53.8726C82.3124 53.3754 82.9902 52.4979 82.9902 52.4979C82.9902 52.4979 84.3323 52.9673 85.2448 51.7241C86.1572 50.4808 85.6167 49.0378 84.8511 48.7008C84.0855 48.3638 83.1659 48.9101 83.1659 48.9101L83.8954 47.5491C83.8954 47.5491 80.9477 40.5692 77.6777 44.774Z" fill="#F8CEC1"/>
<path d="M83.1705 48.9097C83.1705 48.9097 81.1466 49.318 79.7406 47.0659C78.3347 44.8137 78.4637 43.8885 78.4637 43.8885L77.0629 46.2138C77.0629 46.2138 76.7496 44.6016 77.3944 43.5738C78.0392 42.546 78.7087 42.7592 78.7087 42.7592L83.1712 43.8741L84.3462 47.4509L83.1705 48.9097Z" fill="black"/>
<path d="M77.8408 50.7776C77.7674 50.7776 77.6994 50.7299 77.6768 50.6564C77.3652 49.6389 78.0838 48.6088 78.114 48.5655C78.1689 48.488 78.2753 48.4705 78.3528 48.5247C78.4304 48.5792 78.4486 48.6867 78.394 48.7639C78.3878 48.7728 77.743 49.7014 78.0049 50.5559C78.0323 50.6465 77.9815 50.7426 77.8909 50.7704C77.8745 50.7752 77.8573 50.7776 77.8408 50.7776Z" fill="black"/>
<path d="M83.3641 51.1395C83.3215 51.1395 83.2793 51.1237 83.246 51.0922C83.177 51.027 83.1743 50.9185 83.2395 50.8499L84.5216 49.4985C84.5868 49.4292 84.6955 49.4271 84.7638 49.4923C84.8328 49.5572 84.8355 49.666 84.77 49.7346L83.4879 51.086C83.455 51.1217 83.4094 51.1395 83.3641 51.1395Z" fill="black"/>
<path d="M84.7167 50.7803C84.7081 50.7803 84.6988 50.7796 84.6902 50.7783L83.8066 50.642C83.7129 50.6276 83.6487 50.5398 83.6632 50.4464C83.6776 50.3527 83.7678 50.2899 83.8588 50.303L84.7424 50.4392C84.8361 50.4536 84.9003 50.5415 84.8859 50.6348C84.8728 50.7196 84.7997 50.7803 84.7167 50.7803Z" fill="black"/>
<path d="M79.5337 52.1244C79.0879 52.1244 78.5821 51.8234 78.509 51.7781C78.4565 51.7455 78.4253 51.6875 78.4273 51.6261C78.4297 51.5643 78.4647 51.5084 78.5193 51.4799L79.9438 50.7359C79.9887 50.7122 80.0419 50.7095 80.09 50.7297C80.137 50.7496 80.1727 50.7894 80.1874 50.8382C80.197 50.8708 80.4211 51.6357 79.9458 51.9994C79.8281 52.09 79.6843 52.1244 79.5337 52.1244ZM78.9702 51.6312C79.2417 51.7517 79.5804 51.8471 79.7372 51.7273C79.9102 51.5945 79.918 51.333 79.8978 51.147L78.9702 51.6312Z" fill="black"/>
<path d="M76.9338 46.9232C76.8521 46.9232 76.7797 46.8646 76.7653 46.7812C76.7488 46.6878 76.8116 46.599 76.9046 46.5828L77.7406 46.4377C77.8346 46.4181 77.9228 46.4837 77.9389 46.577C77.9554 46.6703 77.8926 46.7592 77.7996 46.7753L76.9637 46.9205C76.9537 46.9226 76.9438 46.9232 76.9338 46.9232Z" fill="black"/>
<path d="M80.4068 47.472C80.3807 47.472 80.3543 47.4659 80.3293 47.4535L78.9587 46.7596C78.8739 46.7167 78.8399 46.6135 78.8828 46.529C78.9257 46.4443 79.0297 46.411 79.1134 46.4532L80.484 47.1474C80.5688 47.1903 80.6028 47.2936 80.5599 47.378C80.53 47.4377 80.4693 47.472 80.4068 47.472Z" fill="black"/>
<path d="M85.7224 50.2925C85.7224 50.2925 88.641 52.8226 88.2288 56.9461C87.8163 61.0695 83.7275 60.5404 82.8686 59.0356C81.5677 56.756 82.9901 52.498 82.9901 52.498C82.9901 52.498 85.4972 52.9177 85.7224 50.2925Z" fill="black"/>
<path d="M76.9341 48.8549C76.9172 48.8549 76.9004 48.8525 76.884 48.8473C76.793 48.8195 76.7426 48.7238 76.7704 48.6332L77.0044 47.8714L76.8016 47.6229C76.7415 47.5495 76.7522 47.4417 76.8256 47.3817C76.8987 47.3216 77.0071 47.3322 77.0669 47.4057L77.328 47.7252C77.3644 47.7698 77.3764 47.8295 77.3592 47.8841L77.0981 48.7337C77.0758 48.8079 77.0075 48.8549 76.9341 48.8549Z" fill="black"/>
<path d="M79.4924 49.0835C79.4756 49.0835 79.4588 49.0811 79.4419 49.076C79.351 49.0485 79.3006 48.9524 79.3284 48.8618L79.5614 48.1024L79.2625 47.7534C79.2007 47.6813 79.2093 47.5732 79.2813 47.5115C79.3531 47.45 79.4619 47.4583 79.5233 47.5304L79.8836 47.9511C79.9217 47.9957 79.9344 48.0571 79.9172 48.113L79.6564 48.9627C79.6338 49.0358 79.5655 49.0835 79.4924 49.0835Z" fill="black"/>
<path d="M79.9724 57.876C78.5119 57.876 77.6468 57.0796 77.6341 57.0679C77.5654 57.003 77.5624 56.8946 77.6276 56.8256C77.6924 56.757 77.8009 56.7539 77.8698 56.8181C77.9388 56.8829 79.5778 58.3743 82.239 56.8805C82.3224 56.8335 82.4267 56.8634 82.4727 56.9457C82.5194 57.0284 82.4898 57.1331 82.4075 57.1794C81.4813 57.699 80.6608 57.876 79.9724 57.876Z" fill="#F2F2F2"/>
<path d="M73.4528 61.3847C73.3498 61.4705 71.1845 63.4025 72.0012 66.9474C71.8639 66.8616 71.7301 66.7724 71.5997 66.6797C70.958 63.1314 73.2023 61.1445 73.2297 61.1239C73.3018 61.0621 73.4082 61.069 73.4699 61.1411C73.5321 61.2131 73.5248 61.323 73.4528 61.3847Z" fill="#F2F2F2"/>
<path d="M114.403 68.7281C112.915 69.421 111.307 69.9005 109.624 70.1334L109.616 70.1371L109.482 70.1536C108.782 70.2397 108.06 70.2865 107.333 70.2865C102.633 70.2865 98.384 68.3532 95.339 65.245L95.3384 65.2443C95.2948 65.2008 95.2391 65.145 95.1845 65.0869C95.1388 65.0408 95.0966 64.9945 95.0556 64.9462C93.3668 63.1382 92.0756 60.9544 91.3143 58.5339C90.8131 56.9438 90.547 55.2512 90.547 53.5C90.547 44.2282 98.0617 36.7135 107.333 36.7135C116.605 36.7135 124.12 44.2282 124.12 53.5C124.12 56.2528 123.458 58.8498 122.28 61.1444C122.014 61.6659 121.719 62.1737 121.394 62.6641C121.263 62.8687 121.125 63.0638 120.998 63.2441L120.994 63.2499L120.994 63.2499L120.991 63.254C119.397 65.4894 117.265 67.3187 114.783 68.5472L114.783 68.5472L114.778 68.5498L114.774 68.5517C114.657 68.6084 114.531 68.6697 114.403 68.7281ZM109.413 70.1561H109.403C109.396 70.1561 109.401 70.1563 109.413 70.1561Z" fill="#7798EC" stroke="#F2F2F2" strokeWidth="1.57293"/>
<path d="M95.6434 64.424C95.6777 64.4652 95.712 64.503 95.7498 64.5407C95.7978 64.5922 95.8493 64.6437 95.8974 64.6917C98.8008 67.657 102.851 69.5 107.333 69.5C108.026 69.5 108.716 69.4554 109.385 69.373C109.392 69.3696 109.395 69.3696 109.402 69.3696C111.05 69.1533 112.622 68.69 114.073 68.0139C113.936 62.2173 113.994 57.1448 113.994 57.0487C113.939 56.9285 111.256 56.2387 107.683 56.122C102.061 55.9436 97.3113 59.1147 95.6434 64.424Z" fill="#68B6D8"/>
<path d="M109.386 69.373C109.393 69.3696 109.397 69.3696 109.403 69.3696C111.051 69.1533 112.623 68.69 114.074 68.0139C114.195 67.959 114.315 67.9007 114.435 67.8423C116.799 66.672 118.831 64.9286 120.352 62.7973C117.27 58.5725 114.751 57.3404 113.995 57.0487C113.841 56.9869 113.762 56.9663 113.762 56.9663L109.386 69.373Z" fill="#68B6D8"/>
<path d="M106.967 46.8098C106.967 46.8098 103.338 47.0744 103.045 43.5943C102.733 39.8891 106.157 39.4478 107.652 40.9112C109.148 42.3749 108.916 43.9073 108.916 43.9073C108.916 43.9073 109.909 42.9659 111.046 44.0631C111.88 44.8683 111.494 46.2287 111.494 46.2287C111.494 46.2287 113.367 46.1096 113.233 47.7508C113.099 49.392 111.949 50.2521 111.949 50.2521L106.967 46.8098Z" fill="black"/>
<path d="M110.451 53.1436L110.17 57.0145C110.17 57.0145 109.391 58.0767 107.113 58.0963C105.416 58.111 104.851 57.6865 104.851 57.6865L105.228 55.743L105.599 53.8478L109.753 53.2451L110.451 53.1436Z" fill="#F8CEC1"/>
<path d="M109.755 53.2455C109.738 53.3505 109.689 53.4723 109.616 53.6106C108.609 55.4814 106.211 55.7265 105.23 55.743L105.601 53.8478L109.755 53.2455Z" fill="black"/>
<path d="M105.373 44.962C105.373 44.962 102.988 49.6679 103.593 52.4224C104.198 55.1773 106.693 54.8914 108.201 54.4514C109.709 54.0118 110.447 53.1442 110.447 53.1442C110.447 53.1442 111.801 53.6913 112.798 52.4599C113.794 51.2288 113.31 49.7218 112.541 49.3391C111.772 48.9561 110.802 49.472 110.802 49.472L111.617 48.1112C111.617 48.1112 108.932 40.8075 105.373 44.962Z" fill="#F8CEC1"/>
<path d="M110.809 51.5896C110.84 51.5896 110.871 51.5817 110.899 51.5642L112.408 50.6373C112.489 50.5875 112.514 50.4821 112.465 50.4011C112.415 50.3205 112.309 50.2947 112.228 50.3449L110.719 51.2718C110.639 51.3216 110.613 51.427 110.663 51.508C110.695 51.5605 110.752 51.5896 110.809 51.5896Z" fill="black"/>
<path d="M112.06 51.6919C112.124 51.6919 112.184 51.6565 112.214 51.5961C112.256 51.511 112.221 51.408 112.136 51.3662L111.346 50.9787C111.261 50.9375 111.159 50.9725 111.117 51.0573C111.075 51.1424 111.11 51.2454 111.195 51.2872L111.985 51.6747C112.009 51.6864 112.035 51.6919 112.06 51.6919Z" fill="black"/>
<path d="M104.742 46.8017C104.776 46.8017 104.811 46.7914 104.841 46.7698C105.264 46.4698 105.665 46.7344 105.682 46.7461C105.761 46.7983 105.867 46.7787 105.92 46.7008C105.973 46.6229 105.954 46.5169 105.877 46.4633C105.852 46.4462 105.264 46.0487 104.642 46.4904C104.565 46.545 104.547 46.6524 104.602 46.7296C104.636 46.7767 104.688 46.8017 104.742 46.8017Z" fill="black"/>
<path d="M105.366 51.1854C105.379 51.1854 105.391 51.184 105.404 51.1812C105.496 51.1606 105.555 51.0694 105.534 50.9767C105.219 49.5438 106.031 48.5863 106.039 48.5767C106.101 48.5053 106.093 48.3969 106.022 48.3347C105.95 48.2726 105.842 48.2805 105.78 48.3522C105.742 48.3962 104.847 49.4515 105.199 51.0505C105.217 51.1308 105.288 51.1854 105.366 51.1854Z" fill="black"/>
<path d="M104.794 49.0814C104.888 49.0814 104.964 49.0066 104.966 48.9129L104.982 47.99C104.984 47.8953 104.908 47.817 104.813 47.8153C104.714 47.8259 104.64 47.8891 104.639 47.9838L104.623 48.9063C104.621 49.0011 104.696 49.0793 104.791 49.081C104.792 49.0814 104.793 49.0814 104.794 49.0814Z" fill="black"/>
<path d="M107.336 49.2597C107.429 49.2597 107.506 49.1849 107.507 49.0912L107.523 48.1686C107.525 48.0739 107.45 47.9957 107.355 47.994C107.267 47.9833 107.182 48.0677 107.18 48.1625L107.164 49.085C107.162 49.1797 107.238 49.258 107.333 49.2597C107.334 49.2597 107.335 49.2597 107.336 49.2597Z" fill="black"/>
<path d="M104.89 46.0262C104.89 46.0262 105.367 45.2788 106.333 45.3423C107.3 45.4057 107.814 46.1268 107.814 46.1268C107.814 46.1268 107.272 47.722 108.523 48.6812C109.773 49.6405 110.807 49.4727 110.807 49.4727L111.784 49.2022L112.583 47.8613L110.044 44.6919L106.614 42.5507L104.677 44.0686L104.89 46.0262Z" fill="black"/>
<path d="M106.156 52.1551C106.479 52.1551 107.091 52.0634 107.447 51.4292C107.494 51.3468 107.464 51.2422 107.382 51.1955C107.299 51.1495 107.195 51.1787 107.148 51.2614C106.778 51.9196 106.031 51.8067 105.999 51.8016C105.906 51.7844 105.817 51.8496 105.802 51.9426C105.787 52.036 105.849 52.1242 105.942 52.14C105.953 52.142 106.034 52.1551 106.156 52.1551Z" fill="black"/>
<path d="M103.778 50.4981C103.791 50.4981 103.805 50.498 103.819 50.4977C104.728 50.4751 105.448 49.6946 105.424 48.7587C105.413 48.3064 105.231 47.8846 104.914 47.5719C104.594 47.2579 104.175 47.089 103.734 47.1017C102.825 47.1244 102.104 47.9048 102.128 48.8411C102.139 49.2934 102.321 49.7149 102.639 50.0275C102.948 50.3316 103.351 50.4981 103.778 50.4981ZM103.774 47.4443C104.11 47.4443 104.428 47.5757 104.673 47.8163C104.927 48.0661 105.072 48.4038 105.081 48.7673C105.1 49.5141 104.53 50.1363 103.81 50.1545C103.46 50.1672 103.132 50.0313 102.88 49.7828C102.625 49.533 102.481 49.1953 102.472 48.8322C102.453 48.085 103.023 47.4628 103.743 47.4446C103.753 47.4443 103.763 47.4443 103.774 47.4443Z" fill="#707070"/>
<path d="M107.691 50.7777C107.706 50.7777 107.72 50.7777 107.734 50.7773C108.188 50.766 108.61 50.5786 108.923 50.2498C109.235 49.9214 109.401 49.4903 109.39 49.037C109.379 48.5836 109.191 48.1611 108.863 47.8484C108.534 47.5358 108.101 47.3721 107.649 47.3814C106.713 47.4047 105.97 48.1858 105.994 49.1221C106.017 50.0439 106.775 50.7777 107.691 50.7777ZM107.693 47.7242C108.042 47.7242 108.372 47.856 108.626 48.0973C108.888 48.3471 109.038 48.6838 109.047 49.0459C109.056 49.4076 108.924 49.7515 108.674 50.0137C108.425 50.2759 108.088 50.4252 107.726 50.4345C106.982 50.4516 106.356 49.8606 106.337 49.1135C106.318 48.3663 106.911 47.7434 107.658 47.7246C107.67 47.7242 107.681 47.7242 107.693 47.7242Z" fill="#707070"/>
<path d="M106.326 49.1083C106.417 49.1083 106.492 49.0376 106.497 48.9463C106.503 48.852 106.43 48.7706 106.336 48.7655L105.14 48.6979C105.048 48.6859 104.964 48.7648 104.959 48.8595C104.953 48.9539 105.026 49.0352 105.12 49.0404L106.316 49.108C106.32 49.1083 106.323 49.1083 106.326 49.1083Z" fill="#707070"/>
<path d="M109.222 49.4374C109.25 49.4374 109.278 49.4306 109.303 49.4165C109.319 49.4079 110.905 48.5616 111.657 49.3225C111.724 49.3897 111.832 49.3904 111.9 49.3238C111.967 49.2573 111.968 49.1485 111.901 49.0812C110.968 48.1374 109.214 49.075 109.139 49.1152C109.056 49.1605 109.025 49.2645 109.07 49.3479C109.102 49.4048 109.161 49.4374 109.222 49.4374Z" fill="#707070"/>
<path d="M106.965 58.3484C107.956 58.3484 109.192 58.0745 110.547 57.153C110.626 57.0998 110.646 56.9931 110.593 56.9148C110.539 56.8366 110.432 56.8163 110.354 56.8695C107.224 58.9984 104.868 57.534 104.77 57.4708C104.69 57.4193 104.584 57.4423 104.532 57.5219C104.481 57.6012 104.504 57.7076 104.584 57.7588C104.599 57.7687 105.523 58.3484 106.965 58.3484Z" fill="#F2F2F2"/>
<path d="M108.482 47.2561C108.515 47.2561 108.548 47.2472 108.577 47.2276C108.656 47.1755 108.678 47.0687 108.625 46.9898C108.144 46.2626 107.424 46.3384 107.111 46.4788C107.025 46.5176 106.986 46.6195 107.025 46.7056C107.064 46.7918 107.165 46.8299 107.251 46.7921C107.279 46.7794 107.902 46.5179 108.339 47.1796C108.372 47.229 108.427 47.2561 108.482 47.2561Z" fill="black"/>
</g>
<rect x="2.65625" y="3.15625" width="297.688" height="154.688" rx="77.3438" stroke="white" strokeWidth="4.6875"/>
<defs>
<clipPath id="clip0_885_19122">
<rect x="5" y="5.5" width="293" height="150" rx="75" fill="white"/>
</clipPath>
</defs>
</svg>
