<svg width="303" height="160" viewBox="0 0 303 160" fill="none" xmlns="http://www.w3.org/2000/svg">
<rect x="2.65625" y="2.65625" width="297.688" height="154.688" rx="77.3438" fill="white"/>
<rect x="2.65625" y="2.65625" width="297.688" height="154.688" rx="77.3438" stroke="white" stroke-width="4.6875"/>
<rect x="148" y="5" width="150" height="150" rx="75" fill="#8E94E9"/>
<path d="M251.157 106.843L247.065 61.1023C246.991 60.1971 246.226 59.511 245.299 59.511H236.673C236.658 51.9046 230.417 45.7144 222.749 45.7144C215.08 45.7144 208.839 51.9046 208.824 59.511H200.199C199.286 59.511 198.521 60.1971 198.433 61.1023L194.341 106.843C194.341 106.901 194.341 106.945 194.341 107.003C194.341 112.099 199.065 116.245 204.865 116.245H240.633C246.432 116.245 251.157 112.099 251.157 107.003C251.157 106.945 251.157 106.901 251.157 106.843ZM222.749 49.2183C228.475 49.2183 233.126 53.8317 233.141 59.511H212.357C212.372 53.8317 217.023 49.2183 222.749 49.2183ZM240.633 112.726H204.865C201.038 112.726 197.917 110.201 197.873 107.062L201.818 63.0149H208.824V69.1613C208.824 70.1249 209.619 70.9132 210.591 70.9132C211.562 70.9132 212.357 70.1249 212.357 69.1613V63.0149H233.141V69.1613C233.141 70.1249 233.935 70.9132 234.907 70.9132C235.878 70.9132 236.673 70.1249 236.673 69.1613V63.0149H243.68L247.624 107.076C247.58 110.201 244.46 112.726 240.633 112.726Z" fill="white"/>
<path d="M244.384 62.5H200.884L196.884 110.5L198.884 113.5H244.384C245.184 113.5 248.051 108.667 248.384 107L244.384 62.5Z" fill="white"/>
<path d="M42.712 91.8V87.048H37.96V84.552H42.712V79.8H45.208V84.552H49.96V87.048H45.208V91.8H42.712ZM52.3619 93V81H54.8579V82.272C55.2739 81.776 55.7819 81.384 56.3819 81.096C56.9899 80.808 57.6459 80.664 58.3499 80.664C59.2059 80.664 59.9939 80.872 60.7139 81.288C61.4339 81.696 62.0059 82.24 62.4299 82.92C62.8539 82.24 63.4179 81.696 64.1219 81.288C64.8339 80.872 65.6179 80.664 66.4739 80.664C67.3619 80.664 68.1699 80.88 68.8979 81.312C69.6259 81.744 70.2059 82.324 70.6379 83.052C71.0699 83.78 71.2859 84.588 71.2859 85.476V93H68.7899V86.112C68.7899 85.584 68.6619 85.1 68.4059 84.66C68.1499 84.22 67.8059 83.864 67.3739 83.592C66.9419 83.32 66.4619 83.184 65.9339 83.184C65.4059 83.184 64.9259 83.312 64.4939 83.568C64.0619 83.824 63.7179 84.172 63.4619 84.612C63.2059 85.052 63.0779 85.552 63.0779 86.112V93H60.5819V86.112C60.5819 85.552 60.4539 85.052 60.1979 84.612C59.9419 84.172 59.5939 83.824 59.1539 83.568C58.7219 83.312 58.2419 83.184 57.7139 83.184C57.1939 83.184 56.7139 83.32 56.2739 83.592C55.8419 83.864 55.4979 84.22 55.2419 84.66C54.9859 85.1 54.8579 85.584 54.8579 86.112V93H52.3619ZM78.7356 93.312C77.6316 93.312 76.6236 93.028 75.7116 92.46C74.8076 91.892 74.0836 91.132 73.5396 90.18C73.0036 89.22 72.7356 88.16 72.7356 87C72.7356 86.12 72.8916 85.3 73.2036 84.54C73.5156 83.772 73.9436 83.1 74.4876 82.524C75.0396 81.94 75.6796 81.484 76.4076 81.156C77.1356 80.828 77.9116 80.664 78.7356 80.664C79.8396 80.664 80.8436 80.948 81.7476 81.516C82.6596 82.084 83.3836 82.848 83.9196 83.808C84.4636 84.768 84.7356 85.832 84.7356 87C84.7356 87.872 84.5796 88.688 84.2676 89.448C83.9556 90.208 83.5236 90.88 82.9716 91.464C82.4276 92.04 81.7916 92.492 81.0636 92.82C80.3436 93.148 79.5676 93.312 78.7356 93.312ZM78.7356 90.816C79.3996 90.816 79.9956 90.64 80.5236 90.288C81.0516 89.936 81.4676 89.472 81.7716 88.896C82.0836 88.312 82.2396 87.68 82.2396 87C82.2396 86.304 82.0796 85.664 81.7596 85.08C81.4476 84.496 81.0276 84.032 80.4996 83.688C79.9716 83.336 79.3836 83.16 78.7356 83.16C78.0796 83.16 77.4836 83.336 76.9476 83.688C76.4196 84.04 75.9996 84.508 75.6876 85.092C75.3836 85.676 75.2316 86.312 75.2316 87C75.2316 87.712 75.3916 88.356 75.7116 88.932C76.0316 89.508 76.4556 89.968 76.9836 90.312C77.5196 90.648 78.1036 90.816 78.7356 90.816ZM86.6744 93V81H89.1704V82.272C89.5864 81.776 90.0984 81.384 90.7064 81.096C91.3144 80.808 91.9704 80.664 92.6744 80.664C93.1224 80.664 93.5664 80.724 94.0064 80.844L93.0104 83.364C92.6984 83.244 92.3864 83.184 92.0744 83.184C91.5464 83.184 91.0624 83.316 90.6224 83.58C90.1824 83.836 89.8304 84.184 89.5664 84.624C89.3024 85.064 89.1704 85.552 89.1704 86.088V93H86.6744ZM100.111 93.312C99.0066 93.312 97.9986 93.028 97.0866 92.46C96.1826 91.892 95.4586 91.132 94.9146 90.18C94.3786 89.22 94.1106 88.16 94.1106 87C94.1106 86.12 94.2666 85.3 94.5786 84.54C94.8906 83.772 95.3186 83.1 95.8626 82.524C96.4146 81.94 97.0546 81.484 97.7826 81.156C98.5106 80.828 99.2866 80.664 100.111 80.664C101.031 80.664 101.875 80.856 102.643 81.24C103.411 81.616 104.067 82.14 104.611 82.812C105.155 83.476 105.555 84.244 105.811 85.116C106.067 85.98 106.143 86.9 106.039 87.876H96.7866C96.8906 88.428 97.0906 88.928 97.3866 89.376C97.6906 89.816 98.0746 90.164 98.5386 90.42C99.0106 90.676 99.5346 90.808 100.111 90.816C100.719 90.816 101.271 90.664 101.767 90.36C102.271 90.056 102.683 89.636 103.003 89.1L105.535 89.688C105.055 90.752 104.331 91.624 103.363 92.304C102.395 92.976 101.311 93.312 100.111 93.312ZM96.7026 85.968H103.519C103.439 85.392 103.235 84.872 102.907 84.408C102.587 83.936 102.183 83.564 101.695 83.292C101.215 83.012 100.687 82.872 100.111 82.872C99.5426 82.872 99.0146 83.008 98.5266 83.28C98.0466 83.552 97.6466 83.924 97.3266 84.396C97.0146 84.86 96.8066 85.384 96.7026 85.968ZM41.524 104.276V107H44.908V109.496H41.524V119H39.028V109.496H37.6V107H39.028V104.276C39.028 103.62 39.188 103.024 39.508 102.488C39.828 101.944 40.256 101.512 40.792 101.192C41.336 100.872 41.94 100.712 42.604 100.712C43.084 100.712 43.552 100.808 44.008 101C44.464 101.192 44.872 101.488 45.232 101.888L43.444 103.652C43.356 103.508 43.232 103.4 43.072 103.328C42.92 103.248 42.764 103.208 42.604 103.208C42.308 103.208 42.052 103.312 41.836 103.52C41.628 103.728 41.524 103.98 41.524 104.276ZM47.1119 119V107H49.6079V108.272C50.0239 107.776 50.5359 107.384 51.1439 107.096C51.7519 106.808 52.4079 106.664 53.1119 106.664C53.5599 106.664 54.0039 106.724 54.4439 106.844L53.4479 109.364C53.1359 109.244 52.8239 109.184 52.5119 109.184C51.9839 109.184 51.4999 109.316 51.0599 109.58C50.6199 109.836 50.2679 110.184 50.0039 110.624C49.7399 111.064 49.6079 111.552 49.6079 112.088V119H47.1119ZM55.8306 107H58.3266V119H55.8306V107ZM57.1026 105.26C56.7186 105.26 56.3986 105.136 56.1426 104.888C55.8866 104.64 55.7586 104.328 55.7586 103.952C55.7586 103.584 55.8866 103.276 56.1426 103.028C56.3986 102.772 56.7146 102.644 57.0906 102.644C57.4586 102.644 57.7706 102.772 58.0266 103.028C58.2826 103.276 58.4106 103.584 58.4106 103.952C58.4106 104.328 58.2826 104.64 58.0266 104.888C57.7786 105.136 57.4706 105.26 57.1026 105.26ZM66.2669 119.312C65.1629 119.312 64.1549 119.028 63.2429 118.46C62.3389 117.892 61.6149 117.132 61.0709 116.18C60.5349 115.22 60.2669 114.16 60.2669 113C60.2669 112.12 60.4229 111.3 60.7349 110.54C61.0469 109.772 61.4749 109.1 62.0189 108.524C62.5709 107.94 63.2109 107.484 63.9389 107.156C64.6669 106.828 65.4429 106.664 66.2669 106.664C67.1869 106.664 68.0309 106.856 68.7989 107.24C69.5669 107.616 70.2229 108.14 70.7669 108.812C71.3109 109.476 71.7109 110.244 71.9669 111.116C72.2229 111.98 72.2989 112.9 72.1949 113.876H62.9429C63.0469 114.428 63.2469 114.928 63.5429 115.376C63.8469 115.816 64.2309 116.164 64.6949 116.42C65.1669 116.676 65.6909 116.808 66.2669 116.816C66.8749 116.816 67.4269 116.664 67.9229 116.36C68.4269 116.056 68.8389 115.636 69.1589 115.1L71.6909 115.688C71.2109 116.752 70.4869 117.624 69.5189 118.304C68.5509 118.976 67.4669 119.312 66.2669 119.312ZM62.8589 111.968H69.6749C69.5949 111.392 69.3909 110.872 69.0629 110.408C68.7429 109.936 68.3389 109.564 67.8509 109.292C67.3709 109.012 66.8429 108.872 66.2669 108.872C65.6989 108.872 65.1709 109.008 64.6829 109.28C64.2029 109.552 63.8029 109.924 63.4829 110.396C63.1709 110.86 62.9629 111.384 62.8589 111.968ZM84.9822 111.476V119H82.4862V112.088C82.4862 111.552 82.3542 111.064 82.0902 110.624C81.8342 110.184 81.4862 109.836 81.0462 109.58C80.6142 109.316 80.1262 109.184 79.5822 109.184C79.0542 109.184 78.5702 109.316 78.1302 109.58C77.6902 109.836 77.3382 110.184 77.0742 110.624C76.8102 111.064 76.6782 111.552 76.6782 112.088V119H74.1822V107H76.6782V108.272C77.0942 107.776 77.6062 107.384 78.2142 107.096C78.8222 106.808 79.4782 106.664 80.1822 106.664C81.0702 106.664 81.8782 106.88 82.6062 107.312C83.3342 107.744 83.9102 108.324 84.3342 109.052C84.7662 109.78 84.9822 110.588 84.9822 111.476ZM96.4911 101H98.9871V119H96.4911V117.236C96.0991 117.86 95.5871 118.364 94.9551 118.748C94.3231 119.124 93.5831 119.312 92.7351 119.312C91.8631 119.312 91.0471 119.148 90.2871 118.82C89.5271 118.492 88.8551 118.04 88.2711 117.464C87.6951 116.88 87.2431 116.208 86.9151 115.448C86.5871 114.688 86.4231 113.872 86.4231 113C86.4231 112.128 86.5871 111.312 86.9151 110.552C87.2431 109.784 87.6951 109.112 88.2711 108.536C88.8551 107.952 89.5271 107.496 90.2871 107.168C91.0471 106.84 91.8631 106.676 92.7351 106.676C93.5831 106.676 94.3231 106.868 94.9551 107.252C95.5871 107.628 96.0991 108.124 96.4911 108.74V101ZM92.7591 116.9C93.4631 116.9 94.0791 116.728 94.6071 116.384C95.1351 116.032 95.5431 115.56 95.8311 114.968C96.1271 114.376 96.2751 113.72 96.2751 113C96.2751 112.272 96.1271 111.612 95.8311 111.02C95.5351 110.428 95.1231 109.96 94.5951 109.616C94.0751 109.264 93.4631 109.088 92.7591 109.088C92.0631 109.088 91.4271 109.264 90.8511 109.616C90.2831 109.968 89.8271 110.44 89.4831 111.032C89.1471 111.624 88.9791 112.28 88.9791 113C88.9791 113.728 89.1511 114.388 89.4951 114.98C89.8471 115.564 90.3071 116.032 90.8751 116.384C91.4511 116.728 92.0791 116.9 92.7591 116.9Z" fill="#656DE1"/>
<path d="M51.1176 69.5345L51.1163 69.5343C50.6291 69.4483 50.151 69.3441 49.6753 69.218M51.1176 69.5345L56.9735 68.7186C56.0092 68.9039 55.0141 68.9966 54.0017 68.9966C53.4355 68.9966 52.8761 68.9691 52.3237 68.9108C51.9633 68.873 51.6064 68.8216 51.253 68.7598C50.7863 68.6774 50.3299 68.5779 49.8769 68.4578C49.2661 68.2965 48.6655 68.0975 48.0856 67.8641M51.1176 69.5345C51.4862 69.5989 51.8609 69.6531 52.2411 69.6929M51.1176 69.5345L57.1181 69.4917M49.6753 69.218L49.8768 68.458L49.6761 69.2182C49.6759 69.2181 49.6756 69.2181 49.6753 69.218ZM49.6753 69.218C49.0342 69.0487 48.4036 68.8397 47.7939 68.5945M47.7939 68.5945C47.7945 68.5948 47.7952 68.595 47.7958 68.5952L48.0856 67.8641M47.7939 68.5945C46.3857 68.0361 45.072 67.2908 43.8814 66.3916C41.984 64.9586 40.4036 63.1298 39.2587 61.0309C37.9552 58.6434 37.2135 55.9062 37.2135 52.9983C37.2135 43.7272 44.7311 36.2135 54.0017 36.2135C63.2725 36.2135 70.7865 43.7275 70.7865 52.9983C70.7865 55.2491 70.3443 57.3981 69.538 59.3612C69.4627 59.5491 69.3817 59.7293 69.3007 59.902C67.2771 64.3877 63.3379 67.827 58.5179 69.1669C58.1761 69.2639 57.8258 69.3507 57.4702 69.4234C57.348 69.4492 57.2315 69.4711 57.1181 69.4917M47.7939 68.5945C47.7933 68.5943 47.7927 68.594 47.792 68.5937L48.0856 67.8641M48.0856 67.8641C46.7438 67.3322 45.4913 66.6219 44.3554 65.764L57.1181 69.4917M57.1181 69.4917C56.1043 69.6863 55.0606 69.783 54.0017 69.783C53.4101 69.783 52.8231 69.7544 52.2411 69.6929M52.2411 69.6929L52.3236 68.9109L52.2417 69.693C52.2415 69.6929 52.2413 69.6929 52.2411 69.6929Z" fill="#0F2847" stroke="#F2F2F2" stroke-width="1.57293"/>
<path d="M58.3053 68.4091C56.9361 68.7935 55.4914 68.9959 54.0021 68.9959C53.0652 68.9959 52.1456 68.917 51.2533 68.7592C50.7866 68.6768 50.3302 68.5773 49.8773 68.4572C49.2664 68.2959 48.6659 68.0969 48.0859 67.8635L49.2218 56.4259L55.4159 54.964L57.8798 55.6949L58.3053 68.4091Z" fill="#A37B90"/>
<path d="M56.2056 52.9674C54.5824 52.6654 49.936 45.1913 49.936 45.1913C49.936 45.1913 47.6231 42.3396 48.2476 41.9621C48.8722 41.5881 49.4659 42.1612 49.4659 42.1612C49.4659 42.1612 51.5352 41.8351 53.4294 41.7596C53.6696 41.7494 53.9064 41.7425 54.1363 41.7425C54.833 41.7391 55.4644 41.7837 55.9002 41.9072C57.6194 42.3945 58.7725 45.2119 58.7725 45.2119C58.7725 45.2119 59.6338 45.1329 59.9976 46.3066C60.3647 47.4836 57.8257 53.2694 56.2056 52.9674Z" fill="black"/>
<path d="M56.1826 52.0352L56.2622 55.9712C56.2622 55.9712 55.5752 57.1171 53.2763 57.3508C51.5636 57.5248 50.9531 57.1493 50.9531 57.1493L51.1522 55.1511L51.3488 53.2023L55.4884 52.2037L56.1826 52.0352Z" fill="#F8CEC1"/>
<path d="M55.4843 52.2032C55.4764 52.311 55.4383 52.4387 55.3776 52.5855C54.5365 54.5694 52.1371 55.0422 51.1484 55.151L51.3451 53.2022L55.4843 52.2032Z" fill="black"/>
<path d="M50.292 44.248C50.292 44.248 48.326 49.225 49.1956 51.9507C50.0655 54.6761 52.5583 54.1535 54.04 53.5673C55.5218 52.9816 56.1855 52.0361 56.1855 52.0361C56.1855 52.0361 57.6045 52.4613 58.4953 51.1244C59.3865 49.7874 58.7558 48.3108 57.9428 47.9964C57.1302 47.6821 56.1989 48.2939 56.1989 48.2939L56.8941 46.8431C56.8941 46.8431 53.4972 39.7176 50.292 44.248Z" fill="#F8CEC1"/>
<path d="M50.2917 44.248C50.2917 44.248 51.8236 43.6317 52.4774 44.1718C53.1311 44.7119 53.9015 49.2746 56.199 48.2939C58.4964 47.3131 57.3077 44.3897 57.3077 44.3897C57.3077 44.3897 51.5295 39.4416 50.2917 44.248Z" fill="black"/>
<path d="M51.1745 54.9669C51.1745 54.9669 50.6673 61.6967 49.878 68.457C45.5988 67.3212 42.0265 64.4557 39.9503 60.6535C41.22 59.322 43.2516 57.0949 45.0051 56.3845C48.0661 55.1423 51.1745 54.9669 51.1745 54.9669Z" fill="#40507F"/>
<path d="M52.6295 57.5243C51.7929 57.5243 51.1793 57.3939 51.1189 57.3805C51.0263 57.3599 50.9679 57.2686 50.9885 57.176C51.0091 57.0837 51.0997 57.0253 51.193 57.0452C51.2277 57.0528 54.6628 57.7799 56.4599 55.6709C56.522 55.5984 56.6301 55.5902 56.7018 55.6513C56.7739 55.7131 56.7825 55.8212 56.7214 55.8932C55.5711 57.2425 53.8591 57.5243 52.6295 57.5243Z" fill="#92B4EA"/>
<path d="M68.5858 59.5732C66.6572 63.8525 62.8996 67.1331 58.3046 68.4097C57.9786 68.5023 57.6457 68.5847 57.3094 68.6533C57.1962 68.6774 57.0864 68.6979 56.9731 68.7185C56.5099 63.4853 56.2422 54.3365 56.2422 54.3365C56.2422 54.3365 63.3697 54.4429 68.5858 59.5732Z" fill="#40507F"/>
<path d="M56.3751 50.4913C56.3322 50.4913 56.2893 50.4752 56.2556 50.4429C56.1877 50.3774 56.1856 50.2686 56.2515 50.2003L57.4914 48.9165C57.5566 48.8486 57.6654 48.8469 57.734 48.9124C57.8019 48.9779 57.804 49.0867 57.7381 49.155L56.4983 50.4388C56.4646 50.4738 56.4197 50.4913 56.3751 50.4913Z" fill="black"/>
<path d="M58.0523 50.1781C58.0378 50.1781 58.0234 50.1764 58.009 50.1723L56.9383 49.8926C56.8464 49.8689 56.7915 49.7749 56.8158 49.6836C56.8395 49.5913 56.9342 49.5353 57.0248 49.5611L58.0955 49.8408C58.1875 49.8644 58.2424 49.9585 58.218 50.0498C58.1981 50.1273 58.1288 50.1781 58.0523 50.1781Z" fill="black"/>
<path d="M49.9707 46.4866C49.9346 46.4866 49.8979 46.475 49.867 46.4513C49.7929 46.394 49.7771 46.2893 49.8327 46.2145C49.8461 46.1966 50.1677 45.7776 50.9834 45.8923C51.077 45.9056 51.1422 45.9928 51.1289 46.0865C51.1151 46.1802 51.0252 46.2416 50.9346 46.232C50.3358 46.1459 50.1158 46.4101 50.1069 46.4214C50.0726 46.464 50.0215 46.4866 49.9707 46.4866Z" fill="black"/>
<path d="M53.6758 46.5331C53.637 46.5331 53.5979 46.52 53.566 46.4933C53.137 46.1353 52.6477 46.2609 52.6274 46.2664C52.5368 46.2911 52.4421 46.2369 52.4174 46.1456C52.3927 46.0544 52.4459 45.9607 52.5369 45.9356C52.5643 45.9281 53.2153 45.7541 53.7863 46.2297C53.8591 46.2904 53.8687 46.3985 53.8083 46.4713C53.774 46.5118 53.7249 46.5331 53.6758 46.5331Z" fill="black"/>
<path d="M50.1328 48.4479C50.0243 48.4397 49.9536 48.3566 49.9615 48.2626L50.036 47.346C50.0435 47.2517 50.128 47.1827 50.2206 47.1889C50.315 47.1964 50.3853 47.2795 50.3778 47.3735L50.3033 48.2901C50.2965 48.38 50.2213 48.4479 50.1328 48.4479Z" fill="black"/>
<path d="M52.8413 48.5594C52.7328 48.5511 52.6621 48.4681 52.67 48.3741L52.7445 47.4578C52.7517 47.3635 52.8375 47.2959 52.9291 47.3007C53.0235 47.3082 53.0938 47.3913 53.0863 47.4853L53.0118 48.4015C53.0046 48.4914 52.9298 48.5594 52.8413 48.5594Z" fill="black"/>
<path d="M50.7885 50.6352C50.7229 50.6352 50.6605 50.5975 50.632 50.5337C50.0569 49.2461 50.9192 48.2087 50.9563 48.1652C51.0177 48.0934 51.1251 48.0842 51.1975 48.1456C51.2699 48.2067 51.2789 48.3148 51.2181 48.3872C51.1869 48.4239 50.4597 49.3072 50.945 50.3937C50.9837 50.4801 50.945 50.5817 50.8585 50.6201C50.8358 50.6304 50.8122 50.6352 50.7885 50.6352Z" fill="black"/>
<path d="M51.8616 51.459C51.7669 51.459 51.6901 51.3822 51.6901 51.2874C51.6901 51.1931 51.7666 51.1162 51.861 51.1159C51.885 51.1155 52.455 51.1056 52.6602 50.6159C52.6969 50.5284 52.7964 50.4875 52.8846 50.5239C52.9721 50.5603 53.013 50.6608 52.9766 50.7483C52.6828 51.4511 51.8953 51.459 51.8616 51.459Z" fill="black"/>
<path d="M91.5021 65.8154C93.0066 64.5447 94.2844 63.0113 95.2637 61.2903C96.6574 58.8416 97.4531 56.0107 97.4531 52.9983C97.4531 43.7274 89.9356 36.2135 80.6683 36.2135C71.3977 36.2135 63.8802 43.7272 63.8802 52.9983C63.8802 56.1513 64.7516 59.1009 66.2637 61.6247L66.2643 61.6256C66.6708 62.302 67.1244 62.95 67.6215 63.5624L67.622 63.563C67.7919 63.7718 67.9691 63.9818 68.1561 64.1873C71.2262 67.6194 75.6976 69.783 80.6683 69.783C82.5433 69.783 84.3469 69.4735 86.0316 68.9083L86.0334 68.9077C88.0573 68.2235 89.9077 67.1649 91.5021 65.8154ZM91.5021 65.8154C91.5019 65.8155 91.5017 65.8156 91.5016 65.8158L90.9941 65.2149M91.5021 65.8154C91.5021 65.8153 91.5022 65.8152 91.5023 65.8152L90.9941 65.2149M90.9941 65.2149C92.4286 64.0035 93.6468 62.5417 94.5802 60.9013L85.7815 68.1627C87.7101 67.5107 89.4739 66.5018 90.9941 65.2149Z" fill="#F5FE7D" stroke="#F2F2F2" stroke-width="1.57293"/>
<path d="M76.5273 49.7925C76.5273 49.7925 72.8664 52.5536 72.5939 55.907C72.1815 60.982 77.9545 58.7618 78.589 55.5264C79.2235 52.2907 76.5273 49.7925 76.5273 49.7925Z" fill="black"/>
<path d="M76.1994 49.4469C76.1994 49.4469 74.8782 47.987 75.2588 45.7249C75.5169 44.1913 76.1994 43.6948 76.1994 43.6948C76.1994 43.6948 75.16 41.6011 78.2546 41.7281C81.3493 41.8551 83.1701 43.3742 83.1701 43.3742C83.1701 43.3742 84.5846 42.6797 85.2191 44.3289C85.8536 45.9782 85.2191 48.4115 85.2191 48.4115L76.1994 49.4469Z" fill="black"/>
<path d="M90.9937 65.2157C89.4735 66.5025 87.7097 67.5114 85.7811 68.1634C84.1751 68.7022 82.4558 68.9973 80.6679 68.9973C77.4765 68.9973 74.5013 68.0605 72.0031 66.4476C71.8658 66.3618 71.732 66.2726 71.6016 66.18C70.548 65.4593 69.5872 64.6117 68.7396 63.6611C68.5646 63.469 68.3964 63.2699 68.2317 63.0675L78.3584 55.7306C78.3653 55.7272 78.7496 55.4458 78.7496 55.4458L82.7269 55.7684L84.3775 55.9022L90.9937 65.2157Z" fill="#F7B369"/>
<path d="M78.7465 55.7025L68.7364 63.6605C68.5614 63.4683 68.3933 63.2693 68.2285 63.0668C67.755 62.4834 67.3226 61.8657 66.9348 61.2206C67.2437 60.9426 67.5662 60.6647 67.8991 60.3867C72.4872 56.5604 77.0238 55.8569 78.3553 55.73C78.6127 55.7059 78.7465 55.7025 78.7465 55.7025Z" fill="#F7B369"/>
<path d="M82.9944 51.9969L82.9186 56.0339C82.9186 56.0339 82.2151 57.1729 80.0007 57.2944C78.3508 57.385 77.8463 56.4649 77.8463 56.4649L78.3116 52.9448L82.3218 52.1335L82.9944 51.9969Z" fill="#F8CEC1"/>
<path d="M94.5767 60.9012C93.6433 62.5415 92.425 64.0034 90.9906 65.2148C89.4704 66.5016 87.7065 67.5105 85.778 68.1625L88.3654 65.0089L82.7238 55.7675L82.6826 55.7023C82.6826 55.7023 83.3312 55.7263 84.3744 55.9013C86.7491 56.2959 91.1622 57.4661 94.5767 60.9012Z" fill="#F7B369"/>
<path d="M82.9981 51.7662C82.9861 51.8692 82.9436 51.99 82.879 52.1279C81.9865 53.9937 78.992 54.7044 78.0391 54.7658L78.3122 52.9059L82.9981 51.7662Z" fill="black"/>
<path d="M77.6778 44.274C77.6778 44.274 75.5762 48.9606 76.2917 51.6118C77.0072 54.2631 79.4204 53.8699 80.8665 53.3726C82.3125 52.8754 82.9903 51.9979 82.9903 51.9979C82.9903 51.9979 84.3324 52.4673 85.2449 51.2241C86.1573 49.9808 85.6169 48.5378 84.8513 48.2008C84.0857 47.8638 83.166 48.4101 83.166 48.4101L83.8956 47.0491C83.8956 47.0491 80.9478 40.0692 77.6778 44.274Z" fill="#F8CEC1"/>
<path d="M83.1705 48.4097C83.1705 48.4097 81.1466 48.818 79.7406 46.5659C78.3347 44.3137 78.4637 43.3885 78.4637 43.3885L77.0629 45.7138C77.0629 45.7138 76.7496 44.1016 77.3944 43.0738C78.0392 42.046 78.7087 42.2592 78.7087 42.2592L83.1712 43.3741L84.3462 46.9509L83.1705 48.4097Z" fill="black"/>
<path d="M77.8411 50.2776C77.7676 50.2776 77.6997 50.2299 77.677 50.1564C77.3654 49.1389 78.084 48.1088 78.1142 48.0655C78.1691 47.988 78.2755 47.9705 78.3531 48.0247C78.4306 48.0792 78.4488 48.1867 78.3942 48.2639C78.3881 48.2728 77.7433 49.2014 78.0051 50.0559C78.0326 50.1465 77.9818 50.2426 77.8912 50.2704C77.8747 50.2752 77.8575 50.2776 77.8411 50.2776Z" fill="black"/>
<path d="M83.3643 50.6395C83.3218 50.6395 83.2796 50.6237 83.2463 50.5922C83.1773 50.527 83.1745 50.4185 83.2397 50.3499L84.5218 48.9985C84.587 48.9292 84.6958 48.9271 84.7641 48.9923C84.8331 49.0572 84.8358 49.166 84.7702 49.2346L83.4882 50.586C83.4552 50.6217 83.4096 50.6395 83.3643 50.6395Z" fill="black"/>
<path d="M84.7169 50.2803C84.7083 50.2803 84.6991 50.2796 84.6905 50.2783L83.8068 50.142C83.7132 50.1276 83.649 50.0398 83.6634 49.9464C83.6778 49.8527 83.7681 49.7899 83.859 49.803L84.7427 49.9392C84.8363 49.9536 84.9005 50.0415 84.8861 50.1348C84.8731 50.2196 84.8 50.2803 84.7169 50.2803Z" fill="black"/>
<path d="M79.5336 51.6244C79.0878 51.6244 78.582 51.3234 78.5089 51.2781C78.4564 51.2455 78.4252 51.1875 78.4272 51.1261C78.4296 51.0643 78.4646 51.0084 78.5192 50.9799L79.9437 50.2359C79.9886 50.2122 80.0418 50.2095 80.0898 50.2297C80.1369 50.2496 80.1725 50.2894 80.1873 50.3382C80.1969 50.3708 80.421 51.1357 79.9457 51.4994C79.828 51.59 79.6842 51.6244 79.5336 51.6244ZM78.9701 51.1312C79.2415 51.2517 79.5803 51.3471 79.7371 51.2273C79.91 51.0945 79.9179 50.833 79.8977 50.647L78.9701 51.1312Z" fill="black"/>
<path d="M76.9341 46.4232C76.8524 46.4232 76.78 46.3646 76.7656 46.2812C76.7491 46.1878 76.8119 46.099 76.9049 46.0828L77.7408 45.9377C77.8349 45.9181 77.9231 45.9837 77.9392 46.077C77.9557 46.1703 77.8929 46.2592 77.7999 46.2753L76.9639 46.4205C76.954 46.4226 76.944 46.4232 76.9341 46.4232Z" fill="black"/>
<path d="M80.4071 46.972C80.381 46.972 80.3546 46.9659 80.3295 46.9535L78.9589 46.2596C78.8741 46.2167 78.8402 46.1135 78.8831 46.029C78.926 45.9443 79.0299 45.911 79.1137 45.9532L80.4843 46.6474C80.569 46.6903 80.603 46.7936 80.5601 46.878C80.5303 46.9377 80.4695 46.972 80.4071 46.972Z" fill="black"/>
<path d="M85.7224 49.7925C85.7224 49.7925 88.641 52.3226 88.2288 56.4461C87.8163 60.5695 83.7275 60.0404 82.8686 58.5356C81.5677 56.256 82.9901 51.998 82.9901 51.998C82.9901 51.998 85.4972 52.4177 85.7224 49.7925Z" fill="black"/>
<path d="M76.9343 48.3549C76.9175 48.3549 76.9007 48.3525 76.8842 48.3473C76.7933 48.3195 76.7428 48.2238 76.7706 48.1332L77.0046 47.3714L76.8018 47.1229C76.7418 47.0495 76.7524 46.9417 76.8259 46.8817C76.8989 46.8216 77.0074 46.8322 77.0671 46.9057L77.3283 47.2252C77.3646 47.2698 77.3766 47.3295 77.3595 47.3841L77.0983 48.2337C77.076 48.3079 77.0077 48.3549 76.9343 48.3549Z" fill="black"/>
<path d="M79.4925 48.5835C79.4757 48.5835 79.4589 48.5811 79.4421 48.576C79.3511 48.5485 79.3007 48.4524 79.3285 48.3618L79.5615 47.6024L79.2626 47.2534C79.2008 47.1813 79.2094 47.0732 79.2815 47.0115C79.3532 46.95 79.462 46.9583 79.5234 47.0304L79.8837 47.4511C79.9218 47.4957 79.9345 47.5571 79.9173 47.613L79.6565 48.4627C79.6339 48.5358 79.5656 48.5835 79.4925 48.5835Z" fill="black"/>
<path d="M79.9724 57.376C78.5119 57.376 77.6468 56.5796 77.6341 56.5679C77.5654 56.503 77.5624 56.3946 77.6276 56.3256C77.6924 56.257 77.8009 56.2539 77.8698 56.3181C77.9388 56.3829 79.5778 57.8743 82.239 56.3805C82.3224 56.3335 82.4267 56.3634 82.4727 56.4457C82.5194 56.5284 82.4898 56.6331 82.4075 56.6794C81.4813 57.199 80.6608 57.376 79.9724 57.376Z" fill="#F2F2F2"/>
<path d="M73.4528 60.8847C73.3498 60.9705 71.1845 62.9025 72.0012 66.4474C71.8639 66.3616 71.7301 66.2724 71.5997 66.1797C70.958 62.6314 73.2023 60.6445 73.2297 60.6239C73.3018 60.5621 73.4082 60.569 73.4699 60.6411C73.5321 60.7131 73.5248 60.823 73.4528 60.8847Z" fill="#F2F2F2"/>
<path d="M114.403 68.2281C112.915 68.921 111.307 69.4005 109.623 69.6334L109.616 69.6371L109.482 69.6536C108.782 69.7397 108.06 69.7865 107.333 69.7865C102.632 69.7865 98.3838 67.8532 95.3388 64.745L95.3381 64.7443C95.2946 64.7008 95.2388 64.645 95.1843 64.5869C95.1386 64.5408 95.0963 64.4945 95.0554 64.4462C93.3666 62.6382 92.0754 60.4544 91.314 58.0339C90.8129 56.4438 90.5468 54.7512 90.5468 53C90.5468 43.7282 98.0615 36.2135 107.333 36.2135C116.605 36.2135 124.12 43.7282 124.12 53C124.12 55.7528 123.457 58.3498 122.28 60.6444C122.013 61.1659 121.718 61.6737 121.394 62.1641C121.262 62.3687 121.125 62.5638 120.998 62.7441L120.994 62.7499L120.994 62.7499L120.991 62.754C119.396 64.9894 117.265 66.8187 114.783 68.0472L114.783 68.0472L114.778 68.0498L114.774 68.0517C114.657 68.1084 114.531 68.1697 114.403 68.2281ZM109.413 69.6561H109.403C109.396 69.6561 109.4 69.6563 109.413 69.6561Z" fill="#7798EC" stroke="#F2F2F2" stroke-width="1.57293"/>
<path d="M95.643 63.924C95.6773 63.9652 95.7117 64.003 95.7494 64.0407C95.7975 64.0922 95.8489 64.1437 95.897 64.1917C98.8005 67.157 102.85 69 107.332 69C108.026 69 108.716 68.9554 109.385 68.873C109.392 68.8696 109.395 68.8696 109.402 68.8696C111.049 68.6533 112.621 68.19 114.073 67.5139C113.936 61.7173 113.994 56.6448 113.994 56.5487C113.939 56.4285 111.255 55.7387 107.682 55.622C102.061 55.4436 97.311 58.6147 95.643 63.924Z" fill="#68B6D8"/>
<path d="M109.386 68.873C109.393 68.8696 109.396 68.8696 109.403 68.8696C111.051 68.6533 112.623 68.19 114.074 67.5139C114.194 67.459 114.315 67.4007 114.435 67.3423C116.799 66.172 118.831 64.4286 120.351 62.2973C117.27 58.0725 114.75 56.8404 113.995 56.5487C113.841 56.4869 113.762 56.4663 113.762 56.4663L109.386 68.873Z" fill="#68B6D8"/>
<path d="M106.967 46.3098C106.967 46.3098 103.338 46.5744 103.044 43.0943C102.732 39.3891 106.157 38.9478 107.652 40.4112C109.148 41.8749 108.916 43.4073 108.916 43.4073C108.916 43.4073 109.909 42.4659 111.046 43.5631C111.88 44.3683 111.494 45.7287 111.494 45.7287C111.494 45.7287 113.367 45.6096 113.233 47.2508C113.099 48.892 111.949 49.7521 111.949 49.7521L106.967 46.3098Z" fill="black"/>
<path d="M110.45 52.6436L110.169 56.5145C110.169 56.5145 109.39 57.5767 107.112 57.5963C105.416 57.611 104.85 57.1865 104.85 57.1865L105.228 55.243L105.599 53.3478L109.753 52.7451L110.45 52.6436Z" fill="#F8CEC1"/>
<path d="M109.755 52.7455C109.738 52.8505 109.689 52.9723 109.615 53.1106C108.609 54.9814 106.211 55.2265 105.23 55.243L105.601 53.3478L109.755 52.7455Z" fill="black"/>
<path d="M105.372 44.462C105.372 44.462 102.988 49.1679 103.593 51.9224C104.198 54.6773 106.693 54.3914 108.201 53.9514C109.709 53.5118 110.447 52.6442 110.447 52.6442C110.447 52.6442 111.801 53.1913 112.798 51.9599C113.794 50.7288 113.31 49.2218 112.541 48.8391C111.772 48.4561 110.802 48.972 110.802 48.972L111.617 47.6112C111.617 47.6112 108.932 40.3075 105.372 44.462Z" fill="#F8CEC1"/>
<path d="M110.809 51.0896C110.84 51.0896 110.871 51.0817 110.899 51.0642L112.408 50.1373C112.488 50.0875 112.514 49.9821 112.464 49.9011C112.414 49.8205 112.309 49.7947 112.228 49.8449L110.719 50.7718C110.638 50.8216 110.613 50.927 110.663 51.008C110.695 51.0605 110.751 51.0896 110.809 51.0896Z" fill="black"/>
<path d="M112.06 51.1919C112.123 51.1919 112.184 51.1565 112.214 51.0961C112.256 51.011 112.221 50.908 112.135 50.8662L111.346 50.4787C111.261 50.4375 111.158 50.4725 111.116 50.5573C111.075 50.6424 111.11 50.7454 111.195 50.7872L111.984 51.1747C112.009 51.1864 112.035 51.1919 112.06 51.1919Z" fill="black"/>
<path d="M104.742 46.3017C104.776 46.3017 104.811 46.2914 104.841 46.2698C105.263 45.9698 105.665 46.2344 105.682 46.2461C105.76 46.2983 105.867 46.2787 105.92 46.2008C105.973 46.1229 105.954 46.0169 105.876 45.9633C105.852 45.9462 105.264 45.5487 104.642 45.9904C104.565 46.045 104.547 46.1524 104.602 46.2296C104.635 46.2767 104.688 46.3017 104.742 46.3017Z" fill="black"/>
<path d="M105.366 50.6854C105.378 50.6854 105.391 50.684 105.403 50.6812C105.496 50.6606 105.554 50.5694 105.534 50.4767C105.218 49.0438 106.031 48.0863 106.039 48.0767C106.101 48.0053 106.093 47.8969 106.022 47.8347C105.95 47.7726 105.842 47.7805 105.779 47.8522C105.741 47.8962 104.846 48.9515 105.199 50.5505C105.216 50.6308 105.287 50.6854 105.366 50.6854Z" fill="black"/>
<path d="M104.794 48.5814C104.887 48.5814 104.964 48.5066 104.966 48.4129L104.982 47.49C104.983 47.3953 104.908 47.317 104.813 47.3153C104.714 47.3259 104.64 47.3891 104.638 47.4838L104.622 48.4063C104.621 48.5011 104.696 48.5793 104.791 48.581C104.792 48.5814 104.793 48.5814 104.794 48.5814Z" fill="black"/>
<path d="M107.336 48.7597C107.429 48.7597 107.505 48.6849 107.507 48.5912L107.523 47.6686C107.525 47.5739 107.449 47.4957 107.355 47.494C107.267 47.4833 107.182 47.5677 107.18 47.6625L107.164 48.585C107.162 48.6797 107.238 48.758 107.332 48.7597C107.333 48.7597 107.335 48.7597 107.336 48.7597Z" fill="black"/>
<path d="M104.89 45.5262C104.89 45.5262 105.367 44.7788 106.333 44.8423C107.299 44.9057 107.814 45.6268 107.814 45.6268C107.814 45.6268 107.272 47.222 108.523 48.1812C109.773 49.1405 110.807 48.9727 110.807 48.9727L111.784 48.7022L112.583 47.3613L110.044 44.1919L106.614 42.0507L104.677 43.5686L104.89 45.5262Z" fill="black"/>
<path d="M106.155 51.6551C106.479 51.6551 107.091 51.5634 107.447 50.9292C107.493 50.8468 107.464 50.7422 107.382 50.6955C107.298 50.6495 107.194 50.6787 107.148 50.7614C106.778 51.4196 106.03 51.3067 105.999 51.3016C105.905 51.2844 105.817 51.3496 105.802 51.4426C105.786 51.536 105.849 51.6242 105.942 51.64C105.953 51.642 106.034 51.6551 106.155 51.6551Z" fill="black"/>
<path d="M103.777 49.9981C103.791 49.9981 103.805 49.998 103.818 49.9977C104.727 49.9751 105.448 49.1946 105.424 48.2587C105.413 47.8064 105.231 47.3846 104.913 47.0719C104.594 46.7579 104.174 46.589 103.733 46.6017C102.824 46.6244 102.104 47.4048 102.128 48.3411C102.139 48.7934 102.321 49.2149 102.638 49.5275C102.948 49.8316 103.351 49.9981 103.777 49.9981ZM103.774 46.9443C104.11 46.9443 104.428 47.0757 104.673 47.3163C104.927 47.5661 105.072 47.9038 105.081 48.2673C105.1 49.0141 104.529 49.6363 103.81 49.6545C103.46 49.6672 103.132 49.5313 102.879 49.2828C102.625 49.033 102.48 48.6953 102.471 48.3322C102.452 47.585 103.023 46.9628 103.743 46.9446C103.752 46.9443 103.763 46.9443 103.774 46.9443Z" fill="#707070"/>
<path d="M107.691 50.2777C107.706 50.2777 107.72 50.2777 107.734 50.2773C108.188 50.266 108.61 50.0786 108.923 49.7498C109.235 49.4214 109.401 48.9903 109.39 48.537C109.379 48.0836 109.191 47.6611 108.862 47.3484C108.534 47.0358 108.101 46.8721 107.649 46.8814C106.713 46.9047 105.97 47.6858 105.994 48.6221C106.017 49.5439 106.774 50.2777 107.691 50.2777ZM107.693 47.2242C108.042 47.2242 108.372 47.356 108.626 47.5973C108.888 47.8471 109.038 48.1838 109.047 48.5459C109.056 48.9076 108.924 49.2515 108.674 49.5137C108.425 49.7759 108.088 49.9252 107.726 49.9345C106.982 49.9516 106.356 49.3606 106.337 48.6135C106.318 47.8663 106.911 47.2434 107.658 47.2246C107.669 47.2242 107.681 47.2242 107.693 47.2242Z" fill="#707070"/>
<path d="M106.326 48.6083C106.416 48.6083 106.492 48.5376 106.497 48.4463C106.503 48.352 106.43 48.2706 106.335 48.2655L105.139 48.1979C105.047 48.1859 104.964 48.2648 104.958 48.3595C104.953 48.4539 105.025 48.5352 105.12 48.5404L106.316 48.608C106.32 48.6083 106.323 48.6083 106.326 48.6083Z" fill="#707070"/>
<path d="M109.222 48.9374C109.249 48.9374 109.278 48.9306 109.303 48.9165C109.319 48.9079 110.905 48.0616 111.657 48.8225C111.723 48.8897 111.832 48.8904 111.9 48.8238C111.967 48.7573 111.968 48.6485 111.901 48.5812C110.968 47.6374 109.213 48.575 109.139 48.6152C109.056 48.6605 109.025 48.7645 109.07 48.8479C109.102 48.9048 109.161 48.9374 109.222 48.9374Z" fill="#707070"/>
<path d="M106.965 57.8484C107.956 57.8484 109.192 57.5745 110.547 56.653C110.626 56.5998 110.646 56.4931 110.593 56.4148C110.539 56.3366 110.432 56.3163 110.354 56.3695C107.224 58.4984 104.868 57.034 104.769 56.9708C104.689 56.9193 104.584 56.9423 104.532 57.0219C104.481 57.1012 104.504 57.2076 104.583 57.2588C104.599 57.2687 105.522 57.8484 106.965 57.8484Z" fill="#F2F2F2"/>
<path d="M108.482 46.7561C108.515 46.7561 108.547 46.7472 108.577 46.7276C108.656 46.6755 108.677 46.5687 108.625 46.4898C108.143 45.7626 107.424 45.8384 107.111 45.9788C107.024 46.0176 106.986 46.1195 107.025 46.2056C107.063 46.2918 107.165 46.3299 107.251 46.2921C107.279 46.2794 107.902 46.0179 108.338 46.6796C108.372 46.729 108.427 46.7561 108.482 46.7561Z" fill="black"/>
</svg>