<svg width="150" height="453" viewBox="0 0 150 453" fill="none" xmlns="http://www.w3.org/2000/svg">
<g clip-path="url(#clip0_885_19144)">
<rect y="0.5" width="150" height="452" rx="75" fill="#B79CED"/>
<rect x="-2" y="336.5" width="152" height="190" fill="#8E94E9"/>
<path d="M106.673 393.025C118.102 389.072 128.554 382.791 137.55 374.737C137.949 374.395 138.367 374.01 138.766 373.647C141.519 371.105 144.112 368.392 146.565 365.529C146.885 365.166 147.184 364.802 147.483 364.418C138.108 335.17 122.53 311.861 104.578 311.926C82.1786 312.118 93.8472 357.197 106.673 393.025Z" fill="#8E94E9"/>
<path d="M66.2755 252.774C66.2755 252.774 39.6571 245.102 19.8583 271.075C0.0595093 297.045 12.3624 329.017 43.73 328.099C75.0977 327.18 82.3901 292.845 82.3901 292.845L66.2755 252.774Z" fill="black"/>
<path d="M27.5256 381.915C32.213 385.163 37.1996 387.983 42.4255 390.312C43.8018 390.91 45.1781 391.487 46.5744 392.021C56.388 395.802 66.9596 397.853 77.9899 397.853C78.708 397.853 79.446 397.853 80.184 397.832C101.985 397.298 121.952 388.709 137.55 374.737C135.675 352.304 133.142 334.273 129.771 329.081C122.69 318.164 114.372 314.148 104.579 311.926C99.3526 310.772 93.8274 310.152 87.8435 309.234C79.0671 307.93 68.4955 308.208 59.0409 309.362H58.9212C49.6661 310.516 41.4681 312.545 37.1198 314.831C33.5095 316.711 30.0389 346.75 27.5256 381.915Z" fill="#8E94E9"/>
<path d="M100.525 291.044C101.638 296.492 104.692 300.404 107.347 299.782C110.002 299.16 111.251 294.24 110.138 288.792C109.025 283.344 105.971 279.433 103.316 280.054C100.661 280.674 99.4123 285.596 100.525 291.044Z" fill="#92B4EA"/>
<path d="M4.78676 359.696C10.5313 367.516 17.333 374.395 24.9725 380.078C30.3979 384.116 36.2422 387.556 42.4256 390.312C43.8019 390.91 45.1782 391.487 46.5744 392.021L63.6885 309.362C63.6885 309.362 61.993 309.212 59.0409 309.362H58.9213C49.5664 309.917 23.297 309.533 4.78676 359.696Z" fill="#8E94E9"/>
<path d="M106.236 274.149C106.236 274.149 113.804 265.531 111.913 251.894C110.63 242.65 106.856 239.588 106.856 239.588C106.856 239.588 112.914 227.13 95.541 227.534C78.1677 227.938 63.9339 226.351 56.1928 242.357C51.633 251.787 53.4481 272.269 53.4481 272.269L106.236 274.149Z" fill="black"/>
<path d="M67.8533 288.683L67.977 311.391C67.977 311.391 71.8366 317.895 84.2453 318.897C93.4884 319.642 96.3867 314.543 96.3867 314.543L94.041 294.687L71.6172 289.551L67.8533 288.683Z" fill="#F8CEC1"/>
<path d="M67.877 287.299C67.9349 287.919 68.1583 288.649 68.5053 289.487C73.3104 300.801 90.0314 305.416 95.3711 305.895L94.0407 294.687L67.877 287.299Z" fill="black"/>
<path d="M98.4851 242.897C98.4851 242.897 109.767 271.299 105.466 287.145C101.166 302.991 87.674 300.35 79.6137 297.195C71.5553 294.039 67.8494 288.69 67.8494 288.69C67.8494 288.69 60.2717 291.354 55.2871 283.778C50.3025 276.202 53.4919 267.594 57.8223 265.659C62.1526 263.723 67.253 267.112 67.253 267.112L63.3075 258.85C63.3075 258.85 80.5952 217.256 98.4851 242.897Z" fill="#F8CEC1"/>
<path d="M67.2529 267.112C67.2529 267.112 78.5625 269.799 86.6926 256.43C94.8228 243.06 94.1985 237.488 94.1985 237.488L101.806 251.62C101.806 251.62 103.737 241.97 100.23 235.721C96.7238 229.472 92.9458 230.675 92.9458 230.675L67.7935 236.858L60.8163 258.214L67.2529 267.112Z" fill="black"/>
<path d="M96.9553 278.988C97.3742 278.988 97.7652 278.702 97.9048 278.253C99.7678 272.158 95.8423 265.875 95.6727 265.61C95.3636 265.125 94.7433 264.999 94.2905 265.328C93.8337 265.659 93.716 266.323 94.0231 266.811C94.059 266.866 97.5637 272.504 96.0079 277.589C95.8364 278.151 96.1235 278.753 96.6461 278.937C96.7478 278.971 96.8516 278.988 96.9553 278.988Z" fill="black"/>
<path d="M65.9403 280.522C66.1797 280.522 66.4211 280.43 66.6126 280.242C67.0195 279.845 67.0494 279.17 66.6764 278.732L59.6293 270.466C59.2563 270.03 58.626 270 58.2211 270.398C57.8142 270.795 57.7843 271.472 58.1573 271.908L65.2043 280.174C65.4017 280.407 65.669 280.522 65.9403 280.522Z" fill="black"/>
<path d="M58.3809 278.208C58.4248 278.208 58.4707 278.206 58.5146 278.2L63.4872 277.482C64.0337 277.403 64.4167 276.865 64.3429 276.279C64.2711 275.694 63.7605 275.284 63.2219 275.363L58.2492 276.08C57.7027 276.16 57.3198 276.698 57.3936 277.283C57.4614 277.82 57.8903 278.208 58.3809 278.208Z" fill="black"/>
<path d="M102.456 255.934C102.923 255.934 103.34 255.579 103.434 255.069C103.537 254.49 103.184 253.928 102.644 253.817L97.9702 252.847C97.4536 252.734 96.9091 253.112 96.8014 253.691C96.6977 254.27 97.0508 254.832 97.5933 254.943L102.267 255.913C102.327 255.928 102.392 255.934 102.456 255.934Z" fill="black"/>
<path d="M82.9069 258.829C83.0525 258.829 83.2021 258.795 83.3398 258.722L91.1049 254.71C91.6016 254.453 91.811 253.815 91.5696 253.283C91.3302 252.749 90.7279 252.531 90.2392 252.785L82.4741 256.797C81.9774 257.054 81.768 257.692 82.0094 258.222C82.1809 258.607 82.5359 258.829 82.9069 258.829Z" fill="black"/>
<path d="M102.245 267.541C102.334 267.541 102.428 267.528 102.52 267.5C103.05 267.338 103.356 266.746 103.204 266.178L101.981 261.593L103.132 260.14C103.489 259.692 103.437 259.017 103.019 258.634C102.594 258.252 101.967 258.309 101.612 258.756L100.114 260.644C99.8989 260.918 99.8232 261.285 99.9149 261.629L101.287 266.763C101.411 267.235 101.812 267.541 102.245 267.541Z" fill="black"/>
<path d="M88.8845 268.637C88.9742 268.637 89.068 268.624 89.1597 268.594C89.6903 268.432 89.9955 267.84 89.8439 267.274L88.6232 262.704L90.3266 260.658C90.6936 260.217 90.6578 259.542 90.2469 259.149C89.834 258.756 89.2036 258.797 88.8386 259.237L86.7701 261.724C86.5428 261.997 86.461 262.375 86.5567 262.728L87.9311 267.862C88.0508 268.332 88.4496 268.637 88.8845 268.637Z" fill="black"/>
<path d="M93.1213 286.361C93.7556 286.361 94.3798 286.22 94.9722 285.887C95.4609 285.613 95.6505 284.968 95.3952 284.445C95.1359 283.923 94.5274 283.722 94.0487 283.994C91.9962 285.139 88.2204 281.642 87.0615 280.321C86.6825 279.892 86.0523 279.871 85.6514 280.276C85.2504 280.68 85.2305 281.355 85.6095 281.785C86.0822 282.327 89.7364 286.361 93.1213 286.361Z" fill="black"/>
<path d="M95.8738 310.208L106.445 312.184C106.445 312.184 106.222 327.359 86.3354 329.276C66.4489 331.192 53.0947 309.967 53.0947 309.967L73.9786 307.255L95.8738 310.208Z" fill="#F8CEC1"/>
<path d="M57.5071 292.317C57.1839 297.883 59.1207 302.542 61.8334 302.722C64.5442 302.903 67.0054 298.536 67.3286 292.971C67.6517 287.406 65.715 282.746 63.0023 282.566C60.2896 282.385 57.8302 286.752 57.5071 292.317Z" fill="#92B4EA"/>
<path d="M115.622 386.942C115.888 386.942 116.153 386.829 116.346 386.607C134.681 365.785 119.275 344.639 119.117 344.429C118.772 343.972 118.144 343.9 117.717 344.263C117.286 344.632 117.216 345.303 117.559 345.765C118.158 346.568 132.026 365.689 114.898 385.144C114.521 385.571 114.537 386.248 114.94 386.652C115.132 386.846 115.377 386.942 115.622 386.942Z" fill="#92B4EA"/>
<rect x="-122.5" y="-96" width="260" height="260" rx="130" stroke="white"/>
<rect x="-159.5" y="-67" width="260" height="260" rx="130" stroke="white"/>
<path d="M95.44 205.5L121.296 160.7H127.504L101.648 205.5H95.44ZM100.752 178.716C99.2373 178.716 97.8613 178.353 96.624 177.628C95.408 176.903 94.4267 175.921 93.68 174.684C92.9333 173.447 92.56 172.071 92.56 170.556C92.56 168.999 92.9333 167.612 93.68 166.396C94.4267 165.159 95.4187 164.177 96.656 163.452C97.8933 162.727 99.2587 162.364 100.752 162.364C102.245 162.364 103.611 162.737 104.848 163.484C106.085 164.209 107.067 165.191 107.792 166.428C108.539 167.644 108.912 169.02 108.912 170.556C108.912 172.092 108.539 173.479 107.792 174.716C107.045 175.932 106.053 176.903 104.816 177.628C103.579 178.353 102.224 178.716 100.752 178.716ZM100.752 174.78C101.925 174.78 102.917 174.375 103.728 173.564C104.56 172.732 104.976 171.729 104.976 170.556C104.976 169.361 104.56 168.359 103.728 167.548C102.917 166.716 101.925 166.3 100.752 166.3C99.5787 166.3 98.576 166.716 97.744 167.548C96.912 168.359 96.496 169.361 96.496 170.556C96.496 171.729 96.912 172.732 97.744 173.564C98.576 174.375 99.5787 174.78 100.752 174.78ZM122.224 203.868C120.731 203.868 119.355 203.495 118.096 202.748C116.859 201.98 115.867 200.977 115.12 199.74C114.395 198.481 114.032 197.127 114.032 195.676C114.032 194.14 114.405 192.753 115.152 191.516C115.92 190.279 116.923 189.297 118.16 188.572C119.397 187.847 120.752 187.484 122.224 187.484C123.76 187.484 125.147 187.868 126.384 188.636C127.621 189.383 128.603 190.375 129.328 191.612C130.053 192.849 130.416 194.204 130.416 195.676C130.416 197.191 130.043 198.567 129.296 199.804C128.571 201.041 127.589 202.033 126.352 202.78C125.115 203.505 123.739 203.868 122.224 203.868ZM122.224 199.932C123.397 199.932 124.4 199.516 125.232 198.684C126.064 197.852 126.48 196.849 126.48 195.676C126.48 194.503 126.064 193.5 125.232 192.668C124.4 191.836 123.397 191.42 122.224 191.42C121.051 191.42 120.048 191.836 119.216 192.668C118.384 193.5 117.968 194.503 117.968 195.676C117.968 196.849 118.384 197.852 119.216 198.684C120.048 199.516 121.051 199.932 122.224 199.932Z" fill="white"/>
</g>
<rect x="2.5" y="3" width="145" height="447" rx="72.5" stroke="white" stroke-width="5"/>
<defs>
<clipPath id="clip0_885_19144">
<rect y="0.5" width="150" height="452" rx="75" fill="white"/>
</clipPath>
</defs>
</svg>
