<svg width="287" height="120" fill="none" xmlns="http://www.w3.org/2000/svg"><g clip-path="url(#a)"><rect width="287" height="120" rx="10.004" fill="#8E94E9"/><g clip-path="url(#b)" stroke-width=".586"><circle cx="123.903" cy="123.903" r="123.61" transform="scale(-1 1) rotate(-69.175 -63.162 463.407)" stroke="url(#c)"/><circle cx="88.502" cy="88.502" r="88.21" transform="scale(-1 1) rotate(-69.175 -55.102 420.018)" stroke="url(#d)"/></g><path d="m209.682 26.272 1.792 10.602a1.893 1.893 0 0 1-1.55 2.181l-5.064.856.605 3.58-2.956-3.182-11.992 2.027a1.893 1.893 0 0 1-2.182-1.55l-1.792-10.602a1.893 1.893 0 0 1 1.551-2.182l19.407-3.28a1.892 1.892 0 0 1 2.181 1.55z" fill="#F2F2F2"/><path d="M193.905 37.007a1.705 1.705 0 0 1-.825-.031 1.991 1.991 0 0 1-.705-.41l.372-.545c.147.145.307.255.481.33.174.074.37.09.588.05.231-.043.404-.127.52-.251a.496.496 0 0 0 .13-.462.527.527 0 0 0-.171-.319.805.805 0 0 0-.325-.16 2.365 2.365 0 0 0-.416-.084 11.166 11.166 0 0 1-.452-.075 1.978 1.978 0 0 1-.428-.148 1 1 0 0 1-.343-.288 1.179 1.179 0 0 1-.206-.51 1.085 1.085 0 0 1 .062-.658c.09-.198.23-.361.42-.491.189-.13.411-.218.665-.266a1.598 1.598 0 0 1 1.309.347l-.373.544a1.593 1.593 0 0 0-.428-.246.753.753 0 0 0-.414-.04c-.222.041-.385.117-.488.226-.103.106-.139.244-.107.415a.455.455 0 0 0 .165.29c.089.06.199.108.328.141.129.03.267.055.415.077.152.02.305.048.459.08.154.034.299.086.436.16a1 1 0 0 1 .352.303c.103.133.175.31.217.533.069.373-.009.694-.234.962-.221.267-.556.442-1.004.526zm.004.553-.999-5.358.476-.089 1 5.358-.477.09zm3.472-1.202a1.705 1.705 0 0 1-.825-.03 2.007 2.007 0 0 1-.705-.411l.373-.544c.146.145.306.255.481.329.174.074.37.091.588.05.23-.043.404-.126.52-.25a.496.496 0 0 0 .129-.462.521.521 0 0 0-.17-.32.809.809 0 0 0-.326-.16 2.347 2.347 0 0 0-.416-.083 11.612 11.612 0 0 1-.451-.076 1.978 1.978 0 0 1-.428-.148.989.989 0 0 1-.343-.287 1.167 1.167 0 0 1-.206-.51 1.077 1.077 0 0 1 .062-.659c.09-.197.23-.36.419-.49.19-.13.411-.219.665-.266a1.605 1.605 0 0 1 1.31.347l-.373.544a1.605 1.605 0 0 0-.428-.247.753.753 0 0 0-.414-.04c-.223.042-.385.117-.488.227-.103.105-.139.243-.107.414a.446.446 0 0 0 .165.29c.089.061.198.108.328.142.129.03.267.055.415.076.151.021.304.048.458.081.154.033.3.086.437.159a1 1 0 0 1 .352.304c.103.133.175.31.216.532.07.373-.008.694-.233.962-.221.267-.556.443-1.005.526zm.005.554-1-5.358.477-.09.999 5.359-.476.089zm3.472-1.203a1.703 1.703 0 0 1-.825-.03 1.99 1.99 0 0 1-.705-.411l.373-.544c.146.145.306.255.48.33.174.074.37.09.589.05.23-.043.403-.127.52-.251a.498.498 0 0 0 .129-.462.531.531 0 0 0-.17-.32.817.817 0 0 0-.326-.16 2.356 2.356 0 0 0-.416-.083 11.3 11.3 0 0 1-.451-.076 1.987 1.987 0 0 1-.429-.148 1.007 1.007 0 0 1-.343-.287 1.179 1.179 0 0 1-.206-.51 1.085 1.085 0 0 1 .062-.658c.091-.198.231-.361.42-.491.189-.13.411-.219.665-.266a1.6 1.6 0 0 1 1.309.347l-.373.544a1.59 1.59 0 0 0-.428-.247.753.753 0 0 0-.414-.04c-.222.042-.384.118-.487.227-.104.106-.14.244-.108.414a.455.455 0 0 0 .165.29c.09.061.199.109.329.142.128.03.267.055.414.077.152.02.305.048.459.08.154.033.299.086.436.16.136.068.254.17.353.303.102.133.175.31.216.533.07.373-.008.693-.233.961-.222.267-.556.443-1.005.526zm.005.554-1-5.358.476-.089 1 5.358-.476.09zm3.577-3.914a.86.86 0 0 1-.81-.28.833.833 0 0 1-.193-.408.807.807 0 0 1 .034-.443.873.873 0 0 1 .247-.36.838.838 0 0 1 .408-.194.835.835 0 0 1 .449.034c.145.05.267.132.367.245a.813.813 0 0 1 .192.402.841.841 0 0 1-.034.45.846.846 0 0 1-.66.554zm-.094-.506a.317.317 0 0 0 .22-.14.35.35 0 0 0 .044-.26.317.317 0 0 0-.14-.22.31.31 0 0 0-.25-.053.323.323 0 0 0-.259.393c.018.1.063.176.135.228.071.052.154.07.25.052zm2.324 2.782a.86.86 0 0 1-.81-.28.833.833 0 0 1-.193-.407.798.798 0 0 1 .034-.444.863.863 0 0 1 .247-.36.84.84 0 0 1 .407-.194.838.838 0 0 1 .45.034c.145.05.267.133.366.245a.796.796 0 0 1 .192.402.831.831 0 0 1-.033.45.85.85 0 0 1-.66.554zm-.095-.506a.319.319 0 0 0 .221-.14.337.337 0 0 0 .049-.261.33.33 0 0 0-.395-.271.31.31 0 0 0-.215.138.347.347 0 0 0-.045.255c.019.1.064.175.135.227a.31.31 0 0 0 .25.052zm-2.447.919 1.896-4.666.649-.121-1.896 4.666-.649.12z" fill="#826FFC"/><path d="M179.024 131.344a62.945 62.945 0 0 0 4.577 3.415 60.729 60.729 0 0 0 3.564 2.241 62.529 62.529 0 0 0 22.748 7.925 60.36 60.36 0 0 0 7.708.608c.419.027.837.027 1.256.027 5.076 0 10.031-.608 14.756-1.742a62.603 62.603 0 0 0 19.17-8.181 56.625 56.625 0 0 0 6.035-4.415 61.534 61.534 0 0 0 7.547-7.33 67.571 67.571 0 0 0 3.037-3.78c-4.293-10.166-12.137-24.733-22.829-28.297-16.835-5.616-52.705 2.295-52.705 2.295s-12.285 5.967-14.864 37.234z" fill="#fff"/><path d="M187.164 136.997a62.566 62.566 0 0 0 22.748 7.925c2.525.364 5.09.567 7.709.607.418.027.837.027 1.255.027 5.077 0 10.031-.607 14.756-1.742a62.598 62.598 0 0 0 19.171-8.181 56.604 56.604 0 0 0 6.034-4.414c-.108-16.457-1.35-31.496-5.332-35.088-1.998-1.809-4.388-3.226-6.912-4.32-5.846-2.524-12.38-3.375-16.673-3.658-2.849-.19-4.698-.122-4.698-.122s-3.821.149-8.951.716c-1.418.175-2.849.35-4.347.567-8.735 1.255-18.968 3.699-21.614 8.316-2.282 3.969-3.011 21.749-3.146 39.367z" fill="#fff"/><path d="m206.794 55.066 26.015 19.697s14.175-14.229 8.411-22.356c-3.578-5.063-10.814-7.493-15.769-8.613a67.15 67.15 0 0 0-1.593-.324c-2.133-.419-3.564-.54-3.564-.54l-.013.08c-.905-.337-9.923-6.857-14.864-4.697-6.789 2.956 1.377 16.753 1.377 16.753z" fill="#000"/><path d="m230.11 77.844.857 13.978s-2.275 4.173-10.41 5.34c-6.062.869-8.285-.377-8.285-.377l.414-7.131.413-6.956 14.566-4.154 2.445-.7z" fill="#F8CEC1"/><path d="M227.666 78.543c-.012.383-.13.844-.324 1.374-2.699 7.174-11.158 9.205-14.656 9.735l.413-6.955 14.567-4.154z" fill="#000"/><path d="M208.029 51.028s-6.26 17.976-2.771 27.536c3.489 9.56 12.271 7.337 17.453 5.038 5.18-2.298 7.401-5.755 7.401-5.755s5.104 1.304 8.076-3.58c2.971-4.88.514-10.037-2.421-11.036-2.935-.999-6.155 1.313-6.155 1.313l2.259-5.259c.002.002-13.113-24.827-23.842-8.257z" fill="#F8CEC1"/><path d="M230.558 72.18a.67.67 0 0 0 .427-.153l6.02-4.915a.677.677 0 0 0 .096-.95.679.679 0 0 0-.951-.097l-6.02 4.916a.676.676 0 0 0 .428 1.199z" fill="#000"/><path d="M236.295 71.743a.676.676 0 0 0 .125-1.338l-4.212-.814a.675.675 0 1 0-.257 1.324l4.213.814a.54.54 0 0 0 .131.014zM220.135 58.553a.673.673 0 0 0 .508-1.12c-2.095-2.397-4.666-1.774-5.732-1.11a.676.676 0 0 0 .712 1.147c.222-.134 2.182-1.23 4.006.852.132.152.319.23.506.23zM206.556 57.971c.165 0 .331-.06.462-.182 1.33-1.246 2.867-.513 2.931-.482a.676.676 0 0 0 .61-1.204c-.097-.05-2.423-1.204-4.464.7a.675.675 0 0 0 .461 1.169zM209.725 71.128a.675.675 0 0 0 .635-.907c-1.777-4.85.534-7.661.634-7.779a.676.676 0 0 0-1.023-.88c-.122.14-2.939 3.494-.879 9.122.1.276.358.444.633.444zM207.03 64.685a.674.674 0 0 0 .659-.537l.679-3.26a.675.675 0 1 0-1.32-.277l-.679 3.26a.674.674 0 0 0 .661.814zM217.242 64.921a.674.674 0 0 0 .659-.537l.679-3.259a.673.673 0 0 0-.524-.798.678.678 0 0 0-.798.523l-.679 3.259a.673.673 0 0 0 .663.812z" fill="#000"/><path d="M206.797 55.066s1.346-2.903 4.831-3.14c3.486-.238 5.671 2.092 5.671 2.092s-1.169 5.966 3.764 8.794c4.933 2.829 8.549 1.731 8.549 1.731l3.364-1.436 2.214-5.18-10.607-10.112-13.294-6.006-6.197 6.36 1.705 6.897zM213.584 76.483c.544 0 3.764-.138 5.02-3.305a.676.676 0 0 0-1.255-.497c-.996 2.515-3.739 2.45-3.793 2.452a.68.68 0 0 0-.698.65.676.676 0 0 0 .652.698c.009 0 .034.002.074.002z" fill="#000"/><path d="M216.084 98.246c9.152 0 16.116-6.338 16.454-6.65a.676.676 0 0 0-.918-.991c-.089.084-9.206 8.371-19.821 5.777a.676.676 0 0 0-.32 1.31c1.579.387 3.121.554 4.605.554z" fill="#F2F2F2"/><path d="M167.886 119.53c.175.243.337.473.513.702a64.134 64.134 0 0 0 10.625 11.111 61.881 61.881 0 0 0 4.536 3.389l11.718-4.996-4.197-33.166-23.195 22.96z" fill="#fff"/></g><defs><linearGradient id="c" x1="136.997" y1="269.493" x2="217.779" y2="-7.497" gradientUnits="userSpaceOnUse"><stop stop-color="#fff"/><stop offset="1" stop-color="#fff" stop-opacity="0"/></linearGradient><linearGradient id="d" x1="71.615" y1="187.938" x2="170.248" y2="36.909" gradientUnits="userSpaceOnUse"><stop stop-color="#fff"/><stop offset="1" stop-color="#fff" stop-opacity="0"/></linearGradient><clipPath id="a"><rect width="287" height="120" rx="10.004" fill="#fff"/></clipPath><clipPath id="b"><path fill="#fff" transform="matrix(-1 0 0 1 334.141 8)" d="M0 0h180v167.474H0z"/></clipPath></defs></svg>