<svg xmlns="http://www.w3.org/2000/svg" width="46" height="46" viewBox="0 0 46 46" fill="none">
                <rect x="1.31392" y="1.17854" width="43.8029" height="43.8029" rx="21.9015" stroke="white" stroke-width="1.413"/>
                <path d="M32.4356 15.2299C30.7892 14.4596 29.0288 13.8998 27.1884 13.5811C26.9623 13.9897 26.6983 14.5393 26.5162 14.9766C24.5598 14.6824 22.6213 14.6824 20.7009 14.9766C20.5188 14.5393 20.2488 13.9897 20.0207 13.5811C18.1783 13.8998 16.4159 14.4617 14.7695 15.234C11.4487 20.2522 10.5485 25.1456 10.9986 29.9696C13.2011 31.6144 15.3356 32.6136 17.4341 33.2674C17.9522 32.5543 18.4143 31.7963 18.8124 30.9974C18.0543 30.7093 17.3281 30.3538 16.642 29.941C16.824 29.8062 17.002 29.6652 17.1741 29.5201C21.359 31.4775 25.9061 31.4775 30.041 29.5201C30.2151 29.6652 30.3931 29.8062 30.5732 29.941C29.885 30.3558 29.1568 30.7113 28.3987 30.9994C28.7968 31.7963 29.2569 32.5564 29.777 33.2694C31.8775 32.6156 34.014 31.6165 36.2165 29.9696C36.7446 24.3774 35.3143 19.5288 32.4356 15.2299ZM19.3826 27.0029C18.1263 27.0029 17.096 25.8301 17.096 24.4019C17.096 22.9737 18.1043 21.7989 19.3826 21.7989C20.6609 21.7989 21.6911 22.9716 21.6691 24.4019C21.6711 25.8301 20.6609 27.0029 19.3826 27.0029ZM27.8325 27.0029C26.5763 27.0029 25.546 25.8301 25.546 24.4019C25.546 22.9737 26.5542 21.7989 27.8325 21.7989C29.1108 21.7989 30.1411 22.9716 30.1191 24.4019C30.1191 25.8301 29.1108 27.0029 27.8325 27.0029Z" fill="white"/>
              </svg>