<svg xmlns="http://www.w3.org/2000/svg" width="46" height="46" viewBox="0 0 46 46" fill="none">
                <rect x="1.0981" y="1.17854" width="43.8029" height="43.8029" rx="21.9015" stroke="white" stroke-width="1.413"/>
                <g clip-path="url(#clip0_1223_8574)">
                <path d="M23.1088 18.5968C21.8909 18.5968 20.7229 19.0806 19.8616 19.9418C19.0004 20.8031 18.5166 21.9711 18.5166 23.189C18.5166 24.407 19.0004 25.575 19.8616 26.4362C20.7229 27.2975 21.8909 27.7813 23.1088 27.7813C24.3268 27.7813 25.4948 27.2975 26.356 26.4362C27.2173 25.575 27.7011 24.407 27.7011 23.189C27.7011 21.9711 27.2173 20.8031 26.356 19.9418C25.4948 19.0806 24.3268 18.5968 23.1088 18.5968Z" fill="white"/>
                <path fill-rule="evenodd" clip-rule="evenodd" d="M15.7187 10.5879C20.6303 10.0435 25.587 10.0435 30.4986 10.5879C33.1819 10.8874 35.3452 12.9999 35.6603 15.693C36.2428 20.6734 36.2428 25.7046 35.6603 30.6849C35.3452 33.3781 33.1819 35.4905 30.5001 35.7915C25.588 36.3361 20.6308 36.3361 15.7187 35.7915C13.0354 35.4905 10.8721 33.3781 10.557 30.6864C9.97448 25.7056 9.97448 20.6738 10.557 15.693C10.8721 12.9999 13.0354 10.8874 15.7187 10.5879ZM30.1737 14.711C29.7989 14.711 29.4395 14.8599 29.1745 15.1249C28.9095 15.3899 28.7607 15.7493 28.7607 16.124C28.7607 16.4988 28.9095 16.8582 29.1745 17.1231C29.4395 17.3881 29.7989 17.537 30.1737 17.537C30.5484 17.537 30.9078 17.3881 31.1728 17.1231C31.4378 16.8582 31.5867 16.4988 31.5867 16.124C31.5867 15.7493 31.4378 15.3899 31.1728 15.1249C30.9078 14.8599 30.5484 14.711 30.1737 14.711ZM16.3969 23.189C16.3969 21.4089 17.1041 19.7018 18.3628 18.4431C19.6215 17.1844 21.3286 16.4773 23.1087 16.4773C24.8887 16.4773 26.5959 17.1844 27.8546 18.4431C29.1133 19.7018 29.8204 21.4089 29.8204 23.189C29.8204 24.9691 29.1133 26.6762 27.8546 27.9349C26.5959 29.1936 24.8887 29.9007 23.1087 29.9007C21.3286 29.9007 19.6215 29.1936 18.3628 27.9349C17.1041 26.6762 16.3969 24.9691 16.3969 23.189Z" fill="white"/>
                </g>
                <defs>
                <clipPath id="clip0_1223_8574">
                <rect width="25.4339" height="25.4339" fill="white" transform="translate(10.3916 10.472)"/>
                </clipPath>
                </defs>
              </svg>