<svg xmlns="http://www.w3.org/2000/svg" width="46" height="46" viewBox="0 0 46 46" fill="none">
                    <rect x="0.88228" y="1.17854" width="43.8029" height="43.8029" rx="21.9015" stroke="white" stroke-width="1.413"/>
                    <path d="M34.2878 16.378C30.369 10.3029 22.344 8.50293 16.1377 12.2717C10.0814 16.0405 8.13144 24.253 12.0502 30.3092L12.3689 30.7967L11.0564 35.7093L15.969 34.3968L16.4565 34.7155C18.5752 35.8593 20.8815 36.5155 23.169 36.5155C25.6252 36.5155 28.0815 35.8593 30.2002 34.5468C36.2565 30.6092 38.0565 22.5655 34.2878 16.3405V16.378ZM30.8565 29.0155C30.2002 29.9905 29.3752 30.6467 28.2315 30.8155C27.5752 30.8155 26.7502 31.1342 23.4877 29.8405C20.7127 28.528 18.4065 26.3905 16.7752 23.9342C15.8002 22.7905 15.294 21.3092 15.144 19.828C15.144 18.5155 15.6315 17.3717 16.4565 16.5467C16.7752 16.228 17.1127 16.0592 17.4315 16.0592H18.2565C18.5752 16.0592 18.9127 16.0592 19.0815 16.7155C19.4002 17.5405 20.2252 19.5092 20.2252 19.678C20.394 19.8467 20.319 21.103 19.569 21.8155C19.1565 22.2842 19.0815 22.303 19.2502 22.6405C19.9065 23.6155 20.7315 24.6092 21.5377 25.4342C22.5127 26.2592 23.5065 26.9155 24.6502 27.403C24.969 27.5717 25.3065 27.5717 25.4752 27.2342C25.644 26.9155 26.4502 26.0905 26.7877 25.753C27.1065 25.4342 27.2752 25.4342 27.6127 25.5842L30.2377 26.8967C30.5565 27.0655 30.894 27.2155 31.0627 27.3842C31.2315 27.8717 31.2315 28.528 30.894 29.0155H30.8565Z" fill="white"/>
                  </svg>