<svg xmlns="http://www.w3.org/2000/svg" width="46" height="46" viewBox="0 0 46 46" fill="none">
<rect x="0.88228" y="0.706499" width="43.8029" height="43.8029" rx="21.9015" stroke="white" stroke-width="1.413"/>
<path d="M34.2887 15.9059C30.37 9.83089 22.345 8.03088 16.1387 11.7996C10.0824 15.5684 8.13241 23.7809 12.0512 29.8372L12.3699 30.3247L11.0574 35.2372L15.9699 33.9247L16.4574 34.2435C18.5762 35.3872 20.8824 36.0435 23.17 36.0435C25.6262 36.0435 28.0825 35.3872 30.2012 34.0747C36.2575 30.1372 38.0575 22.0934 34.2887 15.8684V15.9059ZM30.8575 28.5434C30.2012 29.5184 29.3762 30.1747 28.2325 30.3434C27.5762 30.3434 26.7512 30.6622 23.4887 29.3684C20.7137 28.0559 18.4074 25.9184 16.7762 23.4622C15.8012 22.3184 15.2949 20.8372 15.1449 19.3559C15.1449 18.0434 15.6324 16.8997 16.4574 16.0747C16.7762 15.7559 17.1137 15.5872 17.4324 15.5872H18.2574C18.5762 15.5872 18.9137 15.5872 19.0824 16.2434C19.4012 17.0684 20.2262 19.0372 20.2262 19.2059C20.3949 19.3747 20.3199 20.6309 19.5699 21.3434C19.1574 21.8122 19.0824 21.8309 19.2512 22.1684C19.9074 23.1434 20.7324 24.1372 21.5387 24.9622C22.5137 25.7872 23.5075 26.4434 24.6512 26.9309C24.97 27.0997 25.3075 27.0997 25.4762 26.7622C25.645 26.4434 26.4512 25.6184 26.7887 25.2809C27.1075 24.9622 27.2762 24.9622 27.6137 25.1122L30.2387 26.4247C30.5575 26.5934 30.895 26.7434 31.0637 26.9122C31.2325 27.3997 31.2325 28.0559 30.895 28.5434H30.8575Z" fill="white"/>
</svg>