<svg width="142" height="58" viewBox="0 0 142 58" fill="none" xmlns="http://www.w3.org/2000/svg">
<g clip-path="url(#clip0_2407_31896)">
<circle cx="14" cy="14" r="12" fill="#DAE3EA"/>
<path fill-rule="evenodd" clip-rule="evenodd" d="M16.293 11.7144C16.293 12.9773 15.2701 14.0001 14.0073 14.0001C12.7444 14.0001 11.7215 12.9773 11.7215 11.7144C11.7215 10.4516 12.7444 9.42871 14.0073 9.42871C15.2701 9.42871 16.293 10.4516 16.293 11.7144ZM9.43359 17.4287C9.43359 15.9087 12.4793 15.143 14.005 15.143C15.5307 15.143 18.5765 15.9087 18.5765 17.4287V18.0001C18.5765 18.3144 18.3193 18.5716 18.005 18.5716H10.005C9.69074 18.5716 9.43359 18.3144 9.43359 18.0001V17.4287Z" fill="#94A3B1"/>
</g>
<rect x="1.25" y="1.25" width="25.5" height="25.5" rx="12.75" stroke="white" stroke-width="1.5"/>
<g clip-path="url(#clip1_2407_31896)">
<circle cx="30" cy="14" r="12" fill="#DAE3EA"/>
<path fill-rule="evenodd" clip-rule="evenodd" d="M32.293 11.7144C32.293 12.9773 31.2701 14.0001 30.0073 14.0001C28.7444 14.0001 27.7215 12.9773 27.7215 11.7144C27.7215 10.4516 28.7444 9.42871 30.0073 9.42871C31.2701 9.42871 32.293 10.4516 32.293 11.7144ZM25.4336 17.4287C25.4336 15.9087 28.4793 15.143 30.005 15.143C31.5307 15.143 34.5765 15.9087 34.5765 17.4287V18.0001C34.5765 18.3144 34.3193 18.5716 34.005 18.5716H26.005C25.6907 18.5716 25.4336 18.3144 25.4336 18.0001V17.4287Z" fill="#94A3B1"/>
</g>
<rect x="17.25" y="1.25" width="25.5" height="25.5" rx="12.75" stroke="white" stroke-width="1.5"/>
<g clip-path="url(#clip2_2407_31896)">
<circle cx="46" cy="14" r="12" fill="#DAE3EA"/>
<path fill-rule="evenodd" clip-rule="evenodd" d="M48.293 11.7144C48.293 12.9773 47.2701 14.0001 46.0073 14.0001C44.7444 14.0001 43.7215 12.9773 43.7215 11.7144C43.7215 10.4516 44.7444 9.42871 46.0073 9.42871C47.2701 9.42871 48.293 10.4516 48.293 11.7144ZM41.4336 17.4287C41.4336 15.9087 44.4793 15.143 46.005 15.143C47.5307 15.143 50.5765 15.9087 50.5765 17.4287V18.0001C50.5765 18.3144 50.3193 18.5716 50.005 18.5716H42.005C41.6907 18.5716 41.4336 18.3144 41.4336 18.0001V17.4287Z" fill="#94A3B1"/>
</g>
<rect x="33.25" y="1.25" width="25.5" height="25.5" rx="12.75" stroke="white" stroke-width="1.5"/>
<g clip-path="url(#clip3_2407_31896)">
<circle cx="62" cy="14" r="12" fill="#DAE3EA"/>
<path fill-rule="evenodd" clip-rule="evenodd" d="M64.293 11.7144C64.293 12.9773 63.2701 14.0001 62.0073 14.0001C60.7444 14.0001 59.7215 12.9773 59.7215 11.7144C59.7215 10.4516 60.7444 9.42871 62.0073 9.42871C63.2701 9.42871 64.293 10.4516 64.293 11.7144ZM57.4336 17.4287C57.4336 15.9087 60.4793 15.143 62.005 15.143C63.5307 15.143 66.5765 15.9087 66.5765 17.4287V18.0001C66.5765 18.3144 66.3193 18.5716 66.005 18.5716H58.005C57.6907 18.5716 57.4336 18.3144 57.4336 18.0001V17.4287Z" fill="#94A3B1"/>
</g>
<rect x="49.25" y="1.25" width="25.5" height="25.5" rx="12.75" stroke="white" stroke-width="1.5"/>
<g clip-path="url(#clip4_2407_31896)">
<circle cx="78" cy="14" r="12" fill="#DAE3EA"/>
<path fill-rule="evenodd" clip-rule="evenodd" d="M80.293 11.7144C80.293 12.9773 79.2701 14.0001 78.0073 14.0001C76.7444 14.0001 75.7215 12.9773 75.7215 11.7144C75.7215 10.4516 76.7444 9.42871 78.0073 9.42871C79.2701 9.42871 80.293 10.4516 80.293 11.7144ZM73.4336 17.4287C73.4336 15.9087 76.4793 15.143 78.005 15.143C79.5307 15.143 82.5765 15.9087 82.5765 17.4287V18.0001C82.5765 18.3144 82.3193 18.5716 82.005 18.5716H74.005C73.6907 18.5716 73.4336 18.3144 73.4336 18.0001V17.4287Z" fill="#94A3B1"/>
</g>
<rect x="65.25" y="1.25" width="25.5" height="25.5" rx="12.75" stroke="white" stroke-width="1.5"/>
<path d="M6.08 51.2V47.76H2.64V46.64H6.08V43.2H7.2V46.64H10.64V47.76H7.2V51.2H6.08ZM15.5133 52.208C14.8306 52.208 14.2093 52.0427 13.6493 51.712C13.0946 51.3813 12.6546 50.9387 12.3293 50.384C12.0039 49.824 11.8413 49.2107 11.8413 48.544H12.9613C12.9613 49.008 13.0759 49.4347 13.3053 49.824C13.5346 50.208 13.8413 50.5147 14.2253 50.744C14.6146 50.9733 15.0439 51.088 15.5133 51.088C15.9773 51.088 16.4013 50.9733 16.7853 50.744C17.1693 50.5147 17.4759 50.208 17.7053 49.824C17.9399 49.4347 18.0573 49.008 18.0573 48.544C18.0573 48.0747 17.9453 47.648 17.7213 47.264C17.5026 46.8747 17.1906 46.5653 16.7853 46.336C16.3853 46.1013 15.9079 45.984 15.3533 45.984H12.6333L13.6893 40.8H18.9293V41.92H14.5933L14.0093 44.864L15.3133 44.872C16.0759 44.8827 16.7453 45.0453 17.3213 45.36C17.9026 45.6747 18.3559 46.1067 18.6813 46.656C19.0119 47.2 19.1773 47.8293 19.1773 48.544C19.1773 49.0453 19.0813 49.5173 18.8893 49.96C18.7026 50.4027 18.4386 50.7947 18.0973 51.136C17.7613 51.472 17.3719 51.736 16.9293 51.928C16.4919 52.1147 16.0199 52.208 15.5133 52.208ZM24.4323 52.208C23.7603 52.208 23.1603 52.0587 22.6323 51.76C22.1043 51.456 21.6536 51.0373 21.2803 50.504C20.9069 49.9707 20.6216 49.3547 20.4243 48.656C20.2323 47.952 20.1363 47.2 20.1363 46.4C20.1363 45.6 20.2323 44.848 20.4243 44.144C20.6216 43.44 20.9069 42.824 21.2803 42.296C21.6536 41.7627 22.1043 41.3467 22.6323 41.048C23.1603 40.744 23.7603 40.592 24.4323 40.592C25.0989 40.592 25.6963 40.744 26.2243 41.048C26.7523 41.3467 27.2003 41.7627 27.5683 42.296C27.9363 42.824 28.2163 43.44 28.4083 44.144C28.6056 44.848 28.7043 45.6 28.7043 46.4C28.7043 47.2 28.6056 47.952 28.4083 48.656C28.2163 49.3547 27.9363 49.9707 27.5683 50.504C27.2003 51.0373 26.7523 51.456 26.2243 51.76C25.6963 52.0587 25.0989 52.208 24.4323 52.208ZM24.4323 51.088C25.1363 51.088 25.7256 50.872 26.2003 50.44C26.6803 50.008 27.0403 49.4373 27.2803 48.728C27.5203 48.0133 27.6403 47.2373 27.6403 46.4C27.6403 45.5147 27.5149 44.72 27.2643 44.016C27.0189 43.3067 26.6563 42.7467 26.1763 42.336C25.7016 41.92 25.1203 41.712 24.4323 41.712C23.8883 41.712 23.4136 41.8373 23.0083 42.088C22.6029 42.3387 22.2669 42.6827 22.0003 43.12C21.7336 43.5573 21.5336 44.0587 21.4003 44.624C21.2669 45.184 21.2003 45.776 21.2003 46.4C21.2003 47.2427 21.3229 48.0213 21.5683 48.736C21.8136 49.4453 22.1763 50.016 22.6563 50.448C23.1363 50.8747 23.7283 51.088 24.4323 51.088ZM33.9913 52V44H35.1113V45.104C35.3993 44.6987 35.7673 44.376 36.2153 44.136C36.6633 43.896 37.1539 43.776 37.6873 43.776C38.2899 43.776 38.8419 43.9253 39.3433 44.224C39.8446 44.5173 40.2366 44.9093 40.5193 45.4C40.8019 44.9093 41.1913 44.5173 41.6873 44.224C42.1833 43.9253 42.7326 43.776 43.3353 43.776C43.9379 43.776 44.4873 43.9227 44.9833 44.216C45.4793 44.5093 45.8739 44.904 46.1673 45.4C46.4606 45.896 46.6073 46.4453 46.6073 47.048V52H45.4873V47.296C45.4873 46.8693 45.3833 46.4747 45.1753 46.112C44.9673 45.7493 44.6873 45.4587 44.3353 45.24C43.9886 45.016 43.6019 44.904 43.1753 44.904C42.7486 44.904 42.3593 45.008 42.0073 45.216C41.6606 45.4187 41.3833 45.7013 41.1753 46.064C40.9673 46.4213 40.8633 46.832 40.8633 47.296V52H39.7433V47.296C39.7433 46.832 39.6393 46.4213 39.4313 46.064C39.2233 45.7013 38.9433 45.4187 38.5913 45.216C38.2393 45.008 37.8499 44.904 37.4233 44.904C37.0019 44.904 36.6153 45.016 36.2633 45.24C35.9113 45.4587 35.6313 45.7493 35.4233 46.112C35.2153 46.4747 35.1113 46.8693 35.1113 47.296V52H33.9913ZM51.5738 52.208C50.8378 52.208 50.1658 52.0187 49.5578 51.64C48.9551 51.2613 48.4724 50.7547 48.1098 50.12C47.7524 49.48 47.5738 48.7733 47.5738 48C47.5738 47.4133 47.6778 46.8667 47.8858 46.36C48.0938 45.848 48.3791 45.4 48.7418 45.016C49.1098 44.6267 49.5364 44.3227 50.0218 44.104C50.5071 43.8853 51.0244 43.776 51.5738 43.776C52.3098 43.776 52.9791 43.9653 53.5818 44.344C54.1898 44.7227 54.6724 45.232 55.0298 45.872C55.3924 46.512 55.5738 47.2213 55.5738 48C55.5738 48.5813 55.4698 49.1253 55.2618 49.632C55.0538 50.1387 54.7658 50.5867 54.3978 50.976C54.0351 51.36 53.6111 51.6613 53.1258 51.88C52.6458 52.0987 52.1284 52.208 51.5738 52.208ZM51.5738 51.088C52.1178 51.088 52.6058 50.9467 53.0378 50.664C53.4751 50.376 53.8191 49.9973 54.0698 49.528C54.3258 49.0587 54.4538 48.5493 54.4538 48C54.4538 47.44 54.3258 46.9253 54.0698 46.456C53.8138 45.9813 53.4671 45.6027 53.0298 45.32C52.5978 45.0373 52.1124 44.896 51.5738 44.896C51.0298 44.896 50.5391 45.04 50.1018 45.328C49.6698 45.6107 49.3258 45.9867 49.0698 46.456C48.8191 46.9253 48.6938 47.44 48.6938 48C48.6938 48.576 48.8244 49.0987 49.0858 49.568C49.3471 50.032 49.6964 50.4027 50.1338 50.68C50.5711 50.952 51.0511 51.088 51.5738 51.088ZM56.9288 52V44H58.0488V45.104C58.3314 44.6987 58.6994 44.376 59.1528 44.136C59.6061 43.896 60.0994 43.776 60.6328 43.776C60.9421 43.776 61.2408 43.816 61.5288 43.896L61.0728 45.008C60.8488 44.9387 60.6301 44.904 60.4168 44.904C59.9848 44.904 59.5874 45.0107 59.2248 45.224C58.8674 45.4373 58.5821 45.7227 58.3688 46.08C58.1554 46.4373 58.0488 46.8347 58.0488 47.272V52H56.9288ZM65.6363 52.208C64.9003 52.208 64.2283 52.0187 63.6203 51.64C63.0176 51.2613 62.5349 50.7547 62.1723 50.12C61.8149 49.48 61.6363 48.7733 61.6363 48C61.6363 47.4133 61.7403 46.8667 61.9483 46.36C62.1563 45.848 62.4416 45.4 62.8043 45.016C63.1723 44.6267 63.5989 44.3227 64.0843 44.104C64.5696 43.8853 65.0869 43.776 65.6363 43.776C66.2283 43.776 66.7723 43.8933 67.2683 44.128C67.7696 44.3627 68.1989 44.6907 68.5563 45.112C68.9189 45.5333 69.1909 46.0267 69.3723 46.592C69.5589 47.1573 69.6363 47.768 69.6042 48.424H62.8203C62.8843 48.9307 63.0443 49.384 63.3003 49.784C63.5616 50.184 63.8923 50.5013 64.2923 50.736C64.6976 50.9653 65.1456 51.0827 65.6363 51.088C66.1696 51.088 66.6496 50.9493 67.0763 50.672C67.5083 50.3947 67.8549 50.0133 68.1163 49.528L69.2523 49.792C68.9323 50.5013 68.4496 51.0827 67.8043 51.536C67.1589 51.984 66.4363 52.208 65.6363 52.208ZM62.7883 47.52H68.4763C68.4389 47.024 68.2869 46.5707 68.0203 46.16C67.7589 45.744 67.4203 45.4133 67.0043 45.168C66.5883 44.9173 66.1323 44.792 65.6363 44.792C65.1403 44.792 64.6869 44.9147 64.2763 45.16C63.8656 45.4 63.5296 45.728 63.2682 46.144C63.0069 46.5547 62.8469 47.0133 62.7883 47.52ZM74.8975 52V44H76.0175V45.104C76.3055 44.6987 76.6735 44.376 77.1215 44.136C77.5695 43.896 78.0602 43.776 78.5935 43.776C79.1962 43.776 79.7482 43.9253 80.2495 44.224C80.7508 44.5173 81.1428 44.9093 81.4255 45.4C81.7082 44.9093 82.0975 44.5173 82.5935 44.224C83.0895 43.9253 83.6388 43.776 84.2415 43.776C84.8442 43.776 85.3935 43.9227 85.8895 44.216C86.3855 44.5093 86.7802 44.904 87.0735 45.4C87.3668 45.896 87.5135 46.4453 87.5135 47.048V52H86.3935V47.296C86.3935 46.8693 86.2895 46.4747 86.0815 46.112C85.8735 45.7493 85.5935 45.4587 85.2415 45.24C84.8948 45.016 84.5082 44.904 84.0815 44.904C83.6548 44.904 83.2655 45.008 82.9135 45.216C82.5668 45.4187 82.2895 45.7013 82.0815 46.064C81.8735 46.4213 81.7695 46.832 81.7695 47.296V52H80.6495V47.296C80.6495 46.832 80.5455 46.4213 80.3375 46.064C80.1295 45.7013 79.8495 45.4187 79.4975 45.216C79.1455 45.008 78.7562 44.904 78.3295 44.904C77.9082 44.904 77.5215 45.016 77.1695 45.24C76.8175 45.4587 76.5375 45.7493 76.3295 46.112C76.1215 46.4747 76.0175 46.8693 76.0175 47.296V52H74.8975ZM92.48 52.208C91.744 52.208 91.072 52.0187 90.464 51.64C89.8613 51.2613 89.3787 50.7547 89.016 50.12C88.6587 49.48 88.48 48.7733 88.48 48C88.48 47.4133 88.584 46.8667 88.792 46.36C89 45.848 89.2853 45.4 89.648 45.016C90.016 44.6267 90.4427 44.3227 90.928 44.104C91.4133 43.8853 91.9307 43.776 92.48 43.776C93.072 43.776 93.616 43.8933 94.112 44.128C94.6133 44.3627 95.0427 44.6907 95.4 45.112C95.7627 45.5333 96.0347 46.0267 96.216 46.592C96.4027 47.1573 96.48 47.768 96.448 48.424H89.664C89.728 48.9307 89.888 49.384 90.144 49.784C90.4053 50.184 90.736 50.5013 91.136 50.736C91.5413 50.9653 91.9893 51.0827 92.48 51.088C93.0133 51.088 93.4933 50.9493 93.92 50.672C94.352 50.3947 94.6987 50.0133 94.96 49.528L96.096 49.792C95.776 50.5013 95.2933 51.0827 94.648 51.536C94.0027 51.984 93.28 52.208 92.48 52.208ZM89.632 47.52H95.32C95.2827 47.024 95.1307 46.5707 94.864 46.16C94.6027 45.744 94.264 45.4133 93.848 45.168C93.432 44.9173 92.976 44.792 92.48 44.792C91.984 44.792 91.5307 44.9147 91.12 45.16C90.7093 45.4 90.3733 45.728 90.112 46.144C89.8507 46.5547 89.6907 47.0133 89.632 47.52ZM97.8194 52V44H98.9394V45.104C99.2274 44.6987 99.5954 44.376 100.043 44.136C100.491 43.896 100.982 43.776 101.515 43.776C102.118 43.776 102.67 43.9253 103.171 44.224C103.673 44.5173 104.065 44.9093 104.347 45.4C104.63 44.9093 105.019 44.5173 105.515 44.224C106.011 43.9253 106.561 43.776 107.163 43.776C107.766 43.776 108.315 43.9227 108.811 44.216C109.307 44.5093 109.702 44.904 109.995 45.4C110.289 45.896 110.435 46.4453 110.435 47.048V52H109.315V47.296C109.315 46.8693 109.211 46.4747 109.003 46.112C108.795 45.7493 108.515 45.4587 108.163 45.24C107.817 45.016 107.43 44.904 107.003 44.904C106.577 44.904 106.187 45.008 105.835 45.216C105.489 45.4187 105.211 45.7013 105.003 46.064C104.795 46.4213 104.691 46.832 104.691 47.296V52H103.571V47.296C103.571 46.832 103.467 46.4213 103.259 46.064C103.051 45.7013 102.771 45.4187 102.419 45.216C102.067 45.008 101.678 44.904 101.251 44.904C100.83 44.904 100.443 45.016 100.091 45.24C99.7394 45.4587 99.4594 45.7493 99.2514 46.112C99.0434 46.4747 98.9394 46.8693 98.9394 47.296V52H97.8194ZM116.116 43.776C116.894 43.776 117.601 43.9653 118.236 44.344C118.876 44.7227 119.385 45.232 119.764 45.872C120.142 46.5067 120.332 47.2133 120.332 47.992C120.332 48.5733 120.222 49.12 120.003 49.632C119.785 50.1387 119.481 50.5867 119.092 50.976C118.708 51.36 118.26 51.6613 117.748 51.88C117.241 52.0987 116.697 52.208 116.116 52.208C115.454 52.208 114.884 52.0507 114.404 51.736C113.924 51.4213 113.545 51.0107 113.268 50.504V52H112.148V40H113.268V45.48C113.545 44.9733 113.924 44.5627 114.404 44.248C114.884 43.9333 115.454 43.776 116.116 43.776ZM116.108 51.112C116.678 51.112 117.196 50.9733 117.66 50.696C118.124 50.4133 118.494 50.0347 118.772 49.56C119.049 49.0853 119.188 48.5627 119.188 47.992C119.188 47.4053 119.046 46.8773 118.764 46.408C118.481 45.9333 118.105 45.5573 117.636 45.28C117.172 45.0027 116.662 44.864 116.108 44.864C115.542 44.864 115.052 45.0053 114.636 45.288C114.225 45.5707 113.908 45.9493 113.684 46.424C113.465 46.8987 113.356 47.4213 113.356 47.992C113.356 48.5733 113.468 49.1013 113.692 49.576C113.916 50.0453 114.233 50.4187 114.644 50.696C115.06 50.9733 115.548 51.112 116.108 51.112ZM125.136 52.208C124.4 52.208 123.728 52.0187 123.12 51.64C122.518 51.2613 122.035 50.7547 121.672 50.12C121.315 49.48 121.136 48.7733 121.136 48C121.136 47.4133 121.24 46.8667 121.448 46.36C121.656 45.848 121.942 45.4 122.304 45.016C122.672 44.6267 123.099 44.3227 123.584 44.104C124.07 43.8853 124.587 43.776 125.136 43.776C125.728 43.776 126.272 43.8933 126.768 44.128C127.27 44.3627 127.699 44.6907 128.056 45.112C128.419 45.5333 128.691 46.0267 128.872 46.592C129.059 47.1573 129.136 47.768 129.104 48.424H122.32C122.384 48.9307 122.544 49.384 122.8 49.784C123.062 50.184 123.392 50.5013 123.792 50.736C124.198 50.9653 124.646 51.0827 125.136 51.088C125.67 51.088 126.15 50.9493 126.576 50.672C127.008 50.3947 127.355 50.0133 127.616 49.528L128.752 49.792C128.432 50.5013 127.95 51.0827 127.304 51.536C126.659 51.984 125.936 52.208 125.136 52.208ZM122.288 47.52H127.976C127.939 47.024 127.787 46.5707 127.52 46.16C127.259 45.744 126.92 45.4133 126.504 45.168C126.088 44.9173 125.632 44.792 125.136 44.792C124.64 44.792 124.187 44.9147 123.776 45.16C123.366 45.4 123.03 45.728 122.768 46.144C122.507 46.5547 122.347 47.0133 122.288 47.52ZM130.476 52V44H131.596V45.104C131.878 44.6987 132.246 44.376 132.7 44.136C133.153 43.896 133.646 43.776 134.18 43.776C134.489 43.776 134.788 43.816 135.076 43.896L134.62 45.008C134.396 44.9387 134.177 44.904 133.964 44.904C133.532 44.904 133.134 45.0107 132.772 45.224C132.414 45.4373 132.129 45.7227 131.916 46.08C131.702 46.4373 131.596 46.8347 131.596 47.272V52H130.476ZM138.557 52.152C138.12 52.1413 137.693 52.0613 137.277 51.912C136.861 51.7627 136.498 51.56 136.189 51.304C135.88 51.048 135.658 50.7573 135.525 50.432L136.493 50.016C136.578 50.224 136.736 50.416 136.965 50.592C137.2 50.7627 137.466 50.9013 137.765 51.008C138.064 51.1093 138.36 51.16 138.653 51.16C138.978 51.16 139.282 51.1067 139.565 51C139.848 50.8933 140.077 50.7413 140.253 50.544C140.434 50.3413 140.525 50.104 140.525 49.832C140.525 49.5387 140.429 49.3093 140.237 49.144C140.045 48.9733 139.802 48.84 139.509 48.744C139.216 48.6427 138.914 48.5467 138.605 48.456C138.04 48.3013 137.541 48.1307 137.109 47.944C136.677 47.7573 136.338 47.52 136.093 47.232C135.853 46.9387 135.733 46.5627 135.733 46.104C135.733 45.6187 135.869 45.2 136.141 44.848C136.418 44.4907 136.778 44.216 137.221 44.024C137.669 43.8267 138.146 43.728 138.653 43.728C139.304 43.728 139.896 43.8693 140.429 44.152C140.968 44.4347 141.357 44.8107 141.597 45.28L140.693 45.816C140.597 45.5973 140.445 45.408 140.237 45.248C140.029 45.088 139.792 44.9627 139.525 44.872C139.264 44.7813 138.997 44.7333 138.725 44.728C138.384 44.7227 138.066 44.7733 137.773 44.88C137.48 44.9813 137.242 45.1333 137.061 45.336C136.885 45.5387 136.797 45.7867 136.797 46.08C136.797 46.3733 136.885 46.5973 137.061 46.752C137.237 46.9013 137.474 47.024 137.773 47.12C138.077 47.2107 138.418 47.3173 138.797 47.44C139.282 47.5947 139.738 47.7707 140.165 47.968C140.592 48.1653 140.936 48.4107 141.197 48.704C141.458 48.9973 141.586 49.368 141.581 49.816C141.581 50.296 141.437 50.7147 141.149 51.072C140.861 51.4293 140.488 51.704 140.029 51.896C139.57 52.0827 139.08 52.168 138.557 52.152Z" fill="white"/>
<defs>
<clipPath id="clip0_2407_31896">
<rect x="2" y="2" width="24" height="24" rx="12" fill="white"/>
</clipPath>
<clipPath id="clip1_2407_31896">
<rect x="18" y="2" width="24" height="24" rx="12" fill="white"/>
</clipPath>
<clipPath id="clip2_2407_31896">
<rect x="34" y="2" width="24" height="24" rx="12" fill="white"/>
</clipPath>
<clipPath id="clip3_2407_31896">
<rect x="50" y="2" width="24" height="24" rx="12" fill="white"/>
</clipPath>
<clipPath id="clip4_2407_31896">
<rect x="66" y="2" width="24" height="24" rx="12" fill="white"/>
</clipPath>
</defs>
</svg>
