<svg width="40" height="40" viewBox="0 0 40 40" fill="none" xmlns="http://www.w3.org/2000/svg">
<g id="icon/navigation/close_24px">
<path id="icon/navigation/close_24px_2" d="M30.4992 9.51702C30.1878 9.20493 29.7651 9.02955 29.3242 9.02955C28.8834 9.02955 28.4606 9.20493 28.1492 9.51702L19.9992 17.6504L11.8492 9.50035C11.5378 9.18827 11.1151 9.01288 10.6742 9.01288C10.2334 9.01288 9.8106 9.18827 9.49922 9.50035C8.84922 10.1504 8.84922 11.2004 9.49922 11.8504L17.6492 20.0004L9.49922 28.1504C8.84922 28.8004 8.84922 29.8504 9.49922 30.5004C10.1492 31.1504 11.1992 31.1504 11.8492 30.5004L19.9992 22.3504L28.1492 30.5004C28.7992 31.1504 29.8492 31.1504 30.4992 30.5004C31.1492 29.8504 31.1492 28.8004 30.4992 28.1504L22.3492 20.0004L30.4992 11.8504C31.1326 11.217 31.1326 10.1504 30.4992 9.51702Z" fill="white"/>
</g>
</svg>
